<svg xmlns="http://www.w3.org/2000/svg" viewBox="0 0 98.44 87.39"><defs><style>.cls-1{opacity:0.5;}.cls-2{fill:#fff;}</style></defs><title>calensar-check</title><g id="Capa_2" data-name="Capa 2"><g id="ARTE"><g id="_Grupo_" data-name="&lt;Grupo&gt;" class="cls-1"><g id="_Grupo_2" data-name="&lt;Grupo&gt;"><path id="_Trazado_compuesto_" data-name="&lt;Trazado compuesto&gt;" class="cls-2" d="M74.55,87.39A23.89,23.89,0,1,1,98.44,63.51,23.91,23.91,0,0,1,74.55,87.39Zm0-43.92a20,20,0,1,0,20,20,20.06,20.06,0,0,0-20-20Z"/></g><g id="_Grupo_3" data-name="&lt;Grupo&gt;"><path id="_Trazado_" data-name="&lt;Trazado&gt;" class="cls-2" d="M70.69,77.33a3.85,3.85,0,0,1-2.79-1.19l-6.31-6.63a3.85,3.85,0,0,1,5.58-5.31l3.31,3.48L81.65,54.06a3.85,3.85,0,1,1,6,4.88l-13.93,17a3.85,3.85,0,0,1-2.83,1.41Z"/></g><g id="_Grupo_4" data-name="&lt;Grupo&gt;"><path id="_Trazado_2" data-name="&lt;Trazado&gt;" class="cls-2" d="M68.08,20.52a3.85,3.85,0,0,1-3.85-3.85V3.85a3.85,3.85,0,1,1,7.7,0V16.67a3.85,3.85,0,0,1-3.85,3.85Z"/></g><g id="_Grupo_5" data-name="&lt;Grupo&gt;"><path id="_Trazado_3" data-name="&lt;Trazado&gt;" class="cls-2" d="M19,20.52a3.85,3.85,0,0,1-3.85-3.85V3.85a3.85,3.85,0,1,1,7.7,0V16.67A3.85,3.85,0,0,1,19,20.52Z"/></g><g id="_Grupo_6" data-name="&lt;Grupo&gt;"><path id="_Trazado_4" data-name="&lt;Trazado&gt;" class="cls-2" d="M82.62,33H4.39a1.92,1.92,0,0,1,0-3.85H82.62a1.92,1.92,0,0,1,0,3.85Z"/></g><polygon id="_Trazado_5" data-name="&lt;Trazado&gt;" class="cls-2" points="21.85 40.78 14.38 40.78 14.38 48.24 21.85 48.24 21.85 40.78 21.85 40.78"/><polygon id="_Trazado_6" data-name="&lt;Trazado&gt;" class="cls-2" points="34.76 40.78 27.3 40.78 27.3 48.24 34.76 48.24 34.76 40.78 34.76 40.78"/><polygon id="_Trazado_7" data-name="&lt;Trazado&gt;" class="cls-2" points="47.69 40.78 40.22 40.78 40.22 48.24 47.69 48.24 47.69 40.78 47.69 40.78"/><polygon id="_Trazado_8" data-name="&lt;Trazado&gt;" class="cls-2" points="60.61 40.78 53.14 40.78 53.14 48.24 60.61 48.24 60.61 40.78 60.61 40.78"/><polygon id="_Trazado_9" data-name="&lt;Trazado&gt;" class="cls-2" points="21.85 52.77 14.38 52.77 14.38 60.23 21.85 60.23 21.85 52.77 21.85 52.77"/><polygon id="_Trazado_10" data-name="&lt;Trazado&gt;" class="cls-2" points="34.76 52.77 27.3 52.77 27.3 60.23 34.76 60.23 34.76 52.77 34.76 52.77"/><polygon id="_Trazado_11" data-name="&lt;Trazado&gt;" class="cls-2" points="47.69 52.77 40.22 52.77 40.22 60.23 47.69 60.23 47.69 52.77 47.69 52.77"/><g id="_Grupo_7" data-name="&lt;Grupo&gt;"><path id="_Trazado_12" data-name="&lt;Trazado&gt;" class="cls-2" d="M54.59,76.95H3.85A3.85,3.85,0,0,1,0,73.1V10.26A3.85,3.85,0,0,1,3.85,6.41h79a3.85,3.85,0,0,1,3.85,3.85v32.9H79v-29H7.7V69.25h46.9v7.7Z"/></g></g></g></g></svg>