<svg id="ARTE" xmlns="http://www.w3.org/2000/svg" viewBox="0 0 23.31 19.41"><title>camera</title><g id="_Group_" data-name="&lt;Group&gt;"><g id="_Group_2" data-name="&lt;Group&gt;"><g id="_Group_3" data-name="&lt;Group&gt;"><path id="_Path_" data-name="&lt;Path&gt;" d="M98.57,10091.45a0.5,0.5,0,0,1-.5-0.5v-14.78a0.5,0.5,0,0,1,1,0v14.78a0.5,0.5,0,0,1-.5.5h0Z" transform="translate(-92.16 -10072.59)" style="fill:#f2a41b"/></g><g id="_Group_4" data-name="&lt;Group&gt;"><path id="_Compound_Path_" data-name="&lt;Compound Path&gt;" d="M106.17,10089a5.46,5.46,0,1,1,5.46-5.46,5.47,5.47,0,0,1-5.46,5.46h0Zm0-9.92a4.46,4.46,0,1,0,4.46,4.46,4.46,4.46,0,0,0-4.46-4.46h0Z" transform="translate(-92.16 -10072.59)" style="fill:#f2a41b"/></g><g id="_Group_5" data-name="&lt;Group&gt;"><path id="_Compound_Path_2" data-name="&lt;Compound Path&gt;" d="M113.08,10092H94.55a2.39,2.39,0,0,1-2.38-2.39v-12.12a2.39,2.39,0,0,1,2.38-2.39h6l1.68-2.13a1,1,0,0,1,.79-0.38h6.26a1,1,0,0,1,.79.38l1.67,2.13h1.32a2.39,2.39,0,0,1,2.39,2.39v12.13a2.39,2.39,0,0,1-2.39,2.39h0Zm-18.54-14.9a0.39,0.39,0,0,0-.38.39v12.13a0.39,0.39,0,0,0,.38.39h18.54a0.39,0.39,0,0,0,.39-0.39v-12.12a0.39,0.39,0,0,0-.39-0.39h-1.8a1,1,0,0,1-.79-0.38l-1.68-2.13h-5.29l-1.68,2.13a1,1,0,0,1-.79.38H94.55Z" transform="translate(-92.16 -10072.59)" style="fill:#f2a41b"/></g></g></g></svg>