<svg xmlns="http://www.w3.org/2000/svg" viewBox="0 0 71.44 81.62"><defs><style>.cls-1{opacity:0.5;}.cls-2{fill:#fff;}</style></defs><title>decision</title><g id="Capa_2" data-name="Capa 2"><g id="ARTE"><g id="_Grupo_" data-name="&lt;Grupo&gt;" class="cls-1"><g id="_Grupo_2" data-name="&lt;Grupo&gt;"><path id="_Trazado_compuesto_" data-name="&lt;Trazado compuesto&gt;" class="cls-2" d="M61.39,26.86h0l-46.69-.13a3,3,0,0,1-3-3l0-15.29a3,3,0,0,1,3-3h0l46.69.13a3,3,0,0,1,2.23,1l7,7.66a3,3,0,0,1,0,4.1l-7,7.63a3,3,0,0,1-2.23,1ZM17.74,20.68l42.32.12,4.24-4.6-4.21-4.62-42.32-.12,0,9.23Z"/></g><g id="_Grupo_3" data-name="&lt;Grupo&gt;"><path id="_Trazado_compuesto_2" data-name="&lt;Trazado compuesto&gt;" class="cls-2" d="M56.7,60.89h0L10,60.76a3,3,0,0,1-2.24-1l-7-7.67A3,3,0,0,1,.8,48l7-7.63a3,3,0,0,1,2.23-1h0l46.69.13a3,3,0,0,1,3,3l0,15.29a3,3,0,0,1-3,3ZM11.35,54.7l42.33.12,0-9.23-42.33-.12-4.23,4.6,4.21,4.63Z"/></g><g id="_Grupo_4" data-name="&lt;Grupo&gt;"><path id="_Trazado_" data-name="&lt;Trazado&gt;" class="cls-2" d="M33.59,81.62h0a3,3,0,0,1-3-3L30.61,58a3,3,0,0,1,3-3h0a3,3,0,0,1,3,3l-.05,20.6a3,3,0,0,1-3,3Z"/></g><g id="_Grupo_5" data-name="&lt;Grupo&gt;"><path id="_Trazado_2" data-name="&lt;Trazado&gt;" class="cls-2" d="M33.76,9.28h0a3,3,0,0,1-3-3V3a3,3,0,0,1,3-3h0a3,3,0,0,1,3,3V6.25a3,3,0,0,1-3,3Z"/></g><g id="_Grupo_6" data-name="&lt;Grupo&gt;"><path id="_Trazado_3" data-name="&lt;Trazado&gt;" class="cls-2" d="M33.69,43.7h0a3,3,0,0,1-3-3l0-14.82a3,3,0,0,1,3-3h0a3,3,0,0,1,3,3l0,14.82a3,3,0,0,1-3,3Z"/></g></g></g></g></svg>