<svg xmlns="http://www.w3.org/2000/svg" viewBox="0 0 79.01 92.35"><defs><style>.cls-1{opacity:0.5;}.cls-2{fill:#fff;}</style></defs><title>globe</title><g id="Capa_2" data-name="Capa 2"><g id="ARTE"><g id="_Grupo_" data-name="&lt;Grupo&gt;" class="cls-1"><g id="_Grupo_2" data-name="&lt;Grupo&gt;"><path id="_Trazado_" data-name="&lt;Trazado&gt;" class="cls-2" d="M45.6,79A45.6,45.6,0,0,1,0,33.4,45.29,45.29,0,0,1,13.36,1.16a4,4,0,0,1,5.59,5.59,37.7,37.7,0,0,0,0,53.31,37.7,37.7,0,0,0,53.32,0,4,4,0,0,1,5.59,5.59A45.31,45.31,0,0,1,45.6,79Z"/></g><g id="_Grupo_3" data-name="&lt;Grupo&gt;"><path id="_Trazado_compuesto_" data-name="&lt;Trazado compuesto&gt;" class="cls-2" d="M45.6,66.3A32.9,32.9,0,1,1,78.5,33.4,32.93,32.93,0,0,1,45.6,66.3Zm0-57.89a25,25,0,1,0,25,25,25,25,0,0,0-25-25Z"/></g><g id="_Grupo_4" data-name="&lt;Grupo&gt;"><path id="_Trazado_2" data-name="&lt;Trazado&gt;" class="cls-2" d="M57.13,92.35H34.08a4,4,0,0,1,0-7.91H57.13a4,4,0,1,1,0,7.91Z"/></g><g id="_Grupo_5" data-name="&lt;Grupo&gt;"><path id="_Trazado_3" data-name="&lt;Trazado&gt;" class="cls-2" d="M45.6,88.83a4,4,0,0,1-4-4V75a4,4,0,1,1,7.91,0v9.82a4,4,0,0,1-4,4Z"/></g></g></g></g></svg>