<svg xmlns="http://www.w3.org/2000/svg" viewBox="0 0 71.5 71.5"><defs><style>.cls-1{opacity:0.5;}.cls-2{fill:#fff;}</style></defs><title>graph2</title><g id="Capa_2" data-name="Capa 2"><g id="ARTE"><g id="_Grupo_" data-name="&lt;Grupo&gt;" class="cls-1"><g id="_Grupo_2" data-name="&lt;Grupo&gt;"><path id="_Trazado_" data-name="&lt;Trazado&gt;" class="cls-2" d="M68.5,71.5H3a3,3,0,0,1-3-3V3A3,3,0,0,1,6,3V65.5H68.5a3,3,0,0,1,0,6Z"/></g><g id="_Grupo_3" data-name="&lt;Grupo&gt;"><path id="_Trazado_compuesto_" data-name="&lt;Trazado compuesto&gt;" class="cls-2" d="M24.87,60.62H13.8A2.77,2.77,0,0,1,11,57.85V42.35a2.77,2.77,0,0,1,2.77-2.77H24.87a2.77,2.77,0,0,1,2.77,2.77v15.5a2.77,2.77,0,0,1-2.77,2.77Zm-8.3-5.54H22.1v-10H16.58v10Z"/></g><g id="_Grupo_4" data-name="&lt;Grupo&gt;"><path id="_Trazado_compuesto_2" data-name="&lt;Trazado compuesto&gt;" class="cls-2" d="M67.63,60.62H56.56a2.77,2.77,0,0,1-2.77-2.77V3A2.77,2.77,0,0,1,56.56.23H67.63A2.77,2.77,0,0,1,70.4,3V57.85a2.77,2.77,0,0,1-2.77,2.77Zm-8.3-5.54h5.53V5.77H59.33V55.08Z"/></g><g id="_Grupo_5" data-name="&lt;Grupo&gt;"><path id="_Trazado_compuesto_3" data-name="&lt;Trazado compuesto&gt;" class="cls-2" d="M46.25,60.62H35.19a2.77,2.77,0,0,1-2.77-2.77V23.1a2.77,2.77,0,0,1,2.77-2.77H46.25A2.77,2.77,0,0,1,49,23.1V57.85a2.77,2.77,0,0,1-2.77,2.77ZM38,55.08h5.53V25.87H38V55.08Z"/></g></g></g></g></svg>