<svg xmlns="http://www.w3.org/2000/svg" viewBox="0 0 87.88 87.57"><defs><style>.cls-1{opacity:0.5;}.cls-2{fill:#fff;}</style></defs><title>graph-icon</title><g id="Capa_2" data-name="Capa 2"><g id="ARTE"><g id="_Grupo_" data-name="&lt;Grupo&gt;" class="cls-1"><g id="_Grupo_2" data-name="&lt;Grupo&gt;"><path id="_Trazado_" data-name="&lt;Trazado&gt;" class="cls-2" d="M84.2,87H4c-2,.57-3.67-1.07-4-3.1V3.67A4.17,4.17,0,0,1,4,0C6,0,7.66,1.64,7,3.67V80H84.2a4,4,0,0,1,3.67,3.9,3.67,3.67,0,0,1-3.67,3.67Z"/></g><g id="_Grupo_3" data-name="&lt;Grupo&gt;"><path id="_Trazado_compuesto_" data-name="&lt;Trazado compuesto&gt;" class="cls-2" d="M25.93,72.07A12.25,12.25,0,1,1,38.18,59.82,12.26,12.26,0,0,1,25.93,72.07Zm0-17.14a4.9,4.9,0,1,0,4.9,4.9,4.9,4.9,0,0,0-4.9-4.9Z"/></g><g id="_Grupo_4" data-name="&lt;Grupo&gt;"><path id="_Trazado_compuesto_2" data-name="&lt;Trazado compuesto&gt;" class="cls-2" d="M73.08,63.49A12.25,12.25,0,1,1,85.33,51.24,12.26,12.26,0,0,1,73.08,63.49Zm0-17.14a4.9,4.9,0,1,0,4.9,4.9,4.9,4.9,0,0,0-4.9-4.9Z"/></g><g id="_Grupo_5" data-name="&lt;Grupo&gt;"><path id="_Trazado_compuesto_3" data-name="&lt;Trazado compuesto&gt;" class="cls-2" d="M45.52,35.93A12.25,12.25,0,1,1,57.77,23.69,12.26,12.26,0,0,1,45.52,35.93Zm0-17.14a4.9,4.9,0,1,0,4.9,4.9,4.9,4.9,0,0,0-4.9-4.9Z"/></g><g id="_Grupo_6" data-name="&lt;Grupo&gt;"><path id="_Trazado_2" data-name="&lt;Trazado&gt;" class="cls-2" d="M30.58,54.32a3.67,3.67,0,0,1-3.2-5.47L38,29.86a3.67,3.67,0,0,1,6.41,3.6l-10.65,19a3.67,3.67,0,0,1-3.21,1.88Z"/></g><g id="_Grupo_7" data-name="&lt;Grupo&gt;"><path id="_Trazado_3" data-name="&lt;Trazado&gt;" class="cls-2" d="M67.58,48.2a3.64,3.64,0,0,1-2.49-1L49.16,32.52a3.67,3.67,0,0,1,5-5.4l15.92,14.7a3.67,3.67,0,0,1-2.49,6.37Z"/></g></g></g></g></svg>