<svg xmlns="http://www.w3.org/2000/svg" viewBox="0 0 96.7 83.86"><defs><style>.cls-1{opacity:0.5;}.cls-2{fill:#fff;}</style></defs><title>heart</title><g id="Capa_2" data-name="Capa 2"><g id="ARTE"><g id="_Grupo_" data-name="&lt;Grupo&gt;" class="cls-1"><g id="_Grupo_2" data-name="&lt;Grupo&gt;"><path id="_Trazado_compuesto_" data-name="&lt;Trazado compuesto&gt;" class="cls-2" d="M49,83.86a4.11,4.11,0,0,1-2-.51,4.51,4.51,0,0,1-.52-.34l-1.27-.89c-3-2.11-10.14-7-14.84-10.68-18.05-14.06-27.28-24.19-29-31.9A29.55,29.55,0,0,1,0,30.79,31.16,31.16,0,0,1,8.68,8.62,26.56,26.56,0,0,1,27.59.5h0A27.7,27.7,0,0,1,48.08,9.35,27.38,27.38,0,0,1,68.37,0h.53C84,0,96.48,13.27,96.7,29.58a31,31,0,0,1-1.25,9.15C94,46.11,84.78,56.8,67.38,71.05A175.59,175.59,0,0,1,51.21,83.23a4.08,4.08,0,0,1-2.19.64ZM27.89,8.68a18.58,18.58,0,0,0-13.37,5.67A22.91,22.91,0,0,0,8.19,30.68a22.61,22.61,0,0,0,1.07,6.69c.82,3.51,5.16,11.25,26.17,27.61,4.14,3.2,10.33,7.53,13.65,9.84,3.48-2.4,8-5.84,13.1-10.09C82.72,47.91,86.86,40,87.51,36.76a23.82,23.82,0,0,0,1-7.08c-.15-11.85-9-21.49-19.62-21.49h-.41A19.5,19.5,0,0,0,51.73,18.27a4.08,4.08,0,0,1-3.5,2.07,4.25,4.25,0,0,1-3.55-2A19.57,19.57,0,0,0,27.89,8.68Z"/></g><g id="_Grupo_3" data-name="&lt;Grupo&gt;"><path id="_Trazado_" data-name="&lt;Trazado&gt;" class="cls-2" d="M79.49,37.19a2,2,0,0,1-2-2.46l.29-1.18a12.5,12.5,0,0,0,.5-3.74C78.21,23.42,74,18.42,68.6,18.42a2,2,0,0,1,0-4.09c7.62,0,13.67,6.78,13.78,15.43a16.43,16.43,0,0,1-.66,4.93l-.22.88a2,2,0,0,1-2,1.63Z"/></g></g></g></g></svg>