<svg xmlns="http://www.w3.org/2000/svg" viewBox="0 0 92.27 76.31"><defs><style>.cls-1{opacity:0.5;}.cls-2{fill:#fff;}</style></defs><title>heart-plus</title><g id="Capa_2" data-name="Capa 2"><g id="ARTE"><g id="_Grupo_" data-name="&lt;Grupo&gt;" class="cls-1"><g id="_Grupo_2" data-name="&lt;Grupo&gt;"><path id="_Trazado_compuesto_" data-name="&lt;Trazado compuesto&gt;" class="cls-2" d="M69.63,76.31A22.64,22.64,0,1,1,92.27,53.67,22.67,22.67,0,0,1,69.63,76.31Zm0-41.63a19,19,0,1,0,19,19,19,19,0,0,0-19-19Z"/></g><g id="_Grupo_3" data-name="&lt;Grupo&gt;"><path id="_Trazado_" data-name="&lt;Trazado&gt;" class="cls-2" d="M43.69,74.74a3.66,3.66,0,0,1-1.76-.45,3.74,3.74,0,0,1-.46-.3l-1.1-.77c-2.71-1.88-9-6.29-13.26-9.54C11,51.15,2.79,42.12,1.23,35.24A26.07,26.07,0,0,1,0,27.44,27.75,27.75,0,0,1,7.72,7.68,23.69,23.69,0,0,1,24.59.44,24.26,24.26,0,0,1,42.85,8.33,24.38,24.38,0,0,1,60.93,0,23.46,23.46,0,0,1,78,6.82a28.1,28.1,0,0,1,7.11,27.69,15,15,0,0,1-1,3l-6.65-3a9,9,0,0,0,.63-1.8,21.45,21.45,0,0,0,.89-6.31,20.42,20.42,0,0,0-6-14.39A16.14,16.14,0,0,0,61,7.3a17.37,17.37,0,0,0-15,9A3.65,3.65,0,0,1,43,18.12a3.39,3.39,0,0,1-3.17-1.76,17.44,17.44,0,0,0-15-8.63h-.2a16.45,16.45,0,0,0-11.72,5.06A20.4,20.4,0,0,0,7.3,27.35a19.89,19.89,0,0,0,1,6c.73,3.13,4.59,10,23.32,24.6,3.7,2.85,9.2,6.7,12.17,8.76,1.74-1.21,3.82-2.75,6.18-4.59l4.48,5.76c-3.58,2.79-6.45,4.86-8.75,6.33a3.67,3.67,0,0,1-2,.57Z"/></g><g id="_Grupo_4" data-name="&lt;Grupo&gt;"><path id="_Trazado_2" data-name="&lt;Trazado&gt;" class="cls-2" d="M69.63,67.4A3.65,3.65,0,0,1,66,63.75V43.59a3.65,3.65,0,1,1,7.29,0V63.75a3.65,3.65,0,0,1-3.65,3.65Z"/></g><g id="_Grupo_5" data-name="&lt;Grupo&gt;"><path id="_Trazado_3" data-name="&lt;Trazado&gt;" class="cls-2" d="M79.71,57.32H59.55a3.65,3.65,0,0,1,0-7.29H79.71a3.65,3.65,0,1,1,0,7.29Z"/></g></g></g></g></svg>