<svg xmlns="http://www.w3.org/2000/svg" viewBox="0 0 95.11 86.2"><defs><style>.cls-1{opacity:0.5;}.cls-2{fill:#fff;}</style></defs><title>talk-icon</title><g id="Capa_2" data-name="Capa 2"><g id="ARTE"><g id="_Grupo_" data-name="&lt;Grupo&gt;" class="cls-1"><path id="_Trazado_compuesto_" data-name="&lt;Trazado compuesto&gt;" class="cls-2" d="M19.19,86.2c-1.15,0-2.32,0-3.49-.13a4.09,4.09,0,0,1-1.51-7.75,24.77,24.77,0,0,0,8.87-7.12C8.9,64.33,0,51.84,0,38.35,0,17.21,21.33,0,47.56,0S95.11,17.21,95.11,38.35,73.78,76.71,47.56,76.71c-.62,0-1.24,0-1.85,0C39,82.83,29.64,86.2,19.19,86.2Zm28.36-78C25.84,8.18,8.18,21.72,8.18,38.35c0,11.42,8.73,22.06,22.23,27.11a4.1,4.1,0,0,1,2.23,5.66l-.24.49c-.25.52-.5,1-.81,1.55a30.34,30.34,0,0,1-2.43,3.5,27,27,0,0,0,12-7,4.2,4.2,0,0,1,3.19-1.23c1,.06,2.09.13,3.16.13,21.71,0,39.38-13.54,39.38-30.17S69.27,8.18,47.56,8.18Z"/></g></g></g></svg>