<svg xmlns="http://www.w3.org/2000/svg" viewBox="0 0 86.47 86.47"><defs><style>.cls-1{isolation:isolate;}.cls-2{mix-blend-mode:multiply;}.cls-3{fill:#a2acb2;fill-rule:evenodd;}</style></defs><title>socio-master</title><g class="cls-1"><g id="Capa_2" data-name="Capa 2"><g id="ARTE"><g id="_Grupo_" data-name="&lt;Grupo&gt;"><g id="_Recortar_grupo_" data-name="&lt;Recortar grupo&gt;" class="cls-2"><path id="_Trazado_compuesto_" data-name="&lt;Trazado compuesto&gt;" class="cls-3" d="M76,47.17a4.44,4.44,0,0,1-1.21.21,5,5,0,0,1-.86,0c-1.87,2.18-3.88,4.29-5.86,6.37a1.07,1.07,0,0,1-.76.35.51.51,0,0,1-.51-.25.22.22,0,0,1,0-.07.73.73,0,0,1,.26-.6c1.2-1.23,2.39-2.47,3.55-3.74L68.31,51l-2.16,1.44h0a6.72,6.72,0,0,1-3.07,1.07c-.8,0-1.66-.17-1.81-1.08a3,3,0,0,1,1.21-2.56,9.59,9.59,0,0,1,1.61-1.19,3.43,3.43,0,0,1-.72-.22,1,1,0,0,1-.68-.73c-.13-.63.55-1.29,1-1.65a11.38,11.38,0,0,1,4.46-2.11,9,9,0,0,1,2.44-.35c.41,0,1.22,0,1.31.58s-.43.92-.79,1.17a3.1,3.1,0,0,1-1.63.7c-.25,0-.55-.09-.59-.38s.3-.53.54-.65l.3-.15a10.6,10.6,0,0,0-2,.52c-.52.18-3.43,1.2-3.31,2,0,0,.05,0,.09,0h0a3.66,3.66,0,0,0,1.12,0,10,10,0,0,0,1.61-.23h0a1.49,1.49,0,0,1,.33,0,.52.52,0,0,1,.49.29.21.21,0,0,1,0,.06c.06.41-.48.69-.79.83l-.94.41a10.61,10.61,0,0,0-1.32.77c-.7.46-1.9,1.32-2.12,2.19,0,.22,0,.43.27.44,1.17,0,4-1.81,5-2.43a39.87,39.87,0,0,0,4.72-3.53,1,1,0,0,1,.24-.16,3.52,3.52,0,0,1,.43-1.06c.61-1.06,1.65-2.66,2.89-3a1.14,1.14,0,0,1,.27-.06.52.52,0,0,1,.52.36c.13.38-.17,1-.34,1.34l0,0c-.54.79-1.16,1.57-1.77,2.33h.24a2.3,2.3,0,0,0,1.2-.33h0c.32-.2.64-.41,1-.62a2.58,2.58,0,0,1,1.07-.49.46.46,0,0,1,.48.3c.12.35-.27.82-.47,1.06l-.68.81a24.94,24.94,0,0,0-2.27,3.21A4.27,4.27,0,0,0,75,51.28c0,.08.31,0,.36,0a4.58,4.58,0,0,0,1.68-.84c.5-.39,1-.84,1.49-1.26l3.56-3.08a1.2,1.2,0,0,1,.71-.31c.2,0,.42,0,.48.26a.15.15,0,0,1,0,.06c0,.21-.19.43-.34.57-1,.93-2,1.85-2.95,2.76l-1.4,1.28h0a7.87,7.87,0,0,1-3.71,1.94c-.56.06-1.21,0-1.41-.63a3.35,3.35,0,0,1,.63-2.28c.13-.23.3-.46.45-.68.28-.4.56-.79.85-1.18l.56-.75M58.3,45c-.48.43,2.09-.88,1.88-1.18s-1.69,1-1.88,1.18M43.24,0A43.24,43.24,0,0,1,86.17,38.11c-3.31,0-8.13,0-9.52,0l-5.41,0h-3c.78-1,1.57-2.05,2.32-3.09h0a.55.55,0,0,0,.11-.4.36.36,0,0,0-.41-.31,1.82,1.82,0,0,0-.52.13,1.7,1.7,0,0,0-.86.53c-.82,1-1.62,2.09-2.4,3.15L44,38.36a1,1,0,0,0-.52.24c-.18.13-.37.35-.27.58a.24.24,0,0,0,.15.14l.14,0h.08l22.11-.32c-.89,1.16-1.79,2.32-2.67,3.49l-.51.67c-.63.83-1.25,1.66-1.85,2.5h0q-2,3-4,6c-.22.34-.47.84-.24,1.23a.49.49,0,0,0,.44.24,3.61,3.61,0,0,0,1.85-1,12.39,12.39,0,0,0,1-.92c.15-.16.41-.44.33-.68a.49.49,0,0,0-.51-.3l-.22,0,3.2-4.75c.45-.65.94-1.29,1.43-1.92l3.54-4.59c.53,0,1.07,0,1.61,0h1.71l5.36,0c1.47,0,6.87,0,10.14,0q.19,2,.2,4.12A43.24,43.24,0,0,1,0,43.24q0-1.78.14-3.52a2.49,2.49,0,0,0,.72.54,3.63,3.63,0,0,0,1.64.4,3,3,0,0,0,1-.2c.37-.13.82-.39.71-.85,0-.27-.32-.36-.56-.36a2.56,2.56,0,0,0-.42.05,1.83,1.83,0,0,1-.33,0,1,1,0,0,1-1.13-.92c-.22-.94.62-2,1.19-2.7,2.33-2.65,5.88-3.73,9.27-4.13a21.62,21.62,0,0,1,2.54-.16,11.9,11.9,0,0,1,4.26.68,4.2,4.2,0,0,1,2.79,2.8,3.94,3.94,0,0,1,.13,1,6.91,6.91,0,0,1-.62,2.62c-.61,1.16-1.23,2.33-1.91,3.45-1.36,2.25-2.71,4.51-4.09,6.75a20.09,20.09,0,0,0-1.49,2.75,3.55,3.55,0,0,0-.35,1.56.64.64,0,0,0,.5.55,1.48,1.48,0,0,0,.6.11,2.56,2.56,0,0,0,1.7-.88l3.21-3.31q2.26-2.32,4.55-4.62l5.53-5.5A36.87,36.87,0,0,1,33,36.28l.08-.06a6,6,0,0,1-.7,1.42,42.08,42.08,0,0,1-2.63,3.58l-5.09,6.54a16.6,16.6,0,0,0-1.64,2.4,4.87,4.87,0,0,0-.63,2.15,3.07,3.07,0,0,0,.17,1v0a.69.69,0,0,0,.63.41c1.11,0,3.38-2.24,4.12-3C28.6,49.49,29.8,48.23,31,47c2.42-2.43,4.87-4.84,7.29-7.27-.82,1.25-1.62,2.51-2.4,3.78-.43.7-.85,1.41-1.25,2.13A12.29,12.29,0,0,0,32.86,51a3.51,3.51,0,0,0,.1.9,2.33,2.33,0,0,0,2.45,1.84,7.51,7.51,0,0,0,3.85-1.66,1.39,1.39,0,0,0,0,.29,1.21,1.21,0,0,0,1.33,1c1.09,0,2.9-1.12,4.11-2a3,3,0,0,0-.22,1,1.08,1.08,0,0,0,1.19,1.19A5.32,5.32,0,0,0,48,52.49c1.4-1,2.86-1.89,4.3-2.79a.87.87,0,0,0,.33-.31l1-.59,2.62-1.68-.07.14c-.37.72-.75,1.49-1.17,2.18a8.34,8.34,0,0,1-1.56,1.85,3.7,3.7,0,0,1-.81.48,2.25,2.25,0,0,1-.53.18,3.28,3.28,0,0,1,.36-.29L53,51.3c.18-.13.56-.38.53-.64a.18.18,0,0,0,0,0A.49.49,0,0,0,53,50.3a1.16,1.16,0,0,0-.78.16c-.63.38-2,1.26-1.91,2.14.08.59.7.8,1.21.89A3.93,3.93,0,0,0,55.46,52v0c.24-.35.48-.7.69-1.07v0a4.08,4.08,0,0,0,.18-.48c.26-.53.49-1.08.73-1.62l1.27-2.9a6.61,6.61,0,0,0,2.82-2.16.42.42,0,0,0,0-.52.58.58,0,0,0-.48-.23h0a3.93,3.93,0,0,0-3.22,1.92l-.23.33-.57.31c-.6.32-1.22.66-1.79,1L51.25,49,51.1,49l-2.31,1.47c-.77.46-1.55.92-2.35,1.35a3.72,3.72,0,0,1,.81-2.11,20.63,20.63,0,0,1,2.1-2.35.53.53,0,0,0,.16-.38.25.25,0,0,0,0-.09.52.52,0,0,0-.53-.26,1.85,1.85,0,0,0-1.14.31l0,0c-.18.22-.37.43-.56.63a23,23,0,0,1-3.62,3A8.23,8.23,0,0,1,40.83,52h-.08a2,2,0,0,1,.21-.78,9.28,9.28,0,0,1,2.12-2.79,14.71,14.71,0,0,1,2.87-2.16,8.29,8.29,0,0,1,2.41-1c.06,0,.35-.05.37,0s-.1.27-.2.35a.61.61,0,0,0-.41.58v0c.07.33.44.4.72.4a1.19,1.19,0,0,0,.61-.17,1.78,1.78,0,0,0,1-1.57c0-.71-.68-.87-1.26-.87a6.32,6.32,0,0,0-1,.1,11.87,11.87,0,0,0-7.13,4.53c-1,1-3.59,3.66-5.15,3.66-.9,0-1.1-.68-1.1-1.47,0-2.75,2.95-7.4,4.42-9.62l1.06-1.48a3.84,3.84,0,0,0,.49-.86A1.88,1.88,0,0,0,41,37.69a.85.85,0,0,0-.86-.71c-.9,0-2.11,1.06-2.73,1.64s-1.08,1-1.61,1.55Q34.38,41.54,33,42.92L24.64,51.3a5.42,5.42,0,0,1,.4-1.16,14.19,14.19,0,0,1,1.21-1.86c.81-1.13,1.67-2.23,2.53-3.32L33.48,39l0,0,.58-.95h0a4.14,4.14,0,0,0,.67-2.35,1,1,0,0,0-1.09-.79c-1.45,0-4.23,2.56-5.23,3.49-2.33,2.16-4.57,4.42-6.76,6.71L16,51a17.6,17.6,0,0,1,.9-1.56c.5-.77,1-1.55,1.46-2.35l3.67-6.29a17.41,17.41,0,0,0,1-1.9,8.67,8.67,0,0,0,.78-3.4c0-4.62-4.68-5.4-8.38-5.4a23.41,23.41,0,0,0-7.64,1.28,15.33,15.33,0,0,0-6.27,3.79,10.71,10.71,0,0,0-1,1.16A43.25,43.25,0,0,1,43.24,0"/></g></g></g></g></g></svg>