<svg xmlns="http://www.w3.org/2000/svg" viewBox="0 0 602.44 185.85"><defs><style>.cls-1{fill:#d4cdc4;}.cls-2{fill:#db9130;}.cls-3{fill:#a09890;}.cls-4{fill:#e6b136;}</style></defs><title>around-logo</title><g id="Capa_2" data-name="Capa 2"><g id="Capa_1-2" data-name="Capa 1"><g id="_Grupo_" data-name="&lt;Grupo&gt;"><g id="_Grupo_2" data-name="&lt;Grupo&gt;"><path id="_Trazado_" data-name="&lt;Trazado&gt;" class="cls-1" d="M81.4,119.14c-24.18-11.49-66.47-38.9-66.47-38.9S4,86.78,9.23,100.84c6.2,16.65,62.21,47.13,87.65,34.32a26,26,0,0,0,10.93-10.89C96.05,126.37,85.74,121.6,81.4,119.14Z"/><g id="_Grupo_3" data-name="&lt;Grupo&gt;"><path id="_Trazado_compuesto_" data-name="&lt;Trazado compuesto&gt;" class="cls-2" d="M285.15,52.56l12.93,56.13h-3.85L290.9,93.92H274.63l-3.28,14.77h-3.68l13.1-56.13Zm4.77,37.16L282.85,58h-.11l-7,31.72Z"/><path id="_Trazado_compuesto_2" data-name="&lt;Trazado compuesto&gt;" class="cls-2" d="M307.22,74.71h.12c1.44-3.73,4.48-6.06,8-6.06v4.74c-4.89-.54-8.1,3.42-8.1,10v25.27h-3.45V69.43h3.45Z"/><path id="_Trazado_compuesto_3" data-name="&lt;Trazado compuesto&gt;" class="cls-2" d="M319.93,93.29V84c0-5,.06-15.32,10-15.32s10,10.34,10,15.32v9.33c0,10.18-2.59,16.17-10,16.17S319.93,103.48,319.93,93.29Zm15.86,7.23c.57-1.94.69-9,.69-11.51,0-11.58-.86-16.64-6.55-16.64s-6.55,5.05-6.55,16.64c0,2.49.12,9.56.69,11.51.29.93,1.09,5.21,5.86,5.21S335.5,101.46,335.79,100.52Z"/><path id="_Trazado_compuesto_4" data-name="&lt;Trazado compuesto&gt;" class="cls-2" d="M365.62,69.43v39.26h-3v-4.35h-.12c-2,3.34-4.08,5.13-7.3,5.13-6,0-7.64-5.91-7.64-12.28V69.43H351v27c0,1.09-.17,9.33,4.83,9.33,4.66,0,6.32-5.91,6.32-8.63V69.43Z"/><path id="_Trazado_compuesto_5" data-name="&lt;Trazado compuesto&gt;" class="cls-2" d="M377.47,108.69H374V69.43h3.45v4.82h.12c1.67-3.26,3.91-5.6,7-5.6,7.18,0,7.93,7.23,7.93,12.36v27.68h-3.45V81.24c0-4.59-1.32-8.86-5.35-8.86-3.1,0-6.26,2.88-6.26,11.66Z"/><path id="_Trazado_compuesto_6" data-name="&lt;Trazado compuesto&gt;" class="cls-2" d="M415.92,103.71l-.12.08c-1.78,3.73-4,5.68-7.36,5.68-8.39,0-8.85-11.27-8.85-20.45,0-7.54,0-20.37,8.91-20.37,2.64,0,5.23,1.63,7,4.66l.12.08V52.56h3.45v48.36a66.2,66.2,0,0,0,.35,7.77h-3.33Zm-.17-11.12v-7c0-2.33,0-13.22-6.5-13.22C403,72.38,403,80,403,89.17c0,14.62,2.59,16.56,6.32,16.56C412.64,105.73,415.75,102.16,415.75,92.59Z"/><path id="_Trazado_compuesto_7" data-name="&lt;Trazado compuesto&gt;" class="cls-2" d="M429.6,108.69V52.56h14l6.5,38.17h.12l6.9-38.17h13.51v56.13h-8.45V65.38H462l-8,43.3h-8.28l-7.59-43.3H438v43.3Z"/><path id="_Trazado_compuesto_8" data-name="&lt;Trazado compuesto&gt;" class="cls-2" d="M484.72,90.81c0,4.66.12,11.66,3.68,11.66,2.87,0,3.45-3.73,3.45-7h8.22c-.12,4.28-1.15,7.77-3.1,10.18a10.38,10.38,0,0,1-8.56,3.81c-10.46,0-11.84-8.63-11.84-20.91,0-10.73,1.15-19.9,11.84-19.9,10.92,0,12.13,9.56,11.84,22.16Zm7.42-6.14c0-3.81.12-9.25-3.74-9.25s-3.68,5.91-3.68,9.25Z"/><path id="_Trazado_compuesto_9" data-name="&lt;Trazado compuesto&gt;" class="cls-2" d="M511.1,108.69h-8l8.56-20.6-7.87-18.66h9.08l4.25,11.9L522,69.43h8.1l-7.76,18.81,8.33,20.45h-9.14l-5.06-13.76Z"/><path id="_Trazado_compuesto_10" data-name="&lt;Trazado compuesto&gt;" class="cls-2" d="M543.52,52.56v8.63h-8.1V52.56Zm0,56.13h-8.1V69.43h8.1Z"/><path id="_Trazado_compuesto_11" data-name="&lt;Trazado compuesto&gt;" class="cls-2" d="M565.48,83.42c0-5.83-1.09-7.77-3.62-7.77-3.45,0-3.74,4.12-3.74,12.28,0,12,.75,14.54,3.74,14.54,2.53,0,3.74-3.11,3.74-8.24h8.1c0,10.65-4.25,15.24-11.84,15.24-10.46,0-11.84-8.63-11.84-20.91,0-10.73,1.15-19.9,11.84-19.9,7.47,0,11.73,4.51,11.73,14.77Z"/><path id="_Trazado_compuesto_12" data-name="&lt;Trazado compuesto&gt;" class="cls-2" d="M578.76,88.55c0-10.73,1.15-19.9,11.84-19.9s11.84,9.17,11.84,19.9c0,12.28-1.38,20.91-11.84,20.91S578.76,100.84,578.76,88.55Zm15.58-.62c0-8.16-.29-12.28-3.74-12.28s-3.74,4.12-3.74,12.28c0,12,.75,14.54,3.74,14.54S594.34,99.9,594.34,87.93Z"/></g><g id="_Grupo_4" data-name="&lt;Grupo&gt;"><path id="_Trazado_compuesto_13" data-name="&lt;Trazado compuesto&gt;" class="cls-3" d="M268.54,152.69a14.52,14.52,0,0,0,.17-1.91V125.1h1.7v10.47l.06.08c.88-1.84,2-2.64,3.62-2.64,4.63,0,4.27,6.57,4.27,10,0,4.24-.25,10.05-4.41,10.05a3.72,3.72,0,0,1-3.59-2.71h-.06v2.33Zm4.89-1.45c3.14,0,3.22-3.63,3.22-8.14s-.08-8.25-3.22-8.25c-2.74,0-3.08,5-3.08,7.91C270.35,145.81,270.35,151.24,273.43,151.24Z"/><path id="_Trazado_compuesto_14" data-name="&lt;Trazado compuesto&gt;" class="cls-3" d="M283.72,152.73l-4.52-19.34H281l3.48,15.82h.06l3.36-15.82h1.7l-5.9,26.6H282Z"/><path id="_Trazado_compuesto_15" data-name="&lt;Trazado compuesto&gt;" class="cls-3" d="M297,125.1h8.62v2.06h-6.81v10.32h6.33v2.06h-6.33v13.15H297Z"/><path id="_Trazado_compuesto_16" data-name="&lt;Trazado compuesto&gt;" class="cls-3" d="M307.57,128v-2.9h2.09V128Zm.2,24.69v-19.3h1.7v19.3Z"/><path id="_Trazado_compuesto_17" data-name="&lt;Trazado compuesto&gt;" class="cls-3" d="M314.24,143.52V145c0,2.67.54,6.23,3.22,6.23,2.12,0,3.16-1.83,3.14-4.43h1.78c-.2,4.66-2.06,6.27-4.92,6.27-2.46,0-4.92-1.34-4.92-7.18v-4.74c0-5.58,1.72-8.14,4.92-8.14,4.92,0,4.92,4.78,4.92,10.51Zm6.44-1.83c0-4.28-.51-6.84-3.22-6.84s-3.22,2.56-3.22,6.84Z"/><path id="_Trazado_compuesto_18" data-name="&lt;Trazado compuesto&gt;" class="cls-3" d="M328.68,153.07c-3.08,0-4.29-2-4.27-6.12h1.72c0,2.64.45,4.4,2.63,4.4,1.64,0,2.43-1.26,2.43-3.4,0-5-6.41-3.74-6.41-10.13,0-3.55,1.81-4.82,4.29-4.82,2.83,0,3.73,2.64,3.73,5.58h-1.67c-.08-2.45-.57-3.74-2.49-3.74-1.22,0-2.18,1.07-2.18,2.79,0,4.82,6.41,3.52,6.41,10C332.88,151.24,331.33,153.07,328.68,153.07Z"/><path id="_Trazado_compuesto_19" data-name="&lt;Trazado compuesto&gt;" class="cls-3" d="M334,135.23v-1.83h2.29v-4l1.7-1v5h2.88v1.83H338v12.38c0,2.56.2,3.17,1.55,3.17a6.28,6.28,0,0,0,1.33-.12v2a11.08,11.08,0,0,1-1.61.12c-2.29,0-3-1.38-3-3.75v-13.8Z"/><path id="_Trazado_compuesto_20" data-name="&lt;Trazado compuesto&gt;" class="cls-3" d="M350,150.32h-.06a4.36,4.36,0,0,1-4,2.75c-2.54,0-3.93-2.33-3.93-5.69,0-6.77,5-6.08,7.91-6.38v-1.6c0-2.83-.62-4.55-2.88-4.55-1.55,0-2.8,1-2.8,3.32h-1.81c.14-3.71,2.26-5.16,4.75-5.16,1.44,0,4.44.19,4.44,5.12v9.71c0,1.38,0,2.6.17,4.85H350Zm-.11-7.49c-2.43.12-6.1-.27-6.1,4.43,0,2.18.82,4,2.57,4,1.95,0,3.53-2.37,3.53-4.89Z"/><path id="_Trazado_compuesto_21" data-name="&lt;Trazado compuesto&gt;" class="cls-3" d="M367.53,125.1l6.36,27.59H372l-1.64-7.26h-8l-1.61,7.26h-1.81l6.44-27.59Zm2.35,18.27-3.48-15.59h-.06l-3.45,15.59Z"/><path id="_Trazado_compuesto_22" data-name="&lt;Trazado compuesto&gt;" class="cls-3" d="M377.11,152.69h-1.7V133.36h1.53v2.41H377c.68-1.57,1.81-2.75,3.39-2.75s2.77,1.11,3.25,3c.71-1.91,1.92-3,3.5-3,2.37,0,3.62,2.22,3.7,5.31v14.37h-1.7V138.9c0-1.91-.54-4.05-2.2-4.05-2.15,0-3,2.9-3,5.43v12.42h-1.7V138.9c0-1.91-.54-4.05-2.2-4.05-2.15,0-3,2.9-3,5.43Z"/><path id="_Trazado_compuesto_23" data-name="&lt;Trazado compuesto&gt;" class="cls-3" d="M395.06,143.52V145c0,2.67.54,6.23,3.22,6.23,2.12,0,3.16-1.83,3.14-4.43h1.78c-.2,4.66-2.06,6.27-4.92,6.27-2.46,0-4.92-1.34-4.92-7.18v-4.74c0-5.58,1.72-8.14,4.92-8.14,4.92,0,4.92,4.78,4.92,10.51Zm6.44-1.83c0-4.28-.51-6.84-3.22-6.84s-3.22,2.56-3.22,6.84Z"/><path id="_Trazado_compuesto_24" data-name="&lt;Trazado compuesto&gt;" class="cls-3" d="M407.52,136h.06a4.29,4.29,0,0,1,3.93-3v2.33c-2.4-.27-4,1.68-4,4.93v12.42h-1.7v-19.3h1.7Z"/><path id="_Trazado_compuesto_25" data-name="&lt;Trazado compuesto&gt;" class="cls-3" d="M413.37,128v-2.9h2.09V128Zm.2,24.69v-19.3h1.7v19.3Z"/><path id="_Trazado_compuesto_26" data-name="&lt;Trazado compuesto&gt;" class="cls-3" d="M425.07,138.93c.09-2.41-.56-4.09-2.51-4.09-1,0-1.92.8-2.29,2.22a35.41,35.41,0,0,0-.4,6.08c0,3.48,0,8.1,2.63,8.1,2.23,0,2.51-1.91,2.6-4.24h1.7c.14,5.2-2.57,6.08-3.9,6.08-4.83,0-4.83-5.16-4.83-9.94a34.36,34.36,0,0,1,.42-6.38c.74-2.75,2.35-3.75,4.29-3.75,2.46,0,4.13,1.87,4,5.92Z"/><path id="_Trazado_compuesto_27" data-name="&lt;Trazado compuesto&gt;" class="cls-3" d="M436.51,150.32h-.06a4.36,4.36,0,0,1-4,2.75c-2.54,0-3.93-2.33-3.93-5.69,0-6.77,5-6.08,7.91-6.38v-1.6c0-2.83-.62-4.55-2.88-4.55-1.55,0-2.8,1-2.8,3.32h-1.81c.14-3.71,2.26-5.16,4.75-5.16,1.44,0,4.44.19,4.44,5.12v9.71c0,1.38,0,2.6.17,4.85h-1.75Zm-.11-7.49c-2.43.12-6.1-.27-6.1,4.43,0,2.18.82,4,2.57,4,1.95,0,3.53-2.37,3.53-4.89Z"/><path id="_Trazado_compuesto_28" data-name="&lt;Trazado compuesto&gt;" class="cls-3" d="M442.81,152.69h-1.7v-19.3h1.7v2.37h.06c.82-1.6,1.92-2.75,3.45-2.75,3.53,0,3.9,3.55,3.9,6.08v13.6h-1.7V139.2c0-2.25-.65-4.36-2.63-4.36-1.53,0-3.08,1.41-3.08,5.73Z"/><path id="_Trazado_compuesto_29" data-name="&lt;Trazado compuesto&gt;" class="cls-3" d="M460.48,150.32h-.06a4.36,4.36,0,0,1-4,2.75c-2.54,0-3.93-2.33-3.93-5.69,0-6.77,5-6.08,7.91-6.38v-1.6c0-2.83-.62-4.55-2.88-4.55-1.55,0-2.8,1-2.8,3.32h-1.81c.14-3.71,2.26-5.16,4.75-5.16,1.44,0,4.44.19,4.44,5.12v9.71c0,1.38,0,2.6.17,4.85h-1.75Zm-.11-7.49c-2.43.12-6.1-.27-6.1,4.43,0,2.18.82,4,2.57,4,2,0,3.53-2.37,3.53-4.89Z"/><path id="_Trazado_compuesto_30" data-name="&lt;Trazado compuesto&gt;" class="cls-3" d="M481.16,125.1h1.75l-5.65,27.59H475l-5.68-27.59h1.92l4.83,24.69h.06Z"/><path id="_Trazado_compuesto_31" data-name="&lt;Trazado compuesto&gt;" class="cls-3" d="M490.69,150.32h-.06a4.36,4.36,0,0,1-4,2.75c-2.54,0-3.93-2.33-3.93-5.69,0-6.77,5-6.08,7.91-6.38v-1.6c0-2.83-.62-4.55-2.88-4.55-1.55,0-2.8,1-2.8,3.32h-1.81c.14-3.71,2.26-5.16,4.75-5.16,1.44,0,4.44.19,4.44,5.12v9.71c0,1.38,0,2.6.17,4.85h-1.75Zm-.11-7.49c-2.43.12-6.1-.27-6.1,4.43,0,2.18.82,4,2.57,4,2,0,3.53-2.37,3.53-4.89Z"/><path id="_Trazado_compuesto_32" data-name="&lt;Trazado compuesto&gt;" class="cls-3" d="M501.65,138.93c.08-2.41-.57-4.09-2.52-4.09-1,0-1.92.8-2.29,2.22a35.44,35.44,0,0,0-.4,6.08c0,3.48,0,8.1,2.63,8.1,2.23,0,2.51-1.91,2.6-4.24h1.7c.14,5.2-2.57,6.08-3.9,6.08-4.83,0-4.83-5.16-4.83-9.94a34.36,34.36,0,0,1,.42-6.38c.74-2.75,2.35-3.75,4.29-3.75,2.46,0,4.13,1.87,4,5.92Z"/><path id="_Trazado_compuesto_33" data-name="&lt;Trazado compuesto&gt;" class="cls-3" d="M513.1,150.32H513a4.36,4.36,0,0,1-4,2.75c-2.54,0-3.93-2.33-3.93-5.69,0-6.77,5-6.08,7.91-6.38v-1.6c0-2.83-.62-4.55-2.88-4.55-1.55,0-2.8,1-2.8,3.32H505.5c.14-3.71,2.26-5.16,4.75-5.16,1.44,0,4.44.19,4.44,5.12v9.71c0,1.38,0,2.6.17,4.85H513.1Zm-.11-7.49c-2.43.12-6.1-.27-6.1,4.43,0,2.18.82,4,2.57,4,2,0,3.53-2.37,3.53-4.89Z"/><path id="_Trazado_compuesto_34" data-name="&lt;Trazado compuesto&gt;" class="cls-3" d="M516.43,135.23v-1.83h2.29v-4l1.7-1v5h2.88v1.83h-2.88v12.38c0,2.56.2,3.17,1.55,3.17a6.28,6.28,0,0,0,1.33-.12v2a11.08,11.08,0,0,1-1.61.12c-2.29,0-3-1.38-3-3.75v-13.8Z"/><path id="_Trazado_compuesto_35" data-name="&lt;Trazado compuesto&gt;" class="cls-3" d="M525.36,128v-2.9h2.09V128Zm.2,24.69v-19.3h1.7v19.3Z"/><path id="_Trazado_compuesto_36" data-name="&lt;Trazado compuesto&gt;" class="cls-3" d="M530.34,145.13v-4.59c0-2.45,0-7.53,4.92-7.53s4.92,5.08,4.92,7.53v4.59c0,5-1.27,7.95-4.92,7.95S530.34,150.13,530.34,145.13Zm7.8,3.55a35.87,35.87,0,0,0,.34-5.66c0-5.69-.42-8.18-3.22-8.18S532,137.33,532,143a36,36,0,0,0,.34,5.66,2.9,2.9,0,0,0,5.76,0Z"/><path id="_Trazado_compuesto_37" data-name="&lt;Trazado compuesto&gt;" class="cls-3" d="M544.38,152.69h-1.7v-19.3h1.7v2.37h.06c.82-1.6,1.92-2.75,3.45-2.75,3.53,0,3.9,3.55,3.9,6.08v13.6h-1.7V139.2c0-2.25-.65-4.36-2.63-4.36-1.53,0-3.08,1.41-3.08,5.73Z"/><path id="_Trazado_compuesto_38" data-name="&lt;Trazado compuesto&gt;" class="cls-3" d="M560.23,138.9c0-5.35-.48-14.33,6.16-14.33,5.28,0,5,6.46,5,8h-1.86c.11-3.06-.68-5.92-3.16-5.92-4.41,0-4.35,5.31-4.35,12.27s-.06,12.27,4.35,12.27c2.34,0,3.22-2.83,3.25-6.38h1.92c0,2-.34,8.45-5.17,8.45C559.75,153.23,560.23,144.25,560.23,138.9Z"/><path id="_Trazado_compuesto_39" data-name="&lt;Trazado compuesto&gt;" class="cls-3" d="M574.5,152.69V125.1h1.7v27.59Z"/><path id="_Trazado_compuesto_40" data-name="&lt;Trazado compuesto&gt;" class="cls-3" d="M588.63,133.39v19.3h-1.47v-2.14h-.06c-1,1.64-2,2.52-3.59,2.52-2.94,0-3.76-2.91-3.76-6V133.39h1.7v13.26c0,.53-.09,4.59,2.37,4.59,2.29,0,3.11-2.9,3.11-4.24v-13.6Z"/><path id="_Trazado_compuesto_41" data-name="&lt;Trazado compuesto&gt;" class="cls-3" d="M591.52,152.69a14.5,14.5,0,0,0,.17-1.91V125.1h1.7v10.47l.06.08c.88-1.84,2-2.64,3.62-2.64,4.63,0,4.27,6.57,4.27,10,0,4.24-.25,10.05-4.41,10.05a3.72,3.72,0,0,1-3.59-2.71h-.06v2.33Zm4.89-1.45c3.14,0,3.22-3.63,3.22-8.14s-.08-8.25-3.22-8.25c-2.74,0-3.08,5-3.08,7.91C593.33,145.81,593.33,151.24,596.4,151.24Z"/></g><g id="_Grupo_5" data-name="&lt;Grupo&gt;"><path id="_Trazado_2" data-name="&lt;Trazado&gt;" class="cls-3" d="M35.19,38.67C26.2,44.28,17.73,51,11.35,58l-.06.07-.43.48-.16.18C4.52,65.83.45,73.28,0,80.49-1,99.27,19.75,113.27,19.75,113.27S.32,99,11.14,83.91a13.23,13.23,0,0,1,2.59-2.78c2.48-2,56.4-39.29,76.88-44.69,16.42-4.33,31.67-1.42,36.68.26-14-12.32-26.93-14.77-37.19-15.48C73.09,20,54.73,26.24,35.19,38.67Z"/></g><path id="_Trazado_3" data-name="&lt;Trazado&gt;" class="cls-4" d="M222.57,58C210.84,31.62,126-12.41,83.27,3.3,51.63,14.95,23.45,46.95,23.45,46.95l.07,0a134.06,134.06,0,0,1,11.74-8.24C54.8,26.24,73.16,20,90.16,21.21c10.26.71,23.14,3.16,37.18,15.48h0C166.59,57.65,214.25,91,214.25,91S232.08,79.46,222.57,58Z"/><g id="_Grupo_6" data-name="&lt;Grupo&gt;"><path id="_Trazado_4" data-name="&lt;Trazado&gt;" class="cls-2" d="M181.79,157.5c14.35-9,27.9-19.63,38.09-31l.1-.11.68-.77.26-.29c9.87-11.27,16.37-23.17,17-34.7,1.71-30-32.1-51.44-32.1-51.44S236.5,60.51,220.62,84.6a36.79,36.79,0,0,1-5,5.18c-3.74,3.39-100.32,67.7-122.35,71.28-19.15,3.11-28-10.58-32-20.78,3.59,13.86,13.88,36.92,30.76,43.34C112.82,191.52,150.56,177.35,181.79,157.5Z"/></g><path id="_Trazado_5" data-name="&lt;Trazado&gt;" class="cls-4" d="M291,45.31l.06,0a125.66,125.66,0,0,1,11-7.72"/></g></g></g></g></svg>