<?xml version="1.0" encoding="utf-8"?>
<!-- Generator: Adobe Illustrator 21.0.0, SVG Export Plug-In . SVG Version: 6.00 Build 0)  -->
<svg version="1.1" id="Layer_1" xmlns="http://www.w3.org/2000/svg" xmlns:xlink="http://www.w3.org/1999/xlink" x="0px" y="0px"
	 viewBox="0 0 604 187" style="enable-background:new 0 0 604 187;" xml:space="preserve">
<style type="text/css">
	.st0{fill:#D7CFC5;}
	.st1{fill:#F29220;}
	.st2{fill:#A59A91;}
	.st3{fill:#F7B321;}
</style>
<g id="XMLID_169_">
	<g id="XMLID_311_">
		<path id="XMLID_1757_" class="st0" d="M82.2,119.4c-24.2-11.5-66.5-38.9-66.5-38.9S4.8,87,10.1,101.1
			c6.2,16.7,62.2,47.1,87.7,34.3c5-2.5,8.5-6.5,10.9-10.9C96.9,126.6,86.6,121.9,82.2,119.4z"/>
		<g id="XMLID_1615_">
			<path id="XMLID_1754_" class="st1" d="M286,52.8l12.9,56.1h-3.9l-3.3-14.8h-16.3l-3.3,14.8h-3.7l13.1-56.1H286z M290.8,90
				l-7.1-31.7h-0.1l-7,31.7H290.8z"/>
			<path id="XMLID_1752_" class="st1" d="M308.1,75h0.1c1.4-3.7,4.5-6.1,8-6.1v4.7c-4.9-0.5-8.1,3.4-8.1,10v25.3h-3.4V69.7h3.4V75z"
				/>
			<path id="XMLID_1747_" class="st1" d="M320.8,93.6v-9.3c0-5,0.1-15.3,10-15.3c9.9,0,10,10.3,10,15.3v9.3c0,10.2-2.6,16.2-10,16.2
				C323.3,109.7,320.8,103.7,320.8,93.6z M336.6,100.8c0.6-1.9,0.7-9,0.7-11.5c0-11.6-0.9-16.6-6.6-16.6c-5.7,0-6.6,5.1-6.6,16.6
				c0,2.5,0.1,9.6,0.7,11.5c0.3,0.9,1.1,5.2,5.9,5.2C335.5,106,336.3,101.7,336.6,100.8z"/>
			<path id="XMLID_1744_" class="st1" d="M366.5,69.7v39.3h-3v-4.4h-0.1c-2,3.3-4.1,5.1-7.3,5.1c-6,0-7.6-5.9-7.6-12.3V69.7h3.4v27
				c0,1.1-0.2,9.3,4.8,9.3c4.7,0,6.3-5.9,6.3-8.6V69.7H366.5z"/>
			<path id="XMLID_1742_" class="st1" d="M378.3,108.9h-3.4V69.7h3.4v4.8h0.1c1.7-3.3,3.9-5.6,7-5.6c7.2,0,7.9,7.2,7.9,12.4v27.7
				h-3.4V81.5c0-4.6-1.3-8.9-5.3-8.9c-3.1,0-6.3,2.9-6.3,11.7V108.9z"/>
			<path id="XMLID_1739_" class="st1" d="M416.8,104l-0.1,0.1c-1.8,3.7-4,5.7-7.4,5.7c-8.4,0-8.9-11.3-8.9-20.4
				c0-7.5,0-20.4,8.9-20.4c2.6,0,5.2,1.6,7,4.7l0.1,0.1V52.8h3.4v48.4c0,3.9,0.2,6.5,0.3,7.8h-3.3L416.8,104z M416.6,92.9v-7
				c0-2.3,0-13.2-6.5-13.2c-6.2,0-6.2,7.6-6.2,16.8c0,14.6,2.6,16.6,6.3,16.6C413.5,106,416.6,102.4,416.6,92.9z"/>
			<path id="XMLID_1737_" class="st1" d="M430.4,108.9V52.8h14l6.5,38.2h0.1l6.9-38.2h13.5v56.1H463V65.6h-0.1l-8,43.3h-8.3
				L439,65.6h-0.1v43.3H430.4z"/>
			<path id="XMLID_1734_" class="st1" d="M485.6,91.1c0,4.7,0.1,11.7,3.7,11.7c2.9,0,3.4-3.7,3.4-7h8.2c-0.1,4.3-1.1,7.8-3.1,10.2
				c-1.9,2.4-4.8,3.8-8.6,3.8c-10.5,0-11.8-8.6-11.8-20.9c0-10.7,1.1-19.9,11.8-19.9c10.9,0,12.1,9.6,11.8,22.2H485.6z M493,84.9
				c0-3.8,0.1-9.3-3.7-9.3c-3.7,0-3.7,5.9-3.7,9.3H493z"/>
			<path id="XMLID_1732_" class="st1" d="M511.9,108.9h-8l8.6-20.6l-7.9-18.7h9.1l4.3,11.9l4.9-11.9h8.1l-7.8,18.8l8.3,20.4h-9.1
				l-5.1-13.8L511.9,108.9z"/>
			<path id="XMLID_1729_" class="st1" d="M544.4,52.8v8.6h-8.1v-8.6H544.4z M544.4,108.9h-8.1V69.7h8.1V108.9z"/>
			<path id="XMLID_1727_" class="st1" d="M566.3,83.7c0-5.8-1.1-7.8-3.6-7.8c-3.4,0-3.7,4.1-3.7,12.3c0,12,0.7,14.5,3.7,14.5
				c2.5,0,3.7-3.1,3.7-8.2h8.1c0,10.7-4.3,15.2-11.8,15.2c-10.5,0-11.8-8.6-11.8-20.9c0-10.7,1.1-19.9,11.8-19.9
				c7.5,0,11.7,4.5,11.7,14.8H566.3z"/>
			<path id="XMLID_1618_" class="st1" d="M579.6,88.8c0-10.7,1.1-19.9,11.8-19.9c10.7,0,11.8,9.2,11.8,19.9
				c0,12.3-1.4,20.9-11.8,20.9C581,109.7,579.6,101.1,579.6,88.8z M595.2,88.2c0-8.2-0.3-12.3-3.7-12.3c-3.4,0-3.7,4.1-3.7,12.3
				c0,12,0.7,14.5,3.7,14.5C594.4,102.7,595.2,100.2,595.2,88.2z"/>
		</g>
		<g id="XMLID_474_">
			<path id="XMLID_1584_" class="st2" d="M269.4,153c0.1-0.7,0.2-1.3,0.2-1.9v-25.7h1.7v10.5l0.1,0.1c0.9-1.8,2-2.6,3.6-2.6
				c4.6,0,4.3,6.6,4.3,10c0,4.2-0.3,10.1-4.4,10.1c-1.7,0-2.9-0.9-3.6-2.7h-0.1v2.3H269.4z M274.3,151.5c3.1,0,3.2-3.6,3.2-8.1
				c0-4.5-0.1-8.3-3.2-8.3c-2.7,0-3.1,5-3.1,7.9C271.2,146.1,271.2,151.5,274.3,151.5z"/>
			<path id="XMLID_1578_" class="st2" d="M284.6,153l-4.5-19.3h1.8l3.5,15.8h0.1l3.4-15.8h1.7l-5.9,26.6h-1.7L284.6,153z"/>
			<path id="XMLID_1575_" class="st2" d="M297.8,125.4h8.6v2.1h-6.8v10.3h6.3v2.1h-6.3V153h-1.8V125.4z"/>
			<path id="XMLID_1558_" class="st2" d="M308.4,128.3v-2.9h2.1v2.9H308.4z M308.6,153v-19.3h1.7V153H308.6z"/>
			<path id="XMLID_1555_" class="st2" d="M315.1,143.8v1.5c0,2.7,0.5,6.2,3.2,6.2c2.1,0,3.2-1.8,3.1-4.4h1.8
				c-0.2,4.7-2.1,6.3-4.9,6.3c-2.5,0-4.9-1.3-4.9-7.2v-4.7c0-5.6,1.7-8.1,4.9-8.1c4.9,0,4.9,4.8,4.9,10.5H315.1z M321.5,141.9
				c0-4.3-0.5-6.8-3.2-6.8c-2.7,0-3.2,2.6-3.2,6.8H321.5z"/>
			<path id="XMLID_1246_" class="st2" d="M329.5,153.3c-3.1,0-4.3-2-4.3-6.1h1.7c0,2.6,0.5,4.4,2.6,4.4c1.6,0,2.4-1.3,2.4-3.4
				c0-5-6.4-3.7-6.4-10.1c0-3.6,1.8-4.8,4.3-4.8c2.8,0,3.7,2.6,3.7,5.6H332c-0.1-2.4-0.6-3.7-2.5-3.7c-1.2,0-2.2,1.1-2.2,2.8
				c0,4.8,6.4,3.5,6.4,10C333.7,151.5,332.2,153.3,329.5,153.3z"/>
			<path id="XMLID_1241_" class="st2" d="M334.9,135.5v-1.8h2.3v-4l1.7-1v5h2.9v1.8h-2.9v12.4c0,2.6,0.2,3.2,1.6,3.2
				c0.6,0,1,0,1.3-0.1v2c-0.5,0.1-1.1,0.1-1.6,0.1c-2.3,0-3-1.4-3-3.7v-13.8H334.9z"/>
			<path id="XMLID_1233_" class="st2" d="M350.8,150.6L350.8,150.6c-1,1.8-2.3,2.8-4.1,2.8c-2.5,0-3.9-2.3-3.9-5.7
				c0-6.8,5-6.1,7.9-6.4v-1.6c0-2.8-0.6-4.5-2.9-4.5c-1.6,0-2.8,1-2.8,3.3h-1.8c0.1-3.7,2.3-5.2,4.7-5.2c1.4,0,4.4,0.2,4.4,5.1v9.7
				c0,1.4,0,2.6,0.2,4.9h-1.8V150.6z M350.7,143.1c-2.4,0.1-6.1-0.3-6.1,4.4c0,2.2,0.8,4,2.6,4c1.9,0,3.5-2.4,3.5-4.9V143.1z"/>
			<path id="XMLID_1230_" class="st2" d="M368.4,125.4l6.4,27.6h-1.9l-1.6-7.3h-8l-1.6,7.3h-1.8l6.4-27.6H368.4z M370.7,143.6
				l-3.5-15.6h-0.1l-3.4,15.6H370.7z"/>
			<path id="XMLID_1228_" class="st2" d="M377.9,153h-1.7v-19.3h1.5v2.4h0.1c0.7-1.6,1.8-2.8,3.4-2.8c1.5,0,2.8,1.1,3.2,3
				c0.7-1.9,1.9-3,3.5-3c2.4,0,3.6,2.2,3.7,5.3V153H390v-13.8c0-1.9-0.5-4.1-2.2-4.1c-2.1,0-3,2.9-3,5.4V153h-1.7v-13.8
				c0-1.9-0.5-4.1-2.2-4.1c-2.1,0-3,2.9-3,5.4V153z"/>
			<path id="XMLID_1225_" class="st2" d="M395.9,143.8v1.5c0,2.7,0.5,6.2,3.2,6.2c2.1,0,3.2-1.8,3.1-4.4h1.8
				c-0.2,4.7-2.1,6.3-4.9,6.3c-2.5,0-4.9-1.3-4.9-7.2v-4.7c0-5.6,1.7-8.1,4.9-8.1c4.9,0,4.9,4.8,4.9,10.5H395.9z M402.3,141.9
				c0-4.3-0.5-6.8-3.2-6.8s-3.2,2.6-3.2,6.8H402.3z"/>
			<path id="XMLID_1223_" class="st2" d="M408.4,136.3L408.4,136.3c0.8-1.8,2.3-3,4-3v2.3c-2.4-0.3-4,1.7-4,4.9V153h-1.7v-19.3h1.7
				V136.3z"/>
			<path id="XMLID_1022_" class="st2" d="M414.2,128.3v-2.9h2.1v2.9H414.2z M414.4,153v-19.3h1.7V153H414.4z"/>
			<path id="XMLID_904_" class="st2" d="M425.9,139.2c0.1-2.4-0.6-4.1-2.5-4.1c-1,0-1.9,0.8-2.3,2.2c-0.2,0.9-0.4,3.5-0.4,6.1
				c0,3.5,0,8.1,2.6,8.1c2.2,0,2.5-1.9,2.6-4.2h1.7c0.1,5.2-2.6,6.1-3.9,6.1c-4.8,0-4.8-5.2-4.8-9.9c0-1.9,0.1-4.9,0.4-6.4
				c0.7-2.8,2.3-3.7,4.3-3.7c2.5,0,4.1,1.9,4,5.9H425.9z"/>
			<path id="XMLID_895_" class="st2" d="M437.3,150.6L437.3,150.6c-1,1.8-2.3,2.8-4.1,2.8c-2.5,0-3.9-2.3-3.9-5.7
				c0-6.8,5-6.1,7.9-6.4v-1.6c0-2.8-0.6-4.5-2.9-4.5c-1.6,0-2.8,1-2.8,3.3h-1.8c0.1-3.7,2.3-5.2,4.7-5.2c1.4,0,4.4,0.2,4.4,5.1v9.7
				c0,1.4,0,2.6,0.2,4.9h-1.8V150.6z M437.2,143.1c-2.4,0.1-6.1-0.3-6.1,4.4c0,2.2,0.8,4,2.6,4c1.9,0,3.5-2.4,3.5-4.9V143.1z"/>
			<path id="XMLID_886_" class="st2" d="M443.6,153H442v-19.3h1.7v2.4h0.1c0.8-1.6,1.9-2.8,3.4-2.8c3.5,0,3.9,3.6,3.9,6.1V153h-1.7
				v-13.5c0-2.3-0.7-4.4-2.6-4.4c-1.5,0-3.1,1.4-3.1,5.7V153z"/>
			<path id="XMLID_859_" class="st2" d="M461.3,150.6L461.3,150.6c-1,1.8-2.3,2.8-4.1,2.8c-2.5,0-3.9-2.3-3.9-5.7
				c0-6.8,5-6.1,7.9-6.4v-1.6c0-2.8-0.6-4.5-2.9-4.5c-1.6,0-2.8,1-2.8,3.3h-1.8c0.1-3.7,2.3-5.2,4.7-5.2c1.4,0,4.4,0.2,4.4,5.1v9.7
				c0,1.4,0,2.6,0.2,4.9h-1.8V150.6z M461.2,143.1c-2.4,0.1-6.1-0.3-6.1,4.4c0,2.2,0.8,4,2.6,4c2,0,3.5-2.4,3.5-4.9V143.1z"/>
			<path id="XMLID_855_" class="st2" d="M482,125.4h1.8l-5.7,27.6h-2.3l-5.7-27.6h1.9l4.8,24.7h0.1L482,125.4z"/>
			<path id="XMLID_852_" class="st2" d="M491.5,150.6L491.5,150.6c-1,1.8-2.3,2.8-4.1,2.8c-2.5,0-3.9-2.3-3.9-5.7
				c0-6.8,5-6.1,7.9-6.4v-1.6c0-2.8-0.6-4.5-2.9-4.5c-1.6,0-2.8,1-2.8,3.3h-1.8c0.1-3.7,2.3-5.2,4.7-5.2c1.4,0,4.4,0.2,4.4,5.1v9.7
				c0,1.4,0,2.6,0.2,4.9h-1.8V150.6z M491.4,143.1c-2.4,0.1-6.1-0.3-6.1,4.4c0,2.2,0.8,4,2.6,4c2,0,3.5-2.4,3.5-4.9V143.1z"/>
			<path id="XMLID_850_" class="st2" d="M502.5,139.2c0.1-2.4-0.6-4.1-2.5-4.1c-1,0-1.9,0.8-2.3,2.2c-0.2,0.9-0.4,3.5-0.4,6.1
				c0,3.5,0,8.1,2.6,8.1c2.2,0,2.5-1.9,2.6-4.2h1.7c0.1,5.2-2.6,6.1-3.9,6.1c-4.8,0-4.8-5.2-4.8-9.9c0-1.9,0.1-4.9,0.4-6.4
				c0.7-2.8,2.3-3.7,4.3-3.7c2.5,0,4.1,1.9,4,5.9H502.5z"/>
			<path id="XMLID_841_" class="st2" d="M513.9,150.6L513.9,150.6c-1,1.8-2.3,2.8-4.1,2.8c-2.5,0-3.9-2.3-3.9-5.7
				c0-6.8,5-6.1,7.9-6.4v-1.6c0-2.8-0.6-4.5-2.9-4.5c-1.6,0-2.8,1-2.8,3.3h-1.8c0.1-3.7,2.3-5.2,4.7-5.2c1.4,0,4.4,0.2,4.4,5.1v9.7
				c0,1.4,0,2.6,0.2,4.9h-1.8V150.6z M513.8,143.1c-2.4,0.1-6.1-0.3-6.1,4.4c0,2.2,0.8,4,2.6,4c2,0,3.5-2.4,3.5-4.9V143.1z"/>
			<path id="XMLID_839_" class="st2" d="M517.3,135.5v-1.8h2.3v-4l1.7-1v5h2.9v1.8h-2.9v12.4c0,2.6,0.2,3.2,1.6,3.2
				c0.6,0,1,0,1.3-0.1v2c-0.5,0.1-1.1,0.1-1.6,0.1c-2.3,0-3-1.4-3-3.7v-13.8H517.3z"/>
			<path id="XMLID_836_" class="st2" d="M526.2,128.3v-2.9h2.1v2.9H526.2z M526.4,153v-19.3h1.7V153H526.4z"/>
			<path id="XMLID_832_" class="st2" d="M531.2,145.4v-4.6c0-2.4,0-7.5,4.9-7.5c4.9,0,4.9,5.1,4.9,7.5v4.6c0,5-1.3,7.9-4.9,7.9
				C532.4,153.3,531.2,150.4,531.2,145.4z M539,148.9c0.3-1,0.3-4.4,0.3-5.7c0-5.7-0.4-8.2-3.2-8.2c-2.8,0-3.2,2.5-3.2,8.2
				c0,1.2,0.1,4.7,0.3,5.7c0.1,0.5,0.5,2.6,2.9,2.6C538.4,151.5,538.8,149.4,539,148.9z"/>
			<path id="XMLID_830_" class="st2" d="M545.2,153h-1.7v-19.3h1.7v2.4h0.1c0.8-1.6,1.9-2.8,3.4-2.8c3.5,0,3.9,3.6,3.9,6.1V153h-1.7
				v-13.5c0-2.3-0.7-4.4-2.6-4.4c-1.5,0-3.1,1.4-3.1,5.7V153z"/>
			<path id="XMLID_828_" class="st2" d="M561.1,139.2c0-5.4-0.5-14.3,6.2-14.3c5.3,0,5,6.5,5,8h-1.9c0.1-3.1-0.7-5.9-3.2-5.9
				c-4.4,0-4.4,5.3-4.4,12.3c0,7-0.1,12.3,4.4,12.3c2.3,0,3.2-2.8,3.2-6.4h1.9c0,2-0.3,8.4-5.2,8.4
				C560.6,153.5,561.1,144.5,561.1,139.2z"/>
			<path id="XMLID_661_" class="st2" d="M575.3,153v-27.6h1.7V153H575.3z"/>
			<path id="XMLID_559_" class="st2" d="M589.5,133.7V153H588v-2.1h-0.1c-1,1.6-2,2.5-3.6,2.5c-2.9,0-3.8-2.9-3.8-6v-13.6h1.7v13.3
				c0,0.5-0.1,4.6,2.4,4.6c2.3,0,3.1-2.9,3.1-4.2v-13.6H589.5z"/>
			<path id="XMLID_475_" class="st2" d="M592.4,153c0.1-0.7,0.2-1.3,0.2-1.9v-25.7h1.7v10.5l0.1,0.1c0.9-1.8,2-2.6,3.6-2.6
				c4.6,0,4.3,6.6,4.3,10c0,4.2-0.3,10.1-4.4,10.1c-1.7,0-2.9-0.9-3.6-2.7h-0.1v2.3H592.4z M597.2,151.5c3.1,0,3.2-3.6,3.2-8.1
				c0-4.5-0.1-8.3-3.2-8.3c-2.7,0-3.1,5-3.1,7.9C594.2,146.1,594.2,151.5,597.2,151.5z"/>
		</g>
		<g id="XMLID_384_">
			<path id="XMLID_385_" class="st2" d="M36,38.9c-9,5.6-17.5,12.3-23.8,19.4c0,0,0,0-0.1,0.1c-0.1,0.2-0.3,0.3-0.4,0.5
				c-0.1,0.1-0.1,0.1-0.2,0.2C5.4,66.1,1.3,73.5,0.9,80.8c-1.1,18.8,19.7,32.8,19.7,32.8S1.2,99.3,12,84.2c0.6-0.8,1.4-1.8,2.6-2.8
				c2.5-2,56.4-39.3,76.9-44.7c16.4-4.3,31.7-1.4,36.7,0.3c-14-12.3-26.9-14.8-37.2-15.5C73.9,20.3,55.6,26.5,36,38.9z"/>
		</g>
		<path id="XMLID_383_" class="st3" d="M223.4,58.3C211.7,31.9,126.8-12.2,84.1,3.6C52.5,15.2,24.3,47.2,24.3,47.2s0,0,0.1,0
			c3.7-2.9,7.7-5.7,11.7-8.2C55.6,26.5,74,20.3,91,21.5c10.3,0.7,23.1,3.2,37.2,15.5c0,0,0,0,0,0c39.3,21,86.9,54.3,86.9,54.3
			S232.9,79.7,223.4,58.3z"/>
		<g id="XMLID_381_">
			<path id="XMLID_382_" class="st1" d="M182.6,157.8c14.4-9,27.9-19.6,38.1-31c0,0,0.1-0.1,0.1-0.1c0.2-0.3,0.5-0.5,0.7-0.8
				c0.1-0.1,0.2-0.2,0.3-0.3c9.9-11.3,16.4-23.2,17-34.7c1.7-30-32.1-51.4-32.1-51.4s30.6,21.3,14.8,45.4c-0.9,1.3-3,3.4-5,5.2
				c-3.7,3.4-100.3,67.7-122.4,71.3c-19.1,3.1-28-10.6-32-20.8c3.6,13.9,13.9,36.9,30.8,43.3C113.7,191.8,151.4,177.6,182.6,157.8z"
				/>
		</g>
		<path id="XMLID_380_" class="st3" d="M291.8,45.6C291.8,45.6,291.8,45.6,291.8,45.6c3.5-2.8,7.2-5.4,11.1-7.8"/>
	</g>
</g>
</svg>
