<svg xmlns="http://www.w3.org/2000/svg" viewBox="0 0 403.79 150.92"><defs><style>.cls-1{fill:#ad9365;}</style></defs><title>explorean-logo</title><g id="Capa_2" data-name="Capa 2"><g id="ARTE"><g id="_Grupo_" data-name="&lt;Grupo&gt;"><path id="_Trazado_compuesto_" data-name="&lt;Trazado compuesto&gt;" class="cls-1" d="M242.17,17.48V0H155.46V17.48H0V135.82H78.68v15.1L319,150.83v-15h84.83V17.48ZM160.12,4.65h77.4V36.52h-77.4ZM314.25,146.18H83.38V120.43H314.25Zm84.88-15H319V115.69l-240.27.08v15.39h-74v-109H155.46v19h86.71v-19h157Z"/><path id="_Trazado_compuesto_2" data-name="&lt;Trazado compuesto&gt;" class="cls-1" d="M162.44,7V34.19h72.75V7Zm24.26,5.95h-4.78V30.09h-1.66V12.92h-4.79v-1.4H186.7Zm17.41,17.16h-1.66V20.83h-7.25v9.26h-1.66V11.52h1.66v7.91h7.25V11.52h1.66Zm17.56,0h-9.44V11.52h9.21v1.4h-7.54v6.76h7v1.4h-7v7.59h7.78Z"/><g id="_Grupo_2" data-name="&lt;Grupo&gt;"><path id="_Trazado_" data-name="&lt;Trazado&gt;" class="cls-1" d="M99.73,130.55c0-1.5-.75-2.37-2.49-2.37h-2V133h2A2.2,2.2,0,0,0,99.73,130.55Z"/><path id="_Trazado_2" data-name="&lt;Trazado&gt;" class="cls-1" d="M242.71,128.18h-2.13v5.11h1.76c1.05,0,3,0,3-2.8C245.33,129.07,244.37,128.18,242.71,128.18Z"/><polygon id="_Trazado_3" data-name="&lt;Trazado&gt;" class="cls-1" points="201.68 128.76 199.68 135.75 203.56 135.75 201.72 128.76 201.68 128.76"/><path id="_Trazado_4" data-name="&lt;Trazado&gt;" class="cls-1" d="M97.36,134.3H95.23v5.43h2.43a2.37,2.37,0,0,0,2.53-2.68A2.54,2.54,0,0,0,97.36,134.3Z"/><polygon id="_Trazado_5" data-name="&lt;Trazado&gt;" class="cls-1" points="275.25 128.76 273.24 135.75 277.13 135.75 275.29 128.76 275.25 128.76"/><polygon id="_Trazado_6" data-name="&lt;Trazado&gt;" class="cls-1" points="182.56 128.76 180.56 135.75 184.45 135.75 182.6 128.76 182.56 128.76"/><polygon id="_Trazado_7" data-name="&lt;Trazado&gt;" class="cls-1" points="301.52 128.76 299.51 135.75 303.4 135.75 301.56 128.76 301.52 128.76"/><path id="_Trazado_compuesto_3" data-name="&lt;Trazado compuesto&gt;" class="cls-1" d="M85.71,122.72V143.8H311.93V122.72Zm11.67,18.47H93.45V126.72h4.44a3.37,3.37,0,0,1,3.71,3.71,3.1,3.1,0,0,1-2.11,3v0a3.3,3.3,0,0,1,2.57,3.57C102.06,140,100.4,141.18,97.38,141.18Zm13.42-5.67v5.67H109v-5.67l-3.83-8.79h2l2.76,6.77,2.86-6.77h1.86ZM133,128.3h-5.69v4.54h5.37v1.58h-5.37v6.77H125.5V126.72H133Zm5.74,12.89h-1.78V126.72h1.78Zm12.51,0H143.5V126.72H151v1.58h-5.69v4.54h5.37v1.58h-5.37v5.19h5.94Zm7.93.28c-3.38,0-4.38-1.74-4.38-4.82h1.78c0,1.62.1,3.36,2.71,3.36a2.44,2.44,0,0,0,2.51-2.55c0-4.09-6.83-1.72-6.83-7,0-1.34.57-4,4.24-4,2.76,0,4,1.38,4.05,4h-1.78c0-1.52-.55-2.57-2.25-2.57a2.15,2.15,0,0,0-2.39,2.35c0,4.07,6.83,1.64,6.83,6.93C163.65,140.52,161.19,141.47,159.15,141.47Zm16.78-13.17h-3.65v12.89H170.5V128.3h-3.63v-1.58h9.06Zm9.92,12.89-1-4h-4.62l-1.07,4h-1.86l4.17-14.47h2.39l3.89,14.47Zm19.12,0-1-4h-4.62l-1.07,4h-1.86l4.17-14.47h2.39l3.89,14.47Zm17.19,0h-1.78V128.54h0l-3.2,12.64h-1.78l-3.2-12.64h0v12.64h-1.78V126.72h3l2.9,11.47h0l2.9-11.47h3Zm12.55,0H227V126.72h7.48v1.58h-5.69v4.54h5.37v1.58h-5.37v5.19h5.94Zm11,0a4.4,4.4,0,0,1-.48-2.09l-.12-2.25c-.14-2-1.24-2.11-2.15-2.11h-2.41v6.44H238.8V126.72h4.68a3.39,3.39,0,0,1,3.71,3.63c0,1.58-.55,3.24-2.23,3.65v0a2.38,2.38,0,0,1,2,2.41l.12,2.47c.08,1.6.34,2,.77,2.27Zm7.79,0h-1.78V126.72h1.78Zm9.24.28c-4.11,0-4.66-3.87-4.66-7.52s.67-7.52,4.66-7.52c3,0,4.19,1.66,4.27,4.5h-1.86c0-1.64-.57-3-2.41-3-2.47,0-2.8,2.71-2.8,6.06s.32,6.06,2.8,6.06c2.17,0,2.47-2,2.53-3.79h1.87C267,139,265.94,141.47,262.78,141.47Zm15.75-.28-1-4h-4.62l-1.07,4h-1.86l4.17-14.47h2.39l3.89,14.47Zm14.23,0h-2.45l-4.64-11.71h0v11.71h-1.78V126.72h2.31l4.78,12.08h0V126.72h1.78Zm12,0-1-4h-4.62l-1.07,4h-1.86l4.17-14.47h2.39l3.89,14.47Z"/></g><g id="_Grupo_3" data-name="&lt;Grupo&gt;"><g id="_Grupo_4" data-name="&lt;Grupo&gt;"><g id="_Grupo_5" data-name="&lt;Grupo&gt;"><path id="_Trazado_compuesto_4" data-name="&lt;Trazado compuesto&gt;" class="cls-1" d="M37.48,44.47H66.94L68,58.2H65.89a1.6,1.6,0,0,0-.1-.76A11.78,11.78,0,0,0,63,50.68a7.91,7.91,0,0,0-5.65-2.52H37.48V67.63H52.41q4.54-.45,5-4.64a8,8,0,0,0,.05-1.87h2V77.77h-2A7.32,7.32,0,0,0,57.46,76q-.51-4.34-5-4.69H37.48V95.73h23q6.41-.3,7.47-8.78a5.22,5.22,0,0,0,.1-1.31h2.07V99.37H23.55v-2a15.44,15.44,0,0,0,1.82-.05,6.64,6.64,0,0,0,3.48-1.21,4.22,4.22,0,0,0,1.21-2.93V50.68a4.08,4.08,0,0,0-1.21-2.93,6.65,6.65,0,0,0-3.48-1.21,16.13,16.13,0,0,0-1.82,0v-2Z"/></g><g id="_Grupo_6" data-name="&lt;Grupo&gt;"><path id="_Trazado_compuesto_5" data-name="&lt;Trazado compuesto&gt;" class="cls-1" d="M91.26,57.85V59.4a4.42,4.42,0,0,0-2.13.46,1.32,1.32,0,0,0-.8,1.22,5.25,5.25,0,0,0,1.37,2.4l.91,1.18q.8,1,2.7,3.42t4.79,6.09L106.4,65q1.6-1.75,2.09-2.32a2.16,2.16,0,0,0,.76-1.52,1.35,1.35,0,0,0-.84-1.29,3.82,3.82,0,0,0-2.13-.5V57.85h12.17V59.4q-3.54.34-7,4.15Q99.89,76.33,99.82,76.33l10,12.67q.11.11,1.07,1.37t1.45,1.86L114,94.06a17.37,17.37,0,0,0,2,1.83,10.58,10.58,0,0,0,2.13,1.22,6.39,6.39,0,0,0,2.36.57v1.56H105.22V97.67a4.18,4.18,0,0,0,2.09-.46,1.29,1.29,0,0,0,.76-1.18,5.63,5.63,0,0,0-1.56-2.81q-2.74-3.5-4.57-5.74T99.74,84.7a7.86,7.86,0,0,0-.87-1.1,7.88,7.88,0,0,0-.84-1q-.3-.45-1.79-2.28L84.87,92.92c-.53.66-1.12,1.33-1.75,2a1.88,1.88,0,0,0-.49,1.1,1.45,1.45,0,0,0,.87,1.22,4.4,4.4,0,0,0,2.13.42v1.56H73.45V97.67A7.65,7.65,0,0,0,76,96.95a11.36,11.36,0,0,0,2.66-1.83q1.4-1.22,2.17-2t2.24-2.43q3.8-4.22,11.37-12.55L84.83,65.64a24.32,24.32,0,0,0-1.64-2,14.84,14.84,0,0,0-1.79-1.79,9.6,9.6,0,0,0-2.55-1.67,10.28,10.28,0,0,0-3-.8V57.85Z"/></g><g id="_Grupo_7" data-name="&lt;Grupo&gt;"><path id="_Trazado_compuesto_6" data-name="&lt;Trazado compuesto&gt;" class="cls-1" d="M139.92,58a20.76,20.76,0,0,1,6,.8,13.75,13.75,0,0,1,4.37,2,11.4,11.4,0,0,1,2.85,2.78,9.34,9.34,0,0,1,1.64,3.08,8.61,8.61,0,0,1,.46,3,9.83,9.83,0,0,1-.8,3.77,13,13,0,0,1-2.47,3.73A11.61,11.61,0,0,1,147.15,80,20.44,20.44,0,0,1,140,81.15h-5.52q0,4.6.08,13.62a2.82,2.82,0,0,0,.84,2.17,5.44,5.44,0,0,0,2.66.84l1.41,0v1.56H124.1V97.81l1.37,0a5.16,5.16,0,0,0,2.62-.84,2.74,2.74,0,0,0,.87-2.17V62.62a2.89,2.89,0,0,0-.91-2.21,4.83,4.83,0,0,0-2.59-.84,5.56,5.56,0,0,0-1.37,0V58ZM134.6,78.45h6.66a7.39,7.39,0,0,0,3.61-.84,6.14,6.14,0,0,0,2.43-2.17,9.51,9.51,0,0,0,1.33-2.81,11,11,0,0,0,.42-3,10.1,10.1,0,0,0-.46-3,10.84,10.84,0,0,0-1.37-2.85,6.43,6.43,0,0,0-2.47-2.17,7.52,7.52,0,0,0-3.61-.84H134.6Z"/></g><g id="_Grupo_8" data-name="&lt;Grupo&gt;"><path id="_Trazado_compuesto_7" data-name="&lt;Trazado compuesto&gt;" class="cls-1" d="M171.17,58.17v1.56a6,6,0,0,0-1.37,0,5.26,5.26,0,0,0-2.62.87,2.93,2.93,0,0,0-.91,2.17v34h16.58a5.9,5.9,0,0,0,4.26-1.94,8,8,0,0,0,2.06-4.68,2.55,2.55,0,0,1,.07-.49,3.23,3.23,0,0,0,.07-.5h1.52l-.76,10.35H155.77V98a11.83,11.83,0,0,0,1.37,0,5,5,0,0,0,2.62-.91,3.17,3.17,0,0,0,.91-2.21V62.81a2.89,2.89,0,0,0-.91-2.21,4.74,4.74,0,0,0-2.62-.84,5.56,5.56,0,0,0-1.37,0V58.17Z"/></g><g id="_Grupo_9" data-name="&lt;Grupo&gt;"><path id="_Trazado_compuesto_8" data-name="&lt;Trazado compuesto&gt;" class="cls-1" d="M203.05,60.74a14,14,0,0,1,3.15,4.64A13.43,13.43,0,0,1,207.36,71a14,14,0,0,1-1.18,5.64A13.79,13.79,0,0,1,203,81.25a14.94,14.94,0,0,1-10.48,4.23,15.32,15.32,0,0,1-5.77-1.16,14.23,14.23,0,0,1-7.89-7.71A14.08,14.08,0,0,1,177.74,71a13.77,13.77,0,0,1,1.18-5.64,14.14,14.14,0,0,1,3.15-4.61,15.07,15.07,0,0,1,4.71-3.1,14.43,14.43,0,0,1,5.77-1.13,14.69,14.69,0,0,1,5.77,1.16A14.44,14.44,0,0,1,203.05,60.74Zm-12.67-2.37a8.67,8.67,0,0,0-6.6,4.58,13,13,0,0,0-1.49,9.27,15.69,15.69,0,0,0,2.49,6.17,13.18,13.18,0,0,0,4.54,4.16,9.12,9.12,0,0,0,5.39,1.06,8.26,8.26,0,0,0,4.84-2.29,10.87,10.87,0,0,0,3-5,13.86,13.86,0,0,0,.28-6.5,14.54,14.54,0,0,0-2.29-5.84,12.87,12.87,0,0,0-4.13-4.11,9.26,9.26,0,0,0-5-1.51A4.42,4.42,0,0,0,190.38,58.38Z"/></g><g id="_Grupo_10" data-name="&lt;Grupo&gt;"><path id="_Trazado_compuesto_9" data-name="&lt;Trazado compuesto&gt;" class="cls-1" d="M223.41,58.17a21.65,21.65,0,0,1,7.23,1.1,12.44,12.44,0,0,1,4.91,2.85,11.3,11.3,0,0,1,2.55,3.73,8,8,0,0,1,.65,3.92,9.57,9.57,0,0,1-3.27,6.62q-3,2.7-8.6,3.46,1,1.14,4.49,5.33t5.36,6.35a33.17,33.17,0,0,0,4.56,4.53,8.9,8.9,0,0,0,4.79,1.86v1.56H230.6V97.92a3.94,3.94,0,0,0,2-.46,1.22,1.22,0,0,0,.76-1.18q0-.69-1.22-2.13-.34-.38-2.17-2.59-.46-.57-1.64-1.94t-3-3.58q-1.83-2.17-2.89-3.39c-.05-.1-.1-.15-.15-.15s0-.08,0-.08a1.07,1.07,0,0,0-.19-.23,1.69,1.69,0,0,0-.42-.49,3.64,3.64,0,0,0-3.54-1.1V95a3.59,3.59,0,0,0,.57,1.83,3.1,3.1,0,0,0,1.44.87l1.52.3L223,98v1.56H207.58V98L209,98a5.18,5.18,0,0,0,2.62-.84,2.85,2.85,0,0,0,.91-2.17V62.81a2.9,2.9,0,0,0-.91-2.21,4.76,4.76,0,0,0-2.62-.84,5.58,5.58,0,0,0-1.37,0V58.17Zm-5.33,19.7h5.14a9.3,9.3,0,0,0,6.69-2.51,7.56,7.56,0,0,0,2.62-5.55,10.21,10.21,0,0,0-.46-3,11,11,0,0,0-1.37-2.85,6.41,6.41,0,0,0-2.47-2.17,7.52,7.52,0,0,0-3.61-.84h-6.54Z"/></g><g id="_Grupo_11" data-name="&lt;Grupo&gt;"><path id="_Trazado_compuesto_10" data-name="&lt;Trazado compuesto&gt;" class="cls-1" d="M259.6,58.17h22.21l.76,10.35H281a1.23,1.23,0,0,0-.07-.57,8.89,8.89,0,0,0-2.13-5.1,6,6,0,0,0-4.26-1.9H259.6V75.63h11.26q3.43-.34,3.81-3.5a6.19,6.19,0,0,0,0-1.41h1.52V83.27H274.7a5.68,5.68,0,0,0,0-1.37,3.69,3.69,0,0,0-3.81-3.54H259.6V96.82h17.31q4.83-.23,5.63-6.62a3.87,3.87,0,0,0,.08-1h1.56V99.55H249.1V98a11.87,11.87,0,0,0,1.37,0,5,5,0,0,0,2.62-.91,3.18,3.18,0,0,0,.91-2.21v-32a3.08,3.08,0,0,0-.91-2.21,5,5,0,0,0-2.62-.91,11.66,11.66,0,0,0-1.37,0V58.17Z"/></g><g id="_Grupo_12" data-name="&lt;Grupo&gt;"><path id="_Trazado_compuesto_11" data-name="&lt;Trazado compuesto&gt;" class="cls-1" d="M313,57.92l13.85,31.46a15.86,15.86,0,0,1,.69,1.56q.23.38.72,1.48l.87,1.56q.38.45,1,1.33a7.73,7.73,0,0,0,1.18,1.22,11,11,0,0,0,1.37.76,6.36,6.36,0,0,0,1.64.46v1.56H320.63V97.75a4.23,4.23,0,0,0,2-.5,1.34,1.34,0,0,0,.76-1.22,1.39,1.39,0,0,0-.11-.61,22.25,22.25,0,0,0-.87-2.17q-3.61-8.37-4.19-9.62H301.61l-5.06,11.64a1.58,1.58,0,0,0-.19.76,1.45,1.45,0,0,0,.8,1.25,3.84,3.84,0,0,0,1.94.46v1.56H288.34V97.75c.46-.13.9-.27,1.33-.42l1.14-.46a4,4,0,0,0,1-.72l.84-.76a7.72,7.72,0,0,0,.76-1l.65-1a7.16,7.16,0,0,0,.61-1.1l.57-1.1a12.31,12.31,0,0,0,.53-1.22c.31-.66.48-1.05.53-1.18q1.37-3.08,5.14-11.3t5.74-12.78q2.05-4.64,2.78-6.85Zm-10.16,23H317q-3.58-8.14-7.11-16Z"/></g><g id="_Grupo_13" data-name="&lt;Grupo&gt;"><path id="_Trazado_compuesto_12" data-name="&lt;Trazado compuesto&gt;" class="cls-1" d="M349.43,57.85l24.08,32.56v-27A3.69,3.69,0,0,0,370,59.6a5.66,5.66,0,0,0-1.37,0V57.85h12.55v1.71a6.08,6.08,0,0,0-1.37,0q-3.2.38-3.54,3.81V99.23h-2.74q-3.58-4.94-12.59-16.93t-14.11-19V93.87a3.81,3.81,0,0,0,3.54,3.77l1.37,0v1.56H339.16V97.67l1.37,0a3.74,3.74,0,0,0,3.54-3.77V63.4a3.69,3.69,0,0,0-3.54-3.81,5.68,5.68,0,0,0-1.37,0V57.85Z"/></g></g><g id="_Grupo_14" data-name="&lt;Grupo&gt;"><path id="_Trazado_compuesto_13" data-name="&lt;Trazado compuesto&gt;" class="cls-1" d="M383.32,93a3.19,3.19,0,1,1-3.19,3.19A3.19,3.19,0,0,1,383.32,93Zm2.62,3.19a2.62,2.62,0,1,0-2.62,2.67A2.64,2.64,0,0,0,385.94,96.17Zm-3.89-1.85h1.44c.82,0,1.27.35,1.27,1.09a1,1,0,0,1-1,1L384.83,98h-.57l-1-1.56h-.61V98h-.57ZM383.23,96c.52,0,1,0,1-.58s-.41-.55-.81-.55h-.77V96Z"/></g></g></g></g></g></svg>