<svg id="ARTE" xmlns="http://www.w3.org/2000/svg" viewBox="0 0 183.46 77.08"><title>fa-logo</title><g id="_Group_" data-name="&lt;Group&gt;"><polygon id="_Path_" data-name="&lt;Path&gt;" points="120.64 26.18 120.64 31.42 125.93 31.42 125.93 33.41 120.64 33.41 120.64 41.32 117.63 41.32 117.63 24.2 127.31 24.2 127.31 26.18 120.64 26.18" style="fill:#8d8180"/><path id="_Compound_Path_" data-name="&lt;Compound Path&gt;" d="M930,9894.89c-1.24,0-1.8-.48-1.8-1.55s0.56-1.53,1.8-1.53,1.79,0.46,1.79,1.5-0.53,1.58-1.79,1.58m-1.46,1.87h2.89v12.42h-2.89v-12.42Z" transform="translate(-799.11 -9867.85)" style="fill:#8d8180"/><path id="_Compound_Path_2" data-name="&lt;Compound Path&gt;" d="M937.05,9903.33c0,3,1.14,4.07,4.2,4.07a27.59,27.59,0,0,0,3.2-.24v1.53a25.07,25.07,0,0,1-4.37.7c-3.91,0-6-2.14-6-6.12,0-4.17,2.21-6.74,5.73-6.74,2.59,0,4.22,1.14,4.87,3.37a11.29,11.29,0,0,1,.34,3.42h-8Zm2.59-5.17c-1.7,0-2.59,1.21-2.59,3.52h5c0-2.57-.66-3.52-2.43-3.52" transform="translate(-799.11 -9867.85)" style="fill:#8d8180"/><path id="_Path_2" data-name="&lt;Path&gt;" d="M950.63,9909.39a13.55,13.55,0,0,1-3.86-.66V9907a13.56,13.56,0,0,0,3.49.49c1.48,0,2.21-.51,2.21-1.58a1.59,1.59,0,0,0-1.12-1.45l-2.06-1c-1.68-.8-2.4-1.84-2.4-3.37,0-2.21,1.65-3.59,4.24-3.59a12,12,0,0,1,3.52.66v1.65a12.22,12.22,0,0,0-3-.43c-1.38,0-2,.43-2,1.36,0,0.63.36,1,1.43,1.55l2.09,1a3.26,3.26,0,0,1,2.11,3.23c0,2.33-1.8,3.83-4.61,3.83" transform="translate(-799.11 -9867.85)" style="fill:#8d8180"/><path id="_Path_3" data-name="&lt;Path&gt;" d="M961.72,9909.34c-2.5,0-3.47-1-3.47-3.52v-7.35h-1.68v-1.72h1.68v-2.84l2.89-1.07v3.91h3.81v1.72h-3.81v6.84c0,1.48.48,2,2,2a10.11,10.11,0,0,0,1.84-.19v1.65a13,13,0,0,1-3.23.61" transform="translate(-799.11 -9867.85)" style="fill:#8d8180"/><path id="_Compound_Path_3" data-name="&lt;Compound Path&gt;" d="M973.73,9909.17v-0.78a8.85,8.85,0,0,1-3.52.95,3.49,3.49,0,0,1-3.76-3.66c0-2.23,1.28-3.47,3.83-3.71,1.07-.1,2.06-0.14,3.37-0.14v-1.34c0-1.41-.63-2-2.25-2a24.77,24.77,0,0,0-3.86.39v-1.57a21,21,0,0,1,4.85-.82,4.63,4.63,0,0,1,3.13,1c0.73,0.66.95,1.53,0.95,3.4v8.3h-2.74Zm-0.07-5.82a16.82,16.82,0,0,0-2.28.14c-1.31.17-2,.85-2,1.92,0,1.31.8,2,2.38,2a8.6,8.6,0,0,0,1.89-.22v-3.81Z" transform="translate(-799.11 -9867.85)" style="fill:#8d8180"/><path id="_Compound_Path_4" data-name="&lt;Compound Path&gt;" d="M875.21,9930.16l-1.82-5.46h-5.8l-1.72,5.46h-2.72l6.11-17.13h3.18l5.89,17.13h-3.13Zm-4.73-14.6-2.28,7.2h4.58Z" transform="translate(-799.11 -9867.85)" style="fill:#8d8180"/><path id="_Compound_Path_5" data-name="&lt;Compound Path&gt;" d="M903.65,9924.31c0,3,1.14,4.07,4.2,4.07a27.63,27.63,0,0,0,3.2-.24v1.53a24.76,24.76,0,0,1-4.37.7c-3.91,0-6-2.13-6-6.11,0-4.17,2.21-6.74,5.73-6.74,2.59,0,4.22,1.14,4.87,3.37a11.3,11.3,0,0,1,.34,3.42h-8Zm2.59-5.17c-1.7,0-2.59,1.21-2.59,3.52h5c0-2.57-.65-3.52-2.43-3.52" transform="translate(-799.11 -9867.85)" style="fill:#8d8180"/><path id="_Path_4" data-name="&lt;Path&gt;" d="M918.68,9919.85a9.56,9.56,0,0,0-1.84.22v10.09H914v-12.42h2.82v0.92a10.36,10.36,0,0,1,3.15-1.09,3,3,0,0,1,1.36.29v2.52a5.7,5.7,0,0,0-2.59-.53" transform="translate(-799.11 -9867.85)" style="fill:#8d8180"/><path id="_Compound_Path_6" data-name="&lt;Compound Path&gt;" d="M924.58,9915.87c-1.24,0-1.8-.48-1.8-1.55s0.56-1.53,1.8-1.53,1.79,0.46,1.79,1.5-0.53,1.57-1.79,1.57m-1.46,1.87H926v12.42h-2.89v-12.42Z" transform="translate(-799.11 -9867.85)" style="fill:#8d8180"/><path id="_Path_5" data-name="&lt;Path&gt;" d="M934.41,9930.35c-3.66,0-5.77-2.23-5.77-6.14,0-4.17,2.43-6.67,6.48-6.67a11.55,11.55,0,0,1,3.4.63v1.63a11.63,11.63,0,0,0-2.76-.31c-2.72,0-4.08,1.48-4.08,4.49s1.31,4.34,4.22,4.34a15,15,0,0,0,2.62-.27v1.6a17.4,17.4,0,0,1-4.1.7" transform="translate(-799.11 -9867.85)" style="fill:#8d8180"/><path id="_Compound_Path_7" data-name="&lt;Compound Path&gt;" d="M947.38,9930.16v-0.78a8.87,8.87,0,0,1-3.52.95,3.49,3.49,0,0,1-3.76-3.66c0-2.23,1.28-3.47,3.83-3.71,1.07-.1,2.06-0.14,3.37-0.14v-1.34c0-1.41-.63-2-2.26-2a24.72,24.72,0,0,0-3.86.39v-1.57a21,21,0,0,1,4.85-.82,4.65,4.65,0,0,1,3.13,1c0.73,0.66.95,1.53,0.95,3.4v8.3h-2.74Zm-0.07-5.82a16.86,16.86,0,0,0-2.28.15c-1.31.17-2,.85-2,1.92,0,1.31.8,2,2.38,2a8.62,8.62,0,0,0,1.89-.22v-3.81Z" transform="translate(-799.11 -9867.85)" style="fill:#8d8180"/><path id="_Path_6" data-name="&lt;Path&gt;" d="M961.19,9930.15v-7.64c0-2.18-.63-2.91-2.55-2.91a12,12,0,0,0-2.38.29v10.26h-2.89v-12.42h2.82v0.78a10.8,10.8,0,0,1,4.1-1,4,4,0,0,1,2.94,1.21c0.63,0.78.85,1.68,0.85,3.47v8h-2.89Z" transform="translate(-799.11 -9867.85)" style="fill:#8d8180"/><path id="_Compound_Path_8" data-name="&lt;Compound Path&gt;" d="M973.73,9930.16v-0.78a8.85,8.85,0,0,1-3.52.95,3.49,3.49,0,0,1-3.76-3.66c0-2.23,1.28-3.47,3.83-3.71,1.07-.1,2.06-0.14,3.37-0.14v-1.34c0-1.41-.63-2-2.25-2a24.75,24.75,0,0,0-3.86.39v-1.57a21,21,0,0,1,4.85-.82,4.65,4.65,0,0,1,3.13,1c0.73,0.66.95,1.53,0.95,3.4v8.3h-2.74Zm-0.07-5.82a16.77,16.77,0,0,0-2.28.15c-1.31.17-2,.85-2,1.92,0,1.31.8,2,2.38,2a8.6,8.6,0,0,0,1.89-.22v-3.81Z" transform="translate(-799.11 -9867.85)" style="fill:#8d8180"/><path id="_Compound_Path_9" data-name="&lt;Compound Path&gt;" d="M981,9930.32a1.54,1.54,0,1,1,1.56-1.54,1.55,1.55,0,0,1-1.56,1.54m0-2.83a1.29,1.29,0,1,0,1.29,1.29,1.29,1.29,0,0,0-1.29-1.29m0.29,2.21-0.5-.84h-0.05v0.84h-0.41v-1.85h0.61c0.5,0,.68.13,0.68,0.48a0.46,0.46,0,0,1-.41.49l0.58,0.88h-0.5Zm-0.4-1.58h-0.16v0.52h0.15a0.25,0.25,0,0,0,.3-0.27,0.23,0.23,0,0,0-.29-0.26" transform="translate(-799.11 -9867.85)" style="fill:#8d8180"/><path id="_Path_7" data-name="&lt;Path&gt;" d="M895.71,9930.15v-7.67c0-2.16-.63-2.89-2.55-2.89a11.24,11.24,0,0,0-2.59.37,3.79,3.79,0,0,1,.22,1.48v8.71H887.9v-8.1c0-1.82-.63-2.45-2.47-2.45a12.8,12.8,0,0,0-2.45.29v10.26h-2.89v-12.42h2.81v0.78a11.7,11.7,0,0,1,4.17-1,3.77,3.77,0,0,1,2.84,1.09c2.53-.78,3.15-1.09,4.59-1.09,3,0,4.1,1.29,4.1,4.66v8h-2.89Z" transform="translate(-799.11 -9867.85)" style="fill:#8d8180"/><polygon id="_Path_8" data-name="&lt;Path&gt;" points="68.38 76.97 68.38 74.23 65.6 74.23 65.6 76.97 64.45 76.97 64.45 70.86 65.6 70.86 65.6 73.44 68.38 73.44 68.38 70.86 69.53 70.86 69.53 76.97 68.38 76.97" style="fill:#8d8180"/><path id="_Compound_Path_10" data-name="&lt;Compound Path&gt;" d="M875.07,9944.93a2.73,2.73,0,0,1-2.91-3.05c0-2,1.16-3.26,2.92-3.26a2.73,2.73,0,0,1,2.91,3c0,2.05-1.17,3.27-2.92,3.27m0-5.52c-1.07,0-1.73.82-1.73,2.38s0.62,2.35,1.72,2.35,1.73-.82,1.73-2.41-0.65-2.32-1.72-2.32" transform="translate(-799.11 -9867.85)" style="fill:#8d8180"/><polygon id="_Path_9" data-name="&lt;Path&gt;" points="84.43 71.65 84.43 76.97 83.28 76.97 83.28 71.65 81.5 71.65 81.5 70.86 86.22 70.86 86.22 71.65 84.43 71.65" style="fill:#8d8180"/><polygon id="_Path_10" data-name="&lt;Path&gt;" points="89.38 76.97 89.38 70.86 93.08 70.86 93.08 71.64 90.53 71.64 90.53 73.44 92.69 73.44 92.69 74.2 90.53 74.2 90.53 76.21 93.22 76.21 93.22 76.97 89.38 76.97" style="fill:#8d8180"/><polygon id="_Path_11" data-name="&lt;Path&gt;" points="96.51 76.97 96.51 70.86 97.66 70.86 97.66 76.21 100.02 76.21 100.02 76.97 96.51 76.97" style="fill:#8d8180"/><path id="_Path_12" data-name="&lt;Path&gt;" d="M903.76,9944.91a7,7,0,0,1-1.77-.32v-0.71a8,8,0,0,0,1.63.25,1,1,0,0,0,1.25-.79,0.93,0.93,0,0,0-.68-0.9l-1-.51a1.73,1.73,0,0,1-1.13-1.63c0-1.16.89-1.64,2-1.64a5.58,5.58,0,0,1,1.66.31v0.71a6,6,0,0,0-1.44-.24c-0.66,0-1.15.13-1.15,0.71a1.09,1.09,0,0,0,.84.91l0.83,0.41a1.71,1.71,0,0,1,1.15,1.68c0,1.2-1,1.79-2.24,1.79" transform="translate(-799.11 -9867.85)" style="fill:#8d8180"/><path id="_Compound_Path_11" data-name="&lt;Compound Path&gt;" d="M917.87,9944.83l-0.32-.36a3.36,3.36,0,0,1-1.81.46c-1.5,0-2.41-.72-2.41-1.89,0-.83.3-1.23,1.36-1.79l-0.21-.24a2.15,2.15,0,0,1-.63-1.38,1.61,1.61,0,0,1,1.85-1.6,1.51,1.51,0,0,1,1.78,1.51c0,0.78-.36,1.24-1.37,1.72l1.8,2a1.73,1.73,0,0,0,.31-1.25v-0.3h1c0,0.08,0,0,0,.33a2.2,2.2,0,0,1-.8,1.83l0.89,1h-1.48Zm-2.76-3.1a1.17,1.17,0,0,0-.62,1.11,1.26,1.26,0,0,0,1.45,1.31,2.17,2.17,0,0,0,1.1-.26Zm0.62-3a0.71,0.71,0,0,0-.79.79,1.47,1.47,0,0,0,.51,1.05l0.26,0.27a1.42,1.42,0,0,0,.81-1.27,0.72,0.72,0,0,0-.79-0.84" transform="translate(-799.11 -9867.85)" style="fill:#8d8180"/><path id="_Compound_Path_12" data-name="&lt;Compound Path&gt;" d="M930.32,9944.83l-1.75-2.84H928v2.84h-1.14v-6.11h2a2.81,2.81,0,0,1,1.55.27,1.37,1.37,0,0,1,.65,1.26,1.57,1.57,0,0,1-1.38,1.63l2,2.95h-1.37Zm-1.46-5.43H928v2h0.79a0.93,0.93,0,0,0,1.1-1,0.87,0.87,0,0,0-1.07-1" transform="translate(-799.11 -9867.85)" style="fill:#8d8180"/><polygon id="_Path_13" data-name="&lt;Path&gt;" points="135.73 76.97 135.73 70.86 139.43 70.86 139.43 71.64 136.87 71.64 136.87 73.44 139.03 73.44 139.03 74.2 136.87 74.2 136.87 76.21 139.57 76.21 139.57 76.97 135.73 76.97" style="fill:#8d8180"/><path id="_Path_14" data-name="&lt;Path&gt;" d="M943.46,9944.91a7,7,0,0,1-1.76-.32v-0.71a7.92,7.92,0,0,0,1.62.25,1,1,0,0,0,1.25-.79,0.94,0.94,0,0,0-.68-0.9l-1-.51a1.73,1.73,0,0,1-1.13-1.63c0-1.16.89-1.64,2-1.64a5.61,5.61,0,0,1,1.66.31v0.71a6,6,0,0,0-1.45-.24c-0.66,0-1.15.13-1.15,0.71a1.09,1.09,0,0,0,.84.91l0.83,0.41a1.71,1.71,0,0,1,1.15,1.68c0,1.2-1,1.79-2.24,1.79" transform="translate(-799.11 -9867.85)" style="fill:#8d8180"/><path id="_Compound_Path_13" data-name="&lt;Compound Path&gt;" d="M951.61,9944.93a2.73,2.73,0,0,1-2.91-3.05c0-2,1.16-3.26,2.92-3.26a2.73,2.73,0,0,1,2.91,3c0,2.05-1.17,3.27-2.92,3.27m0-5.52c-1.07,0-1.73.82-1.73,2.38s0.63,2.35,1.72,2.35,1.73-.82,1.73-2.41-0.65-2.32-1.72-2.32" transform="translate(-799.11 -9867.85)" style="fill:#8d8180"/><path id="_Compound_Path_14" data-name="&lt;Compound Path&gt;" d="M961.46,9944.83l-1.75-2.84h-0.52v2.84H958v-6.11h2a2.8,2.8,0,0,1,1.55.27,1.37,1.37,0,0,1,.65,1.26,1.57,1.57,0,0,1-1.38,1.63l2,2.95h-1.37ZM960,9939.4h-0.82v2H960a0.92,0.92,0,0,0,1.09-1,0.87,0.87,0,0,0-1.07-1" transform="translate(-799.11 -9867.85)" style="fill:#8d8180"/><polygon id="_Path_15" data-name="&lt;Path&gt;" points="169 71.65 169 76.97 167.85 76.97 167.85 71.65 166.06 71.65 166.06 70.86 170.79 70.86 170.79 71.65 169 71.65" style="fill:#8d8180"/><path id="_Path_16" data-name="&lt;Path&gt;" d="M974.45,9944.91a7,7,0,0,1-1.77-.32v-0.71a8,8,0,0,0,1.63.25,1,1,0,0,0,1.25-.79,0.94,0.94,0,0,0-.68-0.9l-1-.51a1.73,1.73,0,0,1-1.13-1.63c0-1.16.89-1.64,2-1.64a5.6,5.6,0,0,1,1.66.31v0.71a6,6,0,0,0-1.44-.24c-0.66,0-1.15.13-1.15,0.71a1.09,1.09,0,0,0,.84.91l0.83,0.41a1.71,1.71,0,0,1,1.15,1.68c0,1.2-1,1.79-2.24,1.79" transform="translate(-799.11 -9867.85)" style="fill:#8d8180"/><path id="_Path_17" data-name="&lt;Path&gt;" d="M890.11,9910.65a5.64,5.64,0,0,1-1.87-1.14,9.28,9.28,0,0,1-2.79-6.69,10.07,10.07,0,0,1,5.47-9,78.39,78.39,0,0,1-10.45,3.73,11,11,0,0,0-.38,2.82,8.93,8.93,0,0,0,5.59,8.69Z" transform="translate(-799.11 -9867.85)" style="fill:#e68224"/><path id="_Path_18" data-name="&lt;Path&gt;" d="M806.06,9937.26l-4-2.56a8.49,8.49,0,0,0,4.7,1.19c12.4,0,33.06-24.36,37.41-29.23,3.09-3.46,8.08-9.08,12.39-14s21-24.85,34.33-24.85a14.58,14.58,0,0,1,3.26.34l8.27,1.9a6.68,6.68,0,0,0-1.52-.16c-11,0-29.19,21.67-33,26.55-4.06,5.19-8,9.95-12.07,14.82s-21.92,27.42-43.84,27.42a10.84,10.84,0,0,1-6-1.45" transform="translate(-799.11 -9867.85)" style="fill:#e68224"/><path id="_Path_19" data-name="&lt;Path&gt;" d="M867.93,9896.48c-1.22,1.57-2.44,3.09-3.65,4.59,10.33-1.66,19.56-4,26.72-7.26l-6.82-2a72.32,72.32,0,0,1-16.24,4.72" transform="translate(-799.11 -9867.85)" style="fill:#eaa820"/><path id="_Path_20" data-name="&lt;Path&gt;" d="M888.24,9909.51a9.58,9.58,0,0,0,8.42-5.65,9.14,9.14,0,0,1,.17,1.65c0,3.17-2,5.44-5,5.44a5,5,0,0,1-1.7-.29,5.62,5.62,0,0,1-1.87-1.14" transform="translate(-799.11 -9867.85)" style="fill:#eaa820"/><path id="_Path_21" data-name="&lt;Path&gt;" d="M900.94,9869.93a6.87,6.87,0,0,1,1.52.16c2.53,0.58,3.94,2.66,3.94,5.53,0,6.32-5.94,13.38-16.9,13.38,0,0,10.15-5.5,10.15-14.29a6.36,6.36,0,0,0-1.52-4.37,10.68,10.68,0,0,1,2.8-.41" transform="translate(-799.11 -9867.85)" style="fill:#eaa820"/><path id="_Path_22" data-name="&lt;Path&gt;" d="M802.1,9934.71a7,7,0,0,0,2.21.92,8.52,8.52,0,0,1-1.45-5.1c0-12.61,21.36-22.66,44.06-26.9l4.39-4.95c-24.41,3.62-52.2,12.6-52.2,29.7,0,1.74.45,4.69,3,6.33" transform="translate(-799.11 -9867.85)" style="fill:#eaa820"/></g></svg>