<svg xmlns="http://www.w3.org/2000/svg" viewBox="0 0 505.24 164.23"><defs><style>.cls-1,.cls-2{fill:#fff;}.cls-3{fill:#c73136;}</style></defs><title>fiestainn-white-logo</title><g id="Capa_2" data-name="Capa 2"><g id="ARTE"><g id="_Grupo_" data-name="&lt;Grupo&gt;"><path id="_Trazado_compuesto_" data-name="&lt;Trazado compuesto&gt;" class="cls-1" d="M493.61,99.65A5.19,5.19,0,1,1,498.8,105a5.16,5.16,0,0,1-5.19-5.35m5.19,6.41a6.38,6.38,0,1,0-6.47-6.41,6.36,6.36,0,0,0,6.47,6.41m-1.35-5.89h1.29l1.94,3.19h1.24l-2.08-3.23a1.93,1.93,0,0,0,1.9-2c0-1.43-.87-2.09-2.6-2.09h-2.79v7.37h1.09Zm0-1V97H499c.79,0,1.61.16,1.61,1.08,0,1.11-.84,1.18-1.79,1.18Z"/><polygon id="_Trazado_" data-name="&lt;Trazado&gt;" class="cls-1" points="171.97 106.05 167.71 106.05 167.71 69.73 197.53 69.73 197.53 73.99 171.97 73.99 171.97 85.08 187.9 85.08 187.9 89.34 171.97 89.34 171.97 106.05"/><rect id="_Trazado_2" data-name="&lt;Trazado&gt;" class="cls-1" x="207.31" y="69.73" width="4.26" height="36.32"/><polygon id="_Trazado_3" data-name="&lt;Trazado&gt;" class="cls-1" points="252.79 106.05 221.88 106.05 221.88 69.73 251.72 69.73 251.72 73.99 226.15 73.99 226.15 85.08 239.61 85.08 239.61 89.34 226.15 89.34 226.15 101.79 252.79 101.79 252.79 106.05"/><path id="_Trazado_4" data-name="&lt;Trazado&gt;" class="cls-1" d="M281.15,84.74c6.79,0,13.66,2.47,13.66,10.51,0,7.89-8.42,11.57-17.33,11.57-11,0-16-5.52-18.16-7.8l3.06-3c2.22,2,5.85,6.54,15.24,6.54,8.19,0,12.93-3.1,12.93-7.31,0-4.56-4.6-6.25-8.22-6.25h-7.66c-7,0-12.68-2.32-12.68-9.1,0-5,4.55-10.94,15.69-10.94a24.17,24.17,0,0,1,15.2,5.33l-2.66,3.34c-2.61-1.74-6.1-4.41-12.64-4.41-8.18,0-11.32,3.83-11.32,6.68,0,4.84,6.15,4.84,10.51,4.84Z"/><polygon id="_Trazado_5" data-name="&lt;Trazado&gt;" class="cls-1" points="317.13 106.05 312.86 106.05 312.86 73.99 299.59 73.99 299.59 69.73 330.4 69.73 330.4 73.99 317.13 73.99 317.13 106.05"/><path id="_Trazado_compuesto_2" data-name="&lt;Trazado compuesto&gt;" class="cls-1" d="M369,106.05h-4.74l-5.91-12.44H340.9l-5.73,12.44h-4.73l17.28-36.32H352ZM349.86,74.92,343,89.35h13.42Z"/><rect id="_Trazado_6" data-name="&lt;Trazado&gt;" class="cls-1" x="397.89" y="69.73" width="4.26" height="36.32"/><polygon id="_Trazado_7" data-name="&lt;Trazado&gt;" class="cls-1" points="445.1 106.05 440.85 106.05 417.3 76.46 417.21 76.46 417.21 106.05 412.94 106.05 412.94 69.73 417.21 69.73 440.74 99.7 440.85 99.7 440.85 69.73 445.1 69.73 445.1 106.05"/><polygon id="_Trazado_8" data-name="&lt;Trazado&gt;" class="cls-1" points="487.85 106.05 483.59 106.05 460.06 76.46 459.97 76.46 459.97 106.05 455.7 106.05 455.7 69.73 459.97 69.73 483.49 99.7 483.59 99.7 483.59 69.73 487.85 69.73 487.85 106.05"/><path id="_Trazado_9" data-name="&lt;Trazado&gt;" class="cls-2" d="M77.07,49.93V67.06c0,12,12,12,12,12h35.12V37.89H89.11c-12,0-12,12-12,12"/><path id="_Trazado_10" data-name="&lt;Trazado&gt;" class="cls-2" d="M77.07,118v46.2h31.52s15.64,0,15.64-15.64V106H89.11c-12,0-12,12-12,12"/><path id="_Trazado_11" data-name="&lt;Trazado&gt;" class="cls-3" d="M108.59,0h-93S0,0,0,15.65V148.6s0,15.64,15.62,15.64H77.07V118s0-12,12-12h35.12V79.1H89.11s-12,0-12-12V49.93s0-12,12-12h35.12V15.65S124.23,0,108.59,0"/><polygon id="_Trazado_12" data-name="&lt;Trazado&gt;" class="cls-1" points="178.36 135.07 176.92 135.07 176.92 129.37 169.02 129.37 169.02 135.07 167.58 135.07 167.58 122.8 169.02 122.8 169.02 127.94 176.92 127.94 176.92 122.8 178.36 122.8 178.36 135.07"/><path id="_Trazado_compuesto_3" data-name="&lt;Trazado compuesto&gt;" class="cls-1" d="M190.84,122.54a6.41,6.41,0,1,1-6.59,6.39,6.46,6.46,0,0,1,6.59-6.39m0,11.37a5,5,0,1,0-5.15-5,5,5,0,0,0,5.15,5"/><polygon id="_Trazado_13" data-name="&lt;Trazado&gt;" class="cls-1" points="207.75 135.07 206.31 135.07 206.31 124.24 201.84 124.24 201.84 122.8 212.24 122.8 212.24 124.24 207.75 124.24 207.75 135.07"/><polygon id="_Trazado_14" data-name="&lt;Trazado&gt;" class="cls-1" points="227.82 135.07 217.37 135.07 217.37 122.8 227.46 122.8 227.46 124.24 218.8 124.24 218.8 127.99 223.36 127.99 223.36 129.42 218.8 129.42 218.8 133.63 227.82 133.63 227.82 135.07"/><polygon id="_Trazado_15" data-name="&lt;Trazado&gt;" class="cls-1" points="242.4 135.07 233.25 135.07 233.25 122.8 234.69 122.8 234.69 133.63 242.4 133.63 242.4 135.07"/><polygon id="_Trazado_16" data-name="&lt;Trazado&gt;" class="cls-1" points="257.19 135.07 246.74 135.07 246.74 122.8 256.83 122.8 256.83 124.24 248.19 124.24 248.19 127.99 252.74 127.99 252.74 129.42 248.19 129.42 248.19 133.63 257.19 133.63 257.19 135.07"/><path id="_Trazado_17" data-name="&lt;Trazado&gt;" class="cls-1" d="M268.26,127.87c2.29,0,4.61.84,4.61,3.55s-2.84,3.93-5.86,3.93a7.67,7.67,0,0,1-6.14-2.63l1-1a6.51,6.51,0,0,0,5.16,2.21c2.77,0,4.37-1.05,4.37-2.49s-1.57-2.11-2.79-2.11h-2.59c-2.36,0-4.29-.78-4.29-3.08,0-1.7,1.53-3.69,5.31-3.69a8.17,8.17,0,0,1,5.14,1.8l-.9,1.12A6.83,6.83,0,0,0,267,124c-2.76,0-3.82,1.29-3.82,2.25,0,1.64,2.08,1.64,3.56,1.64Z"/><path id="_Trazado_compuesto_4" data-name="&lt;Trazado compuesto&gt;" class="cls-1" d="M292.49,122.8c1.93,0,3.85,1,3.85,3.36a2.79,2.79,0,0,1-1.18,2.49,3.54,3.54,0,0,1,1.76,3c0,2.84-2.34,3.45-4.43,3.45h-6.84V122.8Zm0,5.28c1.58,0,2.41-.81,2.41-2,0-1-.77-1.84-2.41-1.84h-5.4v3.84Zm0,5.56c1.8,0,3-.46,3-2s-1.15-2.18-3-2.18h-5.4v4.13Z"/><path id="_Trazado_18" data-name="&lt;Trazado&gt;" class="cls-1" d="M313.42,130.3c0,3.15-1.66,5-5.42,5s-5.42-1.89-5.42-5v-7.51H304v7.51c0,2.61,1.37,3.6,4,3.6s4-1,4-3.6v-7.51h1.44Z"/><path id="_Trazado_19" data-name="&lt;Trazado&gt;" class="cls-1" d="M325.76,127.87c2.29,0,4.63.84,4.63,3.55s-2.85,3.93-5.87,3.93a7.69,7.69,0,0,1-6.14-2.63l1-1a6.56,6.56,0,0,0,5.16,2.21c2.77,0,4.37-1.05,4.37-2.49s-1.56-2.11-2.79-2.11h-2.59c-2.37,0-4.28-.78-4.28-3.08,0-1.7,1.54-3.69,5.3-3.69a8.11,8.11,0,0,1,5.13,1.8l-.9,1.12a6.8,6.8,0,0,0-4.27-1.48c-2.76,0-3.82,1.29-3.82,2.25,0,1.64,2.07,1.64,3.54,1.64Z"/><rect id="_Trazado_20" data-name="&lt;Trazado&gt;" class="cls-1" x="335.58" y="122.79" width="1.45" height="12.28"/><polygon id="_Trazado_21" data-name="&lt;Trazado&gt;" class="cls-1" points="354.65 135.07 353.21 135.07 345.24 125.07 345.21 125.07 345.21 135.07 343.77 135.07 343.77 122.8 345.21 122.8 353.16 132.93 353.21 132.93 353.21 122.8 354.65 122.8 354.65 135.07"/><polygon id="_Trazado_22" data-name="&lt;Trazado&gt;" class="cls-1" points="371.63 135.07 361.17 135.07 361.17 122.8 371.26 122.8 371.26 124.24 362.61 124.24 362.61 127.99 367.17 127.99 367.17 129.42 362.61 129.42 362.61 133.63 371.63 133.63 371.63 135.07"/><path id="_Trazado_23" data-name="&lt;Trazado&gt;" class="cls-1" d="M382.69,127.87c2.29,0,4.62.84,4.62,3.55s-2.84,3.93-5.85,3.93a7.68,7.68,0,0,1-6.15-2.63l1-1a6.57,6.57,0,0,0,5.17,2.21c2.76,0,4.37-1.05,4.37-2.49s-1.55-2.11-2.78-2.11H380.5c-2.38,0-4.29-.78-4.29-3.08,0-1.7,1.54-3.69,5.31-3.69a8,8,0,0,1,5.12,1.8l-.88,1.12a6.87,6.87,0,0,0-4.28-1.48c-2.78,0-3.83,1.29-3.83,2.25,0,1.64,2.08,1.64,3.55,1.64Z"/><path id="_Trazado_24" data-name="&lt;Trazado&gt;" class="cls-1" d="M398.12,127.87c2.29,0,4.61.84,4.61,3.55s-2.84,3.93-5.86,3.93a7.67,7.67,0,0,1-6.14-2.63l1-1a6.58,6.58,0,0,0,5.17,2.21c2.76,0,4.37-1.05,4.37-2.49s-1.57-2.11-2.79-2.11h-2.58c-2.38,0-4.29-.78-4.29-3.08,0-1.7,1.53-3.69,5.3-3.69a8.19,8.19,0,0,1,5.14,1.8l-.9,1.12a6.91,6.91,0,0,0-4.28-1.48c-2.77,0-3.83,1.29-3.83,2.25,0,1.64,2.09,1.64,3.56,1.64Z"/><path id="_Trazado_25" data-name="&lt;Trazado&gt;" class="cls-1" d="M427.43,132.9a7.67,7.67,0,0,1-5.91,2.45c-3.31,0-6.8-2.17-6.8-6.42a6.36,6.36,0,0,1,6.6-6.39,8.15,8.15,0,0,1,5.93,2.44l-1,1a7.42,7.42,0,0,0-4.86-2,5,5,0,0,0-5.2,4.93,5.16,5.16,0,0,0,5.45,5,6.43,6.43,0,0,0,4.85-2.1Z"/><polygon id="_Trazado_26" data-name="&lt;Trazado&gt;" class="cls-1" points="442.21 135.07 433.05 135.07 433.05 122.8 434.49 122.8 434.49 133.63 442.21 133.63 442.21 135.07"/><path id="_Trazado_compuesto_5" data-name="&lt;Trazado compuesto&gt;" class="cls-1" d="M457.56,135.07H456l-2-4.21h-5.91l-1.95,4.21h-1.58l5.85-12.28h1.44Zm-6.48-10.53-2.31,4.87h4.53Z"/><path id="_Trazado_27" data-name="&lt;Trazado&gt;" class="cls-1" d="M467.74,127.87c2.29,0,4.61.84,4.61,3.55s-2.83,3.93-5.85,3.93a7.64,7.64,0,0,1-6.14-2.63l1-1a6.55,6.55,0,0,0,5.16,2.21c2.76,0,4.37-1.05,4.37-2.49s-1.55-2.11-2.78-2.11h-2.59c-2.37,0-4.27-.78-4.27-3.08,0-1.7,1.53-3.69,5.29-3.69a8.18,8.18,0,0,1,5.15,1.8l-.91,1.12a6.82,6.82,0,0,0-4.27-1.48c-2.77,0-3.83,1.29-3.83,2.25,0,1.64,2.08,1.64,3.55,1.64Z"/><path id="_Trazado_28" data-name="&lt;Trazado&gt;" class="cls-1" d="M483.18,127.87c2.29,0,4.62.84,4.62,3.55s-2.86,3.93-5.86,3.93a7.71,7.71,0,0,1-6.15-2.63l1-1A6.56,6.56,0,0,0,482,133.9c2.76,0,4.38-1.05,4.38-2.49s-1.55-2.11-2.78-2.11H481c-2.38,0-4.29-.78-4.29-3.08,0-1.7,1.53-3.69,5.31-3.69a8.13,8.13,0,0,1,5.13,1.8l-.9,1.12A6.8,6.8,0,0,0,482,124c-2.76,0-3.83,1.29-3.83,2.25,0,1.64,2.08,1.64,3.56,1.64Z"/></g></g></g></svg>