<svg id="ARTE" xmlns="http://www.w3.org/2000/svg" viewBox="0 0 173.34 56.35"><title>fiestainn-logo</title><g id="_Group_" data-name="&lt;Group&gt;"><path id="_Compound_Path_" data-name="&lt;Compound Path&gt;" d="M1331.33,9912.41a1.78,1.78,0,1,1,1.78,1.83,1.77,1.77,0,0,1-1.78-1.83m1.78,2.2a2.19,2.19,0,1,0-2.22-2.2,2.18,2.18,0,0,0,2.22,2.2m-0.46-2h0.44l0.66,1.1h0.43l-0.71-1.11a0.66,0.66,0,0,0,.65-0.7,0.72,0.72,0,0,0-.89-0.72h-1v2.53h0.38v-1.1Zm0-.33v-0.77h0.52c0.27,0,.55.05,0.55,0.37s-0.29.4-.61,0.4h-0.46Z" transform="translate(-1161.98 -9878.22)" style="fill:#683b1a"/><polygon id="_Path_" data-name="&lt;Path&gt;" points="59 36.38 57.54 36.38 57.54 23.92 67.77 23.92 67.77 25.39 59 25.39 59 29.19 64.47 29.19 64.47 30.65 59 30.65 59 36.38" style="fill:#683b1a"/><rect id="_Path_2" data-name="&lt;Path&gt;" x="71.13" y="23.92" width="1.46" height="12.46" style="fill:#683b1a"/><polygon id="_Path_3" data-name="&lt;Path&gt;" points="86.73 36.38 76.13 36.38 76.13 23.92 86.36 23.92 86.36 25.39 77.59 25.39 77.59 29.19 82.21 29.19 82.21 30.65 77.59 30.65 77.59 34.92 86.73 34.92 86.73 36.38" style="fill:#683b1a"/><path id="_Path_4" data-name="&lt;Path&gt;" d="M1258.44,9907.3c2.33,0,4.69.85,4.69,3.61s-2.89,4-5.95,4a7.77,7.77,0,0,1-6.23-2.68l1-1a6.64,6.64,0,0,0,5.23,2.25c2.81,0,4.44-1.06,4.44-2.51s-1.58-2.14-2.82-2.14h-2.63c-2.41,0-4.35-.8-4.35-3.12,0-1.73,1.56-3.75,5.38-3.75a8.29,8.29,0,0,1,5.21,1.83l-0.91,1.15a7,7,0,0,0-4.34-1.51c-2.81,0-3.89,1.31-3.89,2.29,0,1.66,2.11,1.66,3.6,1.66h1.51Z" transform="translate(-1161.98 -9878.22)" style="fill:#683b1a"/><polygon id="_Path_5" data-name="&lt;Path&gt;" points="108.8 36.38 107.34 36.38 107.34 25.39 102.78 25.39 102.78 23.92 113.36 23.92 113.36 25.39 108.8 25.39 108.8 36.38" style="fill:#683b1a"/><path id="_Compound_Path_2" data-name="&lt;Compound Path&gt;" d="M1288.58,9914.61H1287l-2-4.27h-6l-2,4.27h-1.62l5.93-12.46h1.46Zm-6.56-10.68-2.34,5h4.6Z" transform="translate(-1161.98 -9878.22)" style="fill:#683b1a"/><rect id="_Path_6" data-name="&lt;Path&gt;" x="136.51" y="23.92" width="1.46" height="12.46" style="fill:#683b1a"/><polygon id="_Path_7" data-name="&lt;Path&gt;" points="152.71 36.38 151.25 36.38 143.17 26.23 143.14 26.23 143.14 36.38 141.68 36.38 141.68 23.92 143.14 23.92 151.21 34.21 151.25 34.21 151.25 23.92 152.71 23.92 152.71 36.38" style="fill:#683b1a"/><polygon id="_Path_8" data-name="&lt;Path&gt;" points="167.37 36.38 165.91 36.38 157.84 26.23 157.81 26.23 157.81 36.38 156.34 36.38 156.34 23.92 157.81 23.92 165.88 34.21 165.91 34.21 165.91 23.92 167.37 23.92 167.37 36.38" style="fill:#683b1a"/><path id="_Path_9" data-name="&lt;Path&gt;" d="M1188.42,9895.35v5.88c0,4.13,4.13,4.13,4.13,4.13h12v-14.14h-12c-4.13,0-4.13,4.13-4.13,4.13" transform="translate(-1161.98 -9878.22)" style="fill:#683b1a"/><path id="_Path_10" data-name="&lt;Path&gt;" d="M1188.42,9918.72v15.85h10.82s5.37,0,5.37-5.36v-14.62h-12c-4.13,0-4.13,4.13-4.13,4.13" transform="translate(-1161.98 -9878.22)" style="fill:#683b1a"/><path id="_Path_11" data-name="&lt;Path&gt;" d="M1199.24,9878.22h-31.9s-5.36,0-5.36,5.37v45.61s0,5.36,5.36,5.36h21.08v-15.85s0-4.13,4.13-4.13h12v-9.23h-12s-4.13,0-4.13-4.13v-5.87s0-4.13,4.13-4.13h12v-7.63s0-5.37-5.36-5.37" transform="translate(-1161.98 -9878.22)" style="fill:#c83136"/><polygon id="_Path_12" data-name="&lt;Path&gt;" points="61.19 46.34 60.7 46.34 60.7 44.39 57.99 44.39 57.99 46.34 57.49 46.34 57.49 42.13 57.99 42.13 57.99 43.9 60.7 43.9 60.7 42.13 61.19 42.13 61.19 46.34" style="fill:#683b1a"/><path id="_Compound_Path_3" data-name="&lt;Compound Path&gt;" d="M1227.46,9920.26a2.2,2.2,0,1,1-2.26,2.19,2.22,2.22,0,0,1,2.26-2.19m0,3.9a1.7,1.7,0,1,0-1.77-1.71,1.72,1.72,0,0,0,1.77,1.71" transform="translate(-1161.98 -9878.22)" style="fill:#683b1a"/><polygon id="_Path_13" data-name="&lt;Path&gt;" points="71.28 46.34 70.78 46.34 70.78 42.63 69.25 42.63 69.25 42.13 72.82 42.13 72.82 42.63 71.28 42.63 71.28 46.34" style="fill:#683b1a"/><polygon id="_Path_14" data-name="&lt;Path&gt;" points="78.16 46.34 74.58 46.34 74.58 42.13 78.04 42.13 78.04 42.63 75.07 42.63 75.07 43.91 76.63 43.91 76.63 44.4 75.07 44.4 75.07 45.85 78.16 45.85 78.16 46.34" style="fill:#683b1a"/><polygon id="_Path_15" data-name="&lt;Path&gt;" points="83.16 46.34 80.03 46.34 80.03 42.13 80.52 42.13 80.52 45.85 83.16 45.85 83.16 46.34" style="fill:#683b1a"/><polygon id="_Path_16" data-name="&lt;Path&gt;" points="88.24 46.34 84.65 46.34 84.65 42.13 88.11 42.13 88.11 42.63 85.15 42.63 85.15 43.91 86.71 43.91 86.71 44.4 85.15 44.4 85.15 45.85 88.24 45.85 88.24 46.34" style="fill:#683b1a"/><path id="_Path_17" data-name="&lt;Path&gt;" d="M1254,9922.09a1.32,1.32,0,0,1,1.58,1.22c0,0.92-1,1.35-2,1.35a2.63,2.63,0,0,1-2.11-.9l0.35-.35a2.23,2.23,0,0,0,1.77.76c0.95,0,1.5-.36,1.5-0.85a0.84,0.84,0,0,0-1-.72h-0.89c-0.81,0-1.47-.27-1.47-1.06,0-.58.53-1.26,1.82-1.26a2.8,2.8,0,0,1,1.76.62l-0.31.38a2.34,2.34,0,0,0-1.47-.51c-0.95,0-1.31.44-1.31,0.77,0,0.56.71,0.56,1.22,0.56H1254Z" transform="translate(-1161.98 -9878.22)" style="fill:#683b1a"/><path id="_Compound_Path_4" data-name="&lt;Compound Path&gt;" d="M1262.33,9920.35a1.17,1.17,0,0,1,1.32,1.15,1,1,0,0,1-.4.85,1.22,1.22,0,0,1,.6,1,1.25,1.25,0,0,1-1.52,1.18H1260v-4.21h2.35Zm0,1.81a0.7,0.7,0,0,0,.83-0.69,0.69,0.69,0,0,0-.83-0.63h-1.85v1.32h1.85Zm0,1.91c0.62,0,1-.16,1-0.67a0.83,0.83,0,0,0-1-.75h-1.85v1.42h1.85Z" transform="translate(-1161.98 -9878.22)" style="fill:#683b1a"/><path id="_Path_18" data-name="&lt;Path&gt;" d="M1269.51,9922.93a1.6,1.6,0,0,1-1.86,1.73,1.58,1.58,0,0,1-1.86-1.73v-2.58h0.5v2.58a1.37,1.37,0,0,0,2.73,0v-2.58h0.49v2.58Z" transform="translate(-1161.98 -9878.22)" style="fill:#683b1a"/><path id="_Path_19" data-name="&lt;Path&gt;" d="M1273.75,9922.09a1.33,1.33,0,0,1,1.59,1.22c0,0.92-1,1.35-2,1.35a2.64,2.64,0,0,1-2.11-.9l0.35-.35a2.25,2.25,0,0,0,1.77.76c1,0,1.5-.36,1.5-0.85a0.84,0.84,0,0,0-1-.72H1273c-0.81,0-1.47-.27-1.47-1.06,0-.58.53-1.26,1.82-1.26a2.78,2.78,0,0,1,1.76.62l-0.31.38a2.33,2.33,0,0,0-1.47-.51c-0.95,0-1.31.44-1.31,0.77,0,0.56.71,0.56,1.21,0.56h0.51Z" transform="translate(-1161.98 -9878.22)" style="fill:#683b1a"/><rect id="_Path_20" data-name="&lt;Path&gt;" x="115.13" y="42.13" width="0.5" height="4.21" style="fill:#683b1a"/><polygon id="_Path_21" data-name="&lt;Path&gt;" points="121.68 46.34 121.18 46.34 118.45 42.91 118.44 42.91 118.44 46.34 117.94 46.34 117.94 42.13 118.44 42.13 121.17 45.61 121.18 45.61 121.18 42.13 121.68 42.13 121.68 46.34" style="fill:#683b1a"/><polygon id="_Path_22" data-name="&lt;Path&gt;" points="127.5 46.34 123.91 46.34 123.91 42.13 127.38 42.13 127.38 42.63 124.41 42.63 124.41 43.91 125.97 43.91 125.97 44.4 124.41 44.4 124.41 45.85 127.5 45.85 127.5 46.34" style="fill:#683b1a"/><path id="_Path_23" data-name="&lt;Path&gt;" d="M1293.28,9922.09a1.32,1.32,0,0,1,1.58,1.22c0,0.92-1,1.35-2,1.35a2.63,2.63,0,0,1-2.11-.9l0.35-.35a2.25,2.25,0,0,0,1.77.76c0.95,0,1.5-.36,1.5-0.85a0.83,0.83,0,0,0-1-.72h-0.89c-0.82,0-1.47-.27-1.47-1.06,0-.58.53-1.26,1.82-1.26a2.76,2.76,0,0,1,1.76.62l-0.3.38a2.36,2.36,0,0,0-1.47-.51c-1,0-1.31.44-1.31,0.77,0,0.56.71,0.56,1.22,0.56h0.51Z" transform="translate(-1161.98 -9878.22)" style="fill:#683b1a"/><path id="_Path_24" data-name="&lt;Path&gt;" d="M1298.57,9922.09a1.32,1.32,0,0,1,1.58,1.22c0,0.92-1,1.35-2,1.35a2.63,2.63,0,0,1-2.11-.9l0.35-.35a2.26,2.26,0,0,0,1.77.76c0.95,0,1.5-.36,1.5-0.85a0.84,0.84,0,0,0-1-.72h-0.89c-0.82,0-1.47-.27-1.47-1.06,0-.58.53-1.26,1.82-1.26a2.81,2.81,0,0,1,1.76.62l-0.31.38a2.37,2.37,0,0,0-1.47-.51c-1,0-1.31.44-1.31,0.77,0,0.56.72,0.56,1.22,0.56h0.51Z" transform="translate(-1161.98 -9878.22)" style="fill:#683b1a"/><path id="_Path_25" data-name="&lt;Path&gt;" d="M1308.63,9923.82a2.63,2.63,0,0,1-2,.84,2.21,2.21,0,0,1-2.33-2.2,2.18,2.18,0,0,1,2.26-2.19,2.8,2.8,0,0,1,2,.84l-0.35.34a2.55,2.55,0,0,0-1.67-.69,1.72,1.72,0,0,0-1.78,1.69,1.77,1.77,0,0,0,1.87,1.71,2.21,2.21,0,0,0,1.66-.72Z" transform="translate(-1161.98 -9878.22)" style="fill:#683b1a"/><polygon id="_Path_26" data-name="&lt;Path&gt;" points="151.72 46.34 148.57 46.34 148.57 42.13 149.06 42.13 149.06 45.85 151.72 45.85 151.72 46.34" style="fill:#683b1a"/><path id="_Compound_Path_5" data-name="&lt;Compound Path&gt;" d="M1319,9924.56h-0.55l-0.68-1.44h-2l-0.67,1.44h-0.54l2-4.21H1317Zm-2.22-3.61-0.79,1.67h1.55Z" transform="translate(-1161.98 -9878.22)" style="fill:#683b1a"/><path id="_Path_27" data-name="&lt;Path&gt;" d="M1322.46,9922.09a1.32,1.32,0,0,1,1.58,1.22c0,0.92-1,1.35-2,1.35a2.62,2.62,0,0,1-2.11-.9l0.35-.35a2.25,2.25,0,0,0,1.77.76c0.95,0,1.5-.36,1.5-0.85a0.84,0.84,0,0,0-1-.72h-0.89c-0.81,0-1.47-.27-1.47-1.06,0-.58.53-1.26,1.81-1.26a2.81,2.81,0,0,1,1.77.62l-0.31.38a2.34,2.34,0,0,0-1.47-.51c-1,0-1.31.44-1.31,0.77,0,0.56.71,0.56,1.22,0.56h0.51Z" transform="translate(-1161.98 -9878.22)" style="fill:#683b1a"/><path id="_Path_28" data-name="&lt;Path&gt;" d="M1327.75,9922.09a1.33,1.33,0,0,1,1.59,1.22c0,0.92-1,1.35-2,1.35a2.65,2.65,0,0,1-2.11-.9l0.35-.35a2.25,2.25,0,0,0,1.77.76c0.95,0,1.5-.36,1.5-0.85a0.84,0.84,0,0,0-1-.72H1327c-0.82,0-1.47-.27-1.47-1.06,0-.58.53-1.26,1.82-1.26a2.79,2.79,0,0,1,1.76.62l-0.31.38a2.33,2.33,0,0,0-1.47-.51c-0.95,0-1.31.44-1.31,0.77,0,0.56.71,0.56,1.22,0.56h0.51Z" transform="translate(-1161.98 -9878.22)" style="fill:#683b1a"/></g></svg>