<svg xmlns="http://www.w3.org/2000/svg" viewBox="0 0 211.94 276.43"><defs><style>.cls-1{fill:#001549;}</style></defs><title>fr-logo</title><g id="Capa_2" data-name="Capa 2"><g id="ARTE"><g id="_Grupo_" data-name="&lt;Grupo&gt;"><g id="_Grupo_2" data-name="&lt;Grupo&gt;"><g id="_Grupo_3" data-name="&lt;Grupo&gt;"><path id="_Trazado_compuesto_" data-name="&lt;Trazado compuesto&gt;" class="cls-1" d="M211.94,276.43H0V0H211.94Zm-207-4.91H207V4.91H4.91Z"/></g><g id="_Grupo_4" data-name="&lt;Grupo&gt;"><g id="_Grupo_5" data-name="&lt;Grupo&gt;"><g id="_Grupo_6" data-name="&lt;Grupo&gt;"><path id="_Trazado_" data-name="&lt;Trazado&gt;" class="cls-1" d="M88.15,158.11a2,2,0,0,0,.72,0,1.43,1.43,0,0,0,.58-.22,1.09,1.09,0,0,0,.49-1,.79.79,0,0,0,0-.25,6.67,6.67,0,0,0-.2-1c-.14-.54-.36-1.29-.73-2.34s-.9-2.44-1.64-4.22c-.46,1.55-.77,2.76-1,3.69a19.1,19.1,0,0,0-.35,2.07,5.24,5.24,0,0,0,0,1,1,1,0,0,0,0,.25,1.66,1.66,0,0,0,.2.63,2.77,2.77,0,0,0,.45.61,3.09,3.09,0,0,0,.63.5,2.69,2.69,0,0,0,.75.31h0"/><path id="_Trazado_2" data-name="&lt;Trazado&gt;" class="cls-1" d="M78.18,79.43c.48-4.38.81-8,1-10.93s.32-5.3.35-7,0-2.73-.05-3.35a4.4,4.4,0,0,0-.11-.81,6.54,6.54,0,0,0-.43-1.9,4.36,4.36,0,0,0-.87-1.41,2.31,2.31,0,0,0-1.16-.7,1.88,1.88,0,0,0-1.31.21h-.07a3.75,3.75,0,0,0-1.17,1.17,7.45,7.45,0,0,0-.84,1.74,10,10,0,0,0-.46,2,8.7,8.7,0,0,0,0,2,5.13,5.13,0,0,0,.06.79c.07.58.22,1.51.54,3s.81,3.34,1.55,5.87,1.69,5.53,3,9.26"/><path id="_Trazado_3" data-name="&lt;Trazado&gt;" class="cls-1" d="M51.09,125a4.34,4.34,0,0,0,.64-.07c.29,0,.65-.13,1.12-.26s1.05-.31,1.76-.55,1.58-.57,2.61-1c-1.39-.44-2.52-.77-3.44-1s-1.62-.41-2.17-.52-.95-.17-1.23-.2a3.15,3.15,0,0,0-.56,0h-.19a1,1,0,0,0-.5.18,1.08,1.08,0,0,0-.35.4,1.38,1.38,0,0,0-.14.57,2,2,0,0,0,.09.68,2.55,2.55,0,0,0,.35.68,2.82,2.82,0,0,0,.51.56,2.44,2.44,0,0,0,.6.38,1.58,1.58,0,0,0,.6.14h.31"/><path id="_Trazado_4" data-name="&lt;Trazado&gt;" class="cls-1" d="M148.85,121.6h.25l.17,0h.31a10,10,0,0,0,2.23-.34,11,11,0,0,0,2.15-.81,8,8,0,0,0,1.77-1.19,3.88,3.88,0,0,0,1.05-1.46,2,2,0,0,0,0-1.48,2.66,2.66,0,0,0-1-1.18,5.12,5.12,0,0,0-1.73-.75,7.81,7.81,0,0,0-2.2-.2h-.62l-.57,0c-.59,0-1.43.13-2.63.29s-2.68.41-4.6.76-4.11.79-6.76,1.37-5.51,1.24-8.84,2.05c3.37.68,6.26,1.21,8.73,1.62s4.59.71,6.27.92,3,.32,4,.37,1.62.06,2,0"/><path id="_Trazado_5" data-name="&lt;Trazado&gt;" class="cls-1" d="M57.3,99.76c-1.55-2.29-2.81-4.06-3.83-5.44s-1.79-2.34-2.36-3A13.69,13.69,0,0,0,50,90.06a1.67,1.67,0,0,0-.31-.25,2.38,2.38,0,0,0-.45-.32,2,2,0,0,0-.46-.18,1.59,1.59,0,0,0-.45,0,1.42,1.42,0,0,0-.43.09,1.35,1.35,0,0,0-.53.39,1.55,1.55,0,0,0-.2.31,2,2,0,0,0-.15.38,3.14,3.14,0,0,0-.09,1.06,4.87,4.87,0,0,0,.22,1.12,5.2,5.2,0,0,0,.47,1,3.65,3.65,0,0,0,.65.82,2,2,0,0,0,.28.28,10.49,10.49,0,0,0,1.21.91c.62.42,1.49,1,2.71,1.62s2.82,1.49,4.88,2.47"/><path id="_Trazado_6" data-name="&lt;Trazado&gt;" class="cls-1" d="M121.55,155.26a4.88,4.88,0,0,0,.55.06,4.27,4.27,0,0,0,.55,0,4.06,4.06,0,0,0,.52-.07,3,3,0,0,0,.48-.14,2,2,0,0,0,.83-.57,1.44,1.44,0,0,0,.33-.79,1.72,1.72,0,0,0-.16-.88A2.55,2.55,0,0,0,124,152a1.88,1.88,0,0,0-.32-.32,16.13,16.13,0,0,0-1.56-1.17c-.82-.56-2-1.31-3.66-2.3s-3.77-2.17-6.48-3.62c1.33,2.17,2.42,3.83,3.31,5.12s1.59,2.19,2.13,2.84a13.56,13.56,0,0,0,1.16,1.26,2.36,2.36,0,0,0,.36.28,3.68,3.68,0,0,0,.53.39,4.64,4.64,0,0,0,.63.32,5.36,5.36,0,0,0,.7.25,5.81,5.81,0,0,0,.73.16"/><path id="_Trazado_7" data-name="&lt;Trazado&gt;" class="cls-1" d="M114.4,82.84l11-18.66s7.6-13.65,14-10.66c0,0,4.36,3-3.56,11.15S114.4,82.84,114.4,82.84"/><path id="_Trazado_8" data-name="&lt;Trazado&gt;" class="cls-1" d="M64.56,146.58l.3,0a1.39,1.39,0,0,0,.28,0,1.12,1.12,0,0,0,.25-.09.86.86,0,0,0,.2-.15.59.59,0,0,0,.15-.13,3.8,3.8,0,0,0,.46-.64A16.17,16.17,0,0,0,67,144c.34-.75.75-1.76,1.25-3.11-1.3.61-2.27,1.1-3,1.5a15.77,15.77,0,0,0-1.51.94,3.88,3.88,0,0,0-.6.51A.52.52,0,0,0,63,144a.9.9,0,0,0-.21.44,1.5,1.5,0,0,0,0,.55,2,2,0,0,0,.22.57,2.24,2.24,0,0,0,.42.53,2.12,2.12,0,0,0,.25.2l.27.16.27.11.28.07"/></g><g id="_Grupo_7" data-name="&lt;Grupo&gt;"><path id="_Trazado_9" data-name="&lt;Trazado&gt;" class="cls-1" d="M56.36,135.8h.22l.1,0,.1,0a.58.58,0,0,0,.17-.05,3.39,3.39,0,0,0,.6-.34,13.08,13.08,0,0,0,1.2-.94c.53-.46,1.2-1.08,2-1.92-1.32,0-2.33.11-3.09.18a16.27,16.27,0,0,0-1.65.23,3.56,3.56,0,0,0-.7.2.51.51,0,0,0-.15.08.74.74,0,0,0-.32.27,1,1,0,0,0-.16.42,1.38,1.38,0,0,0,0,.5,1.81,1.81,0,0,0,.22.53,2,2,0,0,0,.29.36,2,2,0,0,0,.35.28,1.9,1.9,0,0,0,.38.19,1.53,1.53,0,0,0,.38.08"/><path id="_Trazado_10" data-name="&lt;Trazado&gt;" class="cls-1" d="M128,100.06c4.38-.92,8-1.75,10.92-2.48s5.32-1.41,7-1.93,2.79-.93,3.44-1.2a6.68,6.68,0,0,0,.86-.4,11,11,0,0,0,3.84-2.76,6.77,6.77,0,0,0,1.14-1.75,2.91,2.91,0,0,0,.25-1.67,1.84,1.84,0,0,0-.54-1,2.71,2.71,0,0,0-1.06-.6,4.92,4.92,0,0,0-1.44-.21,7.6,7.6,0,0,0-1.66.17l-.52.12-.52.16-.52.19-.51.22a6.54,6.54,0,0,0-.89.38c-.65.31-1.72.87-3.38,1.84s-3.78,2.29-6.6,4.16-6,4-9.82,6.77"/><path id="_Trazado_11" data-name="&lt;Trazado&gt;" class="cls-1" d="M65.05,86.49c-.72-3-1.34-5.34-1.87-7.22S62.21,76,61.87,75a19.8,19.8,0,0,0-.75-1.92,2.53,2.53,0,0,0-.23-.43,3.4,3.4,0,0,0-.53-.8,2.41,2.41,0,0,0-.65-.53,1.61,1.61,0,0,0-.7-.21,1.32,1.32,0,0,0-.68.15l-.13.08-.13.1-.13.12-.12.13a2.94,2.94,0,0,0-.49,1A5.24,5.24,0,0,0,57.15,74a6.07,6.07,0,0,0,.12,1.32,4.88,4.88,0,0,0,.4,1.19,2.89,2.89,0,0,0,.2.45,16.23,16.23,0,0,0,.95,1.58c.5.75,1.21,1.76,2.22,3.07s2.32,2.92,4,4.9"/><path id="_Trazado_12" data-name="&lt;Trazado&gt;" class="cls-1" d="M102.72,158.81l.14,0,.14,0h.29a1.67,1.67,0,0,0,.69-.17,1.17,1.17,0,0,0,.45-.39,1.07,1.07,0,0,0,.17-.54,1.27,1.27,0,0,0-.13-.62,1,1,0,0,0-.1-.25,8.38,8.38,0,0,0-.61-1c-.34-.5-.84-1.19-1.59-2.13s-1.74-2.14-3.06-3.64c.18,1.63.36,2.89.54,3.86s.34,1.66.49,2.16a6.58,6.58,0,0,0,.35,1,1.23,1.23,0,0,0,.14.24,2.09,2.09,0,0,0,.34.48,3.06,3.06,0,0,0,.49.43,3.57,3.57,0,0,0,.6.34,3.13,3.13,0,0,0,.66.21"/><path id="_Trazado_13" data-name="&lt;Trazado&gt;" class="cls-1" d="M97.63,73.69c2.28-4,4.11-7.41,5.57-10.21s2.59-5.13,3.35-6.79,1.2-2.78,1.44-3.44a6,6,0,0,0,.27-.89,9.19,9.19,0,0,0,.48-2.23,6.76,6.76,0,0,0-.11-2,3.34,3.34,0,0,0-.69-1.49,1.81,1.81,0,0,0-1.24-.64h-.36l-.37.06-.38.12-.37.17a5.65,5.65,0,0,0-1.21.88,8.92,8.92,0,0,0-1.11,1.26A10.94,10.94,0,0,0,102,50a10.22,10.22,0,0,0-.67,1.64,6.3,6.3,0,0,0-.3.86c-.19.65-.48,1.72-.82,3.42s-.75,3.93-1.19,6.93-.89,6.49-1.35,10.83"/><path id="_Trazado_14" data-name="&lt;Trazado&gt;" class="cls-1" d="M74.67,153.08a1.39,1.39,0,0,0,.4,0,1.14,1.14,0,0,0,.36-.08.88.88,0,0,0,.28-.18.71.71,0,0,0,.18-.27.44.44,0,0,0,.08-.15,3.88,3.88,0,0,0,.17-.72c.05-.38.11-.91.15-1.68s.05-1.79,0-3.13c-.82.89-1.42,1.59-1.86,2.15a12.89,12.89,0,0,0-.9,1.25,3.41,3.41,0,0,0-.32.62.58.58,0,0,0,0,.18,1,1,0,0,0,0,.46,1.61,1.61,0,0,0,.16.5,2.17,2.17,0,0,0,.34.47,2,2,0,0,0,.48.38l.13.07.13.05.13,0,.13,0"/><path id="_Trazado_15" data-name="&lt;Trazado&gt;" class="cls-1" d="M137.16,143.24a6.8,6.8,0,0,0,1,0,6.09,6.09,0,0,0,1-.15,4.65,4.65,0,0,0,.9-.31,2.9,2.9,0,0,0,.72-.47,1.69,1.69,0,0,0,.54-.86,1.49,1.49,0,0,0-.09-.93,2.33,2.33,0,0,0-.64-.85,3.72,3.72,0,0,0-1.1-.65,2.68,2.68,0,0,0-.5-.22c-.39-.15-1.06-.37-2.2-.67s-2.68-.65-4.83-1.08-4.76-.9-8.06-1.43c2.29,1.68,4.15,3,5.67,4s2.68,1.7,3.55,2.18a17.49,17.49,0,0,0,1.82.91,3.09,3.09,0,0,0,.51.18l.39.14.41.11.43.08.45,0"/><path id="_Trazado_16" data-name="&lt;Trazado&gt;" class="cls-1" d="M54.32,111c-1.48-1.15-2.65-2-3.57-2.67s-1.58-1.08-2.07-1.37a7.63,7.63,0,0,0-1-.51.85.85,0,0,0-.24-.08l-.18-.06-.18,0h-.17l-.17,0a.93.93,0,0,0-.34.15,1,1,0,0,0-.27.26,1.33,1.33,0,0,0-.17.37,1.78,1.78,0,0,0-.06.47,2.44,2.44,0,0,0,.14.75,3.16,3.16,0,0,0,.35.7,3.1,3.1,0,0,0,.49.58,2.07,2.07,0,0,0,.56.37,1,1,0,0,0,.23.11,6.05,6.05,0,0,0,.94.28c.47.11,1.13.23,2,.34s2.1.22,3.63.31"/></g><g id="_Grupo_8" data-name="&lt;Grupo&gt;"><path id="_Trazado_17" data-name="&lt;Trazado&gt;" class="cls-1" d="M81.07,131a.76.76,0,0,0,.25,0,.89.89,0,0,0,.22-.1.81.81,0,0,0,.18-.16.75.75,0,0,0,.12-.21.64.64,0,0,0,.05-.12,3.46,3.46,0,0,0,.11-.51c0-.27.09-.64.14-1.16s.08-1.21.1-2.09c-.5.68-.88,1.21-1.16,1.64s-.45.73-.58,1a3.18,3.18,0,0,0-.21.47.49.49,0,0,0,0,.13.83.83,0,0,0,0,.32,1.07,1.07,0,0,0,.08.33,1,1,0,0,0,.19.29.87.87,0,0,0,.28.2l.08,0,.07,0H81"/><path id="_Trazado_18" data-name="&lt;Trazado&gt;" class="cls-1" d="M85.39,115.68c.6-.87,1.06-1.58,1.41-2.16s.6-1,.77-1.34a6.53,6.53,0,0,0,.3-.67.76.76,0,0,0,0-.18,1.25,1.25,0,0,0,.07-.45,1.35,1.35,0,0,0-.08-.44,1.11,1.11,0,0,0-.22-.37.84.84,0,0,0-.35-.23l-.09,0h-.29a1,1,0,0,0-.31.09,1.2,1.2,0,0,0-.28.19,1.29,1.29,0,0,0-.23.26,1.24,1.24,0,0,0-.15.31,1,1,0,0,0-.07.17,5.65,5.65,0,0,0-.16.71c-.06.36-.13.86-.2,1.54s-.13,1.53-.17,2.6"/><path id="_Trazado_19" data-name="&lt;Trazado&gt;" class="cls-1" d="M78.28,119.52c-.78-.58-1.4-1-1.89-1.36s-.85-.56-1.12-.71a4.81,4.81,0,0,0-.54-.27l-.14,0-.1,0-.11,0h-.21a.81.81,0,0,0-.43.17.72.72,0,0,0-.15.17.7.7,0,0,0-.09.22.79.79,0,0,0,0,.35,1.12,1.12,0,0,0,.14.34,1.27,1.27,0,0,0,.24.29,1.13,1.13,0,0,0,.31.2l.13.06a4.16,4.16,0,0,0,.56.16c.28.07.68.15,1.23.23s1.26.17,2.18.26"/><path id="_Trazado_20" data-name="&lt;Trazado&gt;" class="cls-1" d="M94,126.13a1.28,1.28,0,0,0,.3,0,1.25,1.25,0,0,0,.27-.1.93.93,0,0,0,.22-.16.74.74,0,0,0,.16-.22.71.71,0,0,0,.06-.37.92.92,0,0,0-.12-.37,1.17,1.17,0,0,0-.26-.32,1.2,1.2,0,0,0-.37-.22.73.73,0,0,0-.16-.07,6,6,0,0,0-.68-.2c-.34-.08-.82-.18-1.48-.29s-1.48-.22-2.52-.33c.84.62,1.51,1.1,2.05,1.45s.94.61,1.24.78a5.09,5.09,0,0,0,.61.31l.16.05.12,0,.13,0,.13,0H94"/><path id="_Trazado_21" data-name="&lt;Trazado&gt;" class="cls-1" d="M80.64,116.2c-.21-1-.39-1.82-.55-2.46s-.3-1.09-.41-1.43a5.57,5.57,0,0,0-.25-.65.66.66,0,0,0-.09-.15,1.2,1.2,0,0,0-.19-.29,1.16,1.16,0,0,0-.26-.21,1,1,0,0,0-.29-.12.77.77,0,0,0-.3,0h-.07l-.06,0-.06,0L78,111a.77.77,0,0,0-.27.26,1.09,1.09,0,0,0-.14.37,1.26,1.26,0,0,0,0,.42,1.29,1.29,0,0,0,.12.4.93.93,0,0,0,.07.16,5.82,5.82,0,0,0,.35.57c.19.28.47.65.86,1.15s.91,1.12,1.59,1.89"/><path id="_Trazado_22" data-name="&lt;Trazado&gt;" class="cls-1" d="M88.78,131.26H89a.71.71,0,0,0,.29-.18.78.78,0,0,0,.17-.28.93.93,0,0,0,0-.34,1,1,0,0,0-.1-.35.65.65,0,0,0-.06-.14,4.86,4.86,0,0,0-.32-.53c-.18-.26-.43-.61-.81-1.08s-.87-1.07-1.53-1.81c.17.92.31,1.64.44,2.19s.24.95.33,1.23a4.59,4.59,0,0,0,.21.55.61.61,0,0,0,.08.13,1,1,0,0,0,.17.25,1.36,1.36,0,0,0,.24.2,1.2,1.2,0,0,0,.28.14,1,1,0,0,0,.3.05"/><path id="_Trazado_23" data-name="&lt;Trazado&gt;" class="cls-1" d="M89,118.58c1.07-.15,1.91-.29,2.58-.42s1.16-.24,1.52-.34a5.85,5.85,0,0,0,.69-.23.87.87,0,0,0,.16-.08,1.23,1.23,0,0,0,.38-.25,1.31,1.31,0,0,0,.27-.36,1.11,1.11,0,0,0,.12-.41.88.88,0,0,0-.07-.42.85.85,0,0,0-.19-.26,1,1,0,0,0-.27-.19,1.32,1.32,0,0,0-.67-.11h-.11l-.11,0-.1,0-.1,0a.84.84,0,0,0-.17.07,6.32,6.32,0,0,0-.64.37c-.31.2-.72.49-1.27.9s-1.21.94-2,1.63"/><path id="_Trazado_24" data-name="&lt;Trazado&gt;" class="cls-1" d="M75.75,126.26h.05l.1,0,.07,0,.07,0,.12,0a3.38,3.38,0,0,0,.44-.25c.22-.14.51-.34.9-.65s.9-.72,1.52-1.28c-.87.09-1.54.18-2.05.26s-.88.16-1.13.23a3.43,3.43,0,0,0-.5.16l-.11.06a.76.76,0,0,0-.25.18.79.79,0,0,0-.15.27.84.84,0,0,0,0,.31.8.8,0,0,0,.09.32A.82.82,0,0,0,75,126a.88.88,0,0,0,.21.15,1,1,0,0,0,.24.09,1,1,0,0,0,.25,0"/></g><g id="_Grupo_9" data-name="&lt;Grupo&gt;"><path id="_Trazado_25" data-name="&lt;Trazado&gt;" class="cls-1" d="M60.15,107.71c-1.2-1.3-2.15-2.29-2.91-3s-1.33-1.27-1.74-1.63a8.15,8.15,0,0,0-.84-.66,1,1,0,0,0-.22-.12,1.41,1.41,0,0,0-.25-.13l-.25-.07-.24,0a.93.93,0,0,0-.23,0,1.06,1.06,0,0,0-.26.11,1,1,0,0,0-.22.18,1,1,0,0,0-.17.25,1.24,1.24,0,0,0-.11.32,1.92,1.92,0,0,0,0,.68,2.71,2.71,0,0,0,.21.69,2.85,2.85,0,0,0,.37.61,2.09,2.09,0,0,0,.48.45,1.15,1.15,0,0,0,.21.15,6.81,6.81,0,0,0,.86.44c.44.19,1.05.44,1.91.73s2,.64,3.41,1"/><path id="_Trazado_26" data-name="&lt;Trazado&gt;" class="cls-1" d="M119.46,144.29a4.08,4.08,0,0,0,.53,0,3.89,3.89,0,0,0,.52-.06,2.64,2.64,0,0,0,.47-.14,1.94,1.94,0,0,0,.41-.22,1.27,1.27,0,0,0,.45-.57,1.2,1.2,0,0,0,.06-.67,1.66,1.66,0,0,0-.3-.67,2.29,2.29,0,0,0-.62-.56,1.46,1.46,0,0,0-.29-.21,13.47,13.47,0,0,0-1.33-.69c-.69-.32-1.66-.74-3-1.27s-3.06-1.15-5.23-1.89c1.34,1.48,2.42,2.61,3.31,3.49s1.56,1.49,2.07,1.93a11.59,11.59,0,0,0,1.08.83,2.18,2.18,0,0,0,.31.18,3.13,3.13,0,0,0,.35.19l.39.15.42.11.43.06"/><path id="_Trazado_27" data-name="&lt;Trazado&gt;" class="cls-1" d="M101.44,88.27c2.24-2.44,4-4.48,5.47-6.17S109.45,79,110.2,78s1.22-1.69,1.47-2.1a3.66,3.66,0,0,0,.31-.57,6.07,6.07,0,0,0,.63-1.46,5.09,5.09,0,0,0,.2-1.46,3,3,0,0,0-.27-1.24,1.65,1.65,0,0,0-.77-.79,1.6,1.6,0,0,0-.38-.12,1.77,1.77,0,0,0-.41,0,2.52,2.52,0,0,0-.43,0,3.26,3.26,0,0,0-.44.13,4.14,4.14,0,0,0-.82.41,5.39,5.39,0,0,0-.79.6,6.51,6.51,0,0,0-.7.75,6,6,0,0,0-.58.86,4,4,0,0,0-.34.55c-.23.42-.58,1.12-1.07,2.27s-1.09,2.68-1.84,4.77-1.57,4.56-2.54,7.66"/><path id="_Trazado_28" data-name="&lt;Trazado&gt;" class="cls-1" d="M71.16,145.73a1.29,1.29,0,0,0,.29,0,1,1,0,0,0,.26-.06.89.89,0,0,0,.22-.12.67.67,0,0,0,.17-.18.47.47,0,0,0,.1-.12,3.43,3.43,0,0,0,.27-.58,13.72,13.72,0,0,0,.42-1.38c.17-.64.35-1.49.56-2.61-.87.65-1.51,1.17-2,1.58a12.94,12.94,0,0,0-1,1,3.13,3.13,0,0,0-.39.49.54.54,0,0,0-.07.14.87.87,0,0,0-.11.38,1.33,1.33,0,0,0,.06.44,1.6,1.6,0,0,0,.58.8l.15.1.16.08.16.06.17,0"/><path id="_Trazado_29" data-name="&lt;Trazado&gt;" class="cls-1" d="M132.63,111.85c.55,0,1-.1,1.36-.15l.85-.14.44-.1.13,0a5.91,5.91,0,0,0,1.41-.48,6.05,6.05,0,0,0,1.25-.8,4.29,4.29,0,0,0,.9-1,2.2,2.2,0,0,0,.36-1.1,1.47,1.47,0,0,0-.27-.88,2,2,0,0,0-.75-.63,3.48,3.48,0,0,0-1.08-.34,5,5,0,0,0-1.28,0l-.14,0-.14,0-.14,0-.14,0h-.06a6.89,6.89,0,0,0-.93.21c-.54.15-1.36.4-2.54.83s-2.67,1-4.6,1.8-4.13,1.76-6.8,3c1.51,0,2.88,0,4.13,0s2.38,0,3.38,0,1.89-.06,2.66-.11,1.43-.09,2-.14"/><path id="_Trazado_30" data-name="&lt;Trazado&gt;" class="cls-1" d="M57,129.23h.18a1,1,0,0,0,.26,0,5.39,5.39,0,0,0,.68-.24c.32-.13.73-.33,1.27-.63s1.23-.7,2.07-1.23l-1.66-.21-1.27-.13-.93-.06H57l-.42,0-.25,0-.12,0h0a.75.75,0,0,0-.35.18.86.86,0,0,0-.23.33,1.08,1.08,0,0,0-.07.43,1.38,1.38,0,0,0,.11.49,1.61,1.61,0,0,0,.26.41,1.89,1.89,0,0,0,.35.32,1.7,1.7,0,0,0,.4.21,1.21,1.21,0,0,0,.4.08"/><path id="_Trazado_31" data-name="&lt;Trazado&gt;" class="cls-1" d="M93.33,153.43h.18a1.35,1.35,0,0,0,.55-.07,1,1,0,0,0,.41-.27,1,1,0,0,0,.22-.41,1,1,0,0,0,0-.49.68.68,0,0,0,0-.2,6.81,6.81,0,0,0-.31-.83c-.18-.42-.47-1-.9-1.79s-1-1.82-1.81-3.12c-.11,1.29-.16,2.28-.17,3.06s0,1.33,0,1.73a5,5,0,0,0,.12.8.8.8,0,0,0,.07.2,1.45,1.45,0,0,0,.22.46,2.24,2.24,0,0,0,.38.41,2.4,2.4,0,0,0,.49.32,2.08,2.08,0,0,0,.55.19"/><path id="_Trazado_32" data-name="&lt;Trazado&gt;" class="cls-1" d="M73.31,88.68c-.13-2.62-.28-4.73-.43-6.41s-.31-3-.44-3.87a17.44,17.44,0,0,0-.34-1.79,2.23,2.23,0,0,0-.13-.42,3.35,3.35,0,0,0-.39-.9,2.48,2.48,0,0,0-.58-.65,1.56,1.56,0,0,0-.68-.31,1.2,1.2,0,0,0-.71.09l-.05,0-.06,0-.05,0-.05,0a2.05,2.05,0,0,0-.62.71,3.84,3.84,0,0,0-.37,1,4.92,4.92,0,0,0-.11,1.13,4.29,4.29,0,0,0,.15,1.1,2.37,2.37,0,0,0,.1.42,15.15,15.15,0,0,0,.58,1.57c.32.76.79,1.78,1.46,3.13s1.56,3,2.72,5.06"/><path id="_Trazado_33" data-name="&lt;Trazado&gt;" class="cls-1" d="M64.35,98.18c-.87-1.95-1.6-3.47-2.19-4.66s-1.06-2.06-1.41-2.66A13.37,13.37,0,0,0,60,89.7a1.33,1.33,0,0,0-.21-.24,2.16,2.16,0,0,0-.39-.39,1.76,1.76,0,0,0-.43-.25,1.4,1.4,0,0,0-.44-.1,1.16,1.16,0,0,0-.42.07l-.17.08-.16.11a1.05,1.05,0,0,0-.14.15,1.33,1.33,0,0,0-.13.18,2,2,0,0,0-.25.75,3.26,3.26,0,0,0,0,.86,3.57,3.57,0,0,0,.22.86,3,3,0,0,0,.41.74,1.89,1.89,0,0,0,.19.27,10,10,0,0,0,.84.92c.44.43,1.06,1,1.94,1.74s2,1.64,3.49,2.75"/><path id="_Trazado_34" data-name="&lt;Trazado&gt;" class="cls-1" d="M107,151.06l.23,0h.23l.22,0,.21,0a1.29,1.29,0,0,0,.55-.3,1,1,0,0,0,.28-.48,1.17,1.17,0,0,0,0-.57,1.52,1.52,0,0,0-.27-.58,1.23,1.23,0,0,0-.15-.23,9.46,9.46,0,0,0-.78-.85c-.42-.42-1-1-1.91-1.73s-2-1.69-3.51-2.85c.55,1.5,1,2.66,1.41,3.56s.7,1.53,1,2a7.4,7.4,0,0,0,.55.89,1.19,1.19,0,0,0,.18.21,2.19,2.19,0,0,0,.34.35,3,3,0,0,0,.44.29,3.1,3.1,0,0,0,.5.22,2.94,2.94,0,0,0,.53.13"/><path id="_Trazado_35" data-name="&lt;Trazado&gt;" class="cls-1" d="M113.16,97.58c3-1.36,5.46-2.53,7.43-3.51s3.52-1.83,4.61-2.46,1.78-1.09,2.18-1.37a4.16,4.16,0,0,0,.51-.41,6.44,6.44,0,0,0,1.19-1.13,6,6,0,0,0,.83-1.34,3.81,3.81,0,0,0,.34-1.35,1.93,1.93,0,0,0-.28-1.14,1.58,1.58,0,0,0-.49-.48,2,2,0,0,0-.67-.26,3.06,3.06,0,0,0-.8-.06,4.48,4.48,0,0,0-.88.13,5.1,5.1,0,0,0-.58.18,5.4,5.4,0,0,0-.57.24c-.19.09-.37.2-.56.31a6.2,6.2,0,0,0-.53.37,3.89,3.89,0,0,0-.54.38c-.39.31-1,.84-1.95,1.75s-2.14,2.13-3.72,3.85-3.37,3.73-5.55,6.3"/><path id="_Trazado_36" data-name="&lt;Trazado&gt;" class="cls-1" d="M63.48,138.79h.17l.16,0,.15,0,.13-.07a.59.59,0,0,0,.13-.08,3.4,3.4,0,0,0,.45-.42,12,12,0,0,0,.87-1.07c.38-.51.84-1.18,1.42-2.09-1.09.28-1.9.53-2.52.74a13.65,13.65,0,0,0-1.33.51,3.28,3.28,0,0,0-.55.3.38.38,0,0,0-.11.1.73.73,0,0,0-.23.3,1.07,1.07,0,0,0-.08.4,1.28,1.28,0,0,0,.08.45,1.48,1.48,0,0,0,.25.43,1.44,1.44,0,0,0,.23.22,1.49,1.49,0,0,0,.25.17,1.44,1.44,0,0,0,.27.11l.27.05"/><path id="_Trazado_37" data-name="&lt;Trazado&gt;" class="cls-1" d="M131.39,130.19a5.28,5.28,0,0,0,1.05-.1,5.16,5.16,0,0,0,1-.3,3.71,3.71,0,0,0,.84-.49,2.16,2.16,0,0,0,.57-.65,1.36,1.36,0,0,0,.16-.85,1.6,1.6,0,0,0-.37-.79,2.58,2.58,0,0,0-.79-.61,3.58,3.58,0,0,0-1.1-.35l-.24-.06c-.18,0-.48-.08-1-.12s-1.14-.08-2-.11-2,0-3.36,0l-1.49,0-1.67.05-1.84.08-2,.1c2.27,1,4.11,1.74,5.61,2.31s2.67,1,3.54,1.24,1.45.41,1.82.48a3.64,3.64,0,0,0,.53.08h0l.18,0,.18,0h.37"/><path id="_Trazado_38" data-name="&lt;Trazado&gt;" class="cls-1" d="M56.15,118.63l.59-.06.67-.08.77-.11.88-.14c-1.25-.64-2.24-1.11-3-1.46s-1.33-.57-1.74-.72a6.66,6.66,0,0,0-.82-.25,1,1,0,0,0-.22,0H53a.86.86,0,0,0-.35.12.88.88,0,0,0-.27.26,1.07,1.07,0,0,0-.16.37,1.34,1.34,0,0,0,0,.45,1.73,1.73,0,0,0,.18.56,2.25,2.25,0,0,0,.34.49,2.09,2.09,0,0,0,.44.37,1.43,1.43,0,0,0,.48.2l.1,0,.37.06a7.11,7.11,0,0,0,.77,0c.34,0,.76,0,1.29-.08"/><path id="_Trazado_39" data-name="&lt;Trazado&gt;" class="cls-1" d="M81.8,151.38a1.22,1.22,0,0,0,.43,0,1,1,0,0,0,.37-.14.86.86,0,0,0,.27-.25.79.79,0,0,0,.13-.34.51.51,0,0,0,0-.17,4.17,4.17,0,0,0,0-.73c0-.38-.08-.9-.19-1.65s-.29-1.72-.56-3c-.53,1-.92,1.78-1.19,2.4a13,13,0,0,0-.54,1.38,4.16,4.16,0,0,0-.16.66.56.56,0,0,0,0,.17,1,1,0,0,0,.06.45,1.68,1.68,0,0,0,.23.45,2,2,0,0,0,.38.39,1.76,1.76,0,0,0,.49.27l.06,0,.06,0h.12"/><path id="_Trazado_40" data-name="&lt;Trazado&gt;" class="cls-1" d="M86,84.53c.94-2.91,1.66-5.3,2.2-7.23s.93-3.48,1.17-4.57.35-1.81.4-2.23a3.14,3.14,0,0,0,0-.56,4.74,4.74,0,0,0,0-1.35,3.62,3.62,0,0,0-.4-1.14,2.07,2.07,0,0,0-.7-.75,1.38,1.38,0,0,0-.92-.19l-.12,0-.12,0-.11,0-.11,0a2.76,2.76,0,0,0-.83.6,4.64,4.64,0,0,0-.69.93,5.92,5.92,0,0,0-.5,1.13A5.42,5.42,0,0,0,85,70.51a3.2,3.2,0,0,0-.07.55,21.15,21.15,0,0,0,0,2.13c0,1,.1,2.46.27,4.35s.42,4.16.8,7"/><path id="_Trazado_41" data-name="&lt;Trazado&gt;" class="cls-1" d="M109.51,107.33c2.74-.53,5-1,6.75-1.45s3.19-.82,4.18-1.12a20.49,20.49,0,0,0,2-.71,3.4,3.4,0,0,0,.49-.24,5.13,5.13,0,0,0,1.16-.72,4.91,4.91,0,0,0,.91-1,3.38,3.38,0,0,0,.53-1.09,1.92,1.92,0,0,0,0-1.06,1.55,1.55,0,0,0-.4-.64,2,2,0,0,0-.67-.41,3,3,0,0,0-.86-.18,4.06,4.06,0,0,0-1,.05l-.31.07-.31.09-.31.11-.3.13a3,3,0,0,0-.5.21c-.37.18-1,.51-1.9,1.09s-2.14,1.39-3.74,2.54-3.46,2.53-5.73,4.32"/></g><g id="_Grupo_10" data-name="&lt;Grupo&gt;"><path id="_Trazado_42" data-name="&lt;Trazado&gt;" class="cls-1" d="M86.58,145a1.19,1.19,0,0,0,.5,0,1.06,1.06,0,0,0,.39-.22,1,1,0,0,0,.32-.8.64.64,0,0,0,0-.19,5,5,0,0,0-.15-.79c-.1-.4-.26-1-.52-1.74s-.63-1.78-1.15-3.06c-.3,1.2-.5,2.13-.64,2.85s-.2,1.24-.23,1.62a4.82,4.82,0,0,0,0,.75.77.77,0,0,0,0,.19,1.33,1.33,0,0,0,.14.47,1.84,1.84,0,0,0,.32.43,1.89,1.89,0,0,0,.44.34,1.55,1.55,0,0,0,.52.18h0"/><path id="_Trazado_43" data-name="&lt;Trazado&gt;" class="cls-1" d="M80.91,100.3c.31-2.13.52-3.85.67-5.24s.21-2.45.24-3.21a14.37,14.37,0,0,0,0-1.53,1.84,1.84,0,0,0-.05-.37,2.88,2.88,0,0,0-.22-.89,2.35,2.35,0,0,0-.46-.7,1.6,1.6,0,0,0-.63-.42,1.23,1.23,0,0,0-.72,0h0a1.58,1.58,0,0,0-.66.42,2.57,2.57,0,0,0-.49.71,3.39,3.39,0,0,0-.29.87,3.23,3.23,0,0,0,0,.92,1.88,1.88,0,0,0,0,.37,12.69,12.69,0,0,0,.27,1.42c.16.7.41,1.64.8,2.91s.9,2.82,1.6,4.75"/><path id="_Trazado_44" data-name="&lt;Trazado&gt;" class="cls-1" d="M62.59,123.83a3.88,3.88,0,0,0,.5-.06c.23,0,.52-.1.89-.19s.84-.22,1.4-.4,1.25-.41,2.05-.7c-1-.3-1.86-.53-2.55-.7s-1.22-.28-1.64-.36-.72-.12-.94-.14a2.84,2.84,0,0,0-.44,0h-.15a.93.93,0,0,0-.41.13.94.94,0,0,0-.31.28,1.05,1.05,0,0,0-.16.4,1.22,1.22,0,0,0,0,.48,1.54,1.54,0,0,0,.22.49,1.82,1.82,0,0,0,.8.66,1.25,1.25,0,0,0,.47.09h.24"/><path id="_Trazado_45" data-name="&lt;Trazado&gt;" class="cls-1" d="M115.27,121.67h.32a3.31,3.31,0,0,0,.95-.18,3.62,3.62,0,0,0,.86-.42,2.72,2.72,0,0,0,.65-.61,1.62,1.62,0,0,0,.31-.74,1.3,1.3,0,0,0-.13-.75,1.71,1.71,0,0,0-.52-.6,2.5,2.5,0,0,0-.8-.39,3,3,0,0,0-1-.12h-.52c-.25,0-.61.05-1.12.13s-1.15.19-2,.35-1.8.38-3,.67-2.5.63-4,1.06c1.67.38,3.08.68,4.28.91s2.18.39,3,.5,1.38.17,1.82.2a8.93,8.93,0,0,0,.9,0"/><path id="_Trazado_46" data-name="&lt;Trazado&gt;" class="cls-1" d="M68.7,109.13c-1-1.43-1.73-2.54-2.35-3.4s-1.1-1.46-1.46-1.89a9.35,9.35,0,0,0-.74-.79,1.2,1.2,0,0,0-.2-.16,1.72,1.72,0,0,0-.29-.21,1.56,1.56,0,0,0-.31-.13,1.27,1.27,0,0,0-.32-.05,1.08,1.08,0,0,0-.31,0l-.22.08a.81.81,0,0,0-.19.12,1,1,0,0,0-.17.17,1.3,1.3,0,0,0-.13.21,1.57,1.57,0,0,0-.14.62,2.38,2.38,0,0,0,.08.67,2.71,2.71,0,0,0,.26.64,2.18,2.18,0,0,0,.41.52,1.46,1.46,0,0,0,.18.18,7.38,7.38,0,0,0,.81.6c.41.28,1,.64,1.82,1.1s1.89,1,3.27,1.7"/><path id="_Trazado_47" data-name="&lt;Trazado&gt;" class="cls-1" d="M105.35,140.9h.31l.3,0,.28-.08a1.47,1.47,0,0,0,.25-.12,1.12,1.12,0,0,0,.41-.43,1.13,1.13,0,0,0,.12-.55,1.42,1.42,0,0,0-.15-.58,1.73,1.73,0,0,0-.4-.53,1.26,1.26,0,0,0-.2-.2,9.19,9.19,0,0,0-.93-.7c-.49-.33-1.18-.77-2.17-1.35s-2.23-1.26-3.85-2.11c.87,1.39,1.58,2.46,2.17,3.28s1,1.4,1.38,1.81a7.85,7.85,0,0,0,.73.79,1.46,1.46,0,0,0,.22.17,2.22,2.22,0,0,0,.32.24,2.57,2.57,0,0,0,.37.18,2.53,2.53,0,0,0,.41.13,3,3,0,0,0,.42.07"/><path id="_Trazado_48" data-name="&lt;Trazado&gt;" class="cls-1" d="M97.83,103.68c2-1.36,3.52-2.51,4.77-3.46s2.2-1.74,2.86-2.32a17,17,0,0,0,1.29-1.23,2.49,2.49,0,0,0,.28-.35,3.76,3.76,0,0,0,.61-.94,3.52,3.52,0,0,0,.3-1,2.46,2.46,0,0,0-.06-1,1.51,1.51,0,0,0-.46-.75,1.4,1.4,0,0,0-.35-.22,1.68,1.68,0,0,0-.4-.12,2.15,2.15,0,0,0-.44,0,2.61,2.61,0,0,0-.46.07,2.84,2.84,0,0,0-.53.17,3.61,3.61,0,0,0-.51.27,3.43,3.43,0,0,0-.47.35,3.79,3.79,0,0,0-.42.42,2.48,2.48,0,0,0-.3.33,16,16,0,0,0-1,1.44c-.48.73-1.11,1.75-1.9,3.15s-1.69,3.08-2.77,5.21"/><path id="_Trazado_49" data-name="&lt;Trazado&gt;" class="cls-1" d="M71,138.28h.23l.22,0a.89.89,0,0,0,.2-.09.83.83,0,0,0,.16-.13.46.46,0,0,0,.12-.11,3.69,3.69,0,0,0,.38-.53c.17-.28.4-.69.69-1.28s.64-1.39,1.07-2.44c-1,.52-1.75.95-2.32,1.3a14.17,14.17,0,0,0-1.2.8,3.61,3.61,0,0,0-.49.43.56.56,0,0,0-.1.13.84.84,0,0,0-.18.35,1.13,1.13,0,0,0,0,.43,1.27,1.27,0,0,0,.14.44,1.39,1.39,0,0,0,.3.39l.19.14.2.11.21.07.21,0"/><path id="_Trazado_50" data-name="&lt;Trazado&gt;" class="cls-1" d="M76.49,145.73a1.25,1.25,0,0,0,.37,0,1.06,1.06,0,0,0,.32-.1.94.94,0,0,0,.26-.2.82.82,0,0,0,.17-.27.52.52,0,0,0,.07-.15,4,4,0,0,0,.15-.7c.05-.36.11-.88.14-1.61s.06-1.71,0-3c-.74.89-1.29,1.6-1.69,2.16a13.56,13.56,0,0,0-.82,1.26,3.88,3.88,0,0,0-.29.62.63.63,0,0,0,0,.17,1,1,0,0,0,0,.44,1.53,1.53,0,0,0,.14.47,1.76,1.76,0,0,0,.3.43,1.59,1.59,0,0,0,.43.33l.11.05.12,0,.11,0,.11,0"/><path id="_Trazado_51" data-name="&lt;Trazado&gt;" class="cls-1" d="M92.39,93.68C93.87,91.26,95,89.25,96,87.61s1.6-3,2.05-3.92.71-1.59.85-2a2.78,2.78,0,0,0,.15-.51,4.49,4.49,0,0,0,.25-1.29,3.78,3.78,0,0,0-.14-1.2,2.34,2.34,0,0,0-.5-.93,1.5,1.5,0,0,0-.83-.48l-.23,0h-.23l-.24,0-.24.07a3,3,0,0,0-.78.42,4.24,4.24,0,0,0-.71.66,5,5,0,0,0-.59.83,4.62,4.62,0,0,0-.41.94,2.94,2.94,0,0,0-.18.49,20.15,20.15,0,0,0-.47,2c-.19,1-.41,2.35-.64,4.18s-.46,4-.68,6.76"/><path id="_Trazado_52" data-name="&lt;Trazado&gt;" class="cls-1" d="M63.19,113.76c-1.29-1-2.32-1.72-3.13-2.28s-1.39-.92-1.82-1.17a6.88,6.88,0,0,0-.86-.44.85.85,0,0,0-.22-.07l-.16-.05-.16,0h-.16l-.15,0a1.05,1.05,0,0,0-.33.12,1,1,0,0,0-.27.22,1.14,1.14,0,0,0-.19.31,1.34,1.34,0,0,0-.09.4,1.8,1.8,0,0,0,.08.63A2.32,2.32,0,0,0,56,112a2.37,2.37,0,0,0,.42.49,1.72,1.72,0,0,0,.5.32,1.17,1.17,0,0,0,.21.1,5.9,5.9,0,0,0,.85.24c.43.1,1,.21,1.86.31s1.93.21,3.33.3"/><path id="_Trazado_53" data-name="&lt;Trazado&gt;" class="cls-1" d="M118.54,136.4a4.18,4.18,0,0,0,.7,0,3.57,3.57,0,0,0,.67-.15,2.66,2.66,0,0,0,.58-.27,1.84,1.84,0,0,0,.45-.39,1.24,1.24,0,0,0,.28-.69,1.37,1.37,0,0,0-.15-.72,2,2,0,0,0-.51-.64,2.7,2.7,0,0,0-.8-.47,2,2,0,0,0-.36-.16,14.49,14.49,0,0,0-1.54-.46c-.78-.2-1.87-.43-3.37-.71s-3.34-.57-5.68-.9c1.73,1.26,3.12,2.23,4.25,3s2,1.26,2.63,1.61A13.1,13.1,0,0,0,117,136a2.15,2.15,0,0,0,.36.12l.27.09.29.07.29,0,.3,0"/><path id="_Trazado_54" data-name="&lt;Trazado&gt;" class="cls-1" d="M70.5,99.17c-.51-2.16-1-3.88-1.33-5.23s-.7-2.36-.95-3.07a14.64,14.64,0,0,0-.55-1.39,2.06,2.06,0,0,0-.18-.31,2.58,2.58,0,0,0-.4-.59,2.06,2.06,0,0,0-.5-.41A1.54,1.54,0,0,0,66,88a1.18,1.18,0,0,0-.54,0l-.12,0-.11.06-.11.08-.1.09a1.77,1.77,0,0,0-.43.67,3,3,0,0,0-.18.87,3.72,3.72,0,0,0,.06.93,3.23,3.23,0,0,0,.28.86,2.15,2.15,0,0,0,.14.33,13,13,0,0,0,.72,1.17c.38.56.93,1.32,1.71,2.31s1.8,2.21,3.12,3.73"/><path id="_Trazado_55" data-name="&lt;Trazado&gt;" class="cls-1" d="M98.38,148.63h.49a1.29,1.29,0,0,0,.56-.21,1.08,1.08,0,0,0,.36-.39,1.12,1.12,0,0,0,.12-.51,1.3,1.3,0,0,0-.13-.56.91.91,0,0,0-.09-.22,7.48,7.48,0,0,0-.53-.88c-.3-.44-.74-1-1.39-1.84s-1.51-1.83-2.65-3.12c.2,1.47.4,2.61.58,3.49s.34,1.5.47,1.95a6.33,6.33,0,0,0,.32.89,1.09,1.09,0,0,0,.12.21,1.86,1.86,0,0,0,.29.42,2.34,2.34,0,0,0,.42.36,2.75,2.75,0,0,0,.5.27,2.33,2.33,0,0,0,.55.15"/><path id="_Trazado_56" data-name="&lt;Trazado&gt;" class="cls-1" d="M63.06,133.5h.2l.1,0,.09,0,.16,0a3.66,3.66,0,0,0,.57-.32,13.19,13.19,0,0,0,1.14-.86c.5-.41,1.14-1,1.94-1.74-1.2.07-2.11.15-2.81.24s-1.17.16-1.51.24a3.8,3.8,0,0,0-.65.19.47.47,0,0,0-.14.08.76.76,0,0,0-.31.24,1,1,0,0,0-.17.37,1.17,1.17,0,0,0,0,.44,1.34,1.34,0,0,0,.17.46,1.57,1.57,0,0,0,.25.31,1.73,1.73,0,0,0,.31.23,1.53,1.53,0,0,0,.34.15,1.28,1.28,0,0,0,.34.06"/></g><g id="_Grupo_11" data-name="&lt;Grupo&gt;"><path id="_Trazado_57" data-name="&lt;Trazado&gt;" class="cls-1" d="M85.51,136.22a.79.79,0,0,0,.37-.06.78.78,0,0,0,.29-.2.86.86,0,0,0,.23-.66.59.59,0,0,0,0-.15,4.62,4.62,0,0,0-.11-.62c-.08-.31-.2-.75-.4-1.34s-.48-1.37-.86-2.35c-.21.95-.36,1.69-.45,2.27s-.14,1-.16,1.29a3.85,3.85,0,0,0,0,.6.58.58,0,0,0,0,.15,1.09,1.09,0,0,0,.11.37,1.37,1.37,0,0,0,.24.33,1.33,1.33,0,0,0,.33.25,1.07,1.07,0,0,0,.39.12h0"/><path id="_Trazado_58" data-name="&lt;Trazado&gt;" class="cls-1" d="M82.27,110.79c.22-1.29.37-2.33.47-3.17s.15-1.46.17-1.91a7.31,7.31,0,0,0,0-.9,1,1,0,0,0,0-.22,1.62,1.62,0,0,0-.14-.53,1.55,1.55,0,0,0-.29-.44,1.21,1.21,0,0,0-.4-.28.88.88,0,0,0-.47-.06h0a1,1,0,0,0-.43.21,1.34,1.34,0,0,0-.32.39,1.76,1.76,0,0,0-.23,1,1.08,1.08,0,0,0,0,.22,7.51,7.51,0,0,0,.16.87c.1.43.26,1,.51,1.8s.58,1.76,1,3"/><path id="_Trazado_59" data-name="&lt;Trazado&gt;" class="cls-1" d="M70.58,123.09l.41,0,.72-.15c.3-.07.68-.17,1.13-.31s1-.31,1.65-.53c-.79-.22-1.44-.39-2-.52s-1-.21-1.28-.27-.57-.09-.75-.11H70a.84.84,0,0,0-.33.1.8.8,0,0,0-.26.21.84.84,0,0,0-.15.31.86.86,0,0,0,0,.36,1,1,0,0,0,.15.37,1.23,1.23,0,0,0,.27.3,1.25,1.25,0,0,0,.34.2,1,1,0,0,0,.37.07h.19"/><path id="_Trazado_60" data-name="&lt;Trazado&gt;" class="cls-1" d="M100.47,121.77h.19a1.82,1.82,0,0,0,1-.38A1.42,1.42,0,0,0,102,121a1,1,0,0,0,.14-.47A.94.94,0,0,0,102,120a1.25,1.25,0,0,0-.34-.38,1.63,1.63,0,0,0-.48-.25,1.74,1.74,0,0,0-.56-.08h-.3l-.64.07c-.29,0-.66.11-1.14.21s-1,.24-1.73.42-1.47.4-2.39.67c1,.25,1.9.45,2.62.6s1.32.25,1.79.33.82.11,1.08.13a4.68,4.68,0,0,0,.53,0"/><path id="_Trazado_61" data-name="&lt;Trazado&gt;" class="cls-1" d="M75.63,114.84c-.66-1-1.19-1.77-1.62-2.36s-.77-1-1-1.31a5.81,5.81,0,0,0-.52-.56.79.79,0,0,0-.14-.12,1.31,1.31,0,0,0-.21-.15l-.23-.1-.23,0h-.23l-.16,0-.15.07a.62.62,0,0,0-.13.11.8.8,0,0,0-.11.14,1,1,0,0,0-.14.41,1.41,1.41,0,0,0,0,.46,1.75,1.75,0,0,0,.17.44,1.48,1.48,0,0,0,.29.36.9.9,0,0,0,.13.13,5.56,5.56,0,0,0,.58.43c.3.21.72.47,1.32.81s1.38.75,2.38,1.25"/><path id="_Trazado_62" data-name="&lt;Trazado&gt;" class="cls-1" d="M96.2,132.83h.2l.19,0,.18-.07a.69.69,0,0,0,.16-.1.76.76,0,0,0,.25-.33.89.89,0,0,0,.05-.41,1.17,1.17,0,0,0-.12-.42,1.38,1.38,0,0,0-.29-.37.93.93,0,0,0-.14-.14,6,6,0,0,0-.63-.48c-.33-.22-.8-.52-1.47-.9s-1.51-.85-2.6-1.41c.63,1,1.14,1.74,1.55,2.32s.73,1,1,1.28a5.47,5.47,0,0,0,.51.55.86.86,0,0,0,.15.12,1.26,1.26,0,0,0,.22.16,1.41,1.41,0,0,0,.25.12l.27.08.28,0"/><path id="_Trazado_63" data-name="&lt;Trazado&gt;" class="cls-1" d="M90.5,112.85c1.14-.75,2-1.37,2.76-1.88s1.23-.93,1.6-1.24a7.49,7.49,0,0,0,.71-.66,1.21,1.21,0,0,0,.15-.19,1.84,1.84,0,0,0,.32-.51,1.87,1.87,0,0,0,.14-.57,1.46,1.46,0,0,0-.07-.55,1,1,0,0,0-.5-.58,1,1,0,0,0-.23-.09,1.15,1.15,0,0,0-.26,0l-.26,0a1.69,1.69,0,0,0-.3.07,1.72,1.72,0,0,0-.29.13,1.74,1.74,0,0,0-.26.18,1.59,1.59,0,0,0-.23.22,1.07,1.07,0,0,0-.17.17,7.74,7.74,0,0,0-.56.78c-.26.4-.6,1-1,1.75s-.93,1.75-1.52,3"/><path id="_Trazado_64" data-name="&lt;Trazado&gt;" class="cls-1" d="M75.6,132.29h.19l.18,0,.16-.08a.7.7,0,0,0,.13-.12.51.51,0,0,0,.1-.09,3.26,3.26,0,0,0,.32-.44c.15-.23.34-.57.58-1.05s.54-1.13.91-2c-.8.45-1.4.81-1.86,1.11s-.77.52-1,.69a3.44,3.44,0,0,0-.41.36.54.54,0,0,0-.08.11.75.75,0,0,0-.16.3.9.9,0,0,0,0,.35,1.07,1.07,0,0,0,.09.35,1,1,0,0,0,.23.3l.14.11.16.08.16,0,.17,0"/><path id="_Trazado_65" data-name="&lt;Trazado&gt;" class="cls-1" d="M78.94,137.9a1,1,0,0,0,.59-.14.89.89,0,0,0,.22-.19.85.85,0,0,0,.15-.25.64.64,0,0,0,.06-.14,4,4,0,0,0,.14-.62c.05-.32.11-.78.15-1.43s.08-1.5.08-2.6c-.64.82-1.1,1.46-1.45,2s-.57.88-.72,1.15a3.79,3.79,0,0,0-.26.56.57.57,0,0,0,0,.15,1,1,0,0,0,0,.39,1.31,1.31,0,0,0,.11.41,1.37,1.37,0,0,0,.25.36,1.19,1.19,0,0,0,.36.27l.1,0,.1,0,.1,0h.09"/><path id="_Trazado_66" data-name="&lt;Trazado&gt;" class="cls-1" d="M88,107.45c.94-1.43,1.66-2.61,2.23-3.56s1-1.71,1.24-2.25a10.11,10.11,0,0,0,.5-1.12,1.57,1.57,0,0,0,.09-.29,2.32,2.32,0,0,0,.12-.75,2.17,2.17,0,0,0-.11-.72,1.65,1.65,0,0,0-.34-.58,1.16,1.16,0,0,0-.54-.34l-.15,0h-.3l-.15,0a1.61,1.61,0,0,0-.49.19,2.17,2.17,0,0,0-.44.34,2.56,2.56,0,0,0-.36.45,2.39,2.39,0,0,0-.24.53,1.43,1.43,0,0,0-.11.29,10.59,10.59,0,0,0-.27,1.17c-.11.59-.22,1.4-.34,2.5s-.23,2.45-.33,4.15"/><path id="_Trazado_67" data-name="&lt;Trazado&gt;" class="cls-1" d="M71.74,117c-1-.79-1.87-1.37-2.52-1.82s-1.13-.74-1.48-.94a6.69,6.69,0,0,0-.71-.36l-.18-.06-.13,0-.14,0h-.27a1,1,0,0,0-.29.08,1,1,0,0,0-.24.16.9.9,0,0,0-.18.24,1,1,0,0,0-.1.3,1.18,1.18,0,0,0,0,.49,1.53,1.53,0,0,0,.2.47,1.83,1.83,0,0,0,.33.39,1.36,1.36,0,0,0,.41.26.82.82,0,0,0,.17.08,5.22,5.22,0,0,0,.71.21c.36.08.87.18,1.57.28s1.62.2,2.8.3"/><path id="_Trazado_68" data-name="&lt;Trazado&gt;" class="cls-1" d="M103.92,130.3a2.32,2.32,0,0,0,.46,0,2,2,0,0,0,.43-.13,1.55,1.55,0,0,0,.36-.22,1.18,1.18,0,0,0,.26-.3,1,1,0,0,0,.13-.52,1.21,1.21,0,0,0-.14-.53,1.68,1.68,0,0,0-.37-.46,1.88,1.88,0,0,0-.55-.33,1.25,1.25,0,0,0-.24-.11,9,9,0,0,0-1-.3c-.52-.13-1.25-.28-2.25-.45s-2.24-.36-3.82-.55c1.22.9,2.21,1.59,3,2.11s1.39.89,1.83,1.14a8.16,8.16,0,0,0,.91.46,1.38,1.38,0,0,0,.25.08l.18.06.19,0,.2,0h.2"/><path id="_Trazado_69" data-name="&lt;Trazado&gt;" class="cls-1" d="M76.53,109.3c-.33-1.51-.61-2.7-.86-3.64s-.46-1.63-.62-2.12a9.27,9.27,0,0,0-.37-1,1.28,1.28,0,0,0-.12-.22,1.79,1.79,0,0,0-.29-.42,1.64,1.64,0,0,0-.37-.3,1.36,1.36,0,0,0-.41-.16,1,1,0,0,0-.42,0l-.09,0-.09,0-.08,0-.08.06a1.18,1.18,0,0,0-.35.42,1.83,1.83,0,0,0-.17.57,2.22,2.22,0,0,0,0,.63,2,2,0,0,0,.19.6,1.17,1.17,0,0,0,.1.23,8.06,8.06,0,0,0,.51.84c.27.4.67.95,1.24,1.66s1.31,1.61,2.28,2.71"/><path id="_Trazado_70" data-name="&lt;Trazado&gt;" class="cls-1" d="M93.14,139h.27l.09,0a.94.94,0,0,0,.66-.56,1.07,1.07,0,0,0,.07-.44,1.15,1.15,0,0,0-.12-.46.82.82,0,0,0-.07-.18,5.83,5.83,0,0,0-.43-.7c-.24-.35-.58-.82-1.09-1.46s-1.19-1.44-2.08-2.45c.19,1.21.37,2.14.53,2.87s.3,1.24.42,1.61a6,6,0,0,0,.27.72.79.79,0,0,0,.1.17,1.36,1.36,0,0,0,.23.34,1.83,1.83,0,0,0,.33.28,1.8,1.8,0,0,0,.39.2,1.53,1.53,0,0,0,.42.09"/><path id="_Trazado_71" data-name="&lt;Trazado&gt;" class="cls-1" d="M96.58,114.41c1.7-.27,3.06-.53,4.14-.75s1.9-.44,2.48-.6a10.37,10.37,0,0,0,1.16-.39,1.33,1.33,0,0,0,.28-.14,2.47,2.47,0,0,0,1.13-1,1.85,1.85,0,0,0,.24-.67,1.3,1.3,0,0,0-.07-.66,1.17,1.17,0,0,0-.28-.41,1.41,1.41,0,0,0-.43-.28,1.81,1.81,0,0,0-.52-.14,2.28,2.28,0,0,0-.57,0l-.18,0-.18,0-.18.06-.17.07a1.45,1.45,0,0,0-.29.12,10.78,10.78,0,0,0-1.08.62c-.52.33-1.22.81-2.14,1.49s-2,1.53-3.35,2.62"/><path id="_Trazado_72" data-name="&lt;Trazado&gt;" class="cls-1" d="M69.75,129.69h.19l.09,0,.08,0a.58.58,0,0,0,.15,0,3.64,3.64,0,0,0,.53-.3c.26-.17.61-.42,1.08-.79s1.08-.89,1.83-1.58c-1.08.09-1.91.19-2.55.28s-1.07.17-1.39.25a3.9,3.9,0,0,0-.6.18.51.51,0,0,0-.13.07.81.81,0,0,0-.3.22.92.92,0,0,0-.17.34.94.94,0,0,0,0,.39,1.05,1.05,0,0,0,.13.41,1.24,1.24,0,0,0,.48.47,1.31,1.31,0,0,0,.3.13,1.11,1.11,0,0,0,.31,0"/></g></g><g id="_Grupo_12" data-name="&lt;Grupo&gt;"><g id="_Grupo_13" data-name="&lt;Grupo&gt;"><polygon id="_Trazado_73" data-name="&lt;Trazado&gt;" class="cls-1" points="49.44 190.19 49.44 194.91 55.88 194.91 55.88 197.85 49.44 197.85 49.44 205.54 45.95 205.54 45.95 187.22 57.3 187.22 57.3 190.19 49.44 190.19"/><rect id="_Trazado_74" data-name="&lt;Trazado&gt;" class="cls-1" x="60.35" y="187.22" width="3.5" height="18.31"/><polygon id="_Trazado_75" data-name="&lt;Trazado&gt;" class="cls-1" points="68.2 205.54 68.2 187.22 79.35 187.22 79.35 190.19 71.69 190.19 71.69 194.72 77.97 194.72 77.97 197.68 71.69 197.68 71.69 202.57 79.71 202.57 79.71 205.54 68.2 205.54"/><path id="_Trazado_76" data-name="&lt;Trazado&gt;" class="cls-1" d="M93.28,191.58a12.53,12.53,0,0,0-4.75-1.3c-1.64,0-2.69.67-2.69,1.69,0,.78.44,1.25,1.75,1.94a26.51,26.51,0,0,1,5.49,3.52,4.69,4.69,0,0,1,1.25,3.27c0,3.27-2.39,5.19-6.44,5.19a15.53,15.53,0,0,1-1.64-.11,11.51,11.51,0,0,1-3.83-1.28L81.24,204l1.47-3.22A20.86,20.86,0,0,0,85.32,202a8.36,8.36,0,0,0,2.64.53c1.61,0,2.66-.72,2.66-1.83,0-.78-.42-1.3-1.61-2l-2.83-1.61c-3.25-1.86-4.25-3.08-4.25-5.08a4.92,4.92,0,0,1,.72-2.55A5.26,5.26,0,0,1,84,188.14a7.09,7.09,0,0,1,4.61-1.22,11.81,11.81,0,0,1,3.44.47,16.27,16.27,0,0,1,2.61,1.05Z"/><polygon id="_Trazado_77" data-name="&lt;Trazado&gt;" class="cls-1" points="105.24 190.19 105.24 205.54 101.74 205.54 101.74 190.19 96.25 190.19 96.25 187.22 110.73 187.22 110.73 190.19 105.24 190.19"/><path id="_Trazado_compuesto_2" data-name="&lt;Trazado compuesto&gt;" class="cls-1" d="M121.83,205.54,120.38,201h-6.13l-1.5,4.52h-3.66l6.63-18.31h3.14l6.63,18.31Zm-4.52-14.12L115.2,198h4.25Z"/><path id="_Trazado_compuesto_3" data-name="&lt;Trazado compuesto&gt;" class="cls-1" d="M55.71,231.34l-5.05-7.85H48.22v7.85H45.95V213h5.58c2.22,0,3.27.33,4.33,1.36A5.06,5.06,0,0,1,57.3,218a5.24,5.24,0,0,1-1.61,3.8,4.88,4.88,0,0,1-2.77,1.39l5.41,8.19Zm-1.86-15.87c-.56-.45-1-.53-2.66-.53h-3v6.63h3c2.41,0,3.66-1.22,3.66-3.58a3,3,0,0,0-1-2.52"/><polygon id="_Trazado_78" data-name="&lt;Trazado&gt;" class="cls-1" points="60.51 231.34 60.51 213.03 70.81 213.03 70.81 214.94 62.79 214.94 62.79 221.05 69.42 221.05 69.42 222.96 62.79 222.96 62.79 229.43 71.06 229.43 71.06 231.34 60.51 231.34"/><polygon id="_Trazado_79" data-name="&lt;Trazado&gt;" class="cls-1" points="88.68 231.71 87.26 231.71 83.96 223.05 80.63 231.71 79.41 231.71 72.08 213.03 74.52 213.03 80.13 228.15 83.02 220.63 80.13 213.03 82.21 213.03 84.04 217.83 85.9 213.03 87.79 213.03 84.98 220.3 87.98 228.13 93.37 213.03 95.61 213.03 88.68 231.71"/><path id="_Trazado_compuesto_4" data-name="&lt;Trazado compuesto&gt;" class="cls-1" d="M108.57,231.34l-1.89-5.41H99.27l-1.89,5.41H94.94l6.83-18.84h2.44l6.8,18.84ZM103,215.47l-3,8.38h6Z"/><path id="_Trazado_compuesto_5" data-name="&lt;Trazado compuesto&gt;" class="cls-1" d="M122.91,231.34l-5-7.85h-2.44v7.85h-2.27V213h5.58c2.22,0,3.27.33,4.33,1.36a5.05,5.05,0,0,1,1.44,3.58,5.24,5.24,0,0,1-1.61,3.8,4.88,4.88,0,0,1-2.77,1.39l5.41,8.19Zm-1.86-15.87c-.56-.45-1-.53-2.67-.53h-3v6.63h3c2.41,0,3.66-1.22,3.66-3.58a3,3,0,0,0-1-2.52"/><path id="_Trazado_compuesto_6" data-name="&lt;Trazado compuesto&gt;" class="cls-1" d="M141.09,228.68c-1.67,1.91-3.58,2.66-6.77,2.66h-6.08V213h6.1a8.83,8.83,0,0,1,9.21,9.07,10.08,10.08,0,0,1-2.47,6.58M134,214.94h-3.47v14.48H134c2.41,0,3.77-.47,4.94-1.66a8.85,8.85,0,0,0,2.25-5.69,7,7,0,0,0-7.19-7.13"/><path id="_Trazado_80" data-name="&lt;Trazado&gt;" class="cls-1" d="M156.1,216.14a9.18,9.18,0,0,0-1.92-.94,9.8,9.8,0,0,0-2.53-.39c-2.08,0-3.5,1-3.5,2.58,0,1.36.8,2.05,4.52,4a16,16,0,0,1,2.89,1.86A4.36,4.36,0,0,1,157,226.6c0,3.14-2.33,5.11-6,5.11a9.18,9.18,0,0,1-3.39-.61,11.53,11.53,0,0,1-2.36-1.36l1.17-1.8a9.73,9.73,0,0,0,2.11,1.19,7.43,7.43,0,0,0,2.64.47c2.16,0,3.47-1,3.47-2.78a2.59,2.59,0,0,0-.28-1.3,4.07,4.07,0,0,0-1.55-1.5c-.31-.17-1.33-.69-3.05-1.64-2.75-1.47-3.91-2.92-3.91-4.8,0-2.91,2.41-4.86,6-4.86a10.21,10.21,0,0,1,3.08.44,9.93,9.93,0,0,1,2.22,1.08Z"/></g><g id="_Grupo_14" data-name="&lt;Grupo&gt;"><path id="_Trazado_compuesto_7" data-name="&lt;Trazado compuesto&gt;" class="cls-1" d="M163.33,231.71a2.43,2.43,0,1,1,2.42-2.43A2.43,2.43,0,0,1,163.33,231.71Zm0-4.47a2,2,0,1,0,2,2A2,2,0,0,0,163.33,227.23Zm.62,3.45-.86-1.15h-.3v1.15h-.49v-2.79h1c.73,0,1,.24,1,.79a.77.77,0,0,1-.75.82l.93,1.19Zm-.24-2.35a1.16,1.16,0,0,0-.46-.06h-.45v.93h.45c.43,0,.64-.16.64-.5A.4.4,0,0,0,163.71,228.32Z"/></g></g></g></g></g></g></g></svg>