<svg id="ARTE" xmlns="http://www.w3.org/2000/svg" viewBox="0 0 160.59 47.74"><title>gamma-logo</title><g id="_Group_" data-name="&lt;Group&gt;"><rect id="_Path_" data-name="&lt;Path&gt;" x="0.78" y="1.41" width="45.76" height="45.11" style="fill:#fff"/><rect id="_Path_2" data-name="&lt;Path&gt;" x="46.21" y="1.34" width="113.04" height="45.11" style="fill:#fff"/><g id="_Group_2" data-name="&lt;Group&gt;"><path id="_Path_3" data-name="&lt;Path&gt;" d="M1541.51,9911.24c-5.53,0-9-3-9-8.35,0-5.65,3.42-8.5,9.13-8.5a12.75,12.75,0,0,1,5.2,1l-1,2.79a12.25,12.25,0,0,0-4.18-.66c-3,0-5.29,1.41-5.29,5.17s2.56,5.44,5.59,5.44c0.48,0,1,0,1.32-.06v-5.33h3.73v7.65a14.94,14.94,0,0,1-5.41.9" transform="translate(-1479.47 -9883.4)" style="fill:#919396"/><polygon id="_Path_4" data-name="&lt;Path&gt;" points="104.83 27.57 104.83 18.89 104.98 16.39 100.17 27.57 95.88 27.57 91.4 16.39 91.67 18.71 91.67 27.57 88.06 27.57 88.06 11.17 92.84 11.17 98.1 24.18 103.9 11.17 108.43 11.17 108.43 27.57 104.83 27.57" style="fill:#919396"/><polygon id="_Path_5" data-name="&lt;Path&gt;" points="129.17 27.57 129.17 18.89 129.32 16.39 124.51 27.57 120.21 27.57 115.74 16.39 116.01 18.71 116.01 27.57 112.4 27.57 112.4 11.17 117.18 11.17 122.44 24.18 128.23 11.17 132.77 11.17 132.77 27.57 129.17 27.57" style="fill:#919396"/><path id="_Compound_Path_" data-name="&lt;Compound Path&gt;" d="M1555.65,9908.09a1.72,1.72,0,0,1-2-1.89c0-1.05.42-1.92,3.13-2l3-.15v2.91c-0.66.18-2.89,1.17-4.18,1.17m1.41-13.91a17,17,0,0,0-6,1.17l0.78,2.95a19.87,19.87,0,0,1,4.57-.75c2.37,0,3.45.3,3.45,2.25v1.74l-3.28,0c-3,0-6.73.78-6.73,4.86,0,3.19,1.92,4.78,5.23,4.78a8,8,0,0,0,4.78-1.73V9911h3.84v-12c0-4.24-3.18-4.75-6.61-4.75" transform="translate(-1479.47 -9883.4)" style="fill:#919396"/><path id="_Compound_Path_2" data-name="&lt;Compound Path&gt;" d="M1620.83,9908.09a1.72,1.72,0,0,1-2-1.89c0-1.05.42-1.92,3.12-2l3-.15v2.91c-0.66.18-2.89,1.17-4.17,1.17m1.41-13.91a17,17,0,0,0-6,1.17l0.78,2.95a19.86,19.86,0,0,1,4.57-.75c2.37,0,3.45.3,3.45,2.25v1.74l-3.28,0c-3,0-6.73.78-6.73,4.86,0,3.19,1.92,4.78,5.23,4.78a8,8,0,0,0,4.78-1.73V9911h3.84v-12c0-4.24-3.19-4.75-6.61-4.75" transform="translate(-1479.47 -9883.4)" style="fill:#919396"/></g><path id="_Compound_Path_3" data-name="&lt;Compound Path&gt;" d="M1637.38,9928.51H1527.26v-42.43h110.12v42.43Zm-131.66,0H1501c0.12-2.84,4.55-2.66,4.75,0m-20-42.43c0,3.76,3.39,2.09,4.87.75a4.72,4.72,0,0,1-.53,1.39,4.34,4.34,0,0,0,.21,2.87c1.47-1.69,3.56-3.64,7.2-3.2a6,6,0,0,1,3,1.49,3.89,3.89,0,0,1-3,6.5c-1-.08-1.52-0.59-1.49-1.17,0.07-1.05,1.85-.93,1.91-2s-1.16-1.68-2.33-1.49a3.59,3.59,0,0,0-2.54,5.33,5.14,5.14,0,0,0,3.92,2.45c2.16,0.28,2.69-.63,4.76-1.06a3.74,3.74,0,0,1-4,3.94c0.08,2.29,2.9,2.29,4.45,1.71-0.18.85-.67,1.06-0.64,1.7,0.1,2,3.52,2.16,3.71.11,0.07-.78-0.51-1-0.64-1.81,1.54,0.58,4.28.58,4.45-1.6-2.08-.24-4.06-1.33-4-4,1.89,0.49,2.91,1.25,4.66,1.06,2.32-.25,4.73-2,4.44-4.79a3.45,3.45,0,0,0-4.13-3,1.74,1.74,0,0,0-1.17,1.49c0.06,1.09,1.75.95,1.91,1.92,0.31,2-3.56,1.05-4.34.32-2.66-2.5-.18-6.62,2.75-7a7.52,7.52,0,0,1,7.2,3.2c1.13-1.18-.08-3.52-0.32-4.26,1.47,1.1,4.9,3.23,5-.75h3.61v2.77c-1.76-.13-1.5,1.66-1,2.77-1.11-.54-3.52-0.72-3.39,1.38,1.55,0.32,3.31.43,3,2.66-2.16-.51-3.81-0.74-5.19.21-2.14,1.48-2.08,7.47.85,7.13,2.24-.26.16-2.21,1.37-4.15a1.5,1.5,0,0,1,1.59-.21c1.28,0.6,1.52,1.89,1.48,3.3-0.1,3.57-5.09,5.57-8,2.88a5.72,5.72,0,0,1-2-3.73c-1.51.37-2.3,2.32-1.38,4.26-4.58-1.93-3.39,5.79,0,3.94-0.68,1.77-.16,4,1.48,4.26a4.83,4.83,0,0,1,1.8-3.62c2.9-2.87,8.13-.83,8.15,2.87a4,4,0,0,1-1.48,3.19,1,1,0,0,1-1.59-.21c-0.63-.65.82-4.12-1.48-4.15-2.86,0-2.85,5.67-.64,7.13,1.36,0.9,2.9.77,5.08,0.21,0.34,2.19-1.36,2.33-2.86,2.66-0.4,1.79,2,2.23,3.28,1.28-0.4,1.18-.78,3,1,2.87v2.72H1521c0-3.68-3.39-2-4.87-.69a4.67,4.67,0,0,1,.53-1.38,4.36,4.36,0,0,0-.21-2.88c-1.47,1.69-3.57,3.64-7.2,3.19a5.91,5.91,0,0,1-3-1.49,3.88,3.88,0,0,1,3-6.49c1,0.07,1.52.59,1.48,1.17-0.07,1.05-1.84.92-1.91,2s1.16,1.68,2.33,1.49a3.59,3.59,0,0,0,2.54-5.32,5.13,5.13,0,0,0-3.92-2.45c-2.16-.28-2.69.63-4.76,1.06a3.75,3.75,0,0,1,4-3.94c-0.08-2.29-2.9-2.29-4.45-1.7,0.18-.85.67-1.06,0.64-1.7-0.1-2-3.52-2.16-3.71-.11-0.07.77,0.51,1,.64,1.81-1.53-.59-4.28-0.58-4.45,1.6,2.09,0.24,4.06,1.33,4,4-1.89-.49-2.91-1.25-4.66-1.06-2.32.25-4.73,2-4.44,4.79a3.44,3.44,0,0,0,4.13,3,1.73,1.73,0,0,0,1.16-1.49c-0.06-1.09-1.75-.95-1.91-1.91-0.31-2,3.56-1.05,4.34-.32,2.66,2.5.18,6.62-2.75,7a7.51,7.51,0,0,1-7.2-3.19c-1.14,1.18.08,3.53,0.32,4.26-1.46-1.09-4.86-3.2-5,.69h-3.57v-2.72c1.81,0.1,1.42-1.69,1-2.87,1.24,0.95,3.68.51,3.28-1.28-1.5-.33-3.2-0.47-2.86-2.66,2.18,0.56,3.72.69,5.08-.21,2.21-1.46,2.22-7.17-.63-7.13-2.3,0-.85,3.5-1.48,4.15a1,1,0,0,1-1.59.21,4,4,0,0,1-1.48-3.19c0-3.71,5.26-5.74,8.15-2.87a4.84,4.84,0,0,1,1.8,3.62c1.64-.26,2.16-2.49,1.48-4.26,3.39,1.85,4.57-5.87,0-3.94,0.92-1.93.13-3.89-1.37-4.26a5.7,5.7,0,0,1-2,3.73c-3,2.7-7.95.7-8-2.88,0-1.41.21-2.7,1.48-3.3a1.5,1.5,0,0,1,1.59.21c1.22,1.94-.86,3.89,1.38,4.15,2.93,0.34,3-5.65.84-7.13-1.38-1-3-.72-5.19-0.21-0.35-2.23,1.41-2.34,3-2.66,0.14-2.1-2.28-1.92-3.39-1.38,0.46-1.11.72-2.89-1-2.77v-2.77h3.57Zm20,0c-0.06,2.92-4.62,2.73-4.76,0h4.76Zm-26.26,45.06h160.59V9883.4H1479.47v47.74Z" transform="translate(-1479.47 -9883.4)" style="fill:#00b878"/><path id="_Compound_Path_4" data-name="&lt;Compound Path&gt;" d="M1632.51,9910.32h-0.16v0.42h0.1c0.23,0,.31-0.09.31-0.22s0-.2-0.25-0.2m0.93,1.37a0.9,0.9,0,0,1-.68-0.32l-0.25-.28h-0.16v0.57h-0.49v-1.73h0.71a0.6,0.6,0,0,1,.7.58,0.52,0.52,0,0,1-.25.45l0.15,0.16a0.65,0.65,0,0,0,.38.2Z" transform="translate(-1479.47 -9883.4)" style="fill:#919396"/><path id="_Compound_Path_5" data-name="&lt;Compound Path&gt;" d="M1632.55,9908.69a2.11,2.11,0,1,0,2.09,2.11,2.1,2.1,0,0,0-2.09-2.11m0,0.49a1.61,1.61,0,1,1-1.6,1.61,1.61,1.61,0,0,1,1.6-1.61" transform="translate(-1479.47 -9883.4)" style="fill:#919396"/><g id="_Group_3" data-name="&lt;Group&gt;"><polygon id="_Path_6" data-name="&lt;Path&gt;" points="83.57 38.37 83.57 35.77 81.07 35.77 81.07 38.37 79.19 38.37 79.19 31.77 81.07 31.77 81.07 34.34 83.57 34.34 83.57 31.77 85.45 31.77 85.45 38.37 83.57 38.37" style="fill:#919396"/><path id="_Compound_Path_6" data-name="&lt;Compound Path&gt;" d="M1570.06,9916.56a1.66,1.66,0,0,0-1.8,1.9,1.78,1.78,0,1,0,1.8-1.9m-0.1,5.33c-2.4,0-3.59-1.32-3.59-3.41s1.45-3.39,3.77-3.39c2.48,0,3.57,1.36,3.57,3.4s-1.33,3.4-3.75,3.4" transform="translate(-1479.47 -9883.4)" style="fill:#919396"/><polygon id="_Path_7" data-name="&lt;Path&gt;" points="98.78 33.23 98.78 38.37 96.91 38.37 96.91 33.23 94.84 33.23 94.84 31.77 100.85 31.77 100.85 33.23 98.78 33.23" style="fill:#919396"/><polygon id="_Path_8" data-name="&lt;Path&gt;" points="101.94 38.37 101.94 31.77 106.91 31.77 106.91 33.23 103.82 33.23 103.82 34.37 106.71 34.37 106.71 35.76 103.82 35.76 103.82 36.91 107.13 36.91 107.13 38.37 101.94 38.37" style="fill:#919396"/><polygon id="_Path_9" data-name="&lt;Path&gt;" points="108.7 38.37 108.7 31.77 110.58 31.77 110.58 36.89 113.43 36.89 113.43 38.37 108.7 38.37" style="fill:#919396"/><polygon id="_Path_10" data-name="&lt;Path&gt;" points="114.52 38.37 114.52 31.77 119.49 31.77 119.49 33.23 116.39 33.23 116.39 34.37 119.28 34.37 119.28 35.76 116.39 35.76 116.39 36.91 119.71 36.91 119.71 38.37 114.52 38.37" style="fill:#919396"/><path id="_Path_11" data-name="&lt;Path&gt;" d="M1602.85,9921.87a5.68,5.68,0,0,1-2.6-.41l0.52-1.43a6.19,6.19,0,0,0,2.06.31c0.9,0,1.15-.23,1.15-0.47,0-.86-3.54-0.53-3.54-2.9,0-1.33,1.5-1.84,2.84-1.84a5.48,5.48,0,0,1,2.4.39l-0.42,1.37a7.25,7.25,0,0,0-1.93-.26c-0.72,0-.81.2-0.81,0.34,0,0.81,3.6.79,3.6,2.84,0,1.51-1.71,2.06-3.27,2.06" transform="translate(-1479.47 -9883.4)" style="fill:#919396"/></g></g></svg>