<svg xmlns="http://www.w3.org/2000/svg" viewBox="0 0 216.45 174.87"><defs><style>.cls-1{fill:#5f0e6e;}.cls-2{fill:#f11731;}</style></defs><title>globogo-logo</title><g id="Capa_2" data-name="Capa 2"><g id="ARTE"><g id="_Grupo_" data-name="&lt;Grupo&gt;"><g id="_Grupo_2" data-name="&lt;Grupo&gt;"><path id="_Trazado_compuesto_" data-name="&lt;Trazado compuesto&gt;" class="cls-1" d="M191.4,121.63c-.9,3.92-2.86,8.86-7,10.19-1.32.26-3.77.75-3.83-3.71,0-.09,0-9.38,3.59-14.6,2.61-3.79,7.17-4.57,8-.28.53,2.89-.47,7.51-.68,8.41M202,119.54c1.9-6.8,6.51-28.83-13.76-26.75-24.54,5.63-32.45,46.4-20.64,53.18,8.18,4.7,27.88-3,34.4-26.43"/><path id="_Trazado_compuesto_2" data-name="&lt;Trazado compuesto&gt;" class="cls-1" d="M132.93,156.5c4.83-.58,5.08,1.62,4.78,2.94-.37,1.66-2.22,3.85-8.93,4.89-10.15,1.17-7.61-4.6-6.72-5.71a7.26,7.26,0,0,1,.95-.91c3-.29,5.14-.63,9.92-1.2m2.51-37.19c-.19,1.66-1.31,5.58-7.65,6.24-10,.35-9.3-8.08-6.79-10.84,3.79-4.18,13.91-3.83,14.47,3.15a8.61,8.61,0,0,1,0,1.45m-10.23,24a1.59,1.59,0,0,1-.44-2.43,4.76,4.76,0,0,1,1.16-1c19.31-1.73,31.93-10.05,30.78-26.26a23.53,23.53,0,0,0,5.06-1c.3-4.89.6-12.77.7-17.65-12.89,2.73-25.64-1.45-38.49-.78-35.12,4.44-32.75,32.09-24.05,39.9a23,23,0,0,0,6.56,3.78c-9.77,4.59-9,14.61-1.19,17.95.41.17,1,.35,1.4.5-9.32,5.16-8,14.12,2.58,17.13,24.95,7.13,55.27-15.08,45.93-27.74-3.18-4.3-11-3.69-15.73-3.34-3.57.27-11.43,1.73-14.27.89"/><path id="_Trazado_" data-name="&lt;Trazado&gt;" class="cls-2" d="M58.38,84.07C58.84,53.7,63,25.26,77.46,0A160.38,160.38,0,0,0,60.39,1.63c-17.7,21.49-24.87,55.11-25,82.45,1.7,0,23,0,23,0"/><path id="_Trazado_compuesto_3" data-name="&lt;Trazado compuesto&gt;" class="cls-2" d="M116.88,50.54c-.63,7.83-4.27,11.91-10.82,12.12-2.65-.16-7.58-.44-9-7,0-.12-2.4-12,3.68-17.47,2.52-2.28,16.76-8.13,16.22,10.83,0,.44,0,1-.08,1.48M142.48,53c.91-15.13-4.46-33.35-35.27-34.24C66.22,20.72,60,62,76.91,77.33c16.71,15.19,63.43,11,65.56-24.3"/><path id="_Trazado_compuesto_4" data-name="&lt;Trazado compuesto&gt;" class="cls-2" d="M180.75,55.6c.68,7.92-1.34,11.9-6,11.81a12.68,12.68,0,0,1-3.55-.75c-.06-1.08-.13-2.15-.21-3.21s-.16-2.12-.24-3.17-.18-2.09-.27-3.12-.19-2.05-.3-3.07c-1.35-16.28,6.35-10.88,6.43-10.82,3,2.38,3.92,9.41,4.17,12.32m14.35,1.69C192,30.16,171.88,24.73,166.93,30.52c-.23.27-.46.68-.65,1l-.09,0c-.44-6.6-3.64-17.51-5.47-22.45-4.06-1.12-8.42-2.17-16.08-3.82,4.48,22.46,5.93,54,6.11,76.6,42.55,12.91,46-9.82,44.35-24.52"/><path id="_Trazado_compuesto_5" data-name="&lt;Trazado compuesto&gt;" class="cls-2" d="M211.71,62.67c.33,1.84,1.22,7.84-.89,7.69-1.45-.49-2.26-2.23-3.36-7.18-1.63-7.35-1.87-11-.78-11.48,1.39-.61,3.63,3,5,11m3.85,2.67c-.4-2.21-4.17-21.76-13.17-26.51-10.39-3.31-4.33,29.57.16,39,3.95,8.31,10.73,10.38,13,4,1.25-3.59,1.27-9.74.05-16.46"/><path id="_Trazado_compuesto_6" data-name="&lt;Trazado compuesto&gt;" class="cls-2" d="M14,93.06c0,2.22-.63,5.94-4.6,5.92-4.89-.64-4.13-9.26-3.25-11.79,1.53,0,2.65,0,4.69,0,2.7,0,3.17,3.79,3.17,5.91m4.69-49.53c-.61,1.53-2.33,5.19-5.07,6-3.7.64-.74-6.43,1.11-9,2.13-3,4.5-3.43,4.89-1.71.31,1.4-.64,3.94-.93,4.69M8.36,68.31a4.81,4.81,0,0,1,.93-4c14.15-2.49,21.29-16.9,23.49-26.81a19.65,19.65,0,0,0,4.23-1,121.9,121.9,0,0,1,6.14-14.89c-6.49,1.94-13.53,1.1-19.87,3.85C11.25,32.31,2.42,55.22,4.1,62.17,1.66,66.1.82,72.25.54,75.56.42,76.93,0,92.72,0,92.82a52.26,52.26,0,0,0,.79,8c.9,4.65,3.28,17,13.72,15.29,15.6-2.57,19.42-37,8.54-45.62-2.61-2.08-5.6-2.15-7.79-2.19-1.28,0-6.7,1.23-6.91,0"/></g></g></g></g></svg>