<svg id="ARTE" xmlns="http://www.w3.org/2000/svg" viewBox="0 0 192.06 75.61"><title>grandfa-logo</title><g id="_Group_" data-name="&lt;Group&gt;"><path id="_Compound_Path_" data-name="&lt;Compound Path&gt;" d="M665.83,9928.91a1.61,1.61,0,1,1,1.63-1.61,1.62,1.62,0,0,1-1.63,1.61m0-3a1.35,1.35,0,1,0,1.35,1.35,1.35,1.35,0,0,0-1.35-1.35m0.3,2.31-0.52-.88h-0.06v0.88h-0.42v-1.94h0.63c0.52,0,.72.14,0.72,0.5a0.49,0.49,0,0,1-.43.52l0.61,0.92h-0.53Zm-0.41-1.66h-0.17v0.55h0.16a0.26,0.26,0,0,0,.31-0.28,0.24,0.24,0,0,0-.3-0.27" transform="translate(-475.4 -9868.59)" style="fill:#8d8180"/><path id="_Path_" data-name="&lt;Path&gt;" d="M603.76,9912c-5.82,0-8.76-2.95-8.76-8.76,0-6,3.5-9.63,9.4-9.63a16,16,0,0,1,4.77.87v1.86a18.75,18.75,0,0,0-4.17-.48c-4.44,0-6.73,2.41-6.73,7.06s2,6.88,6.38,6.88a10.43,10.43,0,0,0,1.78-.18v-6.07h3v7.57a23.27,23.27,0,0,1-5.64.89" transform="translate(-475.4 -9868.59)" style="fill:#8d8180"/><path id="_Path_2" data-name="&lt;Path&gt;" d="M617.6,9901a10.08,10.08,0,0,0-1.93.23v10.57h-3v-13h2.95v1a11,11,0,0,1,3.3-1.14,3.17,3.17,0,0,1,1.42.31v2.64a6,6,0,0,0-2.72-.56" transform="translate(-475.4 -9868.59)" style="fill:#8d8180"/><path id="_Compound_Path_2" data-name="&lt;Compound Path&gt;" d="M628.92,9911.77V9911a9.21,9.21,0,0,1-3.68,1,3.65,3.65,0,0,1-3.94-3.83c0-2.34,1.35-3.63,4-3.89,1.12-.1,2.16-0.15,3.53-0.15v-1.4c0-1.47-.66-2.06-2.36-2.06a25.77,25.77,0,0,0-4,.4v-1.65a21.93,21.93,0,0,1,5.08-.87,4.87,4.87,0,0,1,3.28,1c0.76,0.69,1,1.6,1,3.56v8.69h-2.87Zm-0.07-6.1a18.19,18.19,0,0,0-2.39.15c-1.37.18-2.08,0.89-2.08,2,0,1.37.84,2.06,2.49,2.06a9.1,9.1,0,0,0,2-.23v-4Z" transform="translate(-475.4 -9868.59)" style="fill:#8d8180"/><path id="_Path_3" data-name="&lt;Path&gt;" d="M643.37,9911.77v-8c0-2.29-.66-3-2.66-3a12.61,12.61,0,0,0-2.49.3v10.74h-3v-13h2.95v0.81a11.37,11.37,0,0,1,4.29-1.09,4.14,4.14,0,0,1,3.07,1.27c0.66,0.81.89,1.75,0.89,3.63v8.38h-3Z" transform="translate(-475.4 -9868.59)" style="fill:#8d8180"/><path id="_Compound_Path_3" data-name="&lt;Compound Path&gt;" d="M658.1,9911.77V9911a10.07,10.07,0,0,1-3.73,1c-3.23,0-5.31-2.49-5.31-6.4s2.64-7,6.19-7a6.8,6.8,0,0,1,2.8.61v-7.11h3v19.66h-3Zm-0.05-11a11.74,11.74,0,0,0-1.73-.15c-2.61,0-4.09,1.73-4.09,4.78,0,2.8,1.37,4.4,3.76,4.4a9.92,9.92,0,0,0,2.06-.23v-8.79Z" transform="translate(-475.4 -9868.59)" style="fill:#8d8180"/><polygon id="_Path_4" data-name="&lt;Path&gt;" points="69.39 50.75 69.39 53.71 72.7 53.71 72.7 55.26 69.39 55.26 69.39 60.14 67.05 60.14 67.05 49.2 73.57 49.2 73.57 50.75 69.39 50.75" style="fill:#8d8180"/><path id="_Compound_Path_4" data-name="&lt;Compound Path&gt;" d="M551.32,9919.74c-1,0-1.35-.3-1.35-1.07s0.37-1.05,1.35-1.05,1.36,0.28,1.36,1.05-0.37,1.07-1.36,1.07m-1.13,1h2.26v8h-2.26v-8Z" transform="translate(-475.4 -9868.59)" style="fill:#8d8180"/><path id="_Compound_Path_5" data-name="&lt;Compound Path&gt;" d="M556.23,9925.13c0,1.65.7,2.27,2.56,2.27a15.7,15.7,0,0,0,2.06-.15v1.16a14.74,14.74,0,0,1-3,.47c-2.53,0-3.91-1.41-3.91-4s1.46-4.3,3.83-4.3a3,3,0,0,1,3.19,2.17,7.31,7.31,0,0,1,.22,2.39h-5Zm1.46-3.35c-1,0-1.46.65-1.46,2.09H559c0-1.55-.34-2.09-1.32-2.09" transform="translate(-475.4 -9868.59)" style="fill:#8d8180"/><path id="_Path_5" data-name="&lt;Path&gt;" d="M564.85,9928.87a9.12,9.12,0,0,1-2.62-.43v-1.26a9.3,9.3,0,0,0,2.26.29c0.9,0,1.3-.26,1.3-0.85a0.91,0.91,0,0,0-.7-0.82l-1.21-.56a2.31,2.31,0,0,1-1.61-2.25c0-1.5,1.08-2.4,2.9-2.4a8.38,8.38,0,0,1,2.42.43v1.24a7.91,7.91,0,0,0-2-.28c-0.85,0-1.23.23-1.23,0.74a1,1,0,0,0,.9.88l1.21,0.54a2.16,2.16,0,0,1,1.47,2.19c0,1.57-1.19,2.53-3.13,2.53" transform="translate(-475.4 -9868.59)" style="fill:#8d8180"/><path id="_Path_6" data-name="&lt;Path&gt;" d="M572.13,9928.84c-1.78,0-2.43-.65-2.43-2.42V9922h-1v-1.32h1V9919l2.26-.81v2.5h2.31V9922H572v4a1,1,0,0,0,1.24,1.21,5.87,5.87,0,0,0,1.07-.09v1.24a8.54,8.54,0,0,1-2.14.4" transform="translate(-475.4 -9868.59)" style="fill:#8d8180"/><path id="_Compound_Path_6" data-name="&lt;Compound Path&gt;" d="M579.85,9928.73v-0.51a5.58,5.58,0,0,1-2.26.62,2.29,2.29,0,0,1-2.43-2.43c0-1.5.85-2.33,2.57-2.48,0.65-.06,1.27-0.09,2.06-0.09v-0.66c0-.79-0.4-1.1-1.39-1.1a15.16,15.16,0,0,0-2.54.25v-1.19a14.15,14.15,0,0,1,3.28-.54,3.25,3.25,0,0,1,2.14.62,2.67,2.67,0,0,1,.68,2.25v5.29h-2.11Zm-0.06-3.74c-0.73,0-.93,0-1.27.08a1.11,1.11,0,0,0-1.11,1.15,1.13,1.13,0,0,0,1.36,1.15,4.66,4.66,0,0,0,1-.12V9925Z" transform="translate(-475.4 -9868.59)" style="fill:#8d8180"/><path id="_Compound_Path_7" data-name="&lt;Compound Path&gt;" d="M593.54,9928.73l-1-3.21H589l-0.95,3.21H586l3.74-10.95h2.63l3.61,10.95h-2.45Zm-2.78-9.21-1.32,4.51h2.67Z" transform="translate(-475.4 -9868.59)" style="fill:#8d8180"/><path id="_Path_7" data-name="&lt;Path&gt;" d="M607,9928.73v-5c0-1.15-.37-1.55-1.47-1.55a6.2,6.2,0,0,0-1.36.19,2.37,2.37,0,0,1,.09.76v5.6H602v-5.23c0-1-.38-1.32-1.41-1.32a7.14,7.14,0,0,0-1.32.15v6.39H597v-8h2.2v0.51a7.14,7.14,0,0,1,2.66-.68,2.39,2.39,0,0,1,1.82.7,9,9,0,0,1,2.92-.7c1.92,0,2.66.82,2.66,3v5.2H607Z" transform="translate(-475.4 -9868.59)" style="fill:#8d8180"/><path id="_Compound_Path_8" data-name="&lt;Compound Path&gt;" d="M613,9925.13c0,1.65.7,2.27,2.56,2.27a15.66,15.66,0,0,0,2.06-.15v1.16a14.75,14.75,0,0,1-3,.47c-2.53,0-3.91-1.41-3.91-4s1.46-4.3,3.83-4.3a3,3,0,0,1,3.2,2.17,7.34,7.34,0,0,1,.22,2.39h-5Zm1.46-3.35c-1,0-1.46.65-1.46,2.09h2.78c0-1.55-.34-2.09-1.32-2.09" transform="translate(-475.4 -9868.59)" style="fill:#8d8180"/><path id="_Path_8" data-name="&lt;Path&gt;" d="M622.91,9922.33a5.6,5.6,0,0,0-1.13.14v6.27h-2.26v-8h2.2v0.61a6.22,6.22,0,0,1,2-.71,1.83,1.83,0,0,1,.88.19v1.88a3.89,3.89,0,0,0-1.72-.36" transform="translate(-475.4 -9868.59)" style="fill:#8d8180"/><path id="_Compound_Path_9" data-name="&lt;Compound Path&gt;" d="M626.85,9919.74c-1,0-1.35-.3-1.35-1.07s0.37-1.05,1.35-1.05,1.37,0.28,1.37,1.05-0.37,1.07-1.37,1.07m-1.13,1H628v8h-2.26v-8Z" transform="translate(-475.4 -9868.59)" style="fill:#8d8180"/><path id="_Path_9" data-name="&lt;Path&gt;" d="M633.24,9928.86c-2.35,0-3.74-1.47-3.74-4a3.93,3.93,0,0,1,4.2-4.27,8.6,8.6,0,0,1,2.26.39v1.29a6.5,6.5,0,0,0-1.66-.2q-2.47,0-2.47,2.65c0,1.77.79,2.58,2.53,2.58a10.07,10.07,0,0,0,1.6-.14v1.23a11.07,11.07,0,0,1-2.73.46" transform="translate(-475.4 -9868.59)" style="fill:#8d8180"/><path id="_Compound_Path_10" data-name="&lt;Compound Path&gt;" d="M641.58,9928.73v-0.51a5.59,5.59,0,0,1-2.27.62,2.29,2.29,0,0,1-2.43-2.43c0-1.5.85-2.33,2.58-2.48,0.65-.06,1.27-0.09,2.06-0.09v-0.66c0-.79-0.4-1.1-1.39-1.1a15.23,15.23,0,0,0-2.55.25v-1.19a14.18,14.18,0,0,1,3.29-.54,3.24,3.24,0,0,1,2.14.62,2.66,2.66,0,0,1,.69,2.25v5.29h-2.11Zm-0.06-3.74c-0.73,0-.93,0-1.27.08a1.11,1.11,0,0,0-1.12,1.15,1.13,1.13,0,0,0,1.37,1.15,4.68,4.68,0,0,0,1-.12V9925Z" transform="translate(-475.4 -9868.59)" style="fill:#8d8180"/><path id="_Path_10" data-name="&lt;Path&gt;" d="M650.61,9928.73v-5c0-1.15-.39-1.55-1.46-1.55a6,6,0,0,0-1.28.15v6.39H645.6v-8h2.2v0.51a7,7,0,0,1,2.65-.68,2.46,2.46,0,0,1,1.88.79,3.11,3.11,0,0,1,.55,2.19v5.2h-2.27Z" transform="translate(-475.4 -9868.59)" style="fill:#8d8180"/><path id="_Compound_Path_11" data-name="&lt;Compound Path&gt;" d="M659,9928.73v-0.51a5.6,5.6,0,0,1-2.27.62,2.29,2.29,0,0,1-2.43-2.43c0-1.5.85-2.33,2.57-2.48,0.65-.06,1.27-0.09,2.06-0.09v-0.66c0-.79-0.4-1.1-1.4-1.1a15.19,15.19,0,0,0-2.54.25v-1.19a14.15,14.15,0,0,1,3.29-.54,3.25,3.25,0,0,1,2.14.62,2.67,2.67,0,0,1,.68,2.25v5.29H659ZM658.9,9925c-0.73,0-.93,0-1.27.08a1.11,1.11,0,0,0-1.12,1.15,1.13,1.13,0,0,0,1.36,1.15,4.66,4.66,0,0,0,1-.12V9925Z" transform="translate(-475.4 -9868.59)" style="fill:#8d8180"/><polygon id="_Path_11" data-name="&lt;Path&gt;" points="71.16 75.5 71.16 72.63 68.25 72.63 68.25 75.5 67.05 75.5 67.05 69.11 68.25 69.11 68.25 71.8 71.16 71.8 71.16 69.11 72.36 69.11 72.36 75.5 71.16 75.5" style="fill:#8d8180"/><path id="_Compound_Path_12" data-name="&lt;Compound Path&gt;" d="M554.49,9944.2a2.85,2.85,0,0,1-3-3.19c0-2.12,1.21-3.42,3.06-3.42a2.86,2.86,0,0,1,3,3.19c0,2.15-1.23,3.42-3.06,3.42m0-5.78c-1.12,0-1.81.86-1.81,2.49s0.65,2.46,1.8,2.46,1.81-.86,1.81-2.53-0.68-2.43-1.8-2.43" transform="translate(-475.4 -9868.59)" style="fill:#8d8180"/><polygon id="_Path_12" data-name="&lt;Path&gt;" points="87.96 69.93 87.96 75.5 86.76 75.5 86.76 69.93 84.89 69.93 84.89 69.11 89.83 69.11 89.83 69.93 87.96 69.93" style="fill:#8d8180"/><polygon id="_Path_13" data-name="&lt;Path&gt;" points="93.14 75.5 93.14 69.11 97.01 69.11 97.01 69.92 94.34 69.92 94.34 71.8 96.61 71.8 96.61 72.6 94.34 72.6 94.34 74.7 97.16 74.7 97.16 75.5 93.14 75.5" style="fill:#8d8180"/><polygon id="_Path_14" data-name="&lt;Path&gt;" points="100.61 75.5 100.61 69.11 101.81 69.11 101.81 74.7 104.28 74.7 104.28 75.5 100.61 75.5" style="fill:#8d8180"/><path id="_Path_15" data-name="&lt;Path&gt;" d="M584.53,9944.18a7.26,7.26,0,0,1-1.85-.34v-0.75a8.41,8.41,0,0,0,1.7.26c0.51,0,1.31-.07,1.31-0.83a1,1,0,0,0-.71-0.94l-1-.54a1.8,1.8,0,0,1-1.18-1.7c0-1.21.93-1.71,2.13-1.71a5.79,5.79,0,0,1,1.74.32v0.74a6.37,6.37,0,0,0-1.51-.25c-0.69,0-1.2.13-1.2,0.74a1.14,1.14,0,0,0,.88,1l0.87,0.43a1.79,1.79,0,0,1,1.21,1.76c0,1.26-1,1.87-2.35,1.87" transform="translate(-475.4 -9868.59)" style="fill:#8d8180"/><path id="_Compound_Path_13" data-name="&lt;Compound Path&gt;" d="M599.84,9944.09l-0.33-.38a3.48,3.48,0,0,1-1.89.49c-1.56,0-2.53-.76-2.53-2,0-.87.32-1.29,1.42-1.88l-0.22-.25a2.24,2.24,0,0,1-.66-1.45,1.68,1.68,0,0,1,1.93-1.67,1.58,1.58,0,0,1,1.86,1.58c0,0.82-.38,1.29-1.44,1.8l1.89,2.08a1.8,1.8,0,0,0,.33-1.31v-0.32h1.08c0,0.09,0,0,0,.35a2.29,2.29,0,0,1-.84,1.91l0.93,1h-1.55Zm-2.89-3.25a1.22,1.22,0,0,0-.65,1.16,1.32,1.32,0,0,0,1.52,1.37,2.26,2.26,0,0,0,1.15-.27Zm0.65-3.16a0.75,0.75,0,0,0-.83.82,1.54,1.54,0,0,0,.54,1.1l0.27,0.29a1.48,1.48,0,0,0,.84-1.33,0.75,0.75,0,0,0-.82-0.88" transform="translate(-475.4 -9868.59)" style="fill:#8d8180"/><path id="_Compound_Path_14" data-name="&lt;Compound Path&gt;" d="M612.76,9944.09l-1.83-3h-0.55v3h-1.19v-6.4h2.09a2.93,2.93,0,0,1,1.62.29,1.43,1.43,0,0,1,.68,1.32,1.65,1.65,0,0,1-1.44,1.7l2.06,3.08h-1.44Zm-1.52-5.68h-0.86v2.07h0.83a1,1,0,0,0,1.15-1,0.91,0.91,0,0,0-1.12-1" transform="translate(-475.4 -9868.59)" style="fill:#8d8180"/><polygon id="_Path_16" data-name="&lt;Path&gt;" points="142.09 75.5 142.09 69.11 145.96 69.11 145.96 69.92 143.29 69.92 143.29 71.8 145.55 71.8 145.55 72.6 143.29 72.6 143.29 74.7 146.11 74.7 146.11 75.5 142.09 75.5" style="fill:#8d8180"/><path id="_Path_17" data-name="&lt;Path&gt;" d="M626.52,9944.18a7.22,7.22,0,0,1-1.85-.34v-0.75a8.35,8.35,0,0,0,1.7.26c0.51,0,1.31-.07,1.31-0.83a1,1,0,0,0-.71-0.94l-1-.54a1.8,1.8,0,0,1-1.18-1.7c0-1.21.93-1.71,2.14-1.71a5.78,5.78,0,0,1,1.74.32v0.74a6.35,6.35,0,0,0-1.51-.25c-0.69,0-1.2.13-1.2,0.74a1.14,1.14,0,0,0,.88,1l0.87,0.43a1.79,1.79,0,0,1,1.2,1.76c0,1.26-1,1.87-2.35,1.87" transform="translate(-475.4 -9868.59)" style="fill:#8d8180"/><path id="_Compound_Path_15" data-name="&lt;Compound Path&gt;" d="M635,9944.2A2.86,2.86,0,0,1,632,9941c0-2.12,1.22-3.42,3.06-3.42a2.86,2.86,0,0,1,3,3.19c0,2.15-1.23,3.42-3.06,3.42m0-5.78c-1.12,0-1.81.86-1.81,2.49s0.66,2.46,1.8,2.46,1.81-.86,1.81-2.53-0.68-2.43-1.8-2.43" transform="translate(-475.4 -9868.59)" style="fill:#8d8180"/><path id="_Compound_Path_16" data-name="&lt;Compound Path&gt;" d="M645.36,9944.09l-1.83-3H643v3h-1.19v-6.4h2.09a2.94,2.94,0,0,1,1.62.29,1.43,1.43,0,0,1,.68,1.32,1.65,1.65,0,0,1-1.44,1.7l2.06,3.08h-1.44Zm-1.52-5.68H643v2.07h0.83a1,1,0,0,0,1.14-1,0.91,0.91,0,0,0-1.12-1" transform="translate(-475.4 -9868.59)" style="fill:#8d8180"/><polygon id="_Path_18" data-name="&lt;Path&gt;" points="176.92 69.93 176.92 75.5 175.72 75.5 175.72 69.93 173.84 69.93 173.84 69.11 178.79 69.11 178.79 69.93 176.92 69.93" style="fill:#8d8180"/><path id="_Path_19" data-name="&lt;Path&gt;" d="M659,9944.18a7.21,7.21,0,0,1-1.85-.34v-0.75a8.38,8.38,0,0,0,1.7.26c0.5,0,1.31-.07,1.31-0.83a1,1,0,0,0-.71-0.94l-1-.54a1.81,1.81,0,0,1-1.18-1.7c0-1.21.93-1.71,2.13-1.71a5.8,5.8,0,0,1,1.74.32v0.74a6.38,6.38,0,0,0-1.51-.25c-0.69,0-1.2.13-1.2,0.74a1.13,1.13,0,0,0,.88,1l0.87,0.43a1.79,1.79,0,0,1,1.21,1.76c0,1.26-1,1.87-2.35,1.87" transform="translate(-475.4 -9868.59)" style="fill:#8d8180"/><path id="_Path_20" data-name="&lt;Path&gt;" d="M570.66,9913.39a5.87,5.87,0,0,1-2-1.19,9.71,9.71,0,0,1-2.92-7,10.55,10.55,0,0,1,5.72-9.4,81.38,81.38,0,0,1-10.95,3.9,11.47,11.47,0,0,0-.39,2.95c0,4.38,2.45,7.87,5.85,9.09Z" transform="translate(-475.4 -9868.59)" style="fill:#a18e67"/><path id="_Path_21" data-name="&lt;Path&gt;" d="M482.68,9941.25l-4.14-2.68a8.86,8.86,0,0,0,4.92,1.24c13,0,34.61-25.5,39.16-30.6,3.23-3.62,8.46-9.51,13-14.61s22-26,35.94-26a15.38,15.38,0,0,1,3.41.35l8.66,2a7.14,7.14,0,0,0-1.59-.17c-11.52,0-30.56,22.69-34.55,27.79-4.25,5.43-8.42,10.41-12.64,15.52s-22.95,28.7-45.9,28.7a11.33,11.33,0,0,1-6.24-1.52" transform="translate(-475.4 -9868.59)" style="fill:#a18e67"/><path id="_Path_22" data-name="&lt;Path&gt;" d="M547.45,9898.55c-1.28,1.64-2.56,3.24-3.83,4.81,10.81-1.74,20.47-4.23,28-7.6l-7.14-2.15a75.71,75.71,0,0,1-17,4.94" transform="translate(-475.4 -9868.59)" style="fill:#8d8180"/><path id="_Path_23" data-name="&lt;Path&gt;" d="M568.7,9912.2a10,10,0,0,0,8.81-5.91,9.62,9.62,0,0,1,.18,1.72c0,3.32-2.08,5.69-5.26,5.69a5.27,5.27,0,0,1-1.78-.31,5.91,5.91,0,0,1-2-1.19" transform="translate(-475.4 -9868.59)" style="fill:#8d8180"/><path id="_Path_24" data-name="&lt;Path&gt;" d="M582,9870.76a7.1,7.1,0,0,1,1.59.17c2.65,0.61,4.13,2.78,4.13,5.78,0,6.62-6.22,14-17.7,14,0,0,10.63-5.76,10.63-15a6.65,6.65,0,0,0-1.59-4.58,11.23,11.23,0,0,1,2.94-.43" transform="translate(-475.4 -9868.59)" style="fill:#8d8180"/><path id="_Path_25" data-name="&lt;Path&gt;" d="M478.53,9938.57a7.36,7.36,0,0,0,2.32,1,8.91,8.91,0,0,1-1.52-5.34c0-13.2,22.36-23.72,46.12-28.16l4.6-5.18c-25.55,3.79-54.64,13.19-54.64,31.09,0,1.82.47,4.91,3.13,6.62" transform="translate(-475.4 -9868.59)" style="fill:#8d8180"/></g></svg>