<svg id="ARTE" xmlns="http://www.w3.org/2000/svg" viewBox="0 0 644.25 88.38"><title>hiltongrand-logo</title><g id="_Group_" data-name="&lt;Group&gt;"><polygon id="_Path_" data-name="&lt;Path&gt;" points="29.31 86.2 29.31 60.08 33.22 60.08 33.22 58.49 17.92 58.49 17.92 60.08 22.28 60.08 22.28 71.56 10.93 71.56 10.93 60.08 15.31 60.08 15.31 58.49 0 58.49 0 60.08 3.92 60.08 3.92 86.2 0 86.2 0 87.79 15.31 87.79 15.31 86.2 10.93 86.2 10.93 73.15 22.28 73.15 22.28 86.2 17.92 86.2 17.92 87.79 33.22 87.79 33.22 86.2 29.31 86.2" style="fill:#fff"/><polygon id="_Path_2" data-name="&lt;Path&gt;" points="46.33 86.22 46.33 66.79 35.41 66.79 35.41 68.36 39.31 68.36 39.31 86.22 35.41 86.22 35.41 87.78 49.84 87.78 49.84 86.22 46.33 86.22" style="fill:#fff"/><rect id="_Path_3" data-name="&lt;Path&gt;" x="38.9" y="58.49" width="7.36" height="3.55" style="fill:#fff"/><polygon id="_Path_4" data-name="&lt;Path&gt;" points="61.61 86.23 61.61 54.52 50.69 54.52 50.69 56.08 54.6 56.08 54.6 86.23 50.7 86.23 50.7 87.79 65.13 87.79 65.13 86.23 61.61 86.23" style="fill:#fff"/><g id="_Group_2" data-name="&lt;Group&gt;"><path id="_Path_5" data-name="&lt;Path&gt;" d="M2620.56,792.19h5.21v-1.56h-5.25V782.3h-7v8.3H2610v1.61h3.52v14.92h0a5,5,0,0,0,1,2.85,4.64,4.64,0,0,0,3.84,1.62h7.34V810h-5.18V792.19Z" transform="translate(-2544.04 -723.81)" style="fill:#fff"/><path id="_Compound_Path_" data-name="&lt;Compound Path&gt;" d="M2639.2,789.86c-7.35,0-13.3,5-13.3,11.09s6,11.08,13.3,11.08,13.3-5,13.3-11.08-6-11.09-13.3-11.09m5.47,16h0a5.48,5.48,0,0,1-10.9,0h0v-9.76h0a5.48,5.48,0,0,1,10.9,0h0v9.76Z" transform="translate(-2544.04 -723.81)" style="fill:#fff"/><path id="_Path_6" data-name="&lt;Path&gt;" d="M2680.8,810V796.8c-0.1-3.48-1.49-7-7.83-7-5.29,0-7.88,2.64-8.71,3.69v-2.87h-10.92v1.56h3.91V810h-3.89v1.58h14.43V810h-3.52V796.18c0.9-1.44,2.81-4,5.94-4,3.4,0,3.64,3.22,3.62,4.46V810h-3.48v1.56h14V810h-3.55Z" transform="translate(-2544.04 -723.81)" style="fill:#fff"/><path id="_Path_7" data-name="&lt;Path&gt;" d="M2725.81,797.33h-14.88v1.56h4.81v6.42c0,1.61.51,5.5-5.27,5.5s-6.95-6.45-6.95-12.95-0.08-14.66,8.22-14.66,8,7.45,8,7.45h1.73V782h-1.27l-1.81,1.6a12.65,12.65,0,0,0-6.62-1.64c-10.83,0-16.14,6.53-16.14,15.54s5.6,14.51,14.79,14.51,12.35-5.19,12.35-5.19v-7.91h3.08v-1.56Z" transform="translate(-2544.04 -723.81)" style="fill:#fff"/><path id="_Path_8" data-name="&lt;Path&gt;" d="M2744.5,789.78a6.8,6.8,0,0,0-4.19,1.26,14.77,14.77,0,0,0-2.66,2.64v-3h-10.92v1.56h3.91V810h-3.89v1.58h15.19V810h-4.28V797a16.28,16.28,0,0,1,2.16-3.48c1.19-1.41,2.21-2.13,2.69-2s0.16,0.71-.21,1.24a4.31,4.31,0,0,0-.44,1.64c0,2.84,2.72,3.11,3.77,3.11a3.4,3.4,0,0,0,3.47-3.57c0-3.2-2.42-4.18-4.58-4.18" transform="translate(-2544.04 -723.81)" style="fill:#fff"/><path id="_Compound_Path_2" data-name="&lt;Compound Path&gt;" d="M2770.84,810V796.42h0v-0.63c0-1.77-1.11-6-9.3-6s-9.92,3.72-9.92,5.53a3,3,0,0,0,3.26,3,3,3,0,0,0,3.22-2.74,2.79,2.79,0,0,0-1.2-2.21c-0.15-.14-0.73-2.06,3.72-2.06,3.56,0,3.33,3.35,3.33,4.68,0,0.27,0,1.44,0,2.94-1.76,0-14.53.24-14,8.33,0.44,6.77,9.76,5.51,14.26,1.53a5.2,5.2,0,0,0,.68,1.24,4.63,4.63,0,0,0,3.84,1.62h5.62V810h-3.47Zm-14.48-4.81c0-4.37,6.21-5,7.55-5.06,0,2.79-.15,6-0.15,6.76-2.24,3.23-7.4,2.6-7.4-1.7" transform="translate(-2544.04 -723.81)" style="fill:#fff"/><path id="_Path_9" data-name="&lt;Path&gt;" d="M2803.07,810.05V796.82c-0.1-3.48-1.49-6.95-7.83-6.95-5.3,0-7.89,2.63-8.71,3.7v-2.88h-10.93v1.56h3.91V810h-3.89v1.58h14.43v-1.56h-3.51V796.2c0.89-1.43,2.8-4,5.93-4,3.4,0,3.64,3.21,3.62,4.46v13.4h-3.48v1.56h14v-1.56h-3.55Z" transform="translate(-2544.04 -723.81)" style="fill:#fff"/><path id="_Compound_Path_3" data-name="&lt;Compound Path&gt;" d="M2832.5,810.05V778.35h-10.93v1.56h3.92v13a10.22,10.22,0,0,0-7.24-3.06,11.1,11.1,0,0,0,0,22.17,10.18,10.18,0,0,0,7.23-3.05v2.64H2836v-1.56h-3.51Zm-12.53.31c-4.36,0-4.94-6.24-4.94-9.56s0.26-9.16,5-9.16,5.89,5.55,5.89,9.39c0,4.69-1.58,9.34-5.94,9.34" transform="translate(-2544.04 -723.81)" style="fill:#fff"/></g><polygon id="_Path_10" data-name="&lt;Path&gt;" points="333.81 58.52 323.78 58.52 323.78 60.1 327.94 60.1 321.36 77.9 313.71 60.08 317.23 60.08 317.23 58.52 302.78 58.52 302.78 60.08 306.22 60.08 318.27 88.16 319.85 88.16 330.26 60.1 333.81 60.1 333.81 58.52" style="fill:#fff"/><g id="_Group_3" data-name="&lt;Group&gt;"><path id="_Compound_Path_4" data-name="&lt;Compound Path&gt;" d="M2899,810V796.42h0v-0.63c0-1.77-1.1-6-9.29-6s-9.92,3.72-9.92,5.53a3,3,0,0,0,3.25,3,3,3,0,0,0,3.23-2.74,2.79,2.79,0,0,0-1.2-2.21c-0.16-.14-0.72-2.06,3.73-2.06,3.56,0,3.32,3.35,3.32,4.68,0,0.27,0,1.44,0,2.94-1.76,0-14.54.24-14,8.33,0.44,6.77,9.76,5.51,14.25,1.53A5.3,5.3,0,0,0,2893,810a4.63,4.63,0,0,0,3.84,1.62h5.63V810H2899Zm-14.47-4.81c0-4.37,6.22-5,7.55-5.06,0,2.79-.16,6-0.16,6.76-2.24,3.23-7.39,2.6-7.39-1.7" transform="translate(-2544.04 -723.81)" style="fill:#fff"/><path id="_Compound_Path_5" data-name="&lt;Compound Path&gt;" d="M2948.47,810V796.42h0v-0.63c0-1.78-1.11-6-9.29-6s-9.93,3.72-9.93,5.53a3,3,0,0,0,3.26,3,3,3,0,0,0,3.22-2.74,2.79,2.79,0,0,0-1.2-2.21c-0.16-.14-0.72-2.06,3.72-2.06,3.56,0,3.33,3.35,3.33,4.68,0,0.26,0,1.44,0,2.94-1.76,0-14.53.24-14,8.33,0.44,6.77,9.77,5.5,14.25,1.53a5.22,5.22,0,0,0,.67,1.24,4.65,4.65,0,0,0,3.85,1.62h5.62V810h-3.48ZM2934,805.18c0-4.37,6.23-5,7.55-5.05,0,2.79-.15,6-0.15,6.75-2.24,3.24-7.4,2.6-7.4-1.7" transform="translate(-2544.04 -723.81)" style="fill:#fff"/><path id="_Path_11" data-name="&lt;Path&gt;" d="M2903.57,801.35c0,3.39,2.3,10.68,12.72,10.68,0,0,4.26,0,6.73-1.9a12.79,12.79,0,0,0,3.49-4.13l-1.27-1s-2.3,5.43-8,5.43c-4.67,0-5.87-4.2-5.87-8.81,0-4.8.56-10.54,5.69-10.54a6,6,0,0,1,2.11.58,2.65,2.65,0,0,1,1.19.86,3.72,3.72,0,0,0-2,3.16c0,2.19,1.57,3.38,3.86,3.38s3.41-1.56,3.41-3.68-1.81-5.54-8.74-5.54-13.3,3.65-13.3,11.52" transform="translate(-2544.04 -723.81)" style="fill:#fff"/></g><polygon id="_Path_12" data-name="&lt;Path&gt;" points="436.89 86.25 436.89 66.83 425.96 66.83 425.96 68.4 429.88 68.4 429.88 86.25 425.98 86.25 425.98 87.82 440.4 87.82 440.4 86.25 436.89 86.25" style="fill:#fff"/><rect id="_Path_13" data-name="&lt;Path&gt;" x="429.46" y="58.53" width="7.37" height="3.56" style="fill:#fff"/><g id="_Group_4" data-name="&lt;Group&gt;"><path id="_Path_14" data-name="&lt;Path&gt;" d="M2964,792.2h5.21v-1.57h-5.25v-8.32h-7v8.3h-3.52v1.6H2957v14.92a5,5,0,0,0,1,2.85,4.64,4.64,0,0,0,3.84,1.62h7.34V810H2964V792.2Z" transform="translate(-2544.04 -723.81)" style="fill:#fff"/><path id="_Compound_Path_6" data-name="&lt;Compound Path&gt;" d="M2999,789.91c-7.34,0-13.3,5-13.3,11.09s6,11.08,13.3,11.08,13.31-5,13.31-11.08-6-11.09-13.31-11.09m5.47,16h0a5.48,5.48,0,0,1-10.92,0v-9.76h0a5.48,5.48,0,0,1,10.9,0h0v9.76Z" transform="translate(-2544.04 -723.81)" style="fill:#fff"/><path id="_Path_15" data-name="&lt;Path&gt;" d="M3040.82,810.05V796.82c-0.1-3.48-1.49-7-7.83-7-5.29,0-7.89,2.64-8.72,3.69v-2.88h-10.92v1.56h3.91V810h-3.9v1.58h14.44v-1.57h-3.52V796.2c0.9-1.44,2.81-4,5.93-4,3.4,0,3.65,3.21,3.63,4.46v13.39h-3.48v1.57h14v-1.57h-3.55Z" transform="translate(-2544.04 -723.81)" style="fill:#fff"/><path id="_Path_16" data-name="&lt;Path&gt;" d="M3062.73,789.48h-1.44s-0.53,1.9-1,1.9-1.49-1.45-5.33-1.45-8,1.9-8,6.76,3.24,5.7,7.87,6.83c4.42,1.06,5.88,2.11,5.88,4s-1.64,3.28-4.61,3.28a8.4,8.4,0,0,1-6.32-2.86,15.66,15.66,0,0,1-1.48-4.14h-1.37v7.86h1.63s0.27-2,.76-2c0,0,3.53,2.42,6.78,2.42s8.6-1.93,8.6-7.76-7.58-6.07-10.2-7-3.42-1.83-3.42-3.1,1-2.87,3.88-2.87a6.65,6.65,0,0,1,4.83,1.7,5.42,5.42,0,0,1,1.63,3.2h1.29v-6.69Z" transform="translate(-2544.04 -723.81)" style="fill:#fff"/><path id="_Path_17" data-name="&lt;Path&gt;" d="M3102.43,782.35h-1.7s-0.2,1.55-.72,1.55a11.54,11.54,0,0,0-7.07-2.29c-6.72,0-16.11,2.85-16.11,15.29,0,12.67,10.07,15.11,15.8,15.11s7.44-2.43,7.44-2.43a2.91,2.91,0,0,1,.52.89,8.94,8.94,0,0,1,.31,1.17h1.54v-8.57h-1.7s-0.66,7.53-8.1,7.53-8-7.35-8-13.19S3085.35,783,3093,783s7.58,7.62,7.58,7.62h1.8v-8.23Z" transform="translate(-2544.04 -723.81)" style="fill:#fff"/></g><polygon id="_Path_18" data-name="&lt;Path&gt;" points="571.16 86.22 571.16 54.51 560.24 54.51 560.24 56.07 564.14 56.07 564.14 86.22 560.25 86.22 560.25 87.78 574.67 87.78 574.67 86.22 571.16 86.22" style="fill:#fff"/><g id="_Group_5" data-name="&lt;Group&gt;"><path id="_Path_19" data-name="&lt;Path&gt;" d="M3123.22,792.24v13.23c0,3.67,1,6.72,7.83,6.72a11,11,0,0,0,7.53-3.46v2.88h10.93V810h-3.84V790.63h-10.6v1.59h3.51v13.33c-0.74,1.73-2.18,4.16-4.76,4.16-3.4,0-3.64-2.83-3.63-4.07V792.24h0v-1.56h-10.55v1.56h3.55Z" transform="translate(-2544.04 -723.81)" style="fill:#fff"/><path id="_Compound_Path_7" data-name="&lt;Compound Path&gt;" d="M3170.07,789.77a10.83,10.83,0,0,0-8.19,3.78V778.4h-10.61V780h3.65v30h-3.65v1.61h10.61v-3.26a10.82,10.82,0,0,0,8.19,3.78,11.19,11.19,0,0,0,0-22.38m-1.31,20.66c-4.46,0-7.16-4.74-7.16-9.39,0-4,2.15-9.51,7-9.51s4.84,6,4.84,9.24-0.16,9.66-4.64,9.66" transform="translate(-2544.04 -723.81)" style="fill:#fff"/><path id="_Compound_Path_8" data-name="&lt;Compound Path&gt;" d="M3184.2,786.5a3.72,3.72,0,1,0,4.08,3.7,3.9,3.9,0,0,0-4.08-3.7m0,6.79a3.11,3.11,0,1,1,3.41-3.09,3.27,3.27,0,0,1-3.41,3.09" transform="translate(-2544.04 -723.81)" style="fill:#fff"/><path id="_Compound_Path_9" data-name="&lt;Compound Path&gt;" d="M3186.33,792.23l-1.15-1.65a1.23,1.23,0,0,0,1.13-1.16,1.21,1.21,0,0,0-1.24-1.19h-2.43v4h0.76v-1.61h0.95l1,1.62h0.94Zm-2.93-3.45h1.37a0.7,0.7,0,0,1,.86.64,0.73,0.73,0,0,1-.9.62h-1.33v-1.24Z" transform="translate(-2544.04 -723.81)" style="fill:#fff"/><path id="_Path_20" data-name="&lt;Path&gt;" d="M2849.5,747v13.88h11.72v-15.7a26.08,26.08,0,0,0-3.33-.22,19.4,19.4,0,0,0-8.38,2" transform="translate(-2544.04 -723.81)" style="fill:#fff"/><path id="_Path_21" data-name="&lt;Path&gt;" d="M2866.52,747.17v13.69h4.65a8.25,8.25,0,0,0,1.61-5.2c0-4.27-2.65-7-6.26-8.49" transform="translate(-2544.04 -723.81)" style="fill:#fff"/><path id="_Path_22" data-name="&lt;Path&gt;" d="M2866.52,745.18c6.95,2.15,9.67,6.54,9.67,10.14a9.17,9.17,0,0,1-1.8,5.54h3.84v-26h-11.72v10.36Z" transform="translate(-2544.04 -723.81)" style="fill:#fff"/><path id="_Path_23" data-name="&lt;Path&gt;" d="M2861.21,744.11v-9.29H2849.5v9.9a30,30,0,0,1,7.61-.86c1.48,0,2.84.12,4.11,0.25" transform="translate(-2544.04 -723.81)" style="fill:#fff"/><path id="_Path_24" data-name="&lt;Path&gt;" d="M2831.72,766.09a21.07,21.07,0,0,1-9.49-17.41c0-11.8,15.56-25.31,38-24.86,23,0.46,42.61,14,42.61,27.26s-16.56,23-37.67,23-31.49-9.74-31.49-17.18,9.62-13.17,21.75-13.17c15,0,19.08,6.52,19.08,11.46a8.86,8.86,0,0,1-6.83,8.81,44,44,0,0,1-9.61.92v-0.45s13,1.26,13-8.94c0-7.33-4.19-10.59-14.92-11.34-6.57-.46-17.06,3.32-17.06,12.6,0,10.54,10.49,15.7,26.92,15.7,17.75,0,31.62-10,31.62-23,0-11.11-10.12-22.11-37-21.31s-36.54,13.63-36.41,21.31c0.2,12.26,8,16.38,8,16.38Z" transform="translate(-2544.04 -723.81)" style="fill:#fff"/></g><polygon id="_Path_25" data-name="&lt;Path&gt;" points="350.17 46.16 353.81 46.16 353.81 46.65 352.3 46.65 352.3 50.23 351.69 50.23 351.69 46.65 350.17 46.65 350.17 46.16" style="fill:#fff"/><g id="_Group_6" data-name="&lt;Group&gt;"><path id="_Path_26" data-name="&lt;Path&gt;" d="M2902.1,774v-2.4c0-.12,0-0.64,0-1h0l-1.26,3.42h-0.6l-1.26-3.41h0c0,0.38,0,.89,0,1V774h-0.59V770h0.87l1.28,3.44h0l1.26-3.44h0.87V774h-0.59Z" transform="translate(-2544.04 -723.81)" style="fill:#fff"/></g></g></svg>