<svg id="ARTE" xmlns="http://www.w3.org/2000/svg" viewBox="0 0 162.85 72"><title>liveaqua-logo</title><g id="_Group_" data-name="&lt;Group&gt;"><g id="_Group_2" data-name="&lt;Group&gt;"><g id="_Group_3" data-name="&lt;Group&gt;"><path id="_Compound_Path_" data-name="&lt;Compound Path&gt;" d="M289.2,9924a2.71,2.71,0,0,1,.89.6,2.79,2.79,0,0,1,.8,2,2.76,2.76,0,0,1-.8,2,2.74,2.74,0,0,1-.89.59,3,3,0,0,1-2.21,0,2.72,2.72,0,0,1-1.48-1.48,2.93,2.93,0,0,1,0-2.2,2.79,2.79,0,0,1,.59-0.89,2.74,2.74,0,0,1,.89-0.6A3,3,0,0,1,289.2,9924Zm-2.05.37a2.33,2.33,0,0,0-.75.51,2.36,2.36,0,0,0-.49.76,2.58,2.58,0,0,0,0,1.88,2.32,2.32,0,0,0,.49.76,2.26,2.26,0,0,0,.75.51,2.43,2.43,0,0,0,1.88,0,2.28,2.28,0,0,0,.75-0.51,2.32,2.32,0,0,0,.5-0.76,2.54,2.54,0,0,0,0-1.88,2.35,2.35,0,0,0-1.25-1.27A2.46,2.46,0,0,0,287.15,9924.34Zm-0.07,3.83v-3.24h1.24a1.16,1.16,0,0,1,.8.23,0.85,0.85,0,0,1,.25.67,1,1,0,0,1-.06.37,0.81,0.81,0,0,1-.18.27,1,1,0,0,1-.26.17,1.43,1.43,0,0,1-.31.09l1,1.44h-0.47l-0.91-1.44h-0.67v1.44h-0.4Zm1.29-1.79a1.06,1.06,0,0,0,.31-0.07,0.45,0.45,0,0,0,.22-0.17,0.66,0.66,0,0,0,0-.6,0.49,0.49,0,0,0-.18-0.17,0.67,0.67,0,0,0-.24-0.09l-0.29,0h-0.73v1.12h0.89Z" transform="translate(-128.04 -9870.4)" style="fill:#4e57a3"/><g id="_Group_4" data-name="&lt;Group&gt;"><path id="_Path_" data-name="&lt;Path&gt;" d="M159.24,9912.14a27,27,0,0,0-2.89-.48h0c-1-.07-1.8-0.11-2.26-0.11h0a17.52,17.52,0,0,0-6.21,1.13h0c-1.61.62-2.61,1.41-2.58,1.82h0a0.18,0.18,0,0,0,.21.18h0c1,0,2.77-1.22,5.69-1.22h0a14,14,0,0,1,3.91.75h0l11.37,3.41a35.18,35.18,0,0,0,9.72,1.7h0a9.84,9.84,0,0,0,6.45-2.06h0c1.28-1.06,2.08-1.67,2.06-2.12h0a0.46,0.46,0,0,0-.56-0.45h0a16.28,16.28,0,0,0-1.62,1h0a7.61,7.61,0,0,1-3.83,1h0c-2.17,0-5.76-1-11-2.39h0s-7.77-2-8.47-2.18h0Z" transform="translate(-128.04 -9870.4)" style="fill:#61a2bc"/><path id="_Path_2" data-name="&lt;Path&gt;" d="M174.89,9927.18c0.32,0.86,0,1.36-.33,1.46a0.41,0.41,0,0,0-.38.38c0,0.33.59,0.33,1.62,0.38,3.74,0.11,7.69.11,8.5,0.11,0.6,0,1.08-.11,1.08-0.44s-0.21-.32-0.54-0.32a6.92,6.92,0,0,1-2.17-.32c-1.14-.32-2.71-1.19-4.66-6l-12.62-32.65c-0.65-1.68-.87-2-1.19-2s-0.54.33-1.19,2.12l-12.29,33.63c-1,2.71-2.06,4.77-4.55,5.09a15.58,15.58,0,0,1-1.57.11,0.4,0.4,0,0,0-.49.32c0,0.33.32,0.44,1,.44,2.55,0,5.52-.16,6.12-0.16s2.92,0.16,4.23.16c0.49,0,.81-0.11.81-0.44s-0.16-.32-0.54-0.32h-0.54c-0.92,0-2.06-.49-2.06-1.57a11.45,11.45,0,0,1,.76-3.63l9-27q0.4-1.22.81,0Z" transform="translate(-128.04 -9870.4)" style="fill:#4e57a3"/><path id="_Path_3" data-name="&lt;Path&gt;" d="M171.75,9918.9a26,26,0,0,0,4.44.43h0a9.84,9.84,0,0,0,6.45-2.06h0c1.28-1.06,2.08-1.67,2.06-2.12h0a0.46,0.46,0,0,0-.56-0.45h0a16.28,16.28,0,0,0-1.62,1h0a7.61,7.61,0,0,1-3.83,1h0c-1.78,0-4.51-.68-8.3-1.68Z" transform="translate(-128.04 -9870.4)" style="fill:#61a2bc"/></g><path id="_Compound_Path_2" data-name="&lt;Compound Path&gt;" d="M201.5,9919.6a23.45,23.45,0,0,1-6.94,1.34c-12.73,0-17.46-9.55-17.46-17,0-6.71,4.87-16.41,17.6-16.41,10.38,0,17.59,6.38,17.59,15.6,0,7.24-4.63,12.73-7.36,14.46l8.48,4.17c9.17,4.44,16.39,5.3,19.34,5.3,2.26,0,4-1.13,7.09-2.69a1.62,1.62,0,0,1,.65-0.21,0.38,0.38,0,0,1,.39.37,0.62,0.62,0,0,1-.52.49c-2.61,1.19-6.53,4.53-12.74,3.8a51,51,0,0,1-19.49-5.79Zm6-15.34c0-10-6.92-14.72-13.76-14.72-5.69,0-11.91,4.11-11.91,13.66,0,9.79,6.62,15.62,14.21,15.62C199.47,9918.82,207.45,9916.32,207.45,9904.27Z" transform="translate(-128.04 -9870.4)" style="fill:#4e57a3"/><g id="_Group_5" data-name="&lt;Group&gt;"><line id="_Path_4" data-name="&lt;Path&gt;" x1="110.33" y1="18.29" x2="110.33" y2="18.29" style="fill:#4e57a3"/><line id="_Path_5" data-name="&lt;Path&gt;" x1="115.42" y1="18.43" x2="115.42" y2="18.43" style="fill:#4e57a3"/><g id="_Group_6" data-name="&lt;Group&gt;"><g id="_Group_7" data-name="&lt;Group&gt;"><path id="_Compound_Path_3" data-name="&lt;Compound Path&gt;" d="M220.63,9924.6l0.1,0.1Zm-1.35-1.34h0Zm30.15-35.07a1.66,1.66,0,0,0-.71-0.11c-1.46,0-3.74.14-4,.14s-2.92-.14-5.09-0.14a1.7,1.7,0,0,0-.72.11,0.62,0.62,0,0,0-.36.58,0.65,0.65,0,0,0,.69.59,8.48,8.48,0,0,1,1.55.14c1.49,0.36,1.69.84,1.84,2.45s0.1,6.3.1,13.79v6c0,4.92-.59,8.94-2.71,11.57a9.8,9.8,0,0,1-7.31,3.34,9.11,9.11,0,0,1-7.05-2.56c-2-1.91-3.5-4.76-3.5-11.64v-6.72c0-7.49,0-12.34.09-13.86,0.13-1.68.4-2.26,1.52-2.45a6.87,6.87,0,0,1,1.16-.14,0.64,0.64,0,0,0,.69-0.59,0.61,0.61,0,0,0-.36-0.58,1.71,1.71,0,0,0-.71-0.11h0c-1.47,0-4.33.15-4.73,0.15s-3.36-.15-5.53-0.15a1.71,1.71,0,0,0-.72.11,0.62,0.62,0,0,0-.36.58,0.64,0.64,0,0,0,.69.59,8.77,8.77,0,0,1,1.56.14c1.49,0.36,1.7.84,1.84,2.45s0.1,6.38.1,13.87v7c0,6.2,1.43,9.65,3.42,12a15,15,0,0,0,10.58,4.41,22.6,22.6,0,0,0,2.58-.13,13.87,13.87,0,0,0,7.92-3.52c4-3.53,4.52-9.39,4.53-14.59v-5.14c0-7.49,0-12.27.09-13.79,0.13-1.67.39-2.21,1.53-2.45a3.77,3.77,0,0,1,1.15-.14,0.65,0.65,0,0,0,.69-0.59A0.62,0.62,0,0,0,249.43,9888.18Z" transform="translate(-128.04 -9870.4)" style="fill:#4e57a3"/></g></g></g><g id="_Group_8" data-name="&lt;Group&gt;"><path id="_Compound_Path_4" data-name="&lt;Compound Path&gt;" d="M260.94,9890c0.65-1.78.87-2.11,1.19-2.11s0.54,0.27,1.19,1.95c0.81,2.06,9.33,24.39,12.64,32.61,2,4.81,3.53,5.68,4.66,6a7,7,0,0,0,2.17.33c0.33,0,.54.05,0.54,0.33s-0.49.43-1.08,0.43c-0.81,0-4.77,0-8.52-.11-1-.05-1.63-0.05-1.63-0.38a0.41,0.41,0,0,1,.38-0.38c0.33-.11.65-0.59,0.33-1.46l-5-13.3a0.47,0.47,0,0,0-.49-0.32H255.62a0.57,0.57,0,0,0-.54.43l-3.25,9.57a11.38,11.38,0,0,0-.76,3.62c0,1.08,1.14,1.57,2.06,1.57h0.54c0.38,0,.54.11,0.54,0.33s-0.33.43-.81,0.43c-1.3,0-3.63-.16-4.23-0.16s-3.58.16-6.13,0.16c-0.7,0-1-.11-1-0.43a0.4,0.4,0,0,1,.49-0.33c0.38,0,1.14-.05,1.57-0.11,2.49-.32,3.58-2.38,4.55-5.08Zm5.64,21.63c0.27,0,.27-0.16.22-0.38l-5.15-14.6q-0.41-1.22-.81,0l-4.77,14.6c-0.11.27,0,.38,0.16,0.38h10.36Z" transform="translate(-128.04 -9870.4)" style="fill:#4e57a3"/></g></g></g><g id="_Group_9" data-name="&lt;Group&gt;"><path id="_Compound_Path_5" data-name="&lt;Compound Path&gt;" d="M158.86,9935.14h2.3a1.87,1.87,0,0,1,.73,3.57v0a1.17,1.17,0,0,1,1,1.18l0.06,1.21a1.17,1.17,0,0,0,.38,1.11h-1.05a2.16,2.16,0,0,1-.24-1l-0.06-1.11a0.92,0.92,0,0,0-1.06-1h-1.18v3.17h-0.88v-7.11Zm0.88,3.23h0.87a1.22,1.22,0,0,0,1.46-1.37,1.12,1.12,0,0,0-1.28-1.13h-1v2.51Z" transform="translate(-128.04 -9870.4)" style="fill:#808083"/><path id="_Compound_Path_6" data-name="&lt;Compound Path&gt;" d="M165,9935.14h3.67v0.78h-2.8v2.23h2.64v0.78H165.9v2.55h2.92v0.78H165v-7.11Z" transform="translate(-128.04 -9870.4)" style="fill:#808083"/><path id="_Compound_Path_7" data-name="&lt;Compound Path&gt;" d="M173.65,9937a1.14,1.14,0,1,0-2.28-.11c0,2,3.36.81,3.36,3.4a2,2,0,0,1-2.21,2.11c-1.66,0-2.15-.86-2.15-2.37h0.88c0,0.8,0,1.65,1.33,1.65a1.2,1.2,0,0,0,1.23-1.25c0-2-3.35-.85-3.35-3.45a1.86,1.86,0,0,1,2.08-2,1.76,1.76,0,0,1,2,2h-0.88Z" transform="translate(-128.04 -9870.4)" style="fill:#808083"/><path id="_Compound_Path_8" data-name="&lt;Compound Path&gt;" d="M181.09,9938.7c0,1.79-.33,3.69-2.29,3.69s-2.29-1.9-2.29-3.69,0.33-3.69,2.29-3.69S181.09,9936.91,181.09,9938.7Zm-3.66,0c0,1.64.16,3,1.37,3s1.37-1.33,1.37-3-0.16-3-1.37-3S177.42,9937.06,177.42,9938.7Z" transform="translate(-128.04 -9870.4)" style="fill:#808083"/><path id="_Compound_Path_9" data-name="&lt;Compound Path&gt;" d="M183.14,9935.14h2.3a1.87,1.87,0,0,1,.73,3.57v0a1.17,1.17,0,0,1,1,1.18l0.06,1.21a1.17,1.17,0,0,0,.38,1.11h-1.06a2.17,2.17,0,0,1-.24-1l-0.06-1.11a0.92,0.92,0,0,0-1.06-1H184v3.17h-0.88v-7.11Zm0.88,3.23h0.87a1.22,1.22,0,0,0,1.46-1.37,1.12,1.12,0,0,0-1.28-1.13h-1v2.51Z" transform="translate(-128.04 -9870.4)" style="fill:#808083"/><path id="_Compound_Path_10" data-name="&lt;Compound Path&gt;" d="M191.28,9942.25h-0.88v-6.33h-1.78v-0.78h4.45v0.78h-1.79v6.33Z" transform="translate(-128.04 -9870.4)" style="fill:#808083"/><path id="_Compound_Path_11" data-name="&lt;Compound Path&gt;" d="M197.75,9937a1.14,1.14,0,1,0-2.28-.11c0,2,3.35.81,3.35,3.4a2,2,0,0,1-2.21,2.11c-1.66,0-2.15-.86-2.15-2.37h0.88c0,0.8,0,1.65,1.33,1.65a1.2,1.2,0,0,0,1.23-1.25c0-2-3.35-.85-3.35-3.45a1.86,1.86,0,0,1,2.08-2,1.76,1.76,0,0,1,2,2h-0.88Z" transform="translate(-128.04 -9870.4)" style="fill:#808083"/><path id="_Compound_Path_12" data-name="&lt;Compound Path&gt;" d="M207.65,9940.28a4.64,4.64,0,0,0,.28-1.38h0.78a5.11,5.11,0,0,1-.58,2.07l0.92,1.28H208.1l-0.48-.67a2.31,2.31,0,0,1-1.75.81,1.94,1.94,0,0,1-2.11-2,2.36,2.36,0,0,1,1-1.84l0.52-.39-0.22-.36a2.39,2.39,0,0,1-.52-1.29,1.4,1.4,0,0,1,1.47-1.39,1.28,1.28,0,0,1,1.5,1.35,2.08,2.08,0,0,1-1,1.55l-0.26.22Zm-2-1.55a1.88,1.88,0,0,0-1,1.62,1.25,1.25,0,0,0,1.3,1.32,1.65,1.65,0,0,0,1.27-.69Zm0.42-1.17a1.49,1.49,0,0,0,.64-1.06,0.68,0.68,0,0,0-.72-0.7,0.67,0.67,0,0,0-.71.7,2,2,0,0,0,.43,1l0.17,0.24Z" transform="translate(-128.04 -9870.4)" style="fill:#808083"/><path id="_Compound_Path_13" data-name="&lt;Compound Path&gt;" d="M214,9935.14h2.3a1.87,1.87,0,0,1,.73,3.57v0a1.17,1.17,0,0,1,1,1.18l0.06,1.21a1.17,1.17,0,0,0,.38,1.11h-1.06a2.17,2.17,0,0,1-.24-1l-0.06-1.11a0.92,0.92,0,0,0-1.06-1h-1.18v3.17H214v-7.11Zm0.88,3.23h0.87a1.22,1.22,0,0,0,1.46-1.37,1.12,1.12,0,0,0-1.28-1.13h-1v2.51Z" transform="translate(-128.04 -9870.4)" style="fill:#808083"/><path id="_Compound_Path_14" data-name="&lt;Compound Path&gt;" d="M220.17,9935.14h3.67v0.78H221v2.23h2.64v0.78H221v2.55H224v0.78h-3.79v-7.11Z" transform="translate(-128.04 -9870.4)" style="fill:#808083"/><path id="_Compound_Path_15" data-name="&lt;Compound Path&gt;" d="M228.79,9937a1.14,1.14,0,1,0-2.28-.11c0,2,3.35.81,3.35,3.4a2,2,0,0,1-2.21,2.11c-1.66,0-2.15-.86-2.15-2.37h0.88c0,0.8,0,1.65,1.33,1.65a1.2,1.2,0,0,0,1.23-1.25c0-2-3.35-.85-3.35-3.45a1.86,1.86,0,0,1,2.08-2,1.76,1.76,0,0,1,2,2h-0.88Z" transform="translate(-128.04 -9870.4)" style="fill:#808083"/><path id="_Compound_Path_16" data-name="&lt;Compound Path&gt;" d="M231.75,9935.14h0.88v7.11h-0.88v-7.11Z" transform="translate(-128.04 -9870.4)" style="fill:#808083"/><path id="_Compound_Path_17" data-name="&lt;Compound Path&gt;" d="M234.87,9935.14h1.9c2.21,0,2.49,1.59,2.49,3.55,0,1.79-.45,3.55-2.4,3.55h-2v-7.11Zm0.88,6.39h0.92c1.51,0,1.68-1.55,1.68-2.83s-0.09-2.85-1.68-2.85h-0.92v5.67Z" transform="translate(-128.04 -9870.4)" style="fill:#808083"/><path id="_Compound_Path_18" data-name="&lt;Compound Path&gt;" d="M241.31,9935.14H245v0.78h-2.8v2.23h2.64v0.78h-2.64v2.55h2.92v0.78h-3.79v-7.11Z" transform="translate(-128.04 -9870.4)" style="fill:#808083"/><path id="_Compound_Path_19" data-name="&lt;Compound Path&gt;" d="M246.91,9935.14H248l2.35,5.93h0v-5.93h0.88v7.11h-1.2l-2.28-5.75h0v5.75h-0.88v-7.11Z" transform="translate(-128.04 -9870.4)" style="fill:#808083"/><path id="_Compound_Path_20" data-name="&lt;Compound Path&gt;" d="M257.8,9939.81c-0.08,1.34-.61,2.58-2.16,2.58-2,0-2.29-1.9-2.29-3.69s0.33-3.69,2.29-3.69c1.45,0,2.06.82,2.1,2.21h-0.92c0-.81-0.28-1.49-1.18-1.49-1.21,0-1.37,1.33-1.37,3s0.16,3,1.37,3,1.21-1,1.24-1.86h0.92Z" transform="translate(-128.04 -9870.4)" style="fill:#808083"/><path id="_Compound_Path_21" data-name="&lt;Compound Path&gt;" d="M259.61,9935.14h3.67v0.78h-2.8v2.23h2.64v0.78h-2.64v2.55h2.92v0.78h-3.79v-7.11Z" transform="translate(-128.04 -9870.4)" style="fill:#808083"/><path id="_Compound_Path_22" data-name="&lt;Compound Path&gt;" d="M273,9939.81c-0.08,1.34-.61,2.58-2.16,2.58-2,0-2.29-1.9-2.29-3.69s0.33-3.69,2.29-3.69c1.45,0,2.06.82,2.1,2.21H272c0-.81-0.28-1.49-1.18-1.49-1.21,0-1.37,1.33-1.37,3s0.16,3,1.37,3,1.21-1,1.24-1.86H273Z" transform="translate(-128.04 -9870.4)" style="fill:#808083"/><path id="_Compound_Path_23" data-name="&lt;Compound Path&gt;" d="M274.76,9935.14h0.88v6.33h2.89v0.78h-3.76v-7.11Z" transform="translate(-128.04 -9870.4)" style="fill:#808083"/><path id="_Compound_Path_24" data-name="&lt;Compound Path&gt;" d="M280.1,9935.14H281v5c0,1,.34,1.53,1.2,1.53s1.21-.54,1.21-1.53v-5h0.88v5a2,2,0,0,1-2.09,2.25c-1.42,0-2.08-.79-2.08-2.25v-5Z" transform="translate(-128.04 -9870.4)" style="fill:#808083"/><path id="_Compound_Path_25" data-name="&lt;Compound Path&gt;" d="M286.34,9935.14h2.18a1.65,1.65,0,0,1,1.82,1.82,1.52,1.52,0,0,1-1,1.48v0a1.62,1.62,0,0,1,1.26,1.75c0,1.44-.82,2-2.3,2h-1.93v-7.11Zm0.88,3.07h1a1.08,1.08,0,0,0,1.2-1.18,1.06,1.06,0,0,0-1.22-1.16h-1v2.35Zm0,3.33h1.19a1.17,1.17,0,0,0,1.24-1.31,1.25,1.25,0,0,0-1.39-1.35h-1v2.67Z" transform="translate(-128.04 -9870.4)" style="fill:#808083"/></g><path id="_Path_6" data-name="&lt;Path&gt;" d="M128.46,9871.45a6.47,6.47,0,0,1,1.17.1c1.12,0.24,1.34.77,1.41,1.88s0.07,2.11.07,7.6v6.2c0,3.44,0,6.15-.17,7.62-0.15,1.09-.34,1.71-0.92,1.82a5.18,5.18,0,0,1-1,.14,0.36,0.36,0,0,0-.42.35c0,0.42.49,0.42,0.7,0.42,0.55,0,1.37,0,2-.07,0.49,0,.93,0,1.2,0h0.25c1,0,2,0,3.59.1l1,0c1.27,0,2.84.08,4.82,0.08s2.08-.15,2.35-1.05a22.58,22.58,0,0,0,.53-3.56c0-.3,0-0.67-0.35-0.67a0.53,0.53,0,0,0-.45.57,4.75,4.75,0,0,1-.88,2c-0.77.94-2.15,1-4.15,1-2.82,0-3.63-.27-4.13-0.77s-0.74-3.17-.74-8V9881c0-5.49,0-6.48.07-7.6s0.38-1.73,1.26-1.88a8.09,8.09,0,0,1,1.14-.1,0.38,0.38,0,0,0,.42-0.35c0-.42-0.49-0.42-0.7-0.42-0.75,0-2.25.05-3.15,0.08l-0.66,0-0.47,0c-0.75,0-2.32-.09-3.51-0.09-0.21,0-.7,0-0.7.42A0.38,0.38,0,0,0,128.46,9871.45Z" transform="translate(-128.04 -9870.4)" style="fill:#c6c5e1"/><path id="_Path_7" data-name="&lt;Path&gt;" d="M148.08,9871.45a4.51,4.51,0,0,1,1.06.14c0.71,0.16,1,.7,1.09,1.85s0.07,2.11.07,7.6v6.2c0,3.44,0,6.15-.17,7.62-0.15,1.09-.34,1.71-0.92,1.82a5.17,5.17,0,0,1-1,.14,0.36,0.36,0,0,0-.42.35c0,0.42.49,0.42,0.7,0.42,0.75,0,2.08-.05,2.87-0.08l0.59,0h0.42c0.79,0,2.42.09,3.91,0.09,0.61,0,.7-0.26.7-0.42a0.36,0.36,0,0,0-.42-0.35,15,15,0,0,1-1.57-.14c-0.91-.12-1.14-0.73-1.25-1.82-0.18-1.47-.18-4.19-0.18-7.62V9881c0-5.49,0-6.48.07-7.6s0.37-1.73,1.19-1.88a5,5,0,0,1,.86-0.1,0.38,0.38,0,0,0,.42-0.35c0-.42-0.49-0.42-0.7-0.42-0.75,0-2.08.05-2.87,0.08l-0.58,0-0.56,0c-0.76,0-2.16-.09-3-0.09-0.21,0-.7,0-0.7.42A0.38,0.38,0,0,0,148.08,9871.45Z" transform="translate(-128.04 -9870.4)" style="fill:#c6c5e1"/><path id="_Path_8" data-name="&lt;Path&gt;" d="M186.7,9871.45c0.37,0,.56-0.13.56-0.39s-0.55-.38-0.74-0.38c-0.7,0-1.66.05-2.23,0.08l-0.52,0-0.83,0c-0.72,0-1.71-.08-2.62-0.08-0.36,0-.91,0-0.91.42,0,0.23.18,0.35,0.52,0.35a4.44,4.44,0,0,1,1.28.13,0.75,0.75,0,0,1,.38.69,5.16,5.16,0,0,1-.31,1.3c-0.73,2.38-5.25,14.2-7.39,19.22l-6.64-17.71v0a13.7,13.7,0,0,1-.93-2.84,0.57,0.57,0,0,1,.38-0.58,3.93,3.93,0,0,1,1.28-.16,0.39,0.39,0,0,0,.49-0.39c0-.32-0.43-0.38-1.09-0.38-0.89,0-1.89,0-2.56.08l-0.72,0-0.87,0c-0.84,0-2.12-.08-3.25-0.08-0.47,0-1.05,0-1.05.38a0.37,0.37,0,0,0,.42.39,5.33,5.33,0,0,1,1.3.13c1.16,0.33,1.67.64,2.45,2.63l8.63,21.59,0.09,0.22c0.62,1.58.81,2.05,1.31,2.05s0.5-.31,1-1.48c0.15-.34.34-0.76,0.58-1.27,0.76-1.62,2.19-5,4.16-9.76l1.71-4.11c1.25-3,2.33-5.61,2.62-6.34,1-2.47,1.49-3,1.88-3.24A3.05,3.05,0,0,1,186.7,9871.45Z" transform="translate(-128.04 -9870.4)" style="fill:#c6c5e1"/><path id="_Path_9" data-name="&lt;Path&gt;" d="M188.85,9871.45a6.46,6.46,0,0,1,1.17.1c1.12,0.24,1.34.77,1.41,1.88s0.07,2.11.07,7.6v6.2c0,3.44,0,6.15-.17,7.62-0.15,1.12-.34,1.71-0.92,1.82a5.19,5.19,0,0,1-1,.14,0.36,0.36,0,0,0-.42.35c0,0.42.49,0.42,0.7,0.42l0.88,0c0.38,0,.78,0,1.16,0,0.68,0,1.25,0,1.4,0,0.49,0,1.29,0,2.74.1l0.77,0c1.27,0,3,.09,5.19.09,1.39,0,1.76,0,2-1a34.18,34.18,0,0,0,.46-3.45c0-.27,0-0.67-0.35-0.67s-0.39.29-.45,0.64c-0.24,1.41-.65,2.07-1.5,2.43a10,10,0,0,1-3.33.38c-3.5,0-3.85-.49-3.95-2.76,0-.53,0-2.8,0-4.46,0-.65,0-1.21,0-1.55v-3.1a0.09,0.09,0,0,1,.11-0.11c0.59,0,4.07.07,5,.18,1.26,0.13,1.57.64,1.71,1.13a3.45,3.45,0,0,1,.13,1.12,0.4,0.4,0,0,0,.38.46c0.38,0,.38-0.51.38-0.81s0.07-1.52.14-2.24,0.16-1.22.22-1.55a2.91,2.91,0,0,0,.06-0.43c0-.38-0.22-0.42-0.31-0.42a0.93,0.93,0,0,0-.58.45l0,0.06a2.33,2.33,0,0,1-1.56.45c-0.76.07-4.79,0.07-5.59,0.07h0a0.37,0.37,0,0,1,0-.21v-9.72c0-.22.05-0.22,0.07-0.22,0.42,0,4.22,0,4.81.11,1.85,0.21,2.17.61,2.39,1.11a3.65,3.65,0,0,1,.2,1.22c0,0.49.23,0.59,0.42,0.59a0.48,0.48,0,0,0,.38-0.5c0-.28.09-1,0.13-1.61,0-.32,0-0.6,0-0.72a9.78,9.78,0,0,1,.21-1.22,2.25,2.25,0,0,0,.07-0.45c0-.39-0.17-0.45-0.28-0.45a0.75,0.75,0,0,0-.34.1,0.77,0.77,0,0,1-.19.08,9.3,9.3,0,0,1-1.49.17c-0.8,0-7.76,0-8.05,0l-1.44-.07c-0.78,0-1.71,0-2.54,0-0.21,0-.7,0-0.7.42A0.38,0.38,0,0,0,188.85,9871.45Z" transform="translate(-128.04 -9870.4)" style="fill:#c6c5e1"/></g></svg>