<svg id="ARTE" xmlns="http://www.w3.org/2000/svg" viewBox="0 0 82.77 71.62"><title>one-logo</title><g id="_Group_" data-name="&lt;Group&gt;"><rect id="_Path_" data-name="&lt;Path&gt;" x="0.01" width="71.62" height="71.62" style="fill:#0e7db8"/><path id="_Compound_Path_" data-name="&lt;Compound Path&gt;" d="M1744.22,9896.49a15.36,15.36,0,0,1,8.92-2.53c7.87,0,13.16,5,13.16,12.27,0,8.7-6.71,12.72-13.58,12.72h-0.05a14.75,14.75,0,0,1-8.44-2.42m8.6-2.91c3.17,0,5.13-2.89,5.13-7.19,0-3.52-1.49-7.13-5.13-7.13-3.81,0-5.29,3.62-5.29,7.18,0,4.06,1.85,7.14,5.23,7.14h0.05Z" transform="translate(-1744.22 -9870.58)" style="fill:#fff"/><path id="_Path_2" data-name="&lt;Path&gt;" d="M1768.62,9902.13c0-3-.12-5.47-0.22-7.63h7l0.37,3.32h0.16a9.47,9.47,0,0,1,8-3.86c5.29,0,9.24,3.28,9.24,10.32v14.12h-8v-13.24c0-3.08-1.16-5.18-4.07-5.18a4.41,4.41,0,0,0-4.13,2.78,5.26,5.26,0,0,0-.25,1.86v13.78h-8v-16.28Z" transform="translate(-1744.22 -9870.58)" style="fill:#fff"/><path id="_Compound_Path_2" data-name="&lt;Compound Path&gt;" d="M1815.86,9918.21a30.07,30.07,0,0,1-6.61.7c-8.77,0-13.79-4.7-13.79-12.23,0-6.07,4.12-12.77,13.05-12.77a11.74,11.74,0,0,1,7.34,2.22v12.67l-12.73,0c0.25,3.13,3.54,4.6,7.28,4.6a24,24,0,0,0,5.45-.58v5.41Zm-3.28-14.51c0-1.76-.85-4.84-4.49-4.84a5.09,5.09,0,0,0-5,4.84h9.51Z" transform="translate(-1744.22 -9870.58)" style="fill:#fff"/><path id="_Compound_Path_3" data-name="&lt;Compound Path&gt;" d="M1823.53,9935.08a3.53,3.53,0,1,1-3.51,3.51,3.47,3.47,0,0,1,3.51-3.51h0Zm0,0.54a3,3,0,0,0,0,6,3,3,0,0,0,0-6h0Zm-0.65,5h-0.64v-3.93a6.33,6.33,0,0,1,1.11-.1,2.05,2.05,0,0,1,1.24.3,1,1,0,0,1,.36.81,1,1,0,0,1-.77,1v0a1,1,0,0,1,.66,1,2.9,2.9,0,0,0,.25,1h-0.66a2.82,2.82,0,0,1-.27-1,0.74,0.74,0,0,0-.85-0.68h-0.43v1.69Zm0-2.17h0.45a0.72,0.72,0,1,0,0-1.37,3,3,0,0,0-.45,0v1.34Z" transform="translate(-1744.22 -9870.58)" style="fill:#0e7db8"/><path id="_Path_3" data-name="&lt;Path&gt;" d="M1760.19,9927.47h1.29v4.07h0a2.17,2.17,0,0,1,.93-0.84,2.62,2.62,0,0,1,1.32-.34c1,0,2.46.54,2.46,2.79V9937h-1.28v-3.76c0-1.06-.42-1.93-1.64-1.93a1.85,1.85,0,0,0-1.73,1.18,1.32,1.32,0,0,0-.09.57V9937h-1.29v-9.58Z" transform="translate(-1744.22 -9870.58)" style="fill:#fff"/><path id="_Compound_Path_4" data-name="&lt;Compound Path&gt;" d="M1771.2,9937.18a3.22,3.22,0,0,1-3.39-3.35,3.32,3.32,0,0,1,3.51-3.47,3.21,3.21,0,0,1,3.41,3.34,3.34,3.34,0,0,1-3.52,3.48h0Zm0-.88a2.31,2.31,0,0,0,2.15-2.55,2.17,2.17,0,1,0-2.17,2.55h0Z" transform="translate(-1744.22 -9870.58)" style="fill:#fff"/><path id="_Path_4" data-name="&lt;Path&gt;" d="M1777.91,9928.95v1.56h1.83v0.91h-1.83v3.52c0,0.8.24,1.27,1,1.27a2.61,2.61,0,0,0,.74-0.08l0.06,0.9a4,4,0,0,1-1.14.16,2,2,0,0,1-1.39-.49,2.42,2.42,0,0,1-.48-1.71v-3.56h-1.11v-0.91h1.11v-1.2Z" transform="translate(-1744.22 -9870.58)" style="fill:#fff"/><path id="_Compound_Path_5" data-name="&lt;Compound Path&gt;" d="M1781.84,9934a2.17,2.17,0,0,0,2.41,2.27,5.42,5.42,0,0,0,2-.32l0.22,0.84a6.17,6.17,0,0,1-2.37.41,3.18,3.18,0,0,1-3.49-3.29,3.29,3.29,0,0,1,3.34-3.53,2.84,2.84,0,0,1,2.92,3.08,3.49,3.49,0,0,1,0,.56Zm3.76-.85a1.74,1.74,0,0,0-1.76-1.92,2,2,0,0,0-2,1.92h3.74Z" transform="translate(-1744.22 -9870.58)" style="fill:#fff"/><path id="_Compound_Path_6" data-name="&lt;Compound Path&gt;" d="M1792.15,9934a2.17,2.17,0,0,0,2.42,2.27,5.39,5.39,0,0,0,2-.32l0.23,0.84a6.21,6.21,0,0,1-2.37.41,3.17,3.17,0,0,1-3.48-3.29,3.29,3.29,0,0,1,3.33-3.53,2.84,2.84,0,0,1,2.92,3.08,3.58,3.58,0,0,1,0,.56Zm3.76-.85a1.74,1.74,0,0,0-1.77-1.92,2,2,0,0,0-2,1.92h3.75Z" transform="translate(-1744.22 -9870.58)" style="fill:#fff"/><rect id="_Path_5" data-name="&lt;Path&gt;" x="44.21" y="56.89" width="1.29" height="9.57" style="fill:#fff"/><path id="_Path_6" data-name="&lt;Path&gt;" d="M1798.17,9935.84a3.93,3.93,0,0,0,1.71.46c0.93,0,1.36-.42,1.36-1s-0.37-.88-1.3-1.21c-1.29-.44-1.88-1.06-1.88-1.85,0-1,.93-1.91,2.43-1.91a3.48,3.48,0,0,1,1.73.4l-0.3.85a3.14,3.14,0,0,0-1.44-.38,1,1,0,0,0-1.18.89c0,0.56.4,0.79,1.33,1.11,1.21,0.42,1.86,1,1.86,2,0,1.16-1,2-2.64,2a4.3,4.3,0,0,1-2-.46Z" transform="translate(-1744.22 -9870.58)" style="fill:#fff"/></g></svg>