<svg xmlns="http://www.w3.org/2000/svg" xmlns:xlink="http://www.w3.org/1999/xlink" viewBox="0 0 540.63 109.69"><defs><style>.cls-1{isolation:isolate;}.cls-2{fill:#4b6c6a;}.cls-3,.cls-4,.cls-5,.cls-6{mix-blend-mode:multiply;}.cls-3{fill:url(#linear-gradient);}.cls-4{fill:url(#linear-gradient-2);}.cls-5{fill:url(#linear-gradient-3);}.cls-6{fill:url(#linear-gradient-4);}</style><linearGradient id="linear-gradient" x1="1547.54" y1="975.14" x2="1645.49" y2="858.4" gradientTransform="translate(1629.63 994.04) rotate(180)" gradientUnits="userSpaceOnUse"><stop offset="0.15" stop-color="#3b9f9a"/><stop offset="0.22" stop-color="#3ea19c"/><stop offset="0.28" stop-color="#48a5a1"/><stop offset="0.33" stop-color="#59aea9"/><stop offset="0.37" stop-color="#70b9b5"/><stop offset="0.42" stop-color="#8fc8c5"/><stop offset="0.46" stop-color="#b4dad8"/><stop offset="0.5" stop-color="#dfefef"/><stop offset="0.53" stop-color="#fff"/></linearGradient><linearGradient id="linear-gradient-2" x1="877.56" y1="1317.12" x2="975.51" y2="1200.38" gradientTransform="translate(1336.02 -849.95) rotate(90)" xlink:href="#linear-gradient"/><linearGradient id="linear-gradient-3" x1="1089.23" y1="344.73" x2="1187.18" y2="228" gradientTransform="translate(-253.94 1171.32) rotate(-90)" xlink:href="#linear-gradient"/><linearGradient id="linear-gradient-4" x1="374.76" y1="783.01" x2="472.71" y2="666.28" gradientTransform="translate(-347.15 -692.22)" xlink:href="#linear-gradient"/></defs><title>rates-logo</title><g class="cls-1"><g id="Capa_2" data-name="Capa 2"><g id="Capa_1-2" data-name="Capa 1"><g id="_Grupo_" data-name="&lt;Grupo&gt;"><g id="_Grupo_2" data-name="&lt;Grupo&gt;"><polygon id="_Trazado_" data-name="&lt;Trazado&gt;" class="cls-2" points="186.9 40.1 167.35 40.1 167.35 74.91 160.57 74.91 160.57 40.1 141.01 40.1 141.01 33.99 186.9 33.99 186.9 40.1"/><polygon id="_Trazado_2" data-name="&lt;Trazado&gt;" class="cls-2" points="234.38 74.91 227.59 74.91 227.59 59.88 200.75 59.88 200.75 74.91 193.97 74.91 193.97 40.15 200.75 40.15 200.75 53.77 227.59 53.77 227.59 40.15 234.38 40.15 234.38 74.91"/><polygon id="_Trazado_3" data-name="&lt;Trazado&gt;" class="cls-2" points="283.66 74.91 246.24 74.91 246.24 40.15 282.36 40.15 282.36 46.26 253.02 46.26 253.02 53.77 273.43 53.77 273.43 59.88 253.02 59.88 253.02 68.81 283.66 68.81 283.66 74.91"/><path id="_Trazado_compuesto_" data-name="&lt;Trazado compuesto&gt;" class="cls-2" d="M356.68,74.91h-7.89l-11.07-15.6H317.06v15.6h-6.78V34h32.27q6.44,0,10.12,3.47a12.33,12.33,0,0,1,3.67,9.41,11.66,11.66,0,0,1-3,8.36A13,13,0,0,1,345.71,59Zm-15.15-21.7q7.86,0,7.86-6.33,0-6.78-8.48-6.78H317.06V53.21Z"/><path id="_Trazado_compuesto_2" data-name="&lt;Trazado compuesto&gt;" class="cls-2" d="M407.42,74.91H400l-4-7.46H372.6l-4,7.46h-7.46l18.93-34.76h8.42ZM392.57,61.34,384.31,46,376,61.34Z"/><polygon id="_Trazado_4" data-name="&lt;Trazado&gt;" class="cls-2" points="449.59 46.26 432.97 46.26 432.97 74.91 426.19 74.91 426.19 46.26 409.57 46.26 409.57 40.15 449.59 40.15 449.59 46.26"/><polygon id="_Trazado_5" data-name="&lt;Trazado&gt;" class="cls-2" points="494.35 74.91 456.93 74.91 456.93 40.15 493.05 40.15 493.05 46.26 463.71 46.26 463.71 53.77 484.12 53.77 484.12 59.88 463.71 59.88 463.71 68.81 494.35 68.81 494.35 74.91"/><path id="_Trazado_6" data-name="&lt;Trazado&gt;" class="cls-2" d="M534.58,48.74a31.26,31.26,0,0,0-14.75-3.56q-11.58,0-11.58,4.12,0,2.43,4.35,3.17,5.94.5,11.87,1.07,8.53.85,12.15,3.05a8.08,8.08,0,0,1,4,7.4,9.61,9.61,0,0,1-5,8.65q-5,3-14.5,3.05-13.39,0-21.42-6.11l3.67-4.81q7.18,5,17.63,5,5.88,0,9.1-1.5c2.15-1,3.22-2.33,3.22-4q0-2.76-4-3.9a33.49,33.49,0,0,0-6.84-.85q-7.24-.34-8.87-.51-6.44-.62-9.5-2.77A7.18,7.18,0,0,1,501.13,50q0-5,4.89-7.89t13.71-2.91q11.76,0,19,5.09Z"/></g><g id="_Grupo_3" data-name="&lt;Grupo&gt;"><path id="_Trazado_7" data-name="&lt;Trazado&gt;" class="cls-3" d="M39.9,82.13A48.68,48.68,0,0,1,80.73,6.49a54.85,54.85,0,1,0-1.22,97.35A48.62,48.62,0,0,1,39.9,82.13"/><path id="_Trazado_8" data-name="&lt;Trazado&gt;" class="cls-4" d="M82.13,69.79A48.68,48.68,0,0,1,6.49,29a54.85,54.85,0,1,0,97.35,1.22,48.62,48.62,0,0,1-21.7,39.61"/><path id="_Trazado_9" data-name="&lt;Trazado&gt;" class="cls-5" d="M27.56,39.9A48.68,48.68,0,0,1,103.2,80.73,54.85,54.85,0,1,0,5.86,79.51,48.62,48.62,0,0,1,27.56,39.9"/><path id="_Trazado_10" data-name="&lt;Trazado&gt;" class="cls-6" d="M69.79,27.56A48.68,48.68,0,0,1,29,103.2,54.85,54.85,0,1,0,30.18,5.86a48.6,48.6,0,0,1,39.61,21.7"/></g></g></g></g></g></svg>