<svg id="ARTE" xmlns="http://www.w3.org/2000/svg" viewBox="0 0 293.22 124.7"><title>rci-logo</title><g id="_Group_" data-name="&lt;Group&gt;"><g id="_Group_2" data-name="&lt;Group&gt;"><path id="_Compound_Path_" data-name="&lt;Compound Path&gt;" d="M2910.45,2592.26c0-1.26,0-2,0-2.8q0-9.7,0-19.4c0-6.18,0-6.16-5.78-8.6a93.94,93.94,0,0,0-40.11-7.51c-14.07.45-27.5,3.13-39.82,10.27-27.83,16.12-38.53,50.27-24.49,78.94,7.91,16.16,21.26,26.19,38.22,31.09,24.87,7.18,49,4.53,72-7.41a2.48,2.48,0,0,0,1.42-2.61c0-8,0-16,0-24a13.92,13.92,0,0,0-.18-1.6,2.07,2.07,0,0,0-.6.05c-0.64.35-1.27,0.7-1.89,1.08a90.71,90.71,0,0,1-22.63,10.51c-12.54,3.6-25,4.09-37.39-.67-14.68-5.65-23.58-18.25-23.66-33.34s8.67-27.61,23.49-33.39c10.59-4.13,21.52-4.47,32.58-2.48A71.29,71.29,0,0,1,2910.45,2592.26Z" transform="translate(-2689.4 -2553.65)" style="fill:#fff"/><path id="_Compound_Path_2" data-name="&lt;Compound Path&gt;" d="M2747.81,2553.65c3.29,0.45,6.6.79,9.87,1.36,24.07,4.26,36.42,33.21,22.66,53a32.59,32.59,0,0,1-12.36,10.43l-3,1.48c9.44,5.75,13.71,15,18,24.2q7.67,16.36,15.27,32.76c0.21,0.46.35,0.95,0.53,1.42h-34c-0.56-1.1-1.17-2.17-1.67-3.29q-6.17-13.79-12.31-27.6a55.26,55.26,0,0,0-8.86-14.14c-5.82-6.63-13.4-6.08-21.21-5.71v50.75H2689.4v-124.7h58.41Zm-26.95,51a15.57,15.57,0,0,0,1.67.16c6.24-.13,12.5,0,18.7-0.49,7.78-.64,12.6-6.15,12.67-13.72,0.07-7.79-4.36-13.1-12.41-13.81-6.7-.59-13.47-0.33-20.21-0.43a1.24,1.24,0,0,0-.43.29v28Z" transform="translate(-2689.4 -2553.65)" style="fill:#fff"/><path id="_Path_" data-name="&lt;Path&gt;" d="M2924,2678.35c0-.94.05-1.88,0.05-2.83q0-59.52,0-119c0-.94,0-1.88-0.05-2.83h31.39v124.7H2924Z" transform="translate(-2689.4 -2553.65)" style="fill:#fff"/><path id="_Path_2" data-name="&lt;Path&gt;" d="M2910.45,2592.26a71.29,71.29,0,0,0-28.88-11.84c-11.06-2-22-1.65-32.58,2.48-14.82,5.78-23.56,18.25-23.49,33.39s9,27.69,23.66,33.34c12.37,4.76,24.85,4.28,37.39.67a90.71,90.71,0,0,0,22.63-10.51c0.62-.38,1.25-0.73,1.89-1.08a2.07,2.07,0,0,1,.6-0.05,13.92,13.92,0,0,1,.18,1.6c0,8,0,16,0,24a2.48,2.48,0,0,1-1.42,2.61c-23,11.93-47.12,14.59-72,7.41-17-4.9-30.31-14.93-38.22-31.09-14-28.67-3.34-62.82,24.49-78.94,12.32-7.14,25.75-9.82,39.82-10.27a93.94,93.94,0,0,1,40.11,7.51c5.77,2.44,5.78,2.42,5.78,8.6q0,9.7,0,19.4C2910.45,2590.23,2910.45,2591,2910.45,2592.26Z" transform="translate(-2689.4 -2553.65)" style="fill:#fff"/></g><g id="_Group_3" data-name="&lt;Group&gt;"><path id="_Compound_Path_3" data-name="&lt;Compound Path&gt;" d="M2982.62,2564.46a10.23,10.23,0,1,1-10.2-10A10,10,0,0,1,2982.62,2564.46Zm-17.91,0a7.71,7.71,0,0,0,7.77,8,7.62,7.62,0,0,0,7.59-7.89A7.68,7.68,0,1,0,2964.71,2564.46Zm6.13,5.22h-2.3v-10a20.08,20.08,0,0,1,3.83-.3,6.21,6.21,0,0,1,3.46.73,2.77,2.77,0,0,1,1,2.18,2.55,2.55,0,0,1-2.07,2.31v0.12a2.93,2.93,0,0,1,1.82,2.43,7.58,7.58,0,0,0,.73,2.49h-2.49a8.51,8.51,0,0,1-.79-2.43,1.75,1.75,0,0,0-2.06-1.58h-1.1v4Zm0.06-5.64H2972c1.28,0,2.31-.43,2.31-1.46s-0.67-1.52-2.13-1.52a5.42,5.42,0,0,0-1.28.12V2564Z" transform="translate(-2689.4 -2553.65)" style="fill:#fff"/></g></g></svg>