<svg xmlns="http://www.w3.org/2000/svg" viewBox="0 0 700.87 164.22"><defs><style>.cls-1{fill:#938a82;}.cls-2{fill:#db9130;}.cls-3{fill:#e6b136;}.cls-4{fill:none;stroke:#e5b136;stroke-miterlimit:10;stroke-width:2.11px;}.cls-5{fill:#db8916;}</style></defs><title>sonrisas-logo</title><g id="Capa_2" data-name="Capa 2"><g id="Capa_1-2" data-name="Capa 1"><g id="_Grupo_" data-name="&lt;Grupo&gt;"><g id="_Grupo_2" data-name="&lt;Grupo&gt;"><g id="_Grupo_3" data-name="&lt;Grupo&gt;"><polygon id="_Trazado_" data-name="&lt;Trazado&gt;" class="cls-1" points="234.13 50.81 234.13 60.98 244.39 60.98 244.39 64.84 234.13 64.84 234.13 80.19 228.29 80.19 228.29 46.95 247.07 46.95 247.07 50.81 234.13 50.81"/><path id="_Trazado_compuesto_" data-name="&lt;Trazado compuesto&gt;" class="cls-1" d="M251.22,56.09h5.6v24.1h-5.6ZM254,52.46c-2.4,0-3.48-.94-3.48-3s1.09-3,3.48-3,3.48.89,3.48,2.92-1,3.06-3.48,3.06"/><path id="_Trazado_compuesto_2" data-name="&lt;Trazado compuesto&gt;" class="cls-1" d="M272.73,58.82c-3.3,0-5,2.35-5,6.83h9.74c0-5-1.27-6.83-4.71-6.83m-5,10c0,5.74,2.21,7.91,8.14,7.91a54.3,54.3,0,0,0,6.21-.47v3a48.54,48.54,0,0,1-8.47,1.36C266,80.61,262,76.47,262,68.75c0-8.1,4.28-13.09,11.11-13.09,5,0,8.19,2.21,9.46,6.54.47,1.51.61,2.92.66,6.64Z"/><path id="_Trazado_2" data-name="&lt;Trazado&gt;" class="cls-1" d="M294.06,80.61a26.25,26.25,0,0,1-7.48-1.27V76a26.27,26.27,0,0,0,6.78.94c2.87,0,4.28-1,4.28-3.06,0-1.23-.66-2.07-2.17-2.82l-4-1.93c-3.25-1.55-4.66-3.58-4.66-6.55,0-4.28,3.2-7,8.24-7a23.3,23.3,0,0,1,6.83,1.27v3.2a23.66,23.66,0,0,0-5.84-.85c-2.68,0-4,.85-4,2.64,0,1.22.71,2,2.78,3l4,2c2.87,1.41,4.1,3.29,4.1,6.26,0,4.52-3.48,7.44-8.94,7.44"/><path id="_Trazado_3" data-name="&lt;Trazado&gt;" class="cls-1" d="M315.58,80.52c-4.85,0-6.73-1.88-6.73-6.83V59.43H305.6V56.09h3.25V50.58l5.6-2.07v7.58h7.39v3.34h-7.39V72.7c0,2.87.94,3.81,3.81,3.81a20,20,0,0,0,3.58-.38v3.2c-3.72.94-4.89,1.18-6.26,1.18"/><path id="_Trazado_compuesto_3" data-name="&lt;Trazado compuesto&gt;" class="cls-1" d="M338.74,68.89a32.34,32.34,0,0,0-4.42.28c-2.54.33-3.86,1.65-3.86,3.72,0,2.54,1.55,3.81,4.61,3.81a16.6,16.6,0,0,0,3.67-.42Zm.14,11.3V78.68c-3.62,1.46-5,1.84-6.83,1.84-4.43,0-7.3-2.83-7.3-7.11s2.49-6.73,7.44-7.2c2.07-.19,4-.28,6.54-.28V63.34c0-2.73-1.22-3.81-4.38-3.81a47.48,47.48,0,0,0-7.48.75V57.22a40.79,40.79,0,0,1,9.41-1.6c2.49,0,4.8.66,6.07,1.88s1.84,3,1.84,6.59v16.1Z"/><path id="_Trazado_compuesto_4" data-name="&lt;Trazado compuesto&gt;" class="cls-1" d="M138.51,92.57l-4.43,14H143Zm9.18,28.34-3.53-10.59H132.91l-3.34,10.59h-5.27l11.86-33.23h6.17l11.44,33.23Z"/><path id="_Trazado_compuesto_5" data-name="&lt;Trazado compuesto&gt;" class="cls-1" d="M207.9,99.54c-3.29,0-5,2.35-5,6.83h9.74c0-5-1.27-6.83-4.71-6.83m-5,10c0,5.74,2.21,7.91,8.15,7.91a54.38,54.38,0,0,0,6.21-.47v3a48.48,48.48,0,0,1-8.47,1.36c-7.58,0-11.63-4.14-11.63-11.86,0-8.1,4.28-13.08,11.11-13.08,5,0,8.19,2.21,9.46,6.54.47,1.51.61,2.92.66,6.64Z"/><path id="_Trazado_4" data-name="&lt;Trazado&gt;" class="cls-1" d="M232.06,100.9a18.66,18.66,0,0,0-3.58.42v19.58h-5.6V96.81h5.46V98.6a20.3,20.3,0,0,1,6.12-2.12,5.85,5.85,0,0,1,2.64.57v4.9a11.06,11.06,0,0,0-5-1"/><path id="_Trazado_compuesto_6" data-name="&lt;Trazado compuesto&gt;" class="cls-1" d="M240.68,96.81h5.6v24.1h-5.6Zm2.82-3.63c-2.4,0-3.48-.94-3.48-3s1.08-3,3.48-3,3.48.89,3.48,2.92-1,3.06-3.48,3.06"/><path id="_Trazado_5" data-name="&lt;Trazado&gt;" class="cls-1" d="M262.57,121.28c-7.11,0-11.2-4.33-11.2-11.91,0-8.1,4.71-12.95,12.57-12.95a22.45,22.45,0,0,1,6.59,1.23v3.15a22.61,22.61,0,0,0-5.37-.61c-5.27,0-7.91,2.87-7.91,8.71s2.54,8.42,8.19,8.42a29.34,29.34,0,0,0,5.08-.52v3.11c-4.57,1.08-6.17,1.36-8,1.36"/><path id="_Trazado_compuesto_7" data-name="&lt;Trazado compuesto&gt;" class="cls-1" d="M287.61,109.61a32.41,32.41,0,0,0-4.43.28c-2.54.33-3.86,1.65-3.86,3.72,0,2.54,1.56,3.81,4.61,3.81a16.62,16.62,0,0,0,3.67-.42Zm.14,11.3V119.4c-3.63,1.46-5,1.84-6.83,1.84-4.43,0-7.3-2.82-7.3-7.11s2.49-6.73,7.44-7.2c2.07-.19,4-.28,6.54-.28v-2.59c0-2.73-1.22-3.81-4.38-3.81a47.49,47.49,0,0,0-7.48.75V97.94a40.77,40.77,0,0,1,9.42-1.6c2.5,0,4.8.66,6.07,1.88s1.83,3,1.83,6.59v16.1Z"/><path id="_Trazado_6" data-name="&lt;Trazado&gt;" class="cls-1" d="M314.54,120.91V106.08c0-4.24-1.22-5.65-4.94-5.65A23.53,23.53,0,0,0,305,101v19.91h-5.6V96.81h5.46v1.51c4.24-1.6,5.84-2,8-2a7.67,7.67,0,0,1,5.7,2.35c1.22,1.51,1.65,3.25,1.65,6.73v15.54Z"/><path id="_Trazado_compuesto_8" data-name="&lt;Trazado compuesto&gt;" class="cls-1" d="M338.74,109.61a32.34,32.34,0,0,0-4.42.28c-2.54.33-3.86,1.65-3.86,3.72,0,2.54,1.55,3.81,4.61,3.81a16.59,16.59,0,0,0,3.67-.42Zm.14,11.3V119.4c-3.62,1.46-5,1.84-6.83,1.84-4.43,0-7.3-2.82-7.3-7.11s2.49-6.73,7.44-7.2c2.07-.19,4-.28,6.54-.28v-2.59c0-2.73-1.22-3.81-4.38-3.81a47.47,47.47,0,0,0-7.48.75V97.94a40.75,40.75,0,0,1,9.41-1.6c2.49,0,4.8.66,6.07,1.88s1.84,3,1.84,6.59v16.1Z"/><path id="_Trazado_compuesto_9" data-name="&lt;Trazado compuesto&gt;" class="cls-1" d="M352.81,117h-.3v1h.29c.39,0,.58-.17.58-.52s-.16-.5-.56-.5m.77,3.07-1-1.63h-.1V120h-.79v-3.59h1.18c1,0,1.33.25,1.33.92a.9.9,0,0,1-.8,1l1.13,1.71Zm-.56-4.28a2.51,2.51,0,1,0,2.51,2.51,2.5,2.5,0,0,0-2.51-2.51m0,5.49a3,3,0,1,1,3-3,3,3,0,0,1-3,3"/><path id="_Trazado_7" data-name="&lt;Trazado&gt;" class="cls-1" d="M187.47,120.91V106c0-4.19-1.22-5.6-4.94-5.6a21.8,21.8,0,0,0-5,.71,7.34,7.34,0,0,1,.42,2.87v16.9h-5.6V105.19c0-3.53-1.22-4.75-4.8-4.75a24.77,24.77,0,0,0-4.75.56v19.91h-5.6V96.81h5.46v1.51c4.38-1.6,6.12-2,8.1-2a7.31,7.31,0,0,1,5.51,2.12c4.91-1.52,6.12-2.12,8.9-2.12,5.74,0,8,2.49,8,9v15.58Z"/><path id="_Trazado_8" data-name="&lt;Trazado&gt;" class="cls-2" d="M176.6,83.05A11,11,0,0,1,173,80.85a18,18,0,0,1-5.41-13c0-7.15,4.19-14.44,10.61-17.42a151.69,151.69,0,0,1-20.29,7.23,21.22,21.22,0,0,0-.73,5.46c0,8.12,4.54,14.6,10.85,16.85Z"/><path id="_Trazado_9" data-name="&lt;Trazado&gt;" class="cls-2" d="M13.48,134.71l-7.68-5a16.48,16.48,0,0,0,9.12,2.3c24.07,0,64.17-47.27,72.61-56.73,6-6.72,15.69-17.63,24-27.09S152.4,0,178.18,0a28.39,28.39,0,0,1,6.33.65l16.06,3.69a13.28,13.28,0,0,0-3-.32C176.27,4,141,46.09,133.56,55.55c-7.88,10.07-15.61,19.3-23.43,28.77S67.6,137.53,25,137.53c-5,0-8.8-1-11.56-2.82"/><path id="_Trazado_10" data-name="&lt;Trazado&gt;" class="cls-3" d="M133.56,55.55c-2.38,3-4.74,6-7.1,8.91,20-3.23,38-7.84,51.86-14.09l-13.25-4a140.41,140.41,0,0,1-31.52,9.16"/><path id="_Trazado_11" data-name="&lt;Trazado&gt;" class="cls-3" d="M173,80.85c7.27,0,13.27-4.75,16.34-11a17.81,17.81,0,0,1,.33,3.19c0,6.15-3.86,10.55-9.74,10.55a9.7,9.7,0,0,1-3.29-.57A11,11,0,0,1,173,80.85"/><path id="_Trazado_12" data-name="&lt;Trazado&gt;" class="cls-3" d="M197.62,4a13.27,13.27,0,0,1,3,.32c4.92,1.12,7.66,5.15,7.66,10.73,0,12.27-11.53,26-32.81,26,0,0,19.7-10.68,19.7-27.73a12.33,12.33,0,0,0-2.94-8.49A20.89,20.89,0,0,1,197.62,4"/><path id="_Trazado_13" data-name="&lt;Trazado&gt;" class="cls-3" d="M5.8,129.75a13.66,13.66,0,0,0,4.3,1.78,16.51,16.51,0,0,1-2.82-9.9c0-24.46,41.46-44,85.5-52.21l8.53-9.6C53.93,66.85,0,84.28,0,117.47c0,3.37.87,9.1,5.8,12.28"/></g><g id="_Grupo_4" data-name="&lt;Grupo&gt;"><path id="_Trazado_compuesto_10" data-name="&lt;Trazado compuesto&gt;" class="cls-1" d="M170.53,149.39h-2.19l-4.11-11.91h2.23l3.22,9.87,3.17-9.87h2Z"/><path id="_Trazado_compuesto_11" data-name="&lt;Trazado compuesto&gt;" class="cls-1" d="M187.49,149.39l-1.26-3.79h-4l-1.2,3.79h-1.89l4.25-11.91h2.21l4.1,11.91Zm-3.29-10.15-1.59,5h3.19Z"/><path id="_Trazado_compuesto_12" data-name="&lt;Trazado compuesto&gt;" class="cls-1" d="M200.6,149.52c-3.54,0-5.48-2-5.48-5.77,0-4,2.29-6.41,6.07-6.41a10.45,10.45,0,0,1,3,.57v1.23a10.46,10.46,0,0,0-2.51-.32c-2.87,0-4.37,1.62-4.37,4.7s1.38,4.45,4.13,4.45a15.33,15.33,0,0,0,2.75-.3V149A15.62,15.62,0,0,1,200.6,149.52Z"/><path id="_Trazado_compuesto_13" data-name="&lt;Trazado compuesto&gt;" class="cls-1" d="M218.52,149.39l-1.26-3.79h-4l-1.2,3.79h-1.89l4.25-11.91h2.21l4.1,11.91Zm-3.29-10.15-1.59,5h3.19Z"/><path id="_Trazado_compuesto_14" data-name="&lt;Trazado compuesto&gt;" class="cls-1" d="M230.31,138.88v10.5h-2.09v-10.5h-3.34v-1.4h8.77v1.4Z"/><path id="_Trazado_compuesto_15" data-name="&lt;Trazado compuesto&gt;" class="cls-1" d="M240.11,149.39V137.48h2.09v11.91Z"/><path id="_Trazado_compuesto_16" data-name="&lt;Trazado compuesto&gt;" class="cls-1" d="M254.7,149.59c-3.54,0-5.5-2.14-5.5-6s2.06-6.32,5.43-6.32,5.48,2.14,5.48,5.87C260.12,147.19,258.11,149.59,254.7,149.59Zm0-10.88c-2.14,0-3.29,1.65-3.29,4.75s1.08,4.69,3.27,4.69,3.29-1.65,3.29-4.82S256.85,138.71,254.67,138.71Z"/><path id="_Trazado_compuesto_17" data-name="&lt;Trazado compuesto&gt;" class="cls-1" d="M273.84,149.39l-5-9.85v9.85h-1.65V137.48h2.7l4.94,9.68v-9.68h1.64v11.91Z"/><path id="_Trazado_compuesto_18" data-name="&lt;Trazado compuesto&gt;" class="cls-1" d="M297.35,149.52c-3.54,0-5.48-2-5.48-5.77,0-4,2.29-6.41,6.07-6.41a10.45,10.45,0,0,1,3,.57v1.23a10.45,10.45,0,0,0-2.51-.32c-2.87,0-4.37,1.62-4.37,4.7s1.38,4.45,4.13,4.45a15.32,15.32,0,0,0,2.75-.3V149A15.62,15.62,0,0,1,297.35,149.52Z"/><path id="_Trazado_compuesto_19" data-name="&lt;Trazado compuesto&gt;" class="cls-1" d="M307.65,149.39V137.48h2.09V148H314v1.4Z"/><path id="_Trazado_compuesto_20" data-name="&lt;Trazado compuesto&gt;" class="cls-1" d="M328.28,148.34a4.64,4.64,0,0,1-3.63,1.28c-3.1,0-4.59-1.42-4.59-4.37v-7.77h2.09v7.81c0,2,.81,2.85,2.65,2.85s2.65-.89,2.65-2.92v-7.74h1.82v7.37C329.28,146.71,329,147.53,328.28,148.34Z"/><path id="_Trazado_compuesto_21" data-name="&lt;Trazado compuesto&gt;" class="cls-1" d="M342.79,148.93a5.64,5.64,0,0,1-2.85.46h-3.3V137.48H340a4.68,4.68,0,0,1,2.88.56,2.6,2.6,0,0,1,1.15,2.31,2.84,2.84,0,0,1-2.38,2.83,2.81,2.81,0,0,1,2.8,2.9A3.1,3.1,0,0,1,342.79,148.93Zm-3.09-10.2h-1v3.88h1.08c1.43,0,2.18-.67,2.18-2S341.28,138.73,339.71,138.73Zm.27,5.13h-1.32v4.28h1.18c1.74,0,2.5-.66,2.5-2.16S341.61,143.86,340,143.86Z"/></g><line id="_Trazado_14" data-name="&lt;Trazado&gt;" class="cls-4" x1="384.01" y1="46.95" x2="384.01" y2="149.39"/><g id="_Grupo_5" data-name="&lt;Grupo&gt;"><path id="_Trazado_compuesto_22" data-name="&lt;Trazado compuesto&gt;" class="cls-1" d="M424.79,65.7v-.08c0-8.3,6.21-15.18,14.85-15.18a15.28,15.28,0,0,1,11.45,4.66l-2.26,2.43a12.76,12.76,0,0,0-9.23-4c-6.5,0-11.36,5.28-11.36,12v.08c0,6.79,4.91,12.12,11.36,12.12,4,0,6.67-1.55,9.48-4.24l2.18,2.14c-3.06,3.1-6.42,5.16-11.74,5.16C431,80.8,424.79,74.13,424.79,65.7Z"/><path id="_Trazado_compuesto_23" data-name="&lt;Trazado compuesto&gt;" class="cls-1" d="M453.64,69.56v-.08a11.3,11.3,0,0,1,22.6-.08v.08A11.26,11.26,0,0,1,464.88,80.8,11.11,11.11,0,0,1,453.64,69.56Zm19.29,0v-.08A8.2,8.2,0,0,0,464.88,61c-4.7,0-7.93,3.82-7.93,8.39v.08a8.13,8.13,0,0,0,8,8.43C469.66,77.9,472.93,74.13,472.93,69.56Z"/><path id="_Trazado_compuesto_24" data-name="&lt;Trazado compuesto&gt;" class="cls-1" d="M541.37,74v-.08c0-4.57,3.77-7,9.27-7a23,23,0,0,1,6.67.92v-.75c0-3.9-2.39-5.91-6.46-5.91a15.1,15.1,0,0,0-6.58,1.59l-1-2.64a17.9,17.9,0,0,1,7.88-1.8c3.06,0,5.41.8,7,2.39A8.56,8.56,0,0,1,560.41,67V80.29h-3.1V77a9.5,9.5,0,0,1-7.84,3.73C545.44,80.75,541.37,78.45,541.37,74Zm16-1.68v-2.1a22.61,22.61,0,0,0-6.37-.92c-4.07,0-6.33,1.76-6.33,4.49v.08c0,2.73,2.52,4.32,5.45,4.32C554.08,78.2,557.35,75.76,557.35,72.33Z"/><path id="_Trazado_compuesto_25" data-name="&lt;Trazado compuesto&gt;" class="cls-1" d="M563.76,58.61H567v5.66c1.59-3.61,4.74-6.21,8.85-6v3.48h-.25c-4.74,0-8.6,3.4-8.6,9.94v8.64h-3.23Z"/><path id="_Trazado_compuesto_26" data-name="&lt;Trazado compuesto&gt;" class="cls-1" d="M581.6,74.55V61.46h-3V58.61h3V52.07h3.23v6.54h6.88v2.85h-6.88V74.13c0,2.64,1.47,3.61,3.65,3.61a6.79,6.79,0,0,0,3.15-.75v2.77a8.12,8.12,0,0,1-3.9.92C584.25,80.67,581.6,79,581.6,74.55Z"/><path id="_Trazado_compuesto_27" data-name="&lt;Trazado compuesto&gt;" class="cls-1" d="M596.41,50.31h3.69v3.56h-3.69Zm.21,8.3h3.23V80.29h-3.23Z"/><path id="_Trazado_compuesto_28" data-name="&lt;Trazado compuesto&gt;" class="cls-1" d="M604.39,69.52v-.08c0-6.25,4.4-11.28,10.4-11.28,6.42,0,10.11,5.12,10.11,11.45a8.37,8.37,0,0,1,0,1H607.66c.46,4.7,3.77,7.34,7.63,7.34a9,9,0,0,0,6.84-3.06l2,1.8a11.19,11.19,0,0,1-8.93,4.07C609.25,80.8,604.39,76.23,604.39,69.52Zm17.24-1.26c-.34-3.94-2.6-7.38-6.92-7.38-3.77,0-6.63,3.15-7,7.38Z"/><path id="_Trazado_compuesto_29" data-name="&lt;Trazado compuesto&gt;" class="cls-1" d="M629.74,58.61H633v3.77a8.21,8.21,0,0,1,7.42-4.24c5.24,0,8.3,3.52,8.3,8.68V80.29h-3.23V67.63c0-4-2.18-6.54-6-6.54s-6.5,2.73-6.5,6.79V80.29h-3.23Z"/><path id="_Trazado_compuesto_30" data-name="&lt;Trazado compuesto&gt;" class="cls-1" d="M653,69.52v-.08c0-7.09,5.16-11.28,10.36-11.28a9.78,9.78,0,0,1,8.3,4.61V49.68h3.23V80.29h-3.23V75.93c-1.76,2.6-4.32,4.82-8.3,4.82C658.11,80.75,653,76.64,653,69.52Zm18.79,0v-.08A8.06,8.06,0,0,0,663.9,61c-4.19,0-7.63,3.1-7.63,8.35v.08c0,5.12,3.56,8.39,7.63,8.39A8.1,8.1,0,0,0,671.74,69.47Z"/><path id="_Trazado_compuesto_31" data-name="&lt;Trazado compuesto&gt;" class="cls-1" d="M678.27,69.56v-.08a11.3,11.3,0,0,1,22.6-.08v.08A11.26,11.26,0,0,1,689.51,80.8,11.11,11.11,0,0,1,678.27,69.56Zm19.29,0v-.08A8.2,8.2,0,0,0,689.51,61c-4.7,0-7.93,3.82-7.93,8.39v.08a8.13,8.13,0,0,0,8,8.43C694.29,77.9,697.56,74.13,697.56,69.56Z"/><path id="_Trazado_compuesto_32" data-name="&lt;Trazado compuesto&gt;" class="cls-1" d="M528,114.82v-.11a15,15,0,0,1,30-.11v.11a15,15,0,0,1-15.1,15A14.76,14.76,0,0,1,528,114.82Zm25.64,0v-.11c0-6.19-4.63-11.26-10.7-11.26-6.24,0-10.53,5.07-10.53,11.15v.11c0,6.19,4.57,11.2,10.64,11.2C549.3,125.91,553.65,120.9,553.65,114.82Z"/><path id="_Trazado_compuesto_33" data-name="&lt;Trazado compuesto&gt;" class="cls-1" d="M563.08,100.28h4.29v5a10.91,10.91,0,0,1,9.86-5.63c7,0,11,4.68,11,11.54v17.89H584V112.26c0-5.35-2.9-8.69-8-8.69s-8.64,3.62-8.64,9v16.5h-4.29Z"/><path id="_Trazado_compuesto_34" data-name="&lt;Trazado compuesto&gt;" class="cls-1" d="M594.7,100.28H599v7.52c2.12-4.79,6.3-8.25,11.76-8v4.63h-.33c-6.3,0-11.43,4.51-11.43,13.21v11.48H594.7Z"/><path id="_Trazado_compuesto_35" data-name="&lt;Trazado compuesto&gt;" class="cls-1" d="M614.67,89.24h4.9V94h-4.9Zm.28,11h4.29v28.81h-4.29Z"/><path id="_Trazado_compuesto_36" data-name="&lt;Trazado compuesto&gt;" class="cls-1" d="M624.1,125.41l2.17-3.07a16.84,16.84,0,0,0,10,3.68c3.46,0,6-1.78,6-4.57v-.11c0-2.9-3.4-4-7.19-5.07-4.52-1.28-9.53-2.84-9.53-8.14V108c0-5,4.13-8.25,9.81-8.25A19.7,19.7,0,0,1,645.67,103l-2,3.23a16.3,16.3,0,0,0-8.53-2.79c-3.4,0-5.57,1.78-5.57,4.18v.11c0,2.73,3.57,3.79,7.41,5,4.46,1.34,9.25,3.07,9.25,8.25V121c0,5.46-4.52,8.64-10.25,8.64A19.83,19.83,0,0,1,624.1,125.41Z"/><path id="_Trazado_compuesto_37" data-name="&lt;Trazado compuesto&gt;" class="cls-1" d="M649.36,120.73v-.11c0-6.07,5-9.31,12.32-9.31a30.59,30.59,0,0,1,8.86,1.23v-1c0-5.18-3.18-7.86-8.58-7.86a20.07,20.07,0,0,0-8.75,2.12l-1.28-3.51a23.79,23.79,0,0,1,10.48-2.4c4.07,0,7.19,1.06,9.31,3.18,2,2,3,4.74,3,8.42v17.61h-4.12v-4.35a12.63,12.63,0,0,1-10.42,5C654.77,129.7,649.36,126.64,649.36,120.73Zm21.23-2.23v-2.79a30,30,0,0,0-8.47-1.23c-5.41,0-8.42,2.34-8.42,6v.11c0,3.62,3.34,5.74,7.25,5.74C666.25,126.31,670.6,123.07,670.6,118.5Z"/><path id="_Trazado_compuesto_38" data-name="&lt;Trazado compuesto&gt;" class="cls-1" d="M678.69,125.41l2.17-3.07a16.84,16.84,0,0,0,10,3.68c3.46,0,6-1.78,6-4.57v-.11c0-2.9-3.4-4-7.19-5.07-4.52-1.28-9.53-2.84-9.53-8.14V108c0-5,4.13-8.25,9.81-8.25A19.7,19.7,0,0,1,700.26,103l-2,3.23a16.3,16.3,0,0,0-8.53-2.79c-3.4,0-5.57,1.78-5.57,4.18v.11c0,2.73,3.57,3.79,7.41,5,4.46,1.34,9.25,3.07,9.25,8.25V121c0,5.46-4.52,8.64-10.25,8.64A19.82,19.82,0,0,1,678.69,125.41Z"/><g id="_Grupo_6" data-name="&lt;Grupo&gt;"><path id="_Trazado_15" data-name="&lt;Trazado&gt;" class="cls-1" d="M509,80.29h3.23V73.5c-1,0-2.08.15-3.23.31Z"/><path id="_Trazado_16" data-name="&lt;Trazado&gt;" class="cls-1" d="M482.59,77.31V67.92c0-4,2.6-6.84,6-6.84s5.58,2.39,5.58,6.46v3.22c1.07-.35,2.14-.68,3.23-1v-2c0-4.28,2.68-6.71,6-6.71,3.52,0,5.62,2.35,5.62,6.54V68c1.09-.06,2.17-.07,3.23-.06v-1c0-5.37-3.06-8.72-8.05-8.72a8.64,8.64,0,0,0-7.63,4.32,7.37,7.37,0,0,0-7-4.32c-3.65,0-5.58,2-7,4.11V58.61h-3.23V80.29h.31A26.66,26.66,0,0,1,482.59,77.31Z"/></g><circle id="_Trazado_17" data-name="&lt;Trazado&gt;" class="cls-5" cx="480.73" cy="116.17" r="4.16"/><circle id="_Trazado_18" data-name="&lt;Trazado&gt;" class="cls-5" cx="465.68" cy="116.17" r="4.16"/><g id="_Grupo_7" data-name="&lt;Grupo&gt;"><path id="_Trazado_19" data-name="&lt;Trazado&gt;" class="cls-5" d="M524.84,71.85a20.76,20.76,0,0,0-3.72-1.39,6.67,6.67,0,0,0,1.16,3.18c9.69,4.35,8.18,16-.47,17.07-3.46.42-3.35,2.83-.52,2.1a19.07,19.07,0,0,0,7-3.35C534.8,84.11,532.28,75.52,524.84,71.85Z"/><path id="_Trazado_20" data-name="&lt;Trazado&gt;" class="cls-5" d="M514.26,112.51c-7.76-4.82-15.63-8.49-22-12.37-14.15-8.7-6.81-20.44,5.66-24.94,7-2.5,12.68-3.35,17.19-3.13V69.44a54,54,0,0,0-21.17,2.93c-15.3,5.45-24.84,21-9.22,31.34,7.86,5.24,19.19,9,25.69,14.25,12.68,10.27,5.24,28.3-12.37,37.52-21,10.9-66.73,8.17-66.52-17.82a37.87,37.87,0,0,1,5.87-19.6,30.38,30.38,0,0,1,7.23-7.86c3.46-2.62.42-2.2-1-1.57-10.27,4.82-18.45,19.07-17.92,29,1.78,29.55,54.57,32.49,78.26,18.34C521.59,145.42,535.64,125.72,514.26,112.51Z"/></g><path id="_Trazado_21" data-name="&lt;Trazado&gt;" class="cls-1" d="M538.41,69.47v-.08c0-7.13-5.16-11.24-10.36-11.24a9.47,9.47,0,0,0-8.3,4.82V58.61h-3.23V87h3.23V76.14c.18.26.37.52.57.77l.19.23c.15.17.3.35.45.51l.25.25.49.45.27.23c.19.15.38.3.58.44l.24.17a9.35,9.35,0,0,0,.89.52h0a9.12,9.12,0,0,0,1.06.46h0c.27.1.55.19.84.26v0a9.63,9.63,0,0,0,1.58.28,8.34,8.34,0,0,0-1.83-3.15,7.63,7.63,0,0,1-.79-.31c-.21-.1-.43-.19-.63-.31l-.27-.15q-.34-.2-.66-.42c-.21-.15-.41-.31-.6-.48l-.17-.15a8.06,8.06,0,0,1-.8-.87h0a8.3,8.3,0,0,1-1.76-5.36v-.08c0-.25,0-.49,0-.74s.06-.53.1-.79v-.06c0-.24.1-.48.16-.72l0-.09c.06-.22.13-.44.21-.65l0-.12c.08-.2.16-.4.25-.59l.07-.14c.09-.18.19-.36.29-.53l.09-.16c.1-.16.21-.32.32-.47l.12-.17.34-.42.16-.17.35-.36.19-.17.36-.31.23-.17.37-.26.26-.16.36-.21.31-.15.35-.16.35-.13.34-.12.39-.1.31-.08.46-.07.26,0q.35,0,.71,0h0a7.41,7.41,0,0,1,6.69,4.18,9.35,9.35,0,0,1,.94,4.21v.08a10.61,10.61,0,0,1-.22,2.16h0a7.7,7.7,0,0,1-3,4.78,11.94,11.94,0,0,1,1.19,2.91,10.71,10.71,0,0,0,5.1-7.69h0c0-.06,0-.12,0-.18s.06-.41.08-.61A12.93,12.93,0,0,0,538.41,69.47Z"/></g></g></g></g></g></svg>