<?xml version="1.0" standalone="no"?>
<!DOCTYPE svg PUBLIC "-//W3C//DTD SVG 1.1//EN" "http://www.w3.org/Graphics/SVG/1.1/DTD/svg11.dtd" >
<svg xmlns="http://www.w3.org/2000/svg">
<metadata></metadata>
<defs>
<font id="dtl_argot_bold" horiz-adv-x="1165" >
<font-face units-per-em="2048" ascent="1585" descent="-463" />
<missing-glyph horiz-adv-x="409" />
<glyph horiz-adv-x="0" />
<glyph horiz-adv-x="682" />
<glyph unicode=" "  horiz-adv-x="409" />
<glyph unicode="&#x09;" horiz-adv-x="409" />
<glyph unicode="&#xa0;" horiz-adv-x="409" />
<glyph unicode="!" horiz-adv-x="647" d="M135 147q0 87 47 132t137 45q181 0 181 -174q0 -86 -47 -131.5t-138 -45.5q-180 0 -180 174zM135 1446h365l-60 -1043h-247z" />
<glyph unicode="&#x22;" horiz-adv-x="645" d="M78 1446h201l-27 -442h-148zM365 1446h200l-26 -442h-148z" />
<glyph unicode="#" horiz-adv-x="1163" d="M10 379l33 184h193l55 320h-193l33 184h193l67 379h201l-68 -379h236l67 379h201l-67 -379h192l-31 -184h-194l-56 -320h193l-33 -184h-192l-68 -379h-201l68 379h-236l-67 -379h-201l68 379h-193zM436 563h236l55 320h-235z" />
<glyph unicode="$" d="M152 100v181q208 -48 350 -48q237 0 237 170q0 54 -29.5 92t-101.5 76l-207 109q-124 66 -179.5 148.5t-55.5 201.5q0 155 86 252.5t246 120.5v153h186v-147q106 -8 291 -59v-181q-177 50 -322 50q-211 0 -211 -146q0 -55 33 -91t127 -83l174 -88q129 -65 186.5 -152 t57.5 -219q0 -158 -87.5 -261t-248.5 -134v-156h-186v146q-132 9 -346 65z" />
<glyph unicode="%" horiz-adv-x="1523" d="M72 1139q0 150 94 237.5t254 87.5q163 0 255.5 -85.5t92.5 -237.5q0 -146 -95.5 -235t-252.5 -89q-161 0 -254.5 86.5t-93.5 235.5zM131 0l1049 1446h215l-1051 -1446h-213zM272 1143q0 -88 38 -134t110 -46q69 0 108 47t39 131q0 178 -147 178q-71 0 -109.5 -45.5 t-38.5 -130.5zM758 303q0 149 94 237.5t252 88.5q163 0 255.5 -85.5t92.5 -236.5q0 -148 -94.5 -236.5t-251.5 -88.5q-163 0 -255.5 85t-92.5 236zM958 307q0 -88 37.5 -134t108.5 -46q70 0 108.5 46.5t38.5 131.5q0 86 -37.5 132t-109.5 46q-69 0 -107.5 -46.5 t-38.5 -129.5z" />
<glyph unicode="&#x26;" horiz-adv-x="1464" d="M68 391q0 132 61 210.5t233 166.5l-55 59q-125 137 -125 289q0 160 116 254t312 94q200 0 307 -85.5t107 -245.5q0 -129 -64 -210.5t-225 -156.5l348 -383q37 46 51.5 100t14.5 154v59h264v-16v-55q0 -138 -42.5 -234t-139.5 -174l201 -217h-390l-57 66 q-150 -91 -383 -91q-250 0 -392 110.5t-142 305.5zM362 436q0 -123 74.5 -189.5t212.5 -66.5q120 0 197 41l-375 424q-58 -38 -83.5 -87.5t-25.5 -121.5zM467 1145q0 -51 22 -95.5t76 -99.5l70 -73q79 56 115 115t36 134q0 85 -38.5 124.5t-120.5 39.5q-75 0 -117.5 -38 t-42.5 -107z" />
<glyph unicode="'" horiz-adv-x="358" d="M78 1446h201l-27 -442h-148z" />
<glyph unicode="(" horiz-adv-x="747" d="M117 561q0 285 70 512t245 512l199 -82q-225 -434 -225 -942q0 -517 225 -942l-199 -82q-98 166 -136 238.5t-69 158.5q-110 282 -110 627z" />
<glyph unicode=")" horiz-adv-x="747" d="M115 -381q225 428 225 942q0 520 -225 942l198 82q98 -165 136 -238t71 -159q109 -287 109 -627q0 -286 -69.5 -510.5t-246.5 -513.5z" />
<glyph unicode="*" d="M266 1356l82 135l201 -166l-49 262h170l-52 -262l201 166l80 -135l-250 -88l250 -90l-80 -134l-201 168l52 -264h-170l49 264l-197 -168l-84 134l252 90z" />
<glyph unicode="+" d="M92 657v179h391v399h197v-399h391v-179h-391v-401h-197v401h-391z" />
<glyph unicode="," horiz-adv-x="602" d="M115 137q0 80 45 121t133 41q100 0 146 -53.5t46 -169.5q0 -125 -48 -196t-189 -156l-107 116q61 43 85 76t24 74q-60 0 -97.5 40.5t-37.5 106.5z" />
<glyph unicode="-" horiz-adv-x="710" d="M86 442v230h539v-230h-539z" />
<glyph unicode="." horiz-adv-x="600" d="M117 156q0 89 46.5 135.5t135.5 46.5q178 0 178 -178q0 -183 -182 -183q-88 0 -133 45.5t-45 133.5z" />
<glyph unicode="/" horiz-adv-x="729" d="M80 -463l287 2048h231l-287 -2048h-231z" />
<glyph unicode="0" d="M80 715q0 384 125.5 569.5t384.5 185.5q256 0 375.5 -177.5t119.5 -557.5q0 -389 -124 -574.5t-383 -185.5q-256 0 -377 179.5t-121 560.5zM385 719q0 -206 19.5 -323t62 -169.5t117.5 -52.5q76 0 118 51.5t60 170.5t18 337q0 208 -18 323t-59.5 165.5t-116.5 50.5 q-113 0 -157 -121.5t-44 -431.5z" />
<glyph unicode="1" d="M170 1118v180q166 43 242.5 73.5t160.5 86.5h218v-1458h-304v1178q-174 -38 -317 -60z" />
<glyph unicode="2" d="M86 0v246q218 170 432 377q130 126 173.5 203.5t43.5 183.5q0 123 -73 180t-230 57q-146 0 -323 -43v191q277 73 444 73q247 0 374.5 -102.5t127.5 -302.5q0 -198 -146 -378t-524 -447h670v-238h-969z" />
<glyph unicode="3" d="M72 51v193q171 -47 348 -47q328 0 328 229q0 114 -74 167.5t-230 53.5h-77v207h51q130 0 199 52.5t69 152.5q0 98 -61.5 142t-196.5 44q-141 0 -295 -43v187q264 79 397 79q227 0 346 -89t119 -261q0 -147 -69.5 -227.5t-241.5 -134.5q182 -8 277.5 -96.5t95.5 -249.5 q0 -204 -151.5 -318.5t-424.5 -114.5q-81 0 -169.5 16t-239.5 58z" />
<glyph unicode="4" d="M43 328v260l600 862h336v-897h135v-225h-135v-328h-287v328h-649zM276 553h416v633z" />
<glyph unicode="5" d="M111 53v193q162 -47 317 -47t238.5 73t83.5 209q0 135 -79.5 201t-242.5 66q-124 0 -270 -33v731h856v-238h-619v-290q115 22 201 22q221 0 343 -119t122 -334q0 -236 -151.5 -373t-413.5 -137q-136 0 -385 76z" />
<glyph unicode="6" d="M68 672q0 385 161.5 586.5t470.5 201.5q128 0 349 -65v-193q-145 43 -289 43q-383 0 -383 -401q175 61 289 61q204 0 319 -111t115 -307q0 -235 -135.5 -371t-370.5 -136q-526 0 -526 692zM375 592q0 -224 50.5 -319t170.5 -95q97 0 152 75.5t55 207.5q0 248 -242 248 q-60 0 -133 -15q-27 -4 -33 -6l-20 -4v-92z" />
<glyph unicode="7" d="M80 1208v238h971v-227l-482 -1219h-344l586 1208h-731z" />
<glyph unicode="8" d="M76 344q0 131 70 216.5t239 160.5l-49 29q-223 120 -223 354q0 178 124 274.5t353 96.5q215 0 332.5 -87t117.5 -247q0 -116 -61.5 -193.5t-202.5 -138.5l72 -41q126 -70 182.5 -159.5t56.5 -215.5q0 -198 -136.5 -310t-377.5 -112q-235 0 -366 98t-131 275zM358 362 q0 -94 59 -146t165 -52q101 0 160 52.5t59 143.5q0 66 -37.5 115t-126.5 98l-98 56q-97 -64 -139 -126.5t-42 -140.5zM377 1133q0 -62 32.5 -104t116.5 -89l88 -49q97 68 132.5 118.5t35.5 120.5q0 80 -53 126.5t-145 46.5q-99 0 -153 -44.5t-54 -125.5z" />
<glyph unicode="9" d="M63 958q0 234 136 370t370 136q527 0 527 -680q0 -393 -160.5 -594.5t-472.5 -201.5q-127 0 -348 65v193q141 -43 288 -43q380 0 383 397q-164 -61 -288 -61q-204 0 -319.5 110.5t-115.5 308.5zM360 983q0 -248 242 -248q62 0 135 15q2 0 13 2t20 4l18 4v96 q0 219 -51.5 314.5t-169.5 95.5q-97 0 -152 -75.5t-55 -207.5z" />
<glyph unicode=":" horiz-adv-x="598" d="M117 152q0 86 46.5 131t137.5 45q180 0 180 -174q0 -87 -47 -132t-137 -45q-180 0 -180 175zM117 881q0 86 46.5 131t137.5 45q180 0 180 -174q0 -86 -46.5 -131t-137.5 -45q-180 0 -180 174z" />
<glyph unicode=";" horiz-adv-x="602" d="M115 139q0 78 46 120t132 42q98 0 145 -54.5t47 -168.5q0 -121 -47 -194.5t-172 -147.5q-12 -8 -22 -12l-101 116q114 72 111 150q-63 -1 -101 39.5t-38 109.5zM123 881q0 86 46.5 131t137.5 45q180 0 180 -174q0 -86 -46.5 -131t-137.5 -45q-180 0 -180 174z" />
<glyph unicode="&#x3c;" horiz-adv-x="1085" d="M72 598v270l940 492v-320l-600 -307l600 -309v-318z" />
<glyph unicode="=" d="M92 485v179h979v-179h-979zM92 827v179h979v-179h-979z" />
<glyph unicode="&#x3e;" horiz-adv-x="1085" d="M72 104v322l600 307l-600 309v318l940 -494v-268z" />
<glyph unicode="?" horiz-adv-x="999" d="M33 1204v191q157 41 246.5 57t166.5 16q480 0 480 -362q0 -101 -45 -186.5t-148 -184.5l-127 -119q-39 -36 -51 -62.5t-12 -76.5v-71h-256v96q0 65 15 100.5t69 95.5l151 174q84 97 84 191q0 95 -61 138.5t-195 43.5q-142 0 -317 -41zM236 147q0 87 47 132t137 45 q180 0 180 -174q0 -87 -47 -132t-137 -45q-180 0 -180 174z" />
<glyph unicode="@" horiz-adv-x="1576" d="M68 729q0 121 38 234.5t107.5 205t162 160.5t207 106.5t236.5 37.5q198 0 355.5 -84t246 -234.5t88.5 -339.5q0 -224 -122 -362t-320 -138q-153 0 -180 109q-160 -82 -252 -82q-101 0 -159 76.5t-58 210.5q0 208 114.5 342.5t292.5 134.5q80 0 168 -31l150 29l-86 -529 q-6 -37 -6 -61q0 -38 19.5 -56t62.5 -18q106 0 176.5 105t70.5 260q0 235 -157.5 386.5t-403.5 151.5q-170 0 -311 -82.5t-222 -226.5t-81 -317q0 -176 80.5 -320t222 -225.5t315.5 -81.5q224 0 412 105l57 -107q-206 -117 -463 -117q-220 0 -394 96.5t-270.5 269.5 t-96.5 392zM616 649q0 -78 33 -120t94 -42q37 0 119 27l74 461h-8q-62 4 -64 4q-110 0 -179 -91t-69 -239z" />
<glyph unicode="A" horiz-adv-x="1329" d="M4 0l494 1446h348l477 -1446h-324l-131 424h-465l-124 -424h-275zM459 621h352l-178 596z" />
<glyph unicode="B" horiz-adv-x="1208" d="M135 0v1446h469q144 0 216.5 -15t133.5 -55q138 -97 138 -280q0 -130 -81.5 -227t-209.5 -117q157 -13 249.5 -109t92.5 -244q0 -110 -54.5 -202t-148.5 -142q-63 -32 -135 -43.5t-209 -11.5h-461zM430 180h141q135 0 199 59t64 185q0 229 -250 229h-154v-473zM430 834 h123q112 0 170.5 57t58.5 166q0 110 -54 159.5t-175 49.5h-123v-432z" />
<glyph unicode="C" horiz-adv-x="1218" d="M68 684q0 362 196 570t537 208q122 0 373 -69v-185q-131 35 -277 35q-258 0 -385 -132.5t-127 -399.5q0 -504 481 -504q153 0 308 35v-191q-174 -39 -265.5 -53t-169.5 -14q-329 0 -500 178.5t-171 521.5z" />
<glyph unicode="D" horiz-adv-x="1441" d="M135 0v1446h445q212 0 309 -17t186 -69q299 -178 299 -606q0 -244 -90 -415t-264 -261q-87 -43 -190 -60.5t-279 -17.5h-416zM444 205h131q246 0 365 128.5t119 395.5q0 343 -193 455q-54 32 -117.5 44.5t-168.5 12.5h-136v-1036z" />
<glyph unicode="E" horiz-adv-x="1079" d="M135 0v1446h862v-205h-553v-391h439v-205h-439v-440h588v-205h-897z" />
<glyph unicode="F" horiz-adv-x="1021" d="M135 0v1446h862v-205h-553v-391h439v-205h-439v-645h-309z" />
<glyph unicode="G" horiz-adv-x="1329" d="M66 688q0 367 200 570.5t561 203.5q76 0 160 -14.5t232 -52.5v-185q-162 33 -320 33q-516 0 -516 -530q0 -264 111 -388t346 -124q40 0 108 8v459h289v-617q-290 -67 -459 -67q-358 0 -535 175.5t-177 528.5z" />
<glyph unicode="H" horiz-adv-x="1458" d="M135 0v1446h309v-592h570v592h309v-1446h-309v639h-570v-639h-309z" />
<glyph unicode="I" horiz-adv-x="577" d="M135 0v1446h309v-1446h-309z" />
<glyph unicode="J" horiz-adv-x="600" d="M-78 -272q23 -2 55 -2q108 0 143.5 34t35.5 138v1548h309v-1585q0 -173 -83 -248.5t-273 -75.5q-38 0 -187 19v172z" />
<glyph unicode="K" horiz-adv-x="1290" d="M135 0v1446h309v-682l510 682h324l-522 -647l530 -799h-379l-463 750v-750h-309z" />
<glyph unicode="L" horiz-adv-x="970" d="M135 0v1446h309v-1241h508v-205h-817z" />
<glyph unicode="M" horiz-adv-x="1845" d="M135 0v1446h451l344 -1143l336 1143h446v-1446h-289v1241l-366 -1241h-316l-368 1237v-1237h-238z" />
<glyph unicode="N" horiz-adv-x="1445" d="M135 0v1446h410l524 -1139v1139h242v-1446h-398l-534 1159v-1159h-244z" />
<glyph unicode="O" horiz-adv-x="1490" d="M68 702q0 359 179.5 563.5t495.5 204.5q328 0 503 -187.5t175 -539.5q0 -359 -180 -563.5t-496 -204.5q-327 0 -502 188.5t-175 538.5zM385 719q0 -269 87.5 -400t268.5 -131q180 0 271.5 137t91.5 406q0 266 -88 396t-268 130q-179 0 -271 -136.5t-92 -401.5z" />
<glyph unicode="P" horiz-adv-x="1181" d="M135 0v1446h451q175 0 258 -16.5t149 -63.5q162 -116 162 -346q0 -238 -144 -353.5t-442 -115.5h-125v-551h-309zM444 735h131q133 0 198 67t65 204q0 132 -63 194t-195 62h-136v-527z" />
<glyph unicode="Q" horiz-adv-x="1490" d="M68 690q0 370 177.5 575t497.5 205q327 0 502.5 -188t175.5 -539q0 -321 -144.5 -519t-402.5 -232v-10q9 -95 79 -137t221 -42q103 0 231 25v-166q-243 -51 -365 -51q-215 0 -337.5 96.5t-122.5 265.5v15v6q-248 43 -380 222.5t-132 473.5zM385 721q0 -272 87.5 -403.5 t268.5 -131.5q180 0 271.5 137.5t91.5 407.5q0 266 -88 396t-268 130q-179 0 -271 -136t-92 -400z" />
<glyph unicode="R" horiz-adv-x="1230" d="M135 0v1446h463q151 0 232 -14t139 -50q151 -95 151 -301q0 -160 -83 -256.5t-244 -124.5l448 -700h-362l-390 666h-53v-666h-301zM436 825h135q240 0 240 226q0 114 -54.5 164.5t-176.5 50.5h-144v-441z" />
<glyph unicode="S" horiz-adv-x="1075" d="M74 53v193q215 -49 377 -49q258 0 258 182q0 58 -32 98.5t-112 81.5l-223 117q-133 70 -192.5 159.5t-59.5 217.5q0 198 127 304.5t361 106.5q73 0 156 -15t224 -54v-193q-177 53 -344 53q-227 0 -227 -157q0 -59 35.5 -97.5t136.5 -89.5l186 -94q138 -69 200.5 -162.5 t62.5 -234.5q0 -209 -133.5 -323.5t-376.5 -114.5q-141 0 -424 71z" />
<glyph unicode="T" horiz-adv-x="1105" d="M10 1241v205h1088v-205h-389v-1241h-310v1241h-389z" />
<glyph unicode="U" horiz-adv-x="1378" d="M115 512v934h309v-954q0 -159 69 -230.5t222 -71.5q154 0 220 74t66 244v938h265v-875q0 -188 -24 -277.5t-95 -164.5q-145 -158 -453 -158q-302 0 -440.5 129t-138.5 412z" />
<glyph unicode="V" horiz-adv-x="1329" d="M8 1446h334l356 -1174l344 1174h287l-495 -1446h-347z" />
<glyph unicode="W" horiz-adv-x="2125" d="M14 1446h334l277 -1206l278 1206h367l286 -1206l283 1206h279l-400 -1446h-387l-264 1145l-260 -1145h-401z" />
<glyph unicode="X" horiz-adv-x="1318" d="M-6 0l491 748l-440 698h367l290 -496l271 496h311l-446 -680l485 -766h-367l-333 559l-312 -559h-317z" />
<glyph unicode="Y" horiz-adv-x="1214" d="M-20 1446h342l325 -666l305 666h293l-473 -895v-551h-309v535z" />
<glyph unicode="Z" horiz-adv-x="1187" d="M47 0v211l721 1024h-672v211h1026v-205l-725 -1036h748v-205h-1098z" />
<glyph unicode="[" horiz-adv-x="747" d="M156 -463v2048h454v-182h-188v-1684h188v-182h-454z" />
<glyph unicode="\" horiz-adv-x="729" d="M131 1585h231l287 -2048h-231z" />
<glyph unicode="]" horiz-adv-x="747" d="M135 -281h191v1684h-191v182h457v-2048h-457v182z" />
<glyph unicode="^" horiz-adv-x="1085" d="M27 752l331 702h369l332 -702h-295l-221 479l-224 -479h-292z" />
<glyph unicode="_" horiz-adv-x="1085" d="M0 -117h1085v-209h-1085v209z" />
<glyph unicode="`" horiz-adv-x="1085" d="M270 1421l170 162l320 -305l-92 -86z" />
<glyph unicode="a" horiz-adv-x="1087" d="M68 307q0 298 340 328q129 12 272 12v88q0 78 -43 112t-141 34q-153 0 -336 -33v158q285 71 434 71q192 0 283 -82q49 -43 69.5 -110t20.5 -187v-698h-279v68q-119 -49 -179.5 -65.5t-119.5 -16.5q-146 0 -233.5 87.5t-87.5 233.5zM365 332q0 -152 180 -152q62 0 135 17 v297q-124 -5 -168 -11q-147 -21 -147 -151z" />
<glyph unicode="b" horiz-adv-x="1216" d="M129 51v1534h299v-590q124 49 182 65.5t109 16.5q195 0 310.5 -141t115.5 -379q0 -256 -164 -414.5t-428 -158.5q-156 0 -424 67zM428 176q55 -6 86 -6q157 0 239.5 91.5t82.5 264.5q0 160 -71 247t-200 87q-63 0 -137 -14v-670z" />
<glyph unicode="c" horiz-adv-x="972" d="M72 510q0 261 149 412t406 151q59 0 120 -10.5t179 -40.5v-170q-108 27 -219 27q-326 0 -326 -351q0 -175 81 -257.5t253 -82.5q110 0 211 19v-162q-154 -37 -225.5 -49t-135.5 -12q-233 0 -363 138.5t-130 387.5z" />
<glyph unicode="d" horiz-adv-x="1216" d="M74 500q0 248 140 409.5t355 161.5q101 0 219 -49v563h299v-1585h-292v66q-115 -48 -178.5 -67t-116.5 -19q-196 0 -311 140.5t-115 379.5zM383 530q0 -161 69.5 -246t200.5 -85q55 0 135 12v661q-61 11 -108 11q-141 0 -219 -93t-78 -260z" />
<glyph unicode="e" horiz-adv-x="1099" d="M72 510q0 264 135.5 415.5t370.5 151.5q164 0 271 -72.5t150 -213.5q17 -52 23 -116.5t6 -199.5h-659q0 -163 77 -231t261 -68q105 0 272 21v-154q-278 -61 -391 -61q-251 0 -383.5 136t-132.5 392zM369 641h366q0 154 -38.5 215.5t-135.5 61.5q-100 0 -146 -67t-46 -210 z" />
<glyph unicode="f" horiz-adv-x="694" d="M31 883v174h131v194q0 172 83 254t259 82q79 0 254 -41v-155q-58 6 -125 6q-97 0 -134.5 -34.5t-37.5 -125.5v-180h227v-174h-227v-883h-299v883h-131z" />
<glyph unicode="g" horiz-adv-x="1216" d="M72 500q0 251 139.5 411t357.5 160q125 0 228 -59v45h290v-1092q0 -141 -39.5 -222.5t-134.5 -133.5q-132 -72 -348 -72q-82 0 -167 13t-251 51v180q169 -43 349 -43q170 0 231 50t61 189v86q-117 -49 -177.5 -66t-112.5 -17q-196 0 -311 140.5t-115 379.5zM381 530 q0 -161 70 -246t202 -85q55 0 135 12v661q-65 11 -108 11q-142 0 -220.5 -93t-78.5 -260z" />
<glyph unicode="h" horiz-adv-x="1210" d="M131 0v1585h299v-592q139 52 206.5 69t135.5 17q75 0 142.5 -28.5t105.5 -75.5q40 -47 56 -112t16 -177v-686h-299v659q0 114 -43.5 159.5t-149.5 45.5q-73 0 -170 -20v-844h-299z" />
<glyph unicode="i" horiz-adv-x="559" d="M100 1329q0 75 41 107t138 32q98 0 139 -31.5t41 -107.5q0 -77 -41 -109t-139 -32q-97 0 -138 32.5t-41 108.5zM129 0v1057h299v-1057h-299z" />
<glyph unicode="j" horiz-adv-x="577" d="M-84 -285q25 -4 64 -4q100 0 133.5 36t33.5 142v1168h299v-1196q0 -112 -29 -175.5t-98 -101.5q-83 -47 -206 -47q-72 0 -197 19v159zM119 1329q0 75 40.5 107t137.5 32q100 0 140 -31t40 -108t-41 -109t-139 -32q-97 0 -137.5 32t-40.5 109z" />
<glyph unicode="k" horiz-adv-x="1136" d="M129 0v1585h299v-1005l387 477h313l-397 -441l393 -616h-360l-336 567v-567h-299z" />
<glyph unicode="l" horiz-adv-x="559" d="M129 0v1585h299v-1585h-299z" />
<glyph unicode="m" horiz-adv-x="1869" d="M131 0v1057h291v-68q146 55 215.5 72.5t136.5 17.5q151 0 240 -92q166 56 242 74t143 18q191 0 271.5 -90t80.5 -303v-686h-299v659q0 114 -43 159.5t-152 45.5q-60 0 -180 -24q2 -6 2 -13q11 -43 11 -88v-739h-299v690q0 96 -42 135t-145 39q-76 0 -174 -20v-844h-299z " />
<glyph unicode="n" horiz-adv-x="1210" d="M131 0v1057h291v-68q141 54 211 72t139 18q75 0 142.5 -28.5t105.5 -75.5q40 -50 56 -113.5t16 -175.5v-686h-299v659q0 114 -43.5 159.5t-149.5 45.5q-73 0 -170 -20v-844h-299z" />
<glyph unicode="o" horiz-adv-x="1204" d="M72 506q0 272 141.5 423.5t396.5 151.5q246 0 385.5 -141t139.5 -393q0 -269 -143 -420.5t-396 -151.5q-246 0 -385 141.5t-139 389.5zM381 532q0 -380 221 -380q223 0 223 376q0 377 -221 377q-223 0 -223 -373z" />
<glyph unicode="p" horiz-adv-x="1216" d="M129 -463v1520h291v-66q119 50 182 68t115 18q196 0 311 -140.5t115 -379.5q0 -248 -140.5 -409.5t-355.5 -161.5q-110 0 -219 49v-498h-299zM428 186q53 -12 109 -12q141 0 219 92.5t78 259.5q0 161 -70 247.5t-201 86.5q-66 0 -135 -14v-660z" />
<glyph unicode="q" horiz-adv-x="1216" d="M72 502q0 163 69 294t192 205t275 74q97 0 221 -37l258 39v-1540h-299v524q-117 -47 -177.5 -64t-114.5 -17q-194 0 -309 141.5t-115 380.5zM381 532q0 -160 70.5 -246.5t199.5 -86.5q61 0 137 12v672q-47 8 -86 8q-157 0 -239 -92t-82 -267z" />
<glyph unicode="r" horiz-adv-x="819" d="M129 0v1057h291v-80q193 94 268 94q68 0 117 -24v-248q-100 47 -227 47q-76 0 -150 -19v-827h-299z" />
<glyph unicode="s" horiz-adv-x="899" d="M72 39v166q157 -39 299 -39q89 0 130.5 27t41.5 86q0 35 -21 60t-71 48l-160 74q-112 52 -162.5 122.5t-50.5 174.5q0 149 101.5 233t281.5 84q118 0 319 -57v-164q-129 37 -260 37q-85 0 -123.5 -23.5t-38.5 -74.5q0 -37 26 -62.5t93 -54.5l160 -72 q101 -44 147.5 -113.5t46.5 -175.5q0 -155 -110.5 -244t-302.5 -89q-139 0 -346 57z" />
<glyph unicode="t" horiz-adv-x="800" d="M29 883v174h131v223l299 106v-329h305v-174h-305v-533q0 -91 35 -125.5t129 -34.5q55 0 141 13v-164q-204 -53 -283 -53q-177 0 -249 72t-72 247v578h-131z" />
<glyph unicode="u" horiz-adv-x="1210" d="M121 371v686h299v-660q0 -114 42.5 -159t149.5 -45q73 0 170 20v844h299v-1057h-293v68q-124 -52 -198.5 -71.5t-149.5 -19.5q-73 0 -141 29t-106 76q-40 50 -56 113t-16 176z" />
<glyph unicode="v" horiz-adv-x="1087" d="M12 1057h328l235 -834l236 834h274l-376 -1057h-336z" />
<glyph unicode="w" horiz-adv-x="1740" d="M18 1057h308l202 -840l201 840h328l205 -846l198 846h264l-325 -1057h-332l-197 803l-190 -803h-344z" />
<glyph unicode="x" horiz-adv-x="1093" d="M-2 0l383 557l-332 500h338l195 -336l192 336h268l-327 -488l381 -569h-361l-227 385l-225 -385h-285z" />
<glyph unicode="y" horiz-adv-x="1081" d="M6 1057h334l238 -803l221 803h274l-444 -1247q-52 -148 -129.5 -210.5t-206.5 -62.5q-45 0 -156 27v166q43 -6 80 -6q81 0 118 26t66 103l33 88z" />
<glyph unicode="z" horiz-adv-x="964" d="M43 0v184l522 699h-489v174h821v-176l-524 -707h551v-174h-881z" />
<glyph unicode="{" horiz-adv-x="747" d="M41 561q82 26 107.5 75.5t25.5 180.5v473q0 120 9 161.5t42 74.5q32 34 78.5 46.5t134.5 12.5h205v-182h-76q-77 0 -102 -31.5t-25 -126.5v-446q0 -113 -25 -160t-100 -78q75 -31 100 -78t25 -159v-447q0 -95 25 -126.5t102 -31.5h76v-182h-205q-88 0 -134.5 13t-78.5 47 q-34 34 -42.5 75t-8.5 162v471q0 131 -25.5 180.5t-107.5 75.5z" />
<glyph unicode="|" horiz-adv-x="1085" d="M381 -362v1808h324v-1808h-324z" />
<glyph unicode="}" horiz-adv-x="747" d="M104 -281h76q77 0 102 31.5t25 126.5v447q0 112 25 159t100 78q-77 32 -101 78t-24 160v446q0 95 -25 126.5t-102 31.5h-76v182h205q88 0 134.5 -12.5t78.5 -46.5q33 -33 42 -74.5t9 -161.5v-473q0 -130 27 -180.5t107 -75.5q-80 -25 -107 -75.5t-27 -180.5v-471 q0 -121 -8.5 -162t-42.5 -75q-32 -34 -79 -47t-134 -13h-205v182z" />
<glyph unicode="~" horiz-adv-x="1445" d="M201 1327q64 158 141 228.5t184 70.5q68 0 240 -70q84 -35 113 -44t57 -9q46 0 81 29t73 98l161 -125q-68 -160 -145 -226.5t-197 -66.5q-44 0 -88.5 13.5t-167.5 66.5q-98 39 -139 39q-46 0 -80.5 -29.5t-73.5 -103.5z" />
<glyph unicode="&#xa1;" horiz-adv-x="647" d="M135 -395l58 1040h247l60 -1040h-365zM135 903q0 86 46.5 131t137.5 45q181 0 181 -174q0 -86 -47 -131t-138 -45q-180 0 -180 174z" />
<glyph unicode="&#xa2;" horiz-adv-x="999" d="M115 707q0 213 103 344.5t300 169.5v141h158v-133q82 -6 233 -47v-156q-101 23 -204 23q-304 0 -304 -326q0 -162 76 -238.5t236 -76.5q105 0 196 18v-152q-167 -39 -233 -49v-155h-158v151q-403 50 -403 486z" />
<glyph unicode="&#xa3;" d="M100 0v242q69 6 98 52t29 150v207h-127v195h127v184q0 118 12.5 175t49.5 108q109 147 381 147q128 0 385 -69v-185q-155 37 -281 37q-107 0 -163.5 -29t-73.5 -94q-9 -33 -9 -125v-149h303v-195h-303v-133q0 -100 -28.5 -160.5t-106.5 -126.5h697v-231h-990z" />
<glyph unicode="&#xa4;" horiz-adv-x="1120" d="M41 360l127 127q-80 130 -80 263t78 260l-125 127l135 133l125 -125q124 78 260 78q132 0 260 -82l129 129l127 -127l-129 -129q82 -124 82 -260q0 -134 -80 -262l127 -125l-133 -134l-127 125q-119 -77 -260 -77q-137 0 -262 79l-127 -127zM260 752q0 -125 88 -214 t211 -89q124 0 211.5 88.5t87.5 214.5t-87.5 214.5t-211.5 88.5q-125 0 -212 -88t-87 -215z" />
<glyph unicode="&#xa5;" horiz-adv-x="1200" d="M-4 1446h340l301 -672l289 672h291l-252 -490h188v-174h-276l-60 -112h322v-174h-381v-496h-299v496h-377v174h309l-57 112h-266v174h180z" />
<glyph unicode="&#xa6;" horiz-adv-x="1085" d="M381 332h324v-694h-324v694zM381 684v762h324v-762h-324z" />
<glyph unicode="&#xa7;" horiz-adv-x="1122" d="M78 471q0 115 63.5 200t227.5 191q-114 72 -154.5 132.5t-40.5 158.5q0 152 114 232.5t328 80.5q105 0 334 -47v-166q-152 33 -274 33q-104 0 -152.5 -26.5t-48.5 -83.5q0 -44 24.5 -72t98.5 -66l158 -82q170 -91 232.5 -173t62.5 -216q0 -117 -63 -202t-228 -191 q113 -69 154.5 -130.5t41.5 -160.5q0 -152 -114 -232.5t-328 -80.5q-119 0 -334 49v164q168 -33 275 -33q104 0 152 27t48 84q0 44 -24.5 71.5t-98.5 65.5l-157 84q-172 91 -234.5 172.5t-62.5 216.5zM356 530q0 -67 36.5 -114.5t127.5 -100.5l92 -51q86 60 123 116.5 t37 127.5q0 66 -37.5 115t-126.5 98l-94 53q-86 -61 -122 -117t-36 -127z" />
<glyph unicode="&#xa8;" horiz-adv-x="1085" d="M205 1341q0 144 141 144q135 0 135 -137q0 -66 -35.5 -103t-101.5 -37q-139 0 -139 133zM604 1341q0 144 141 144q66 0 101 -35t35 -102q0 -66 -36 -103t-102 -37q-139 0 -139 133z" />
<glyph unicode="&#xa9;" horiz-adv-x="1646" d="M68 723q0 152 59.5 290t160.5 237.5t240.5 158.5t292.5 59q154 0 294 -59t241 -158.5t161 -237.5t60 -290t-60 -290t-161 -238t-241 -159t-294 -59q-153 0 -292.5 59t-240.5 159t-160.5 238t-59.5 290zM207 723q0 -167 82.5 -308.5t224 -223.5t307.5 -82q167 0 309 82 t225 223.5t83 308.5t-83 308.5t-225 223.5t-309 82t-308.5 -82t-223.5 -223.5t-82 -308.5zM438 702q0 215 121 340t328 125q80 0 231 -43v-123q-100 23 -174 23q-152 0 -226.5 -76t-74.5 -231q0 -289 283 -289q87 0 192 21v-127q-189 -41 -268 -41q-201 0 -306.5 108 t-105.5 313z" />
<glyph unicode="&#xaa;" horiz-adv-x="608" d="M37 612v138h536v-138h-536zM59 1032q0 150 156 174q54 11 172 11v43q0 38 -21.5 54.5t-72.5 16.5q-86 0 -184 -16v92q160 39 237 39q110 0 157.5 -47.5t47.5 -157.5v-377h-160v35q-94 -43 -155 -43q-78 0 -127.5 48.5t-49.5 127.5zM227 1044q0 -75 92 -75q24 0 68 8v149 q-101 -4 -130.5 -19.5t-29.5 -62.5z" />
<glyph unicode="&#xab;" horiz-adv-x="839" d="M78 543l145 415h197l-139 -415l139 -414h-197zM403 543l148 415h194l-139 -415l139 -414h-194z" />
<glyph unicode="&#xac;" horiz-adv-x="1085" d="M72 336v285h940v-621h-316v336h-624z" />
<glyph unicode="&#xad;" horiz-adv-x="710" d="M86 442v230h539v-230h-539z" />
<glyph unicode="&#xae;" horiz-adv-x="1601" d="M68 723q0 196 98 362.5t266.5 263.5t366.5 97q200 0 368.5 -97t266.5 -263.5t98 -362.5t-98 -362.5t-266.5 -263.5t-368.5 -97q-198 0 -366.5 97t-266.5 263.5t-98 362.5zM195 723q0 -123 48 -235t129 -193.5t193 -129.5t234 -48q165 0 304.5 81t220.5 220.5t81 304.5 q0 164 -81 303.5t-220.5 221t-304.5 81.5q-164 0 -303.5 -81.5t-220 -221t-80.5 -303.5zM483 293v868h285q175 0 248.5 -51t73.5 -172q0 -94 -46.5 -149.5t-146.5 -81.5l272 -414h-235l-236 393h-24v-393h-191zM674 791h69q140 0 140 124q0 65 -31.5 93t-103.5 28h-74v-245z " />
<glyph unicode="&#xaf;" horiz-adv-x="1085" d="M248 1276v174h590v-174h-590z" />
<glyph unicode="&#xb0;" horiz-adv-x="815" d="M102 1090q0 128 90.5 218.5t217.5 90.5q131 0 218 -89.5t87 -222.5q0 -131 -88 -221t-217 -90q-130 0 -219 91t-89 223zM217 1081q0 -74 56.5 -131t129.5 -57q84 0 139.5 54.5t55.5 137.5q0 85 -54 141t-136 56q-80 0 -135.5 -58.5t-55.5 -142.5z" />
<glyph unicode="&#xb1;" horiz-adv-x="1120" d="M20 737v113h484v500h112v-500h484v-113h-484v-475h-112v475h-484zM23 0v113h1069v-113h-1069z" />
<glyph unicode="&#xb2;" horiz-adv-x="751" d="M53 580v153q139 101 275 225q82 73 108.5 117.5t26.5 106.5q0 69 -44.5 101t-139.5 32t-211 -29v129q187 45 288 45q158 0 241 -63.5t83 -184.5q0 -90 -44.5 -162t-160.5 -169q-116 -93 -199 -148h404v-153h-627z" />
<glyph unicode="&#xb3;" horiz-adv-x="751" d="M45 610v129q123 -30 225 -30q201 0 201 129q0 63 -44 93t-138 30h-58v137h39q162 0 162 112q0 54 -36.5 78.5t-119.5 24.5q-78 0 -192 -27v125q181 47 258 47q148 0 224.5 -54.5t76.5 -158.5q0 -79 -37 -127t-125 -82q103 -17 152 -68.5t49 -144.5q0 -121 -98.5 -189.5 t-272.5 -68.5q-92 0 -266 45z" />
<glyph unicode="&#xb4;" horiz-adv-x="1085" d="M326 1278l319 305l170 -162l-397 -229z" />
<glyph unicode="&#xb5;" horiz-adv-x="1175" d="M68 -305q0 41 4.5 67t29.5 123q25 95 25 156v979h180v-676q0 -106 49.5 -165.5t137.5 -59.5q66 0 119.5 35t107.5 112v754h180v-752q0 -84 27.5 -135t72.5 -51q37 0 66 40t35 101l55 -2q-22 -121 -85.5 -184.5t-160.5 -63.5q-76 0 -119.5 44.5t-68.5 146.5 q-164 -191 -315 -191q-52 0 -95 20.5t-106 74.5q0 -61 4 -90.5t20 -83.5q39 -138 39 -189q0 -69 -28 -110t-74 -41q-43 0 -71.5 40.5t-28.5 100.5z" />
<glyph unicode="&#xb6;" horiz-adv-x="1226" d="M59 1065q0 110 50 197t139 131q101 53 303 53h577v-139h-114v-1770h-172v1770h-191v-1770h-172v1155h-33q-170 0 -278.5 104.5t-108.5 268.5z" />
<glyph unicode="&#xb7;" horiz-adv-x="600" d="M117 545q0 89 46.5 135.5t135.5 46.5q178 0 178 -178q0 -89 -46.5 -135.5t-135.5 -46.5q-178 0 -178 178z" />
<glyph unicode="&#xb8;" horiz-adv-x="1085" d="M487 -340q57 26 78 51t21 66q0 82 -80 100v123h147v-68q135 -25 135 -157q0 -78 -48 -122.5t-181 -88.5q-8 -4 -16 -6z" />
<glyph unicode="&#xb9;" horiz-adv-x="751" d="M106 1237v121q120 30 167 47t94 49h147v-876h-207v694q-145 -27 -201 -35z" />
<glyph unicode="&#xba;" horiz-adv-x="651" d="M37 1135q0 147 77.5 229t215.5 82q135 0 210.5 -77t75.5 -212q0 -145 -77.5 -227t-214.5 -82q-134 0 -210.5 77t-76.5 210zM59 612v138h537v-138h-537zM211 1149q0 -199 115 -199q116 0 116 197q0 196 -114 196q-117 0 -117 -194z" />
<glyph unicode="&#xbb;" horiz-adv-x="839" d="M92 129l139 414l-139 415h195l147 -415l-147 -414h-195zM418 129l139 414l-139 415h194l148 -415l-148 -414h-194z" />
<glyph unicode="&#xbc;" horiz-adv-x="1902" d="M106 1237v121q120 30 167 47t94 49h147v-876h-207v694q-145 -27 -201 -35zM324 0l1050 1446h205l-1049 -1446h-206zM1180 193v163l381 514h225v-530h86v-147h-86v-193h-197v193h-409zM1350 340h239v344z" />
<glyph unicode="&#xbd;" horiz-adv-x="1902" d="M106 1237v121q120 30 167 47t94 49h147v-876h-207v694q-145 -27 -201 -35zM324 0l1050 1446h205l-1049 -1446h-206zM1206 0v154q140 102 275 225q82 73 108.5 117t26.5 106q0 69 -44 101t-140 32q-95 0 -211 -26v127q190 45 288 45q158 0 241 -63.5t83 -184.5 q0 -91 -44.5 -163t-160.5 -167q-104 -87 -198 -149h403v-154h-627z" />
<glyph unicode="&#xbe;" horiz-adv-x="1902" d="M45 610v129q123 -30 225 -30q201 0 201 129q0 63 -44 93t-138 30h-58v137h39q162 0 162 112q0 54 -36.5 78.5t-119.5 24.5q-78 0 -192 -27v125q181 47 258 47q148 0 224.5 -54.5t76.5 -158.5q0 -79 -37 -127t-125 -82q103 -17 152 -68.5t49 -144.5q0 -121 -98.5 -189.5 t-272.5 -68.5q-92 0 -266 45zM324 0l1050 1446h205l-1049 -1446h-206zM1180 193v163l381 514h225v-530h84v-147h-84v-193h-197v193h-409zM1350 340h239v344z" />
<glyph unicode="&#xbf;" horiz-adv-x="999" d="M47 -55q0 99 45 185t148 185l127 119q39 36 51 62.5t12 76.5v72h256v-96q0 -65 -15 -101.5t-69 -97.5l-151 -172q-46 -53 -65 -96t-19 -94q0 -94 61.5 -137.5t194.5 -43.5q132 0 317 37v-188q-170 -43 -256 -58.5t-158 -15.5q-479 0 -479 363zM373 901q0 86 46.5 131 t137.5 45q180 0 180 -174q0 -86 -46.5 -131t-137.5 -45q-180 0 -180 174z" />
<glyph unicode="&#xc0;" horiz-adv-x="1329" d="M4 0l494 1446h348l477 -1446h-324l-131 424h-465l-124 -424h-275zM330 1767l170 170l331 -295l-94 -92zM459 621h352l-178 596z" />
<glyph unicode="&#xc1;" horiz-adv-x="1329" d="M4 0l494 1446h348l477 -1446h-324l-131 424h-465l-124 -424h-275zM449 1642l331 295l170 -170l-409 -217zM459 621h352l-178 596z" />
<glyph unicode="&#xc2;" horiz-adv-x="1329" d="M4 0l494 1446h348l477 -1446h-324l-133 432h-460l-127 -432h-275zM283 1634l381 301l380 -301l-73 -92l-307 144l-306 -144zM461 629h348l-176 588z" />
<glyph unicode="&#xc3;" horiz-adv-x="1329" d="M4 0l494 1446h348l477 -1446h-324l-133 432h-460l-127 -432h-275zM272 1694q105 128 150 163t102 35q51 0 129 -45l68 -39q66 -36 98 -36q29 0 53.5 14.5t102.5 79.5l80 -76q-109 -132 -151 -165.5t-99 -33.5q-50 0 -131 45l-68 37q-45 25 -62 32t-36 7q-27 0 -49.5 -13 t-83.5 -63q-2 -2 -5.5 -4.5t-8.5 -6.5t-9 -7zM461 629h348l-176 588z" />
<glyph unicode="&#xc4;" horiz-adv-x="1329" d="M4 0l494 1446h348l477 -1446h-324l-131 424h-465l-124 -424h-275zM315 1726q0 148 146 148q67 0 102 -35.5t35 -103.5q0 -69 -36.5 -106.5t-104.5 -37.5q-142 0 -142 135zM459 621h352l-178 596zM729 1726q0 148 145 148q67 0 102.5 -35.5t35.5 -103.5q0 -69 -37 -106.5 t-105 -37.5q-141 0 -141 135z" />
<glyph unicode="&#xc5;" horiz-adv-x="1329" d="M4 0l494 1446h348l477 -1446h-324l-133 432h-460l-127 -432h-275zM442 1741q0 92 60.5 146.5t163.5 54.5t162 -53.5t59 -145.5q0 -94 -59 -147.5t-160 -53.5q-106 0 -166 52.5t-60 146.5zM461 629h348l-176 588zM569 1743q0 -47 25 -72.5t70 -25.5q44 0 70 26t26 70 q0 47 -25 72.5t-71 25.5q-44 0 -69.5 -25.5t-25.5 -70.5z" />
<glyph unicode="&#xc6;" horiz-adv-x="1656" d="M-80 0l649 1446h1012v-205h-555v-430h438v-203h-438v-403h590v-205h-877v604h-301l-248 -604h-270zM516 795h223v536z" />
<glyph unicode="&#xc7;" horiz-adv-x="1218" d="M68 684q0 362 196 570t537 208q125 0 373 -69v-185q-131 35 -277 35q-258 0 -385 -132.5t-127 -399.5q0 -504 481 -504q144 0 308 35v-191q-237 -54 -367 -65q-10 -2 -59 -2v-54q66 -12 101.5 -52t35.5 -103q0 -79 -60 -133q-26 -23 -54 -36t-118 -44l-16 -4l-55 100 q59 28 79.5 52t20.5 67q0 79 -82 98v117q-256 32 -394 211.5t-138 480.5z" />
<glyph unicode="&#xc8;" horiz-adv-x="1079" d="M135 0v1446h862v-205h-553v-391h439v-205h-439v-440h588v-205h-897zM250 1767l170 170l332 -295l-95 -92z" />
<glyph unicode="&#xc9;" horiz-adv-x="1079" d="M135 0v1446h862v-205h-553v-391h439v-205h-439v-440h588v-205h-897zM330 1642l332 295l169 -170l-409 -217z" />
<glyph unicode="&#xca;" horiz-adv-x="1079" d="M129 0v1446h862v-205h-553v-391h439v-205h-439v-440h588v-205h-897zM158 1634l383 301l379 -301l-74 -92l-305 144l-308 -144z" />
<glyph unicode="&#xcb;" horiz-adv-x="1079" d="M135 0v1446h862v-205h-553v-391h439v-205h-439v-440h588v-205h-897zM211 1726q0 148 145 148q67 0 102.5 -35.5t35.5 -103.5q0 -69 -37 -106.5t-105 -37.5q-72 0 -106.5 33t-34.5 102zM625 1726q0 148 145 148q67 0 102 -35.5t35 -103.5q0 -69 -36.5 -106.5t-104.5 -37.5 q-141 0 -141 135z" />
<glyph unicode="&#xcc;" horiz-adv-x="577" d="M-33 1767l170 170l332 -295l-94 -92zM133 0v1446h309v-1446h-309z" />
<glyph unicode="&#xcd;" horiz-adv-x="577" d="M78 1642l332 295l170 -170l-410 -217zM133 0v1446h309v-1446h-309z" />
<glyph unicode="&#xce;" horiz-adv-x="577" d="M-70 1647l361 288l356 -288l-69 -91l-287 130l-287 -130zM135 0v1446h309v-1446h-309z" />
<glyph unicode="&#xcf;" horiz-adv-x="577" d="M-43 1726q0 148 145 148q67 0 102.5 -35.5t35.5 -103.5q0 -69 -37 -106.5t-105 -37.5q-72 0 -106.5 33t-34.5 102zM133 0v1446h309v-1446h-309zM334 1726q0 148 145 148q67 0 102 -35.5t35 -103.5q0 -69 -36.5 -106.5t-104.5 -37.5q-72 0 -106.5 33t-34.5 102z" />
<glyph unicode="&#xd0;" horiz-adv-x="1449" d="M0 657v197h143v592h445q212 0 309 -17t186 -69q299 -178 299 -606q0 -245 -90 -416.5t-264 -259.5q-86 -44 -188 -61t-281 -17h-416v657h-143zM451 205h133q246 0 364.5 128.5t118.5 395.5q0 342 -193 457q-54 31 -118 43t-170 12h-135v-387h227v-197h-227v-452z" />
<glyph unicode="&#xd1;" horiz-adv-x="1445" d="M135 0v1446h410l524 -1139v1139h242v-1446h-398l-534 1159v-1159h-244zM332 1694q106 129 149.5 163.5t100.5 34.5q50 0 131 -45l67 -39q63 -36 99 -36q27 0 51 14.5t104 79.5l80 -76q-109 -132 -151.5 -165.5t-100.5 -33.5q-48 0 -129 45l-67 37q-44 25 -62 32t-37 7 q-28 0 -49.5 -12.5t-83.5 -63.5q-3 -2 -10.5 -8.5t-11.5 -9.5z" />
<glyph unicode="&#xd2;" horiz-adv-x="1490" d="M68 702q0 359 179.5 563.5t495.5 204.5q328 0 503 -187.5t175 -539.5q0 -359 -180 -563.5t-496 -204.5q-327 0 -502 188.5t-175 538.5zM385 719q0 -269 87.5 -400t268.5 -131q180 0 271.5 137t91.5 406q0 266 -88 396t-268 130q-179 0 -271 -136.5t-92 -401.5zM403 1767 l170 170l332 -295l-94 -92z" />
<glyph unicode="&#xd3;" horiz-adv-x="1490" d="M68 702q0 359 179.5 563.5t495.5 204.5q328 0 503 -187.5t175 -539.5q0 -359 -180 -563.5t-496 -204.5q-327 0 -502 188.5t-175 538.5zM385 719q0 -269 87.5 -400t268.5 -131q180 0 271.5 137t91.5 406q0 266 -88 396t-268 130q-179 0 -271 -136.5t-92 -401.5zM532 1642 l332 295l170 -170l-409 -217z" />
<glyph unicode="&#xd4;" horiz-adv-x="1490" d="M68 702q0 359 179.5 563.5t495.5 204.5q328 0 503 -187.5t175 -539.5q0 -359 -180 -563.5t-496 -204.5q-327 0 -502 188.5t-175 538.5zM365 1634l383 301l378 -301l-73 -92l-305 144l-308 -144zM385 719q0 -269 87.5 -400t268.5 -131q180 0 271.5 137t91.5 406 q0 266 -88 396t-268 130q-179 0 -271 -136.5t-92 -401.5z" />
<glyph unicode="&#xd5;" horiz-adv-x="1490" d="M68 702q0 359 179.5 563.5t495.5 204.5q328 0 503 -187.5t175 -539.5q0 -359 -180 -563.5t-496 -204.5q-327 0 -502 188.5t-175 538.5zM354 1694q106 129 149.5 163.5t100.5 34.5q50 0 131 -45l68 -39q63 -36 98 -36q28 0 52 14.5t104 79.5l80 -76 q-109 -132 -151.5 -165.5t-100.5 -33.5q-48 0 -129 45l-68 37q-45 25 -62 32t-36 7q-28 0 -50 -12.5t-83 -63.5q-3 -2 -23 -18zM385 719q0 -269 87.5 -400t268.5 -131q180 0 271.5 137t91.5 406q0 266 -88 396t-268 130q-179 0 -271 -136.5t-92 -401.5z" />
<glyph unicode="&#xd6;" horiz-adv-x="1490" d="M68 702q0 359 179.5 563.5t495.5 204.5q328 0 503 -187.5t175 -539.5q0 -359 -180 -563.5t-496 -204.5q-327 0 -502 188.5t-175 538.5zM385 719q0 -269 87.5 -400t268.5 -131q180 0 271.5 137t91.5 406q0 266 -88 396t-268 130q-179 0 -271 -136.5t-92 -401.5zM397 1726 q0 148 146 148q67 0 102 -35.5t35 -103.5q0 -69 -36.5 -106.5t-104.5 -37.5q-142 0 -142 135zM811 1726q0 148 145 148q67 0 102.5 -35.5t35.5 -103.5q0 -69 -37 -106.5t-105 -37.5q-141 0 -141 135z" />
<glyph unicode="&#xd7;" horiz-adv-x="1081" d="M59 1094l136 137l352 -350l344 346l129 -129l-346 -348l350 -351l-135 -135l-350 350l-349 -346l-129 129l349 346z" />
<glyph unicode="&#xd8;" horiz-adv-x="1490" d="M68 702q0 359 179.5 563.5t495.5 204.5q206 0 359 -75l69 108h162l-121 -186q209 -191 209 -574q0 -359 -180 -563.5t-496 -204.5q-106 0 -188 18t-168 60l-72 -108h-159l121 186q-109 98 -160 237t-51 334zM385 719q0 -214 55 -344l527 809q-91 73 -217 73 q-180 0 -272.5 -136.5t-92.5 -401.5zM522 262q51 -40 101.5 -57t117.5 -17q180 0 271.5 137t91.5 406q0 210 -55 340z" />
<glyph unicode="&#xd9;" horiz-adv-x="1378" d="M115 512v934h309v-954q0 -159 69 -230.5t222 -71.5q154 0 220 74t66 244v938h265v-875q0 -188 -24 -277.5t-95 -164.5q-145 -158 -453 -158q-302 0 -440.5 129t-138.5 412zM399 1767l170 170l332 -295l-94 -92z" />
<glyph unicode="&#xda;" horiz-adv-x="1378" d="M115 512v934h309v-954q0 -159 69 -230.5t222 -71.5q154 0 220 74t66 244v938h265v-875q0 -188 -24 -277.5t-95 -164.5q-145 -158 -453 -158q-302 0 -440.5 129t-138.5 412zM479 1642l332 295l170 -170l-410 -217z" />
<glyph unicode="&#xdb;" horiz-adv-x="1378" d="M115 512v934h309v-954q0 -159 69 -230.5t222 -71.5q154 0 220 74t66 244v938h265v-875q0 -188 -24 -277.5t-95 -164.5q-145 -158 -453 -158q-302 0 -440.5 129t-138.5 412zM311 1634l383 301l379 -301l-74 -92l-305 144l-307 -144z" />
<glyph unicode="&#xdc;" horiz-adv-x="1368" d="M109 514v934h309v-954q0 -158 68.5 -229.5t222.5 -71.5t220 73.5t66 243.5v938h265v-875q0 -188 -24 -277.5t-95 -164.5q-145 -158 -453 -158q-302 0 -440.5 129t-138.5 412zM336 1726q0 148 145 148q67 0 102 -35.5t35 -103.5q0 -69 -36.5 -106.5t-104.5 -37.5 q-72 0 -106.5 33t-34.5 102zM750 1726q0 148 145 148q67 0 102 -35.5t35 -103.5q0 -69 -36.5 -106.5t-104.5 -37.5q-141 0 -141 135z" />
<glyph unicode="&#xdd;" horiz-adv-x="1214" d="M-20 1446h342l325 -666l305 666h293l-473 -895v-551h-309v535zM406 1642l331 295l170 -170l-409 -217z" />
<glyph unicode="&#xde;" horiz-adv-x="1181" d="M135 0v1446h309v-137h142q172 0 256 -16.5t151 -63.5q160 -115 160 -346q0 -239 -144 -355t-440 -116h-125v-412h-309zM444 596h131q132 0 196.5 66.5t64.5 203.5q0 132 -62 195t-194 63h-136v-528z" />
<glyph unicode="&#xdf;" horiz-adv-x="1357" d="M129 0v981q0 163 10.5 223.5t48.5 120.5q57 89 185 136.5t311 47.5q526 0 526 -292q0 -79 -45 -138t-149 -118l-105 -58q-48 -27 -68 -50.5t-20 -55.5q0 -41 22 -61.5t111 -61.5l156 -72q100 -46 146.5 -114.5t46.5 -168.5q0 -158 -110 -247.5t-304 -89.5q-131 0 -348 59 v162q155 -37 301 -37q172 0 172 110q0 33 -18 57t-58 44l-170 82q-117 57 -167 124t-50 165q0 86 42 146.5t146 123.5l74 45q60 37 84.5 68.5t24.5 72.5q0 66 -58.5 100.5t-169.5 34.5q-211 0 -254 -122q-9 -25 -11.5 -57t-2.5 -126v-1034h-299z" />
<glyph unicode="&#xe0;" horiz-adv-x="1087" d="M68 307q0 298 340 328q129 12 272 12v88q0 78 -43 112t-141 34q-153 0 -336 -33v158q285 71 434 71q192 0 283 -82q49 -43 69.5 -110t20.5 -187v-698h-279v68q-119 -49 -179.5 -65.5t-119.5 -16.5q-146 0 -233.5 87.5t-87.5 233.5zM256 1423l170 162l319 -305l-92 -86z M365 332q0 -152 180 -152q62 0 135 17v297q-124 -5 -168 -11q-147 -21 -147 -151z" />
<glyph unicode="&#xe1;" horiz-adv-x="1087" d="M68 307q0 298 340 328q129 12 272 12v88q0 78 -43 112t-141 34q-153 0 -336 -33v158q285 71 434 71q192 0 283 -82q49 -43 69.5 -110t20.5 -187v-698h-279v68q-119 -49 -179.5 -65.5t-119.5 -16.5q-146 0 -233.5 87.5t-87.5 233.5zM346 1280l320 305l170 -162l-398 -229z M365 332q0 -152 180 -152q62 0 135 17v297q-124 -5 -168 -11q-147 -21 -147 -151z" />
<glyph unicode="&#xe2;" horiz-adv-x="1087" d="M68 307q0 298 340 328q129 12 272 12v88q0 78 -43 112t-141 34q-153 0 -336 -33v158q285 71 434 71q192 0 283 -82q49 -43 69.5 -110t20.5 -187v-698h-279v68q-119 -49 -179.5 -65.5t-119.5 -16.5q-146 0 -233.5 87.5t-87.5 233.5zM180 1284l373 309l371 -309l-70 -94 l-301 156l-301 -156zM365 332q0 -152 180 -152q62 0 135 17v297q-124 -5 -168 -11q-147 -21 -147 -151z" />
<glyph unicode="&#xe3;" horiz-adv-x="1087" d="M68 307q0 298 340 328q129 12 272 12v88q0 78 -43 112t-141 34q-153 0 -336 -33v158q285 71 434 71q192 0 283 -82q49 -43 69.5 -110t20.5 -187v-698h-279v68q-119 -49 -179.5 -65.5t-119.5 -16.5q-146 0 -233.5 87.5t-87.5 233.5zM166 1356q101 127 143.5 161.5 t98.5 34.5q27 0 51 -9t73 -36l66 -37q45 -26 60 -32t34 -6q27 0 46.5 11.5t82.5 65.5q1 0 4 2.5t8 7t9 7.5l78 -74q-105 -130 -146 -163.5t-96 -33.5q-27 0 -52 9t-73 36l-66 37q-47 27 -61.5 33t-32.5 6q-26 0 -44.5 -11t-84.5 -67l-20 -16zM365 332q0 -152 180 -152 q62 0 135 17v297q-124 -5 -168 -11q-147 -21 -147 -151z" />
<glyph unicode="&#xe4;" horiz-adv-x="1087" d="M68 307q0 298 340 328q129 12 272 12v88q0 78 -43 112t-141 34q-153 0 -336 -33v158q285 71 434 71q192 0 283 -82q49 -43 69.5 -110t20.5 -187v-698h-279v68q-119 -49 -179.5 -65.5t-119.5 -16.5q-146 0 -233.5 87.5t-87.5 233.5zM211 1341q0 144 141 144 q135 0 135 -137q0 -66 -35.5 -103t-101.5 -37q-139 0 -139 133zM365 332q0 -152 180 -152q62 0 135 17v297q-124 -5 -168 -11q-147 -21 -147 -151zM610 1341q0 144 142 144q135 0 135 -137q0 -66 -35.5 -103t-101.5 -37q-140 0 -140 133z" />
<glyph unicode="&#xe5;" horiz-adv-x="1087" d="M68 307q0 298 340 328q129 12 272 12v88q0 78 -43 112t-141 34q-153 0 -336 -33v158q285 71 434 71q192 0 283 -82q49 -43 69.5 -110t20.5 -187v-698h-279v68q-119 -49 -179.5 -65.5t-119.5 -16.5q-146 0 -233.5 87.5t-87.5 233.5zM338 1389q0 86 56 136t151 50t150 -49 t55 -135t-55 -136.5t-150 -50.5q-97 0 -152 49.5t-55 135.5zM365 332q0 -152 180 -152q62 0 135 17v297q-124 -5 -168 -11q-147 -21 -147 -151zM461 1391q0 -43 22 -67t62 -24q39 0 61.5 24.5t22.5 66.5q0 43 -22 66.5t-62 23.5t-62 -23.5t-22 -66.5z" />
<glyph unicode="&#xe6;" horiz-adv-x="1683" d="M68 305q0 283 321 324q94 11 289 14v98q0 72 -43 105t-137 33q-163 0 -338 -33v158q147 31 254 51t188 20q196 0 264 -102q123 102 310 102q325 0 407 -284q27 -95 27 -312h-660q0 -166 76 -234.5t260 -68.5q88 0 273 21v-154q-281 -61 -394 -61q-220 0 -342 116 q-114 -65 -198 -90.5t-181 -25.5q-175 0 -275.5 86t-100.5 237zM369 332q0 -76 43.5 -116t126.5 -40q72 0 139 23v288q-90 -2 -170 -10q-66 -9 -102.5 -47t-36.5 -98zM950 645h367q0 146 -42 208t-140 62q-185 0 -185 -270z" />
<glyph unicode="&#xe7;" horiz-adv-x="972" d="M72 510q0 261 149 412t406 151q112 0 299 -51v-170q-105 27 -219 27q-326 0 -326 -351q0 -175 81.5 -257.5t254.5 -82.5q105 0 209 19v-162q-148 -35 -209.5 -46.5t-122.5 -14.5v-52q135 -25 135 -157q0 -78 -48 -122.5t-181 -88.5q-2 -1 -17 -6l-55 102q58 26 79 51 t21 68q0 79 -82 98v119q-374 77 -374 514z" />
<glyph unicode="&#xe8;" horiz-adv-x="1099" d="M72 510q0 264 135.5 415.5t370.5 151.5q164 0 271 -72.5t150 -213.5q17 -52 23 -116.5t6 -199.5h-659q0 -163 77 -231t261 -68q105 0 272 21v-154q-278 -61 -391 -61q-251 0 -383.5 136t-132.5 392zM250 1423l170 162l319 -305l-92 -86zM369 641h366q0 154 -38.5 215.5 t-135.5 61.5q-100 0 -146 -67t-46 -210z" />
<glyph unicode="&#xe9;" horiz-adv-x="1099" d="M72 510q0 264 135.5 415.5t370.5 151.5q164 0 271 -72.5t150 -213.5q17 -52 23 -116.5t6 -199.5h-659q0 -163 77 -231t261 -68q105 0 272 21v-154q-278 -61 -391 -61q-251 0 -383.5 136t-132.5 392zM358 1280l320 305l170 -162l-397 -229zM369 641h366q0 154 -38.5 215.5 t-135.5 61.5q-100 0 -146 -67t-46 -210z" />
<glyph unicode="&#xea;" horiz-adv-x="1099" d="M72 510q0 264 135.5 415.5t370.5 151.5q164 0 271 -72.5t150 -213.5q17 -52 23 -116.5t6 -199.5h-659q0 -163 77 -231t261 -68q105 0 272 21v-154q-278 -61 -391 -61q-251 0 -383.5 136t-132.5 392zM184 1284l373 309l371 -309l-70 -94l-301 156l-301 -156zM369 641h366 q0 154 -38.5 215.5t-135.5 61.5q-100 0 -146 -67t-46 -210z" />
<glyph unicode="&#xeb;" horiz-adv-x="1099" d="M72 510q0 264 135.5 415.5t370.5 151.5q164 0 271 -72.5t150 -213.5q17 -52 23 -116.5t6 -199.5h-659q0 -163 77 -231t261 -68q105 0 272 21v-154q-278 -61 -391 -61q-251 0 -383.5 136t-132.5 392zM213 1341q0 144 141 144q135 0 135 -137q0 -66 -35.5 -103t-101.5 -37 q-139 0 -139 133zM369 641h366q0 154 -38.5 215.5t-135.5 61.5q-100 0 -146 -67t-46 -210zM612 1341q0 144 142 144q135 0 135 -137q0 -66 -35.5 -103t-101.5 -37q-140 0 -140 133z" />
<glyph unicode="&#xec;" horiz-adv-x="559" d="M2 1423l170 162l320 -305l-93 -86zM129 0v1057h299v-1057h-299z" />
<glyph unicode="&#xed;" horiz-adv-x="559" d="M61 1280l320 305l170 -162l-397 -229zM129 0v1057h299v-1057h-299z" />
<glyph unicode="&#xee;" horiz-adv-x="694" d="M0 1298l348 295l346 -295l-69 -90l-277 138l-278 -138zM197 0v1057h299v-1057h-299z" />
<glyph unicode="&#xef;" horiz-adv-x="559" d="M-43 1341q0 144 141 144q135 0 135 -137q0 -66 -35.5 -103t-101.5 -37q-139 0 -139 133zM129 0v1057h299v-1057h-299zM326 1341q0 144 141 144q135 0 135 -137q0 -66 -35.5 -103t-101.5 -37q-139 0 -139 133z" />
<glyph unicode="&#xf0;" horiz-adv-x="1200" d="M72 506q0 258 133.5 412.5t357.5 154.5q126 0 217 -65q-13 73 -66.5 150t-115.5 112l-170 -121l-80 100l121 86q-83 29 -205 29h-39v178h58q154 0 232 -12t163 -49l168 118l76 -102l-115 -82q158 -110 240.5 -303.5t82.5 -452.5q0 -327 -141.5 -505.5t-402.5 -178.5 q-241 0 -377.5 141.5t-136.5 389.5zM389 530q0 -372 213 -372q215 0 215 368q0 184 -53 278.5t-156 94.5q-219 0 -219 -369z" />
<glyph unicode="&#xf1;" horiz-adv-x="1210" d="M131 0v1057h291v-68q141 54 211 72t139 18q75 0 142.5 -28.5t105.5 -75.5q40 -50 56 -113.5t16 -175.5v-686h-299v659q0 114 -43.5 159.5t-149.5 45.5q-73 0 -170 -20v-844h-299zM231 1356q101 127 143.5 161.5t98.5 34.5q27 0 52 -9t73 -36l66 -37q45 -26 60 -32t34 -6 q27 0 46.5 11.5t82.5 65.5q1 0 3.5 2.5t7.5 7t9 7.5l78 -74q-105 -130 -146 -163.5t-96 -33.5q-27 0 -52 9t-73 36l-65 37q-47 27 -61.5 33t-32.5 6q-26 0 -44.5 -11t-84.5 -67q-1 0 -21 -16z" />
<glyph unicode="&#xf2;" horiz-adv-x="1204" d="M72 506q0 272 141.5 423.5t396.5 151.5q246 0 385.5 -141t139.5 -393q0 -269 -143 -420.5t-396 -151.5q-246 0 -385 141.5t-139 389.5zM313 1423l170 162l320 -305l-92 -86zM381 532q0 -380 221 -380q223 0 223 376q0 377 -221 377q-223 0 -223 -373z" />
<glyph unicode="&#xf3;" horiz-adv-x="1204" d="M72 506q0 272 141.5 423.5t396.5 151.5q246 0 385.5 -141t139.5 -393q0 -269 -143 -420.5t-396 -151.5q-246 0 -385 141.5t-139 389.5zM381 532q0 -380 221 -380q223 0 223 376q0 377 -221 377q-223 0 -223 -373zM410 1280l319 305l170 -162l-397 -229z" />
<glyph unicode="&#xf4;" horiz-adv-x="1204" d="M72 506q0 272 141.5 423.5t396.5 151.5q246 0 385.5 -141t139.5 -393q0 -269 -143 -420.5t-396 -151.5q-246 0 -385 141.5t-139 389.5zM231 1284l373 309l371 -309l-70 -94l-301 156l-301 -156zM381 532q0 -380 221 -380q223 0 223 376q0 377 -221 377q-223 0 -223 -373z " />
<glyph unicode="&#xf5;" horiz-adv-x="1204" d="M72 506q0 272 141.5 423.5t396.5 151.5q246 0 385.5 -141t139.5 -393q0 -269 -143 -420.5t-396 -151.5q-246 0 -385 141.5t-139 389.5zM225 1356q101 127 143.5 161.5t98.5 34.5q27 0 52 -9t73 -36l65 -37q45 -26 60.5 -32t34.5 -6q27 0 46.5 11.5t82.5 65.5q1 0 3.5 2.5 t7.5 7t9 7.5l78 -74q-105 -130 -146 -163.5t-96 -33.5q-27 0 -52 9t-73 36l-65 37q-47 27 -61.5 33t-32.5 6q-26 0 -44.5 -11t-84.5 -67q-1 0 -21 -16zM381 532q0 -380 221 -380q223 0 223 376q0 377 -221 377q-223 0 -223 -373z" />
<glyph unicode="&#xf6;" horiz-adv-x="1204" d="M72 506q0 272 141.5 423.5t396.5 151.5q246 0 385.5 -141t139.5 -393q0 -269 -143 -420.5t-396 -151.5q-246 0 -385 141.5t-139 389.5zM264 1341q0 144 142 144q135 0 135 -137q0 -66 -36 -103t-102 -37q-139 0 -139 133zM381 532q0 -380 221 -380q223 0 223 376 q0 377 -221 377q-223 0 -223 -373zM664 1341q0 144 141 144q135 0 135 -137q0 -66 -35.5 -103t-101.5 -37q-139 0 -139 133z" />
<glyph unicode="&#xf7;" horiz-adv-x="1120" d="M20 475v113h1074v-113h-1074zM430 117q0 52 37 89.5t88 37.5q53 0 90 -37t37 -90q0 -51 -37.5 -88t-89.5 -37q-51 0 -88 37t-37 88zM430 934q0 51 37 88t88 37q53 0 90 -36.5t37 -88.5t-37 -89.5t-90 -37.5q-51 0 -88 37.5t-37 89.5z" />
<glyph unicode="&#xf8;" horiz-adv-x="1204" d="M72 506q0 272 141.5 423.5t396.5 151.5q138 0 250 -47l51 76h140l-90 -137q84 -69 129 -179t45 -247q0 -269 -143 -420.5t-396 -151.5q-128 0 -252 50l-51 -78h-139l90 137q-172 146 -172 422zM381 532q0 -108 22 -204l340 522q-31 31 -61.5 43t-77.5 12 q-223 0 -223 -373zM461 209q34 -32 64.5 -44.5t76.5 -12.5q223 0 223 376q0 118 -24 203z" />
<glyph unicode="&#xf9;" horiz-adv-x="1210" d="M121 371v686h299v-660q0 -114 42.5 -159t149.5 -45q73 0 170 20v844h299v-1057h-293v68q-124 -52 -198.5 -71.5t-149.5 -19.5q-73 0 -141 29t-106 76q-40 50 -56 113t-16 176zM311 1423l170 162l320 -305l-92 -86z" />
<glyph unicode="&#xfa;" horiz-adv-x="1210" d="M121 371v686h299v-660q0 -114 42.5 -159t149.5 -45q73 0 170 20v844h299v-1057h-293v68q-124 -52 -198.5 -71.5t-149.5 -19.5q-73 0 -141 29t-106 76q-40 50 -56 113t-16 176zM414 1280l319 305l170 -162l-397 -229z" />
<glyph unicode="&#xfb;" horiz-adv-x="1210" d="M121 371v686h299v-660q0 -114 42.5 -159t149.5 -45q73 0 170 20v844h299v-1057h-293v68q-124 -52 -198.5 -71.5t-149.5 -19.5q-73 0 -141 29t-106 76q-40 50 -56 113t-16 176zM236 1284l372 309l371 -309l-70 -94l-301 156l-301 -156z" />
<glyph unicode="&#xfc;" horiz-adv-x="1210" d="M121 371v686h299v-660q0 -114 42.5 -159t149.5 -45q73 0 170 20v844h299v-1057h-293v68q-124 -52 -198.5 -71.5t-149.5 -19.5q-73 0 -141 29t-106 76q-40 50 -56 113t-16 176zM268 1341q0 144 142 144q135 0 135 -137q0 -66 -35.5 -103t-101.5 -37q-140 0 -140 133z M668 1341q0 144 141 144q135 0 135 -137q0 -66 -35.5 -103t-101.5 -37q-139 0 -139 133z" />
<glyph unicode="&#xfd;" horiz-adv-x="1081" d="M6 1057h334l238 -803l221 803h274l-444 -1247q-52 -148 -129.5 -210.5t-206.5 -62.5q-45 0 -156 27v166q43 -6 80 -6q81 0 118 26t66 103l33 88zM348 1278l320 305l170 -162l-398 -229z" />
<glyph unicode="&#xfe;" horiz-adv-x="1216" d="M129 -463v2048h299v-590q125 49 183 65.5t106 16.5q196 0 311 -140.5t115 -379.5q0 -248 -140.5 -409.5t-355.5 -161.5q-110 0 -219 49v-498h-299zM428 186q53 -12 109 -12q141 0 219 92.5t78 259.5q0 161 -70 247.5t-201 86.5q-66 0 -135 -14v-660z" />
<glyph unicode="&#xff;" horiz-adv-x="1081" d="M6 1057h334l238 -803l221 803h274l-444 -1247q-52 -148 -129.5 -210.5t-206.5 -62.5q-45 0 -156 27v166q43 -6 80 -6q81 0 118 26t66 103l33 88zM213 1341q0 144 141 144q135 0 135 -137q0 -66 -35.5 -103t-101.5 -37q-139 0 -139 133zM612 1341q0 144 142 144 q135 0 135 -137q0 -66 -35.5 -103t-101.5 -37q-140 0 -140 133z" />
<glyph unicode="&#x152;" horiz-adv-x="1937" d="M68 702q0 358 178 561t491 203q73 0 124 -11t140 -46v37h854v-205h-557v-391h441v-205h-441v-440h590v-205h-887v33q-135 -53 -280 -53q-309 0 -481 190t-172 532zM385 719q0 -266 88 -397.5t268 -131.5q95 0 152 32t104 114q0 2 4 10v758q-25 72 -90 111.5t-161 39.5 q-365 0 -365 -536z" />
<glyph unicode="&#x153;" horiz-adv-x="1828" d="M72 516q0 263 141.5 413t388.5 150q119 0 202.5 -32.5t168.5 -110.5q75 74 156.5 107.5t185.5 33.5q227 0 342 -145q58 -73 80 -159.5t22 -242.5q0 -32 -2 -57h-659q0 -162 75.5 -230.5t253.5 -68.5q115 0 279 21v-154q-170 -37 -248 -49t-143 -12q-115 0 -194.5 30 t-162.5 105q-102 -80 -180 -109t-194 -29q-246 0 -379 140.5t-133 398.5zM381 530q0 -376 221 -376q105 0 159 94t54 278q0 186 -53.5 281.5t-157.5 95.5q-223 0 -223 -373zM1098 639h366q0 155 -40.5 217t-141.5 62q-184 0 -184 -279z" />
<glyph unicode="&#x178;" horiz-adv-x="1214" d="M-20 1446h342l325 -666l305 666h293l-473 -895v-551h-309v535zM279 1726q0 148 145 148q67 0 102 -35.5t35 -103.5q0 -69 -36.5 -106.5t-104.5 -37.5q-72 0 -106.5 33t-34.5 102zM692 1726q0 148 146 148q67 0 102 -35.5t35 -103.5q0 -69 -36.5 -106.5t-104.5 -37.5 q-142 0 -142 135z" />
<glyph unicode="&#x2c6;" horiz-adv-x="1085" d="M172 1284l373 309l370 -309l-69 -94l-301 156l-301 -156z" />
<glyph unicode="&#x2dc;" horiz-adv-x="1085" d="M166 1356q101 127 143.5 161.5t98.5 34.5q27 0 51 -9t73 -36l66 -37q45 -26 60 -32t34 -6q27 0 46.5 11.5t82.5 65.5q1 0 4 2.5t8 7t9 7.5l78 -74q-105 -130 -146 -163.5t-96 -33.5q-27 0 -52 9t-73 36l-66 37q-47 27 -61.5 33t-32.5 6q-26 0 -44.5 -11t-84.5 -67 l-20 -16z" />
<glyph unicode="&#x2000;" horiz-adv-x="971" />
<glyph unicode="&#x2001;" horiz-adv-x="1942" />
<glyph unicode="&#x2002;" horiz-adv-x="971" />
<glyph unicode="&#x2003;" horiz-adv-x="1942" />
<glyph unicode="&#x2004;" horiz-adv-x="647" />
<glyph unicode="&#x2005;" horiz-adv-x="485" />
<glyph unicode="&#x2006;" horiz-adv-x="323" />
<glyph unicode="&#x2007;" horiz-adv-x="323" />
<glyph unicode="&#x2008;" horiz-adv-x="242" />
<glyph unicode="&#x2009;" horiz-adv-x="388" />
<glyph unicode="&#x200a;" horiz-adv-x="107" />
<glyph unicode="&#x2010;" horiz-adv-x="710" d="M86 442v230h539v-230h-539z" />
<glyph unicode="&#x2011;" horiz-adv-x="710" d="M86 442v230h539v-230h-539z" />
<glyph unicode="&#x2012;" horiz-adv-x="710" d="M86 442v230h539v-230h-539z" />
<glyph unicode="&#x2013;" horiz-adv-x="1157" d="M80 451v215h999v-215h-999z" />
<glyph unicode="&#x2014;" horiz-adv-x="1619" d="M0 465v186h1620v-186h-1620z" />
<glyph unicode="&#x2018;" horiz-adv-x="602" d="M115 1120q0 183 118 275q29 25 119 78l107 -117q-61 -41 -85 -74t-24 -76q60 0 97.5 -40.5t37.5 -106.5q0 -78 -46 -120t-132 -42q-99 0 -145.5 54t-46.5 169z" />
<glyph unicode="&#x2019;" horiz-adv-x="602" d="M115 1307q0 78 45.5 119.5t132.5 41.5q100 0 146 -53.5t46 -169.5q0 -125 -48.5 -196.5t-188.5 -155.5l-107 117q61 41 85 73.5t24 75.5q-60 -2 -97.5 39.5t-37.5 108.5z" />
<glyph unicode="&#x201a;" horiz-adv-x="602" d="M115 137q0 80 45 121t133 41q100 0 146 -53.5t46 -169.5q0 -125 -48 -196t-189 -156l-107 116q61 43 85 76t24 74q-60 0 -97.5 40.5t-37.5 106.5z" />
<glyph unicode="&#x201c;" horiz-adv-x="1044" d="M115 1120q0 183 118 275q29 25 119 78l107 -117q-61 -41 -85 -74t-24 -76q60 0 97.5 -40.5t37.5 -106.5q0 -78 -46 -120t-132 -42q-99 0 -145.5 54t-46.5 169zM557 1120q0 87 30.5 159t86.5 116q58 40 121 78l106 -117q-61 -41 -84.5 -74t-25.5 -76q62 0 99.5 -40.5 t37.5 -106.5q0 -78 -46 -120t-132 -42q-100 0 -146.5 54t-46.5 169z" />
<glyph unicode="&#x201d;" horiz-adv-x="1044" d="M115 1307q0 78 45.5 119.5t132.5 41.5q100 0 146 -53.5t46 -169.5q0 -125 -48.5 -196.5t-188.5 -155.5l-107 117q61 41 85 73.5t24 75.5q-60 -2 -97.5 39.5t-37.5 108.5zM557 1307q0 78 45.5 119.5t132.5 41.5q100 0 146.5 -54t46.5 -169q0 -88 -31 -159.5t-88 -114.5 q-38 -30 -119 -78l-106 117q60 41 83 73.5t25 75.5q-60 -2 -97.5 39.5t-37.5 108.5z" />
<glyph unicode="&#x201e;" horiz-adv-x="1044" d="M115 137q0 80 45 121t133 41q100 0 146 -53.5t46 -169.5q0 -125 -48 -196t-189 -156l-107 116q61 43 85 76t24 74q-60 0 -97.5 40.5t-37.5 106.5zM557 137q0 80 45 121t133 41q100 0 146.5 -54t46.5 -169q0 -88 -31 -159.5t-88 -115.5q-26 -19 -119 -77l-106 116 q59 42 82.5 75t25.5 75q-60 0 -97.5 40.5t-37.5 106.5z" />
<glyph unicode="&#x2022;" horiz-adv-x="1445" d="M426 737q0 125 88.5 213t214.5 88q123 0 211 -88.5t88 -212.5t-88 -212.5t-211 -88.5q-126 0 -214.5 88t-88.5 213z" />
<glyph unicode="&#x2026;" horiz-adv-x="1802" d="M117 156q0 89 46.5 135.5t135.5 46.5q178 0 178 -178q0 -183 -182 -183q-88 0 -133 45.5t-45 133.5zM717 156q0 89 46.5 135.5t135.5 46.5q178 0 178 -178q0 -183 -182 -183q-88 0 -133 45.5t-45 133.5zM1317 156q0 89 46.5 135.5t135.5 46.5q178 0 178 -178 q0 -89 -46.5 -136t-135.5 -47q-88 0 -133 45.5t-45 133.5z" />
<glyph unicode="&#x202f;" horiz-adv-x="388" />
<glyph unicode="&#x2039;" horiz-adv-x="581" d="M78 543l172 415h237l-139 -415l139 -414h-237z" />
<glyph unicode="&#x203a;" horiz-adv-x="581" d="M92 129l139 414l-139 415h238l172 -415l-172 -414h-238z" />
<glyph unicode="&#x205f;" horiz-adv-x="485" />
<glyph unicode="&#x2122;" horiz-adv-x="1835" d="M6 1317v129h678v-129h-238v-694h-204v694h-236zM778 623v823h289l203 -623l200 623h285v-823h-190v655l-211 -655h-205l-211 653v-653h-160z" />
<glyph unicode="&#x25fc;" horiz-adv-x="1054" d="M0 0v1055h1055v-1055h-1055z" />
<glyph unicode="&#xfb01;" horiz-adv-x="1232" d="M31 883v174h131v88q0 127 18.5 192t71.5 119q126 129 405 129q106 0 211 -16t176 -43q86 -30 86 -117q0 -65 -47 -101t-133 -36q-88 0 -133.5 36t-44.5 105q-31 4 -76 4q-130 0 -182.5 -50t-52.5 -173v-137h227v-174h-227v-883h-299v883h-131zM805 0v1057h299v-1057h-299 z" />
<glyph unicode="&#xfb02;" horiz-adv-x="1232" d="M31 883v174h131v102q0 127 22.5 193.5t83.5 120.5q124 112 369 112q158 0 467 -49v-1536h-299v1405q-54 10 -121 10q-122 0 -172.5 -50.5t-50.5 -172.5v-135h227v-174h-227v-883h-299v883h-131z" />
</font>
</defs>
</svg>
